<svg width="24" height="24" viewBox="0 0 24 24" fill="none" xmlns="http://www.w3.org/2000/svg">
<path d="M12.0576 22.25C14.2479 22.25 15.9683 22.2499 17.3115 22.0693C18.6882 21.8842 19.7805 21.4969 20.6387 20.6387C21.4969 19.7805 21.8842 18.6882 22.0693 17.3115C22.2499 15.9683 22.25 14.2479 22.25 12.0576V11.9424C22.25 9.75214 22.2499 8.03173 22.0693 6.68848C21.8842 5.31182 21.4969 4.21953 20.6387 3.36133C19.7805 2.50313 18.6882 2.11575 17.3115 1.93066C15.9683 1.75012 14.2479 1.74999 12.0576 1.75H11.9424C9.75214 1.74999 8.03173 1.75012 6.68848 1.93066C5.31182 2.11575 4.21953 2.50313 3.36133 3.36133C2.50313 4.21953 2.11575 5.31182 1.93066 6.68848C1.75012 8.03174 1.74999 9.75212 1.75 11.9424V12.0576C1.74999 14.2479 1.75012 15.9683 1.93066 17.3115C2.11575 18.6882 2.50313 19.7805 3.36133 20.6387C4.21953 21.4969 5.31182 21.8842 6.68848 22.0693C8.03174 22.2499 9.75212 22.25 11.9424 22.25H12.0576ZM7.00098 8.25C6.31062 8.25 5.75098 7.69036 5.75098 7C5.75098 6.30964 6.31062 5.75 7.00098 5.75H7.00977C7.70003 5.7501 8.25977 6.30971 8.25977 7C8.25977 7.69029 7.70003 8.2499 7.00977 8.25H7.00098ZM17.002 18C16.4498 17.9999 16.002 17.5522 16.002 17V13C16.002 11.8955 15.1064 11.0001 14.002 11C12.8975 11.0001 12.002 11.8955 12.002 13L12.002 17C12.002 17.5522 11.5541 17.9999 11.002 18C10.4498 17.9999 10.002 17.5522 10.002 17L10.002 10C10.002 9.44778 10.4498 9.0001 11.002 9C11.4072 9.00008 11.7561 9.24134 11.9131 9.58789C12.5209 9.21507 13.2366 9.00004 14.002 9C16.211 9.0001 18.002 10.7909 18.002 13V17C18.002 17.5522 17.5541 17.9999 17.002 18ZM7.00195 18C6.44976 17.9999 6.00195 17.5522 6.00195 17L6.00195 10.5C6.00195 9.94778 6.44976 9.5001 7.00195 9.5C7.55415 9.5001 8.00195 9.94778 8.00195 10.5L8.00195 17C8.00195 17.5522 7.55415 17.9999 7.00195 18Z" fill="#007EBB"/>
</svg>
