<svg width="19" height="13" viewBox="0 0 19 13" fill="none" xmlns="http://www.w3.org/2000/svg">
<g clip-path="url(#clip0_5060_6732)">
<path d="M0 2.0295V4H2.97033L0 2.0295ZM2.46156 13H6.86111V10.0815L2.46156 13ZM12.1389 10.082V13H16.5379L12.1389 10.082ZM0 9V10.9705L2.97139 9H0ZM16.539 0H12.1389V2.9185L16.539 0ZM19 10.971V9H16.0281L19 10.971ZM19 4V2.0295L16.0291 4H19ZM6.86111 0H2.46156L6.86111 2.9185V0Z" fill="#00247D"/>
<path d="M13.3019 9.02231L18.4729 12.4532C18.7254 12.2067 18.9069 11.9029 19 11.5709L15.1585 9.02231H13.3019ZM6.83808 9.02231H5.69814L0.527645 12.4527C0.805044 12.72 1.16071 12.9112 1.55951 13L6.83808 9.49802V9.02231ZM12.1624 3.97769H13.3024L18.4729 0.547342C18.1907 0.27608 17.8331 0.0862764 17.4416 0L12.1624 3.50198V3.97769ZM5.69814 3.97769L0.527645 0.547342C0.275245 0.794011 0.0936101 1.09773 0 1.42965L3.84153 3.97769H5.69814Z" fill="#CF1B2B"/>
<path d="M19 8H11.0833V13H12.1389V10.082L16.5379 13H16.8889C17.1693 13 17.4469 12.947 17.7053 12.8441C17.9638 12.7411 18.198 12.5903 18.3941 12.4005L13.2683 9H15.1087L18.9166 11.526C18.9657 11.3575 19 11.183 19 11V10.971L16.0281 9H19V8ZM0 8V9H2.97139L0 10.9705V11C0 11.5455 0.231694 12.039 0.605889 12.4L5.73114 9H6.86111V9.4715L1.62872 12.942C1.78389 12.977 1.94433 13 2.11111 13H2.46156L6.86111 10.0815V13H7.91667V8H0ZM19 2C19.0003 1.47599 18.7826 0.972977 18.3941 0.6L13.2689 4H12.1389V3.5285L17.3718 0.0575001C17.2137 0.0207637 17.0517 0.00146903 16.8889 1.89189e-07H16.539L12.1389 2.9185V1.89189e-07H11.0833V5H19V4H16.0291L19 2.0295V2ZM6.86111 1.89189e-07V2.9185L2.46156 1.89189e-07H2.11111C1.83066 -0.000115586 1.55302 0.0529067 1.29452 0.155948C1.03602 0.258989 0.801887 0.409967 0.605889 0.6L5.73114 4H3.89078L0.0828611 1.4745C0.0304951 1.64535 0.00262486 1.82211 0 2L0 2.0295L2.97033 4H0V5H7.91667V1.89189e-07H6.86111Z" fill="#EEEEEE"/>
<path d="M11.0833 5V0H7.91667V5H0V8H7.91667V13H11.0833V8H19V5H11.0833Z" fill="#CF1B2B"/>
</g>
<defs>
<clipPath id="clip0_5060_6732">
<rect width="19" height="13" fill="white"/>
</clipPath>
</defs>
</svg>
