<svg width="18" height="27" viewBox="0 0 18 27" fill="none" xmlns="http://www.w3.org/2000/svg">
<path fill-rule="evenodd" clip-rule="evenodd" d="M9 0C9.82843 0 10.5 0.671573 10.5 1.5L10.5 25.5C10.5 26.3285 9.82843 27 9 27C8.17158 27 7.5 26.3285 7.5 25.5L7.5 1.5C7.5 0.671573 8.17157 8.9407e-08 9 0Z" fill="url(#paint0_linear_4629_5539)"/>
<path d="M9 3.04179C8.76785 3.18175 8.35067 3.47513 7.9876 3.79594C7.26484 4.43455 6.43927 5.31465 5.64158 6.2334C4.85036 7.1447 4.11547 8.0604 3.57656 8.75096C3.30773 9.09545 2.85865 9.68992 2.70781 9.88963C2.21653 10.5566 1.2776 10.699 0.610591 10.2078C-0.0564565 9.71654 -0.19896 8.77754 0.292302 8.11049L0.296506 8.10492C0.460084 7.88835 0.934366 7.26042 1.21151 6.90529C1.77002 6.1896 2.53955 5.23029 3.37627 4.26659C4.20651 3.31033 5.1324 2.31543 6.00117 1.5478C6.43384 1.1655 6.88769 0.807843 7.33591 0.537636C7.74293 0.292263 8.33519 2.45144e-05 8.99995 0C9.6647 2.45144e-05 10.2571 0.292263 10.6641 0.537636C11.1123 0.807843 11.5662 1.1655 11.9988 1.5478C12.8676 2.31543 13.7935 3.31033 14.6237 4.26659C15.4605 5.23029 16.23 6.1896 16.7885 6.90529C17.0656 7.26042 17.5396 7.88794 17.7032 8.10452L17.7077 8.11049C18.199 8.77754 18.0565 9.71654 17.3894 10.2078C16.7224 10.699 15.7835 10.5566 15.2922 9.88962C15.1414 9.68992 14.6923 9.09545 14.4234 8.75096C13.8845 8.0604 13.1496 7.1447 12.3584 6.2334C11.5607 5.31465 10.7352 4.43455 10.0124 3.79594C9.64933 3.47513 9.23215 3.18175 9 3.04179Z" fill="url(#paint1_linear_4629_5539)"/>
<defs>
<linearGradient id="paint0_linear_4629_5539" x1="9" y1="0" x2="9" y2="27" gradientUnits="userSpaceOnUse">
<stop stop-color="#3198A0"/>
<stop offset="1" stop-color="#51F909"/>
</linearGradient>
<linearGradient id="paint1_linear_4629_5539" x1="9" y1="0" x2="9" y2="10.5001" gradientUnits="userSpaceOnUse">
<stop stop-color="#3198A0"/>
<stop offset="1" stop-color="#51F909"/>
</linearGradient>
</defs>
</svg>
