<svg width="30" height="30" viewBox="0 0 30 30" fill="none" xmlns="http://www.w3.org/2000/svg">
<path d="M15 1.5625C22.4213 1.5625 28.4375 7.57867 28.4375 15C28.4375 22.4213 22.4213 28.4375 15 28.4375C7.57867 28.4375 1.5625 22.4213 1.5625 15C1.5625 7.57867 7.57867 1.5625 15 1.5625ZM11.25 20C10.5596 20 10 20.5596 10 21.25C10 21.9404 10.5596 22.5 11.25 22.5H18.75C19.4404 22.5 20 21.9404 20 21.25C20 20.5596 19.4404 20 18.75 20H11.25ZM15 7.5C14.3096 7.5 13.75 8.05964 13.75 8.75V12.6602H13.0381C12.9477 12.6599 12.7676 12.6597 12.6084 12.6826C12.4649 12.7033 11.8215 12.8085 11.5244 13.4766C11.2275 14.1445 11.5801 14.6929 11.6611 14.8135C11.7508 14.947 11.8718 15.0805 11.9326 15.1475L11.9492 15.166L12.7891 16.0957C13.0641 16.4006 13.3484 16.7165 13.6191 16.9453C13.9262 17.2048 14.3816 17.5 15 17.5C15.6184 17.5 16.0738 17.2048 16.3809 16.9453C16.6516 16.7165 16.9359 16.4006 17.2109 16.0957L18.0508 15.166L18.0674 15.1475C18.1282 15.0805 18.2492 14.947 18.3389 14.8135C18.4199 14.6929 18.7725 14.1445 18.4756 13.4766C18.1785 12.8086 17.5351 12.7033 17.3916 12.6826C17.2324 12.6597 17.0523 12.6599 16.9619 12.6602H16.25V8.75C16.25 8.05964 15.6904 7.5 15 7.5Z" fill="#666666"/>
</svg>
