<svg width="30" height="30" viewBox="0 0 30 30" fill="none" xmlns="http://www.w3.org/2000/svg">
<path fill-rule="evenodd" clip-rule="evenodd" d="M6.94836 12.7604C5.59521 12.7604 5.31281 13.0182 5.31281 14.2535L5.31281 16.4931C5.31281 17.7283 5.59521 17.9861 6.94836 17.9861H10.2195L10.2195 26.9444C10.2195 28.1797 10.5019 28.4375 11.855 28.4375L15.1261 28.4375C16.4793 28.4375 16.7617 28.1797 16.7617 26.9444L16.7617 17.9861H20.4346C21.4609 17.9861 21.7253 17.804 22.0072 16.9032L22.7082 14.6636C23.1912 13.1206 22.8936 12.7604 21.1356 12.7604H16.7617L16.7617 9.02778C16.7617 8.20319 17.4939 7.53472 18.3972 7.53472L23.0523 7.53472C24.4054 7.53472 24.6878 7.27692 24.6878 6.04167V3.05556C24.6878 1.8203 24.4054 1.5625 23.0523 1.5625L18.3972 1.5625C13.8808 1.5625 10.2195 4.90482 10.2195 9.02778L10.2195 12.7604L6.94836 12.7604Z" fill="#0067FF"/>
</svg>
