<svg width="30" height="30" viewBox="0 0 30 30" fill="none" xmlns="http://www.w3.org/2000/svg">
<path d="M20.8484 9.0625C21.9213 9.06249 22.7848 9.0626 23.4852 9.12109C24.2068 9.18138 24.8356 9.30853 25.4188 9.6084C26.1167 9.9673 26.716 10.488 27.1609 11.1279C27.5353 11.6664 27.7333 12.2681 27.869 12.9619C27.9999 13.6316 28.0858 14.4636 28.1922 15.4883L28.202 15.5801C28.3297 16.8105 28.4324 17.8025 28.4373 18.6045C28.4423 19.43 28.3467 20.1605 28.0037 20.832C27.6012 21.62 26.9803 22.2787 26.2156 22.7373C25.5693 23.1248 24.84 23.2868 23.9959 23.3633C23.4957 23.4086 22.9194 23.4256 22.2557 23.4326L22.2537 23.4316C22.324 23.7523 22.3834 24.0411 22.4246 24.2998C22.5012 24.7807 22.5385 25.266 22.4422 25.7588C22.2279 26.8553 21.5513 27.8249 20.5565 28.3516C20.0989 28.5938 19.6163 28.6775 19.1512 28.7148C18.7065 28.7505 18.1622 28.75 17.534 28.75H12.4666C11.8382 28.75 11.2933 28.7505 10.8484 28.7148C10.3833 28.6775 9.90068 28.5938 9.44318 28.3516C8.4484 27.8248 7.77173 26.8552 7.55743 25.7588C7.46114 25.2661 7.49841 24.7806 7.57501 24.2998C7.61621 24.0412 7.67375 23.7521 7.74396 23.4316C7.08034 23.4246 6.5038 23.4086 6.00372 23.3633C5.15983 23.2868 4.43117 23.1248 3.78497 22.7373C3.02013 22.2787 2.39852 21.6202 1.99591 20.832C1.65297 20.1605 1.55731 19.43 1.56232 18.6045C1.56722 17.8025 1.67088 16.8106 1.79865 15.5801L1.80743 15.4883C1.91383 14.4634 2.00067 13.6317 2.13165 12.9619C2.26733 12.2682 2.46438 11.6663 2.83868 11.1279C3.2836 10.488 3.88302 9.96733 4.58087 9.6084C5.16396 9.30856 5.79289 9.18138 6.51447 9.12109C7.21483 9.06259 8.07841 9.06249 9.15118 9.0625H20.8484ZM12.5145 21.25C11.5556 21.25 11.4031 21.2697 11.3016 21.3076C11.0954 21.3847 10.897 21.5428 10.7547 21.7803C10.6712 21.9196 10.6071 22.1301 10.3787 23.1211C10.2125 23.8426 10.1028 24.3228 10.0438 24.6934C9.9857 25.0579 9.99745 25.2072 10.0115 25.2793C10.0916 25.6889 10.3327 25.9941 10.6131 26.1426C10.6341 26.1537 10.7258 26.1968 11.0486 26.2227C11.3814 26.2493 11.8247 26.25 12.5145 26.25H17.4861C18.1755 26.25 18.6184 26.2493 18.951 26.2227C19.2726 26.1968 19.365 26.1539 19.3865 26.1426C19.667 25.9941 19.909 25.689 19.9891 25.2793C20.0032 25.2072 20.0139 25.058 19.9559 24.6934C19.8968 24.3228 19.7872 23.8426 19.6209 23.1211C19.3925 22.1299 19.3284 21.9196 19.2449 21.7803C19.1026 21.5427 18.9043 21.3847 18.6981 21.3076C18.6219 21.2792 18.5174 21.2611 18.0652 21.2539L17.4861 21.25H12.5145ZM22.494 13.75C21.8069 13.7502 21.2498 14.3098 21.2498 15C21.2498 15.6902 21.8069 16.2498 22.494 16.25H22.5057C23.1929 16.25 23.7498 15.6903 23.7498 15C23.7498 14.3097 23.1929 13.75 22.5057 13.75H22.494Z" fill="#666666"/>
<path d="M16.3152 1.5625C17.4382 1.56247 18.3747 1.56244 19.1182 1.66239C19.9029 1.7679 20.6114 1.99999 21.1808 2.56933C21.7501 3.13866 21.9822 3.84716 22.0877 4.63191C22.1425 5.03924 22.1672 5.87974 22.1784 6.74119C22.183 7.09913 22.1854 7.27811 22.075 7.38971C21.9646 7.50131 21.7834 7.50098 21.4211 7.5003C21.2526 7.49999 21.0807 7.5 20.9057 7.5H9.0945C8.91948 7.5 8.74759 7.49999 8.57905 7.5003C8.21671 7.50098 8.03554 7.50131 7.92517 7.38971C7.8148 7.2781 7.81712 7.09913 7.82177 6.74119C7.83295 5.87974 7.8577 5.03924 7.91247 4.63191C8.01797 3.84716 8.25006 3.13866 8.8194 2.56933C9.38874 1.99999 10.0972 1.7679 10.882 1.66239C11.6254 1.56244 12.562 1.56247 13.6851 1.5625H16.3152Z" fill="#666666"/>
</svg>
