<svg width="27" height="27" viewBox="0 0 27 27" fill="none" xmlns="http://www.w3.org/2000/svg">
<path d="M13.4375 0C20.8588 0 26.875 6.01617 26.875 13.4375C26.875 20.8588 20.8588 26.875 13.4375 26.875C6.01617 26.875 0 20.8588 0 13.4375C0 6.01617 6.01617 0 13.4375 0ZM7.1875 6.25C6.83544 6.25 6.51281 6.44728 6.35254 6.76074C6.19234 7.07418 6.22164 7.45096 6.42773 7.73633L11.2021 14.3477L6.52441 19.0244C6.1583 19.3905 6.1583 19.9845 6.52441 20.3506C6.89053 20.7167 7.48447 20.7167 7.85059 20.3506L12.3135 15.8867L15.4551 20.2363C15.6312 20.4803 15.914 20.6249 16.2148 20.625H19.6875C20.0396 20.625 20.3622 20.4277 20.5225 20.1143C20.6827 19.8008 20.6534 19.424 20.4473 19.1387L15.6729 12.5273L20.3506 7.85059C20.7167 7.48447 20.7167 6.89053 20.3506 6.52441C19.9845 6.1583 19.3905 6.1583 19.0244 6.52441L14.5615 10.9883L11.4199 6.63867C11.2438 6.39475 10.961 6.25014 10.6602 6.25H7.1875Z" fill="#0DCAF0"/>
</svg>
