<svg width="30" height="30" viewBox="0 0 30 30" fill="none" xmlns="http://www.w3.org/2000/svg">
<path d="M15 28.4375C22.4213 28.4375 28.4375 22.4213 28.4375 15C28.4375 7.57867 22.4213 1.5625 15 1.5625C7.57868 1.56251 1.5625 7.57868 1.5625 15C1.56251 16.8511 1.93741 18.6174 2.61621 20.2246C2.79411 20.6458 2.91398 20.9306 2.99414 21.1494C3.07584 21.3725 3.08741 21.4537 3.08887 21.4746C3.09699 21.592 3.06782 21.7516 2.86523 22.5088L1.59473 27.2578C1.50822 27.5812 1.60018 27.9263 1.83691 28.1631C2.07365 28.3998 2.41877 28.4918 2.74219 28.4053L7.49121 27.1348C8.24836 26.9322 8.40803 26.903 8.52539 26.9111C8.54636 26.9126 8.62759 26.9242 8.85059 27.0059C9.06942 27.086 9.35418 27.2059 9.77539 27.3838C11.3826 28.0626 13.1489 28.4375 15 28.4375ZM20.0195 22.1309C19.4368 22.2528 18.9929 22.1526 18.5186 22.0449L18.4531 22.0303C16.0479 21.4871 13.6897 20.217 11.7363 18.2637C9.78281 16.3102 8.51287 13.9513 7.96973 11.5459L7.95508 11.4805C7.84741 11.006 7.74611 10.5624 7.86816 9.97949C7.9572 9.55424 8.18288 9.15885 8.42773 8.85254C8.67255 8.54631 9.00824 8.2391 9.40332 8.05859C9.94729 7.81012 10.501 7.81149 11.1006 7.8125H11.2158C11.4912 7.8125 11.9551 7.82144 12.3838 8C12.8959 8.21341 13.3186 8.6527 13.4268 9.3418L13.4277 9.34961C13.5616 10.2039 13.6637 10.8532 13.7305 11.3125C13.7639 11.5423 13.7897 11.7336 13.8066 11.8828C13.8206 12.0055 13.8383 12.1744 13.8301 12.3154C13.7942 12.9272 13.5454 13.4141 13.2871 13.791C13.1228 14.0308 12.9026 14.2912 12.7295 14.4961C12.6616 14.5764 12.6009 14.6484 12.5537 14.707L12.3535 14.9551C12.1165 15.2495 11.9986 15.3973 12.001 15.5771C12.0034 15.7569 12.1188 15.8939 12.3506 16.167C12.5742 16.4304 12.8115 16.6874 13.0615 16.9375C13.3117 17.1876 13.5695 17.4248 13.833 17.6484C14.1062 17.8803 14.243 17.9967 14.4229 17.999C14.6026 18.0012 14.7498 17.8824 15.0439 17.6455L15.292 17.4463C15.3507 17.399 15.4224 17.3375 15.5029 17.2695C15.7079 17.0964 15.9691 16.8763 16.209 16.7119C16.5859 16.4536 17.0728 16.2057 17.6846 16.1699C17.8257 16.1617 17.9946 16.1794 18.1172 16.1934C18.2664 16.2103 18.4577 16.2361 18.6875 16.2695C19.1468 16.3363 19.7963 16.4374 20.6504 16.5713L20.6572 16.5732C21.3465 16.6813 21.7866 17.103 22 17.6152C22.1786 18.0439 22.1865 18.5077 22.1865 18.7832L22.1875 18.8994C22.1885 19.4989 22.1888 20.0518 21.9404 20.5957C21.7599 20.9908 21.4537 21.3274 21.1475 21.5723C20.8411 21.8171 20.4448 22.0418 20.0195 22.1309Z" fill="#00FF09"/>
</svg>
