<svg width="24" height="24" viewBox="0 0 24 24" fill="none" xmlns="http://www.w3.org/2000/svg">
<path d="M16.6787 7.25C17.5369 7.24999 18.2278 7.25008 18.7881 7.29688C19.3654 7.3451 19.8685 7.44665 20.335 7.68652C20.8933 7.97363 21.3725 8.39046 21.7285 8.90234C22.0279 9.33299 22.1864 9.81427 22.2949 10.3691C22.3997 10.9049 22.4686 11.5708 22.5537 12.3906L22.5615 12.4639C22.6637 13.4479 22.746 14.2413 22.75 14.8828C22.754 15.5432 22.6776 16.1278 22.4033 16.665C22.0813 17.2956 21.5845 17.8235 20.9727 18.1904C20.4556 18.5005 19.8715 18.6293 19.1963 18.6904C18.7963 18.7267 18.3355 18.7405 17.8047 18.7461L17.8027 18.7451C17.8589 19.0015 17.9065 19.2325 17.9395 19.4395C18.0007 19.8241 18.0311 20.2132 17.9541 20.6074C17.7826 21.4845 17.2411 22.2603 16.4453 22.6816C16.0794 22.8754 15.6933 22.9418 15.3213 22.9717C14.9655 23.0002 14.5299 23 14.0273 23H9.97266C9.47009 23 9.0345 23.0002 8.67871 22.9717C8.30668 22.9418 7.92064 22.8753 7.55469 22.6816C6.75887 22.2603 6.21742 21.4845 6.0459 20.6074C5.96885 20.2132 5.99926 19.8241 6.06055 19.4395C6.09352 19.2326 6.14012 19.0015 6.19629 18.7451L6.19531 18.7461C5.66454 18.7405 5.20372 18.7267 4.80371 18.6904C4.12845 18.6293 3.54439 18.5005 3.02734 18.1904C2.41547 17.8235 1.91873 17.2956 1.59668 16.665C1.32239 16.1278 1.24597 15.5432 1.25 14.8828C1.25396 14.2413 1.33628 13.4481 1.43848 12.4639L1.44629 12.3906C1.53141 11.5707 1.60029 10.905 1.70508 10.3691C1.81362 9.81427 1.9721 9.33299 2.27148 8.90234C2.62746 8.39046 3.10672 7.97363 3.66504 7.68652C4.13154 7.44665 4.6346 7.3451 5.21191 7.29688C5.77222 7.25008 6.46306 7.24999 7.32129 7.25H16.6787ZM9.54785 17.0029C9.18678 17.0087 9.10289 17.0232 9.04199 17.0459C8.87696 17.1075 8.71742 17.2338 8.60352 17.4238C8.53671 17.5353 8.48645 17.704 8.30371 18.4971C8.1707 19.0743 8.08238 19.4584 8.03516 19.7549C7.98874 20.0464 7.99753 20.166 8.00879 20.2236C8.07288 20.5512 8.26593 20.7953 8.49023 20.9141C8.50682 20.9228 8.57992 20.9577 8.83887 20.9785C9.10504 20.9999 9.45989 21 10.0117 21H13.9883C14.5401 21 14.895 20.9999 15.1611 20.9785C15.4201 20.9577 15.4932 20.9228 15.5098 20.9141C15.7341 20.7953 15.9271 20.5512 15.9912 20.2236C16.0025 20.166 16.0113 20.0464 15.9648 19.7549C15.9176 19.4584 15.8293 19.0743 15.6963 18.4971C15.5135 17.704 15.4623 17.5353 15.3955 17.4238C15.2816 17.234 15.1229 17.1075 14.958 17.0459C14.8768 17.0157 14.7544 17 13.9883 17H10.0117C9.82009 17 9.66833 17.001 9.54785 17.0029ZM17.9951 11C17.4455 11.0002 17 11.4479 17 12C17 12.5521 17.4455 12.9998 17.9951 13H18.0049C18.5545 12.9998 19 12.5521 19 12C19 11.4479 18.5545 11.0002 18.0049 11H17.9951Z" fill="#666666"/>
<path d="M13.0521 1.25C13.9506 1.24997 14.6998 1.24995 15.2945 1.32992C15.9223 1.41432 16.4891 1.59999 16.9446 2.05546C17.4001 2.51093 17.5857 3.07773 17.6702 3.70552C17.714 4.03139 17.7338 4.70379 17.7427 5.39295C17.7464 5.67931 17.7483 5.82248 17.66 5.91177C17.5717 6.00105 17.4268 6.00078 17.1369 6.00024C17.0021 5.99999 16.8645 6 16.7245 6H7.2756C7.13558 6 6.99807 5.99999 6.86324 6.00024C6.57337 6.00078 6.42843 6.00105 6.34014 5.91177C6.25184 5.82248 6.2537 5.67931 6.25742 5.39295C6.26636 4.70379 6.28616 4.03139 6.32997 3.70552C6.41438 3.07773 6.60005 2.51093 7.05552 2.05546C7.51099 1.59999 8.07779 1.41432 8.70558 1.32992C9.30035 1.24995 10.0496 1.24997 10.9481 1.25H13.0521Z" fill="#666666"/>
</svg>
