<svg width="51" height="29" viewBox="0 0 51 29" fill="none" xmlns="http://www.w3.org/2000/svg">
<path d="M25.6041 5.37091C25.6041 5.37091 24.9304 0 25.6041 0C26.3151 0 25.6041 5.37091 25.6041 5.37091Z" fill="#F8C422"/>
<path d="M24.418 5.37054C24.418 5.37054 22.2596 1.68194 22.8882 1.43633C23.5506 1.17725 24.418 5.37054 24.418 5.37054Z" fill="#F8C422"/>
<path d="M23.0304 5.98618C23.0304 5.98618 19.7753 1.67357 20.3592 1.33462C20.9748 0.977687 23.0304 5.98618 23.0304 5.98618Z" fill="#F8C422"/>
<path d="M22.0044 6.58358C22.0044 6.58358 18.3009 4.47445 18.723 3.9463C19.1678 3.38819 22.0044 6.58358 22.0044 6.58358Z" fill="#F8C422"/>
<path d="M21.1112 7.81265C21.1112 7.81265 16.1476 5.714 16.4852 5.12694C16.8407 4.50843 21.1112 7.81265 21.1112 7.81265Z" fill="#F8C422"/>
<path d="M20.5184 8.84614C20.5184 8.84614 16.2623 8.88109 16.3651 8.21116C16.4734 7.50529 20.5184 8.84614 20.5184 8.84614Z" fill="#F8C422"/>
<path d="M20.3557 10.3607C20.3557 10.3607 15.0137 11.0386 15.0137 10.3607C15.0142 9.64583 20.3557 10.3607 20.3557 10.3607Z" fill="#F8C422"/>
<path d="M20.3556 11.5537C20.3556 11.5537 16.6874 13.7237 16.4431 13.0918C16.1854 12.4258 20.3556 11.5537 20.3556 11.5537Z" fill="#F8C422"/>
<path d="M20.9664 12.9473C20.9664 12.9473 16.6776 16.22 16.3404 15.6325C15.9849 15.014 20.9664 12.9473 20.9664 12.9473Z" fill="#F8C422"/>
<path d="M29.8086 13.1982C29.8086 13.1982 34.7717 15.2969 34.4346 15.8834C34.0796 16.502 29.8086 13.1982 29.8086 13.1982Z" fill="#F8C422"/>
<path d="M30.4043 12.1644C30.4043 12.1644 34.6604 12.1289 34.5576 12.7994C34.4499 13.5052 30.4043 12.1644 30.4043 12.1644Z" fill="#F8C422"/>
<path d="M30.5664 10.6497C30.5664 10.6497 35.9084 9.97229 35.9084 10.6497C35.9084 11.3646 30.5664 10.6497 30.5664 10.6497Z" fill="#F8C422"/>
<path d="M30.5664 9.45729C30.5664 9.45729 34.2351 7.28676 34.4789 7.91925C34.7366 8.58468 30.5664 9.45729 30.5664 9.45729Z" fill="#F8C422"/>
<path d="M29.957 8.0643C29.957 8.0643 34.2459 4.79203 34.583 5.37909C34.9376 5.9976 29.957 8.0643 29.957 8.0643Z" fill="#F8C422"/>
<path d="M29.3613 7.02878C29.3613 7.02878 31.4591 3.30524 31.9849 3.73006C32.539 4.17685 29.3613 7.02878 29.3613 7.02878Z" fill="#F8C422"/>
<path d="M28.1367 6.13145C28.1367 6.13145 30.2236 1.14143 30.8075 1.48039C31.4226 1.83781 28.1367 6.13145 28.1367 6.13145Z" fill="#F8C422"/>
<path d="M27.1116 5.53411C27.1116 5.53411 27.0769 1.25495 27.7432 1.35829C28.4453 1.46711 27.1116 5.53411 27.1116 5.53411Z" fill="#F8C422"/>
<path d="M2.76508 29.0006C2.76508 29.0006 10.3811 23.2987 24.9389 26.9294C22.0283 25.1627 10.6711 21.7991 0 26.6568C1.50096 28.0266 2.76508 29.0006 2.76508 29.0006Z" fill="#F8C422"/>
<path d="M2.52149 22.9865C2.52149 22.9865 11.2432 19.211 24.5702 26.1299C22.1452 23.7343 11.8698 17.8197 0.371094 20.0631C1.51556 21.7445 2.52149 22.9865 2.52149 22.9865Z" fill="#F8C422"/>
<path d="M47.6347 29.0006C47.6347 29.0006 40.0187 23.2987 25.4609 26.9294C28.3715 25.1627 39.7287 21.7991 50.3993 26.6568C48.8988 28.0266 47.6347 29.0006 47.6347 29.0006Z" fill="#F8C422"/>
<path opacity="0.8" d="M47.8787 22.9865C47.8787 22.9865 39.157 19.211 25.8301 26.1299C28.255 23.7343 38.5299 17.8197 50.0296 20.0631C48.8847 21.7445 47.8787 22.9865 47.8787 22.9865Z" fill="#F8C422"/>
<path d="M27.0704 14.2524L25.418 11.375L23.7656 14.2524C24.2517 14.5359 24.8162 14.6987 25.418 14.6987C26.0198 14.6987 26.5838 14.5359 27.0704 14.2524Z" fill="black"/>
<path d="M29.6295 18.711L27.3962 14.8223C26.8133 15.1617 26.1365 15.3574 25.4161 15.3574C24.6951 15.3574 24.0199 15.1617 23.4365 14.8223L21.2891 18.5613C22.4454 19.037 23.9891 19.3326 25.6564 19.3326C27.141 19.3321 28.5272 19.0974 29.6295 18.711Z" fill="#F8C422"/>
<path d="M25.093 19.9813C24.7902 19.9694 24.4898 19.9489 24.1934 19.9189V23.6355C24.5553 24.0738 24.8572 24.4762 25.093 24.8291V19.9813Z" fill="#F8C422"/>
<path d="M26.7264 19.9531C26.4284 19.9756 26.1276 19.9866 25.8262 19.9901V24.108C26.0849 23.773 26.3857 23.4106 26.7264 23.0287V19.9531Z" fill="#F8C422"/>
<path d="M29.6326 20.2094V19.4072C28.9717 19.6214 28.2349 19.7786 27.4668 19.876V22.2357C28.0919 21.5897 28.8168 20.9048 29.6326 20.2094Z" fill="#F8C422"/>
<path d="M23.4549 22.7904V19.8231C22.6763 19.7008 21.9415 19.5146 21.2891 19.2695V20.6638C22.1212 21.4036 22.8461 22.1245 23.4549 22.7904Z" fill="#F8C422"/>
<path d="M3.27344 13.1484C14.9475 14.1149 23.2497 22.6023 24.9398 25.5681C13.9703 15.2835 4.55792 16.548 4.55792 16.548C4.55792 16.548 3.92387 15.0789 3.27344 13.1484ZM47.1285 13.1484C35.455 14.1149 27.1523 22.6023 25.4621 25.5681C36.4321 15.284 45.8445 16.548 45.8445 16.548C45.8445 16.548 46.478 15.0789 47.1285 13.1484Z" fill="#F8C422"/>
</svg>
