<svg width="60" height="60" viewBox="0 0 60 60" fill="none" xmlns="http://www.w3.org/2000/svg">
<path d="M10 58H50C54.4183 58 58 54.4183 58 50V2H2V50C2 54.4183 5.58172 58 10 58Z" fill="white"/>
<path d="M10 58H50C54.4183 58 58 54.4183 58 50V2H2V50C2 54.4183 5.58172 58 10 58Z" stroke="#005312" stroke-width="4"/>
<path d="M30.3217 22.3056C30.3217 22.3056 29.7869 18.043 30.3217 18.043C30.886 18.043 30.3217 22.3056 30.3217 22.3056Z" fill="#F8C422"/>
<path d="M29.3794 22.3053C29.3794 22.3053 27.6664 19.3779 28.1653 19.183C28.691 18.9774 29.3794 22.3053 29.3794 22.3053Z" fill="#F8C422"/>
<path d="M28.2792 22.794C28.2792 22.794 25.6957 19.3714 26.1592 19.1023C26.6478 18.8191 28.2792 22.794 28.2792 22.794Z" fill="#F8C422"/>
<path d="M27.465 23.268C27.465 23.268 24.5256 21.5941 24.8606 21.175C25.2137 20.732 27.465 23.268 27.465 23.268Z" fill="#F8C422"/>
<path d="M26.7549 24.2435C26.7549 24.2435 22.8154 22.5779 23.0834 22.112C23.3655 21.6211 26.7549 24.2435 26.7549 24.2435Z" fill="#F8C422"/>
<path d="M26.2842 25.0634C26.2842 25.0634 22.9062 25.0911 22.9878 24.5594C23.0737 23.9992 26.2842 25.0634 26.2842 25.0634Z" fill="#F8C422"/>
<path d="M26.1558 26.2658C26.1558 26.2658 21.916 26.8038 21.916 26.2658C21.9164 25.6985 26.1558 26.2658 26.1558 26.2658Z" fill="#F8C422"/>
<path d="M26.1554 27.2129C26.1554 27.2129 23.244 28.9351 23.0501 28.4335C22.8456 27.905 26.1554 27.2129 26.1554 27.2129Z" fill="#F8C422"/>
<path d="M26.641 28.3184C26.641 28.3184 23.2371 30.9158 22.9695 30.4495C22.6873 29.9586 26.641 28.3184 26.641 28.3184Z" fill="#F8C422"/>
<path d="M33.6582 28.5176C33.6582 28.5176 37.5973 30.1832 37.3297 30.6487C37.048 31.1396 33.6582 28.5176 33.6582 28.5176Z" fill="#F8C422"/>
<path d="M34.1309 27.6975C34.1309 27.6975 37.5088 27.6694 37.4272 28.2015C37.3417 28.7617 34.1309 27.6975 34.1309 27.6975Z" fill="#F8C422"/>
<path d="M34.2598 26.4948C34.2598 26.4948 38.4995 25.9572 38.4995 26.4948C38.4995 27.0621 34.2598 26.4948 34.2598 26.4948Z" fill="#F8C422"/>
<path d="M34.2598 25.5487C34.2598 25.5487 37.1715 23.8261 37.365 24.328C37.5695 24.8561 34.2598 25.5487 34.2598 25.5487Z" fill="#F8C422"/>
<path d="M33.7754 24.4429C33.7754 24.4429 37.1794 21.8459 37.4469 22.3118C37.7283 22.8027 33.7754 24.4429 33.7754 24.4429Z" fill="#F8C422"/>
<path d="M33.3027 23.6214C33.3027 23.6214 34.9677 20.6662 35.385 21.0034C35.8248 21.358 33.3027 23.6214 33.3027 23.6214Z" fill="#F8C422"/>
<path d="M32.332 22.9095C32.332 22.9095 33.9883 18.9492 34.4517 19.2182C34.94 19.5019 32.332 22.9095 32.332 22.9095Z" fill="#F8C422"/>
<path d="M31.5178 22.4347C31.5178 22.4347 31.4902 19.0386 32.0191 19.1206C32.5763 19.207 31.5178 22.4347 31.5178 22.4347Z" fill="#F8C422"/>
<path d="M12.1946 41.0594C12.1946 41.0594 18.2392 36.5341 29.7932 39.4156C27.4832 38.0135 18.4693 35.344 10 39.1993C11.1913 40.2864 12.1946 41.0594 12.1946 41.0594Z" fill="#F8C422"/>
<path d="M12.0016 36.2862C12.0016 36.2862 18.9238 33.2898 29.501 38.781C27.5764 36.8797 19.4211 32.1856 10.2949 33.9661C11.2032 35.3005 12.0016 36.2862 12.0016 36.2862Z" fill="#F8C422"/>
<path d="M47.8057 41.0594C47.8057 41.0594 41.7611 36.5341 30.207 39.4156C32.5171 38.0135 41.531 35.344 49.9999 39.1993C48.809 40.2864 47.8057 41.0594 47.8057 41.0594Z" fill="#F8C422"/>
<path opacity="0.8" d="M47.9994 36.2862C47.9994 36.2862 41.0772 33.2898 30.5 38.781C32.4246 36.8797 40.5795 32.1856 49.7065 33.9661C48.7978 35.3005 47.9994 36.2862 47.9994 36.2862Z" fill="#F8C422"/>
<path d="M31.4842 29.3539L30.1728 27.0703L28.8613 29.3539C29.2471 29.579 29.6952 29.7081 30.1728 29.7081C30.6504 29.7081 31.0981 29.579 31.4842 29.3539Z" fill="black"/>
<path d="M33.516 32.893L31.7435 29.8066C31.2809 30.076 30.7438 30.2314 30.172 30.2314C29.5998 30.2314 29.0639 30.076 28.6008 29.8066L26.8965 32.7741C27.8143 33.1517 29.0394 33.3862 30.3627 33.3862C31.541 33.3858 32.6412 33.1996 33.516 32.893Z" fill="#F8C422"/>
<path d="M29.9152 33.9011C29.6748 33.8916 29.4364 33.8753 29.2012 33.8516V36.8012C29.4884 37.149 29.728 37.4684 29.9152 37.7485V33.9011Z" fill="#F8C422"/>
<path d="M31.2125 33.8789C30.9761 33.8967 30.7372 33.9055 30.498 33.9082V37.1764C30.7034 36.9105 30.9422 36.6229 31.2125 36.3198V33.8789Z" fill="#F8C422"/>
<path d="M33.5178 34.082V33.4453C32.9932 33.6153 32.4085 33.7401 31.7988 33.8173V35.6901C32.295 35.1775 32.8703 34.6339 33.5178 34.082Z" fill="#F8C422"/>
<path d="M28.6154 36.1303V33.7753C27.9975 33.6782 27.4143 33.5305 26.8965 33.3359V34.4425C27.5569 35.0296 28.1323 35.6017 28.6154 36.1303Z" fill="#F8C422"/>
<path d="M12.5977 28.4785C21.863 29.2455 28.4522 35.9815 29.7936 38.3353C21.0875 30.173 13.6171 31.1766 13.6171 31.1766C13.6171 31.1766 13.1139 30.0106 12.5977 28.4785ZM47.4041 28.4785C38.1392 29.2455 31.5496 35.9815 30.2082 38.3353C38.9147 30.1734 46.385 31.1766 46.385 31.1766C46.385 31.1766 46.8879 30.0106 47.4041 28.4785Z" fill="#F8C422"/>
</svg>
