<svg width="42" height="26" viewBox="0 0 42 26" fill="none" xmlns="http://www.w3.org/2000/svg">
<path d="M17.543 14.3496C18.9794 12.8087 21.3913 12.7223 22.9336 14.1543V14.1533C23.344 14.5359 23.6493 14.9887 23.8525 15.4746C23.7732 15.3895 23.6901 15.306 23.6035 15.2256C21.6724 13.4325 18.6594 13.5272 16.8447 15.4277C17.0123 15.0383 17.2447 14.6721 17.5439 14.3506L17.543 14.3496Z" fill="white" stroke="#005312"/>
<path d="M13.3242 17.8184C14.7158 16.3255 17.0234 16.1975 18.5684 17.4932L18.7148 17.623C19.1266 18.0059 19.4327 18.4588 19.6357 18.9453C19.5559 18.8594 19.4721 18.7754 19.3848 18.6943C17.4536 16.9012 14.4407 16.9959 12.626 18.8965C12.7935 18.5071 13.026 18.1409 13.3252 17.8193L13.3242 17.8184Z" fill="white" stroke="#005312"/>
<path d="M21.7617 17.8184C23.1533 16.3255 25.4609 16.1975 27.0059 17.4932L27.1523 17.623C27.5641 18.0059 27.8702 18.4588 28.0732 18.9453C27.9934 18.8594 27.9096 18.7754 27.8223 18.6943C25.8911 16.9012 22.8782 16.9959 21.0635 18.8965C21.231 18.5071 21.4635 18.1409 21.7627 17.8193L21.7617 17.8184Z" fill="white" stroke="#005312"/>
<path d="M16.1134 18.8086L16.8 19.9163L16.1134 21.0133L15.4375 19.9163L16.1134 18.8086Z" fill="#F7BA2A"/>
<path d="M24.5509 18.8086L25.2402 19.9163L24.5509 21.0133L23.875 19.9163L24.5509 18.8086Z" fill="#F7BA2A"/>
<path d="M20.3192 15.3379L21.0058 16.4456L20.3192 17.5426L19.6406 16.4456L20.3192 15.3379Z" fill="#F7BA2A"/>
<path d="M16.1905 24.3085L16.1184 24.773C16.1184 24.773 16.1184 24.781 16.1157 24.7836C15.9314 24.5167 15.5093 24.2658 14.8494 24.063C13.1021 23.5291 10.3663 23.5532 8.73928 24.1164C8.19694 24.3032 7.84695 24.5461 7.68398 24.7783C7.68398 24.7783 7.68131 24.7596 7.67863 24.7516C7.65459 24.6288 7.63322 24.5061 7.62253 24.3806C7.62253 24.3806 7.61986 24.3566 7.61719 24.3459C7.63322 24.2952 7.65726 24.2418 7.69199 24.1911C7.71604 24.1537 7.74543 24.1164 7.78016 24.079C7.82825 24.0256 7.88702 23.9722 7.95649 23.9215C7.96183 23.9188 7.9645 23.9162 7.96985 23.9108C7.96985 23.9108 7.96984 23.9108 7.97252 23.9108C8.1622 23.772 8.42135 23.6412 8.75531 23.5265C10.385 22.9633 13.1208 22.9393 14.8681 23.4731C15.2848 23.6012 15.6081 23.7507 15.8379 23.9082C15.8379 23.9082 15.8405 23.9082 15.8432 23.9108C15.8486 23.9135 15.8512 23.9162 15.8566 23.9188C16.0276 24.0416 16.1451 24.1724 16.1985 24.3032L16.1905 24.3085Z" fill="#F7BA2A"/>
<path d="M9.11133 21.2568C10.5449 19.7167 12.9596 19.6303 14.502 21.0625C14.9187 21.4497 15.227 21.9093 15.4297 22.4033C15.4004 22.3716 15.3721 22.3387 15.3418 22.3076L15.166 22.1357C13.2349 20.3432 10.2247 20.4378 8.41016 22.3379C8.57797 21.9471 8.81304 21.5802 9.1123 21.2578L9.11133 21.2568Z" fill="#25530E" stroke="#005312"/>
<path d="M24.6241 24.3085L24.552 24.773C24.552 24.773 24.552 24.781 24.5493 24.7836C24.365 24.5167 23.9428 24.2658 23.2829 24.063C21.5357 23.5291 18.7999 23.5532 17.1729 24.1164C16.6305 24.3032 16.2805 24.5461 16.1176 24.7783C16.1176 24.7783 16.1149 24.7596 16.1122 24.7516C16.0882 24.6288 16.0668 24.5061 16.0561 24.3806C16.0561 24.3806 16.0535 24.3566 16.0508 24.3459C16.0668 24.2952 16.0909 24.2418 16.1256 24.1911C16.1496 24.1537 16.179 24.1164 16.2138 24.079C16.2618 24.0256 16.3206 23.9722 16.3901 23.9215C16.3954 23.9188 16.3981 23.9162 16.4034 23.9108C16.4034 23.9108 16.4034 23.9108 16.4061 23.9108C16.5958 23.772 16.8549 23.6412 17.1889 23.5265C18.8186 22.9633 21.5544 22.9393 23.3016 23.4731C23.7184 23.6012 24.0417 23.7507 24.2715 23.9082C24.2715 23.9082 24.2741 23.9082 24.2768 23.9108C24.2821 23.9135 24.2848 23.9162 24.2902 23.9188C24.4611 24.0416 24.5787 24.1724 24.6321 24.3032L24.6241 24.3085Z" fill="#F7BA2A"/>
<path d="M17.5488 21.2627C18.9824 19.7226 21.3971 19.6362 22.9395 21.0684C23.3562 21.4556 23.6645 21.9152 23.8672 22.4092C23.8379 22.3774 23.8096 22.3446 23.7793 22.3135L23.6035 22.1416C21.6724 20.3491 18.6622 20.4437 16.8477 22.3438C17.0155 21.9529 17.2505 21.5861 17.5498 21.2637L17.5488 21.2627Z" fill="white" stroke="#005312"/>
<path d="M33.0577 24.3124L32.9856 24.7769C32.9856 24.7769 32.9856 24.7849 32.9829 24.7875C32.7986 24.5206 32.3764 24.2697 31.7165 24.0669C29.9693 23.5331 27.2335 23.5571 25.6065 24.1203C25.0641 24.3071 24.7141 24.55 24.5512 24.7822C24.5512 24.7822 24.5485 24.7635 24.5458 24.7555C24.5218 24.6327 24.5004 24.51 24.4897 24.3845C24.4897 24.3845 24.487 24.3605 24.4844 24.3498C24.5004 24.2991 24.5244 24.2457 24.5592 24.195C24.5832 24.1576 24.6126 24.1203 24.6473 24.0829C24.6954 24.0295 24.7542 23.9761 24.8237 23.9254C24.829 23.9227 24.8317 23.9201 24.837 23.9147C24.837 23.9147 24.837 23.9147 24.8397 23.9147C25.0294 23.7759 25.2885 23.6452 25.6225 23.5304C27.2522 22.9672 29.988 22.9432 31.7352 23.477C32.152 23.6051 32.4753 23.7546 32.7051 23.9121C32.7051 23.9121 32.7077 23.9121 32.7104 23.9147C32.7157 23.9174 32.7184 23.9201 32.7238 23.9227C32.8947 24.0455 33.0123 24.1763 33.0657 24.3071L33.0577 24.3124Z" fill="#F7BA2A"/>
<path d="M25.9785 21.2627C27.4121 19.7226 29.8268 19.6362 31.3691 21.0684C31.7859 21.4556 32.0942 21.9152 32.2969 22.4092C32.2676 22.3774 32.2393 22.3446 32.209 22.3135L32.0332 22.1416C30.1021 20.3491 27.0918 20.4437 25.2773 22.3438C25.4452 21.9529 25.6802 21.5861 25.9795 21.2637L25.9785 21.2627Z" fill="white" stroke="#005312"/>
<path d="M42 16.7383H36.7823C36.7823 7.49445 21.5358 5.53381 21 0C20.4642 5.53381 5.21774 7.49445 5.21774 16.7383H0V24.7594C0.979027 25.2146 2.00013 25.6132 3.03246 26V19.9545H8.2502V16.7383C8.2502 11.6805 16.4078 9.49674 21 5.49514C25.5922 9.49674 33.7498 11.6775 33.7498 16.7383V19.9545H38.9675V26C39.9999 25.6132 41.021 25.2175 42 24.7594V16.7383Z" fill="#FFCE4D"/>
</svg>
