<svg width="24" height="24" viewBox="0 0 24 24" fill="none" xmlns="http://www.w3.org/2000/svg">
<path d="M12 1.25C17.9371 1.25 22.75 6.06294 22.75 12C22.75 17.9371 17.9371 22.75 12 22.75C6.06294 22.75 1.25 17.9371 1.25 12C1.25 6.06294 6.06294 1.25 12 1.25ZM9 16C8.44772 16 8 16.4477 8 17C8 17.5523 8.44772 18 9 18H15C15.5523 18 16 17.5523 16 17C16 16.4477 15.5523 16 15 16H9ZM12 6C11.4477 6 11 6.44772 11 7V10.1279H10.4307C10.3584 10.1277 10.2143 10.1272 10.0869 10.1455C9.97246 10.162 9.4575 10.2467 9.21973 10.7812C8.982 11.3161 9.26462 11.7556 9.3291 11.8516C9.40081 11.9582 9.49732 12.0647 9.5459 12.1182L9.55957 12.1328L10.2305 12.877C10.4505 13.1209 10.6789 13.3726 10.8955 13.5557C11.1412 13.7633 11.5052 14 12 14C12.4948 14 12.8588 13.7633 13.1045 13.5557C13.3211 13.3726 13.5495 13.1209 13.7695 12.877L14.4404 12.1328L14.4541 12.1182C14.5027 12.0647 14.5992 11.9582 14.6709 11.8516C14.7354 11.7556 15.018 11.3161 14.7803 10.7812C14.5425 10.2467 14.0275 10.162 13.9131 10.1455C13.7857 10.1272 13.6416 10.1277 13.5693 10.1279H13V7C13 6.44772 12.5523 6 12 6Z" fill="#666666"/>
</svg>
