<svg width="24" height="24" viewBox="0 0 24 24" fill="none" xmlns="http://www.w3.org/2000/svg">
<path d="M12 1.25C17.9371 1.25 22.75 6.06294 22.75 12C22.75 17.9371 17.9371 22.75 12 22.75C6.06294 22.75 1.25 17.9371 1.25 12C1.25 6.06294 6.06294 1.25 12 1.25ZM7 6.25C6.71843 6.25 6.46029 6.40755 6.33203 6.6582C6.20381 6.90897 6.2267 7.21113 6.3916 7.43945L10.2119 12.7275L6.46973 16.4697C6.17684 16.7626 6.17684 17.2374 6.46973 17.5303C6.76262 17.8232 7.23738 17.8232 7.53027 17.5303L11.1016 13.96L13.6143 17.4395C13.7553 17.6345 13.9819 17.75 14.2227 17.75H17C17.2816 17.75 17.5397 17.5924 17.668 17.3418C17.7962 17.091 17.7733 16.7889 17.6084 16.5605L13.7881 11.2725L17.5303 7.53027C17.8232 7.23738 17.8232 6.76262 17.5303 6.46973C17.2374 6.17683 16.7626 6.17683 16.4697 6.46973L12.8984 10.04L10.3857 6.56055C10.2447 6.36546 10.0181 6.25 9.77734 6.25H7Z" fill="#0DCAF0"/>
</svg>
