<svg width="24" height="24" viewBox="0 0 24 24" fill="none" xmlns="http://www.w3.org/2000/svg">
<path d="M12 22.75C17.9371 22.75 22.75 17.937 22.75 12C22.75 6.06294 17.9371 1.25 12 1.25C6.06295 1.25001 1.25 6.06294 1.25 12C1.25 13.4809 1.54973 14.8939 2.09277 16.1797C2.23519 16.5169 2.33137 16.7448 2.39551 16.9199C2.46089 17.0985 2.47052 17.163 2.47168 17.1797C2.47818 17.2736 2.45414 17.4018 2.29199 18.0078L1.27539 21.8057C1.20616 22.0644 1.28033 22.3409 1.46973 22.5303C1.65913 22.7197 1.93559 22.7938 2.19434 22.7246L5.99219 21.708C6.59822 21.5459 6.72641 21.5218 6.82031 21.5283C6.83702 21.5295 6.9016 21.5391 7.08008 21.6045C7.2552 21.6686 7.4831 21.7648 7.82031 21.9072C9.10609 22.4503 10.5191 22.75 12 22.75ZM16.0156 17.7051C15.5495 17.8026 15.1948 17.7218 14.8154 17.6357L14.7627 17.624C12.8385 17.1895 10.9514 16.174 9.38867 14.6113C7.82599 13.0487 6.81055 11.1614 6.37598 9.2373L6.36328 9.18457C6.27714 8.80499 6.19728 8.44974 6.29492 7.9834C6.36619 7.6433 6.54635 7.32702 6.74219 7.08203C6.93798 6.83712 7.20653 6.59169 7.52246 6.44727C7.95753 6.24854 8.40036 6.24919 8.87988 6.25H8.97266C9.19297 6.25 9.56429 6.25658 9.90723 6.39941C10.317 6.57016 10.6548 6.92226 10.7412 7.47363L10.7422 7.47949C10.8493 8.16295 10.931 8.68233 10.9844 9.0498C11.0111 9.23368 11.0314 9.38645 11.0449 9.50586C11.0561 9.60401 11.0701 9.73957 11.0635 9.85254C11.0347 10.3417 10.8364 10.7308 10.6299 11.0322C10.4984 11.2241 10.3221 11.4327 10.1836 11.5967C10.1293 11.661 10.0807 11.7187 10.043 11.7656L9.98047 11.8438C9.74289 12.1388 9.62419 12.2868 9.62793 12.4688C9.63187 12.6505 9.74884 12.7839 9.98242 13.0508C10.1311 13.2206 10.2866 13.3872 10.4492 13.5498C10.6119 13.7125 10.7784 13.8689 10.9482 14.0176C11.2153 14.2514 11.3492 14.3683 11.5313 14.3721C11.7133 14.3758 11.861 14.2563 12.1563 14.0186L12.2334 13.957C12.2804 13.9192 12.3379 13.8698 12.4023 13.8154C12.5662 13.677 12.775 13.5016 12.9668 13.3701C13.2684 13.1634 13.6579 12.9642 14.1475 12.9355C14.2604 12.9289 14.396 12.943 14.4941 12.9541C14.6134 12.9677 14.7657 12.9889 14.9492 13.0156C15.3167 13.069 15.837 13.1507 16.5205 13.2578H16.5254C17.0767 13.3442 17.4288 13.6822 17.5996 14.0918C17.7425 14.4347 17.75 14.806 17.75 15.0264V15.1191C17.7508 15.5987 17.7514 16.0414 17.5527 16.4766C17.4083 16.7927 17.163 17.0619 16.918 17.2578C16.6729 17.4537 16.3558 17.6338 16.0156 17.7051Z" fill="#00FF09"/>
</svg>
