<svg width="180" height="246" viewBox="0 0 180 246" fill="none" xmlns="http://www.w3.org/2000/svg">
<g clip-path="url(#clip0_5393_74238)">
<path fill-rule="evenodd" clip-rule="evenodd" d="M59.6537 134.829L74.7381 143.5L64.32 161.816L49.2363 153.146L59.6537 134.829Z" fill="#31404D"/>
<path fill-rule="evenodd" clip-rule="evenodd" d="M102.41 0C145.274 0 180 34.6826 180 77.6028C180 120.523 145.274 155.097 102.41 155.097C59.5453 155.097 24.7108 120.414 24.7108 77.6028C24.7108 34.7915 59.5453 0 102.41 0Z" fill="#465562"/>
<path fill-rule="evenodd" clip-rule="evenodd" d="M70.9399 132.011C40.7717 114.67 30.4627 76.1931 47.8257 46.0629C65.1881 16.0409 103.82 5.63559 133.88 23.0854C164.047 40.4264 174.357 78.9024 156.994 109.033C139.523 139.164 100.999 149.461 70.9399 132.011Z" fill="#89D3DD"/>
<path fill-rule="evenodd" clip-rule="evenodd" d="M102.41 77.6024L133.88 23.0859C164.047 40.4269 174.357 78.9029 156.994 109.034C139.523 139.164 100.999 149.461 70.9399 132.011L102.41 77.6024Z" fill="#75BFCA"/>
<path d="M91.449 36.959H113.369C115.215 36.959 117.059 37.7178 118.253 38.9095V39.0184C119.555 40.2108 120.315 41.9449 120.315 43.8961V54.626C120.315 56.5764 119.555 58.3105 118.253 59.5036C117.06 60.8042 115.215 61.5631 113.369 61.5631H91.449C89.4961 61.5631 87.7599 60.8042 86.5661 59.5036C85.2639 58.3113 84.5041 56.5764 84.5041 54.626V43.8961C84.5041 41.9449 85.2639 40.2115 86.5661 39.0184V38.9095C87.7592 37.7178 89.4961 36.959 91.449 36.959ZM113.369 41.9441H91.449C90.9066 41.9441 90.4726 42.1613 90.1469 42.5948V42.4859C89.7128 42.9201 89.6045 43.3529 89.6045 43.8954V54.6252C89.6045 55.167 89.8219 55.6005 90.1469 55.9258C90.4726 56.2511 90.9066 56.4675 91.449 56.4675H113.369C113.913 56.4675 114.347 56.2511 114.672 55.9258C114.997 55.6005 115.215 55.167 115.215 54.6252V43.8954C115.215 43.3536 114.997 42.9201 114.672 42.4859C114.347 42.1613 113.913 41.9441 113.369 41.9441Z" fill="#FEF5E5"/>
<path fill-rule="evenodd" clip-rule="evenodd" d="M62.9095 68.6074H141.91C144.19 68.6074 146.034 70.4497 146.034 72.7263V103.074C146.034 107.301 142.562 110.769 138.438 110.769H66.3827C62.1504 110.769 58.7863 107.301 58.7863 103.074V72.7263C58.7863 70.4497 60.6309 68.6074 62.9102 68.6074H62.9095Z" fill="#CE7C29"/>
<path fill-rule="evenodd" clip-rule="evenodd" d="M137.243 110.768H67.5751V96.5699C67.5751 94.403 69.203 92.7764 71.3733 92.7764H133.446C135.508 92.7764 137.243 94.403 137.243 96.5699V110.768Z" fill="#E28F25"/>
<path fill-rule="evenodd" clip-rule="evenodd" d="M61.3906 48.3389H143.429C145.709 48.3389 147.553 50.1819 147.553 52.4577V82.805C147.553 87.0321 144.081 90.5003 139.957 90.5003H64.8624C60.6301 90.5003 57.2667 87.0321 57.2667 82.805V52.4577C57.2667 50.1819 59.1113 48.3389 61.3906 48.3389Z" fill="#F6A31D"/>
<path fill-rule="evenodd" clip-rule="evenodd" d="M95.3563 84.3232H109.464C111.417 84.3232 112.936 85.9491 112.936 87.7914V93.1019C112.936 95.0531 111.417 96.5701 109.464 96.5701H95.3563C93.4027 96.5701 91.8839 95.0531 91.8839 93.1019V87.7914C91.8839 85.9491 93.4027 84.3232 95.3563 84.3232Z" fill="#FEF5E5"/>
<path fill-rule="evenodd" clip-rule="evenodd" d="M99.3712 88.333H105.339C106.533 88.333 107.509 89.3083 107.509 90.5006C107.509 91.5848 106.533 92.56 105.339 92.56H99.3712C98.1773 92.56 97.3092 91.5848 97.3092 90.5006C97.3092 89.3083 98.1766 88.333 99.3712 88.333Z" fill="#EAE1D0"/>
<path fill-rule="evenodd" clip-rule="evenodd" d="M7.34847 244.08C14.4025 248.09 23.301 245.597 27.3159 238.66L66.5993 169.945C68.2272 167.019 67.1417 163.442 64.3207 161.816L49.2363 153.145C46.4145 151.519 42.7254 152.603 41.0975 155.421L1.92237 224.137C-2.09322 231.073 0.402798 240.069 7.34774 244.079L7.34847 244.08Z" fill="#89B944"/>
</g>
<defs>
<clipPath id="clip0_5393_74238">
<rect width="180" height="246" fill="white"/>
</clipPath>
</defs>
</svg>
