<svg width="50" height="50" viewBox="0 0 50 50" fill="none" xmlns="http://www.w3.org/2000/svg">
<g clip-path="url(#clip0_5402_74798)">
<path d="M25.5235 20.0898C31.1048 20.0898 36.6879 20.0898 42.2692 20.0898C43.2619 20.0898 43.8612 20.6406 43.9335 21.6535C43.9781 22.2721 43.9985 22.8946 43.9985 23.5151C43.9985 25.5428 43.9892 27.5704 43.9669 29.598C43.954 30.7373 43.9224 31.8765 43.8742 33.0158C43.8055 34.6096 43.7536 36.2053 43.6255 37.7934C43.3732 40.9358 41.1745 43.5576 38.1686 44.3799C37.1536 44.6572 36.1109 44.6666 35.0737 44.727C30.9768 44.9722 26.878 45.0344 22.7756 44.9854C21.243 44.9665 19.7103 44.8835 18.1777 44.8213C17.031 44.7741 15.8844 44.7081 14.7358 44.661C13.0807 44.595 11.5611 44.1196 10.2493 43.0747C8.64244 41.794 7.64976 40.1172 7.42711 38.0386C7.28052 36.658 7.26011 35.2641 7.18033 33.8759C6.98921 30.4864 6.98921 27.0913 7.00777 23.6962C7.01148 22.9983 7.0356 22.2967 7.08755 21.6007C7.15992 20.6425 7.77965 20.0898 8.7315 20.0898C14.3295 20.0898 19.9256 20.0898 25.5235 20.0898Z" fill="#52B920"/>
<path d="M16.6258 8.01567C16.6258 7.51206 16.6202 7.03298 16.6258 6.55578C16.6351 5.8032 17.0915 5.2166 17.7873 5.04684C18.678 4.82993 19.5649 5.55422 19.5816 6.51805C19.5909 7.00469 19.5816 7.49132 19.5816 7.99681H31.4269C31.4269 7.64976 31.4214 7.29893 31.4269 6.9481C31.4306 6.71422 31.4269 6.47467 31.4696 6.24456C31.6088 5.48255 32.286 4.93744 32.9855 5.00346C33.7722 5.07702 34.3716 5.72586 34.3827 6.5256C34.3901 7.01223 34.3827 7.49698 34.3827 8.01379C34.4885 8.01379 34.5775 8.0119 34.6666 8.01379C35.5368 8.04208 36.4181 7.98361 37.2735 8.11375C40.1885 8.56078 42.1738 10.2395 43.2537 13.0291C43.5561 13.81 43.673 14.6361 43.686 15.4736C43.7009 16.3846 43.0496 17.0655 42.159 17.0655C31.0503 17.0655 19.9397 17.0655 8.83096 17.0655C7.97559 17.0655 7.32803 16.4016 7.31875 15.5283C7.28536 12.352 9.37647 9.43973 12.4417 8.39479C13.1858 8.14205 13.9539 8.02699 14.7351 8.01567C15.3511 8.00624 15.9671 8.01379 16.6202 8.01379L16.6258 8.01567Z" fill="#C9E9BA"/>
<path d="M18.1093 31.0421C19.3451 31.0496 20.3192 30.0594 20.3266 28.7919C20.334 27.5282 19.3785 26.5153 18.1687 26.5021C16.8829 26.4889 15.8883 27.4565 15.8809 28.7297C15.8735 30.0443 16.8272 31.0327 18.1093 31.0421Z" fill="#C9E9BA"/>
<path d="M25.5079 31.0402C26.7455 31.0459 27.7196 30.0594 27.7252 28.7919C27.7326 27.5282 26.777 26.5134 25.5691 26.5021C24.2832 26.4889 23.2887 27.4565 23.2813 28.7297C23.2739 30.0443 24.2276 31.0346 25.5079 31.0421V31.0402Z" fill="#C9E9BA"/>
<path d="M32.8999 31.0401C34.1413 31.0495 35.1191 30.0668 35.1284 28.8031C35.1376 27.5262 34.1765 26.5076 32.9593 26.502C31.692 26.4963 30.7198 27.4583 30.6771 28.6937C30.6344 29.9593 31.6419 31.0552 32.8999 31.0382V31.0401Z" fill="#C9E9BA"/>
<path d="M18.0976 38.587C19.3259 38.5983 20.3111 37.6175 20.3241 36.3726C20.3371 35.0768 19.3834 34.0564 18.1551 34.0489C16.8971 34.0413 15.9192 35.0014 15.8728 36.218C15.8227 37.5251 16.8544 38.6021 18.0976 38.587Z" fill="#C9E9BA"/>
<path d="M25.5079 38.5871C26.7455 38.5927 27.7196 37.6082 27.727 36.3407C27.7344 35.0769 26.7789 34.0622 25.5709 34.049C24.2851 34.0358 23.2906 35.0034 23.2813 36.2746C23.2739 37.5893 24.2276 38.5795 25.5079 38.5871Z" fill="#C9E9BA"/>
<path d="M32.9009 38.587C34.1422 38.5964 35.1181 37.6137 35.1274 36.3481C35.1367 35.0712 34.1756 34.0526 32.9565 34.0489C31.68 34.0432 30.691 35.007 30.6817 36.267C30.6724 37.5873 31.6206 38.5775 32.899 38.587H32.9009Z" fill="#C9E9BA"/>
</g>
<defs>
<clipPath id="clip0_5402_74798">
<rect width="37" height="40" fill="white" transform="translate(7 5)"/>
</clipPath>
</defs>
</svg>
