<svg width="50" height="50" viewBox="0 0 50 50" fill="none" xmlns="http://www.w3.org/2000/svg">
<g clip-path="url(#clip0_5402_74806)">
<path d="M38.2288 5H11.7712C9.6884 5 8 6.68913 8 8.77279V41.2272C8 43.3109 9.6884 45 11.7712 45H38.2288C40.3116 45 42 43.3109 42 41.2272V8.77279C42 6.68913 40.3116 5 38.2288 5Z" fill="#F7BA2A"/>
<path d="M25.4259 25.29C28.3701 25.29 31.3143 25.29 34.2586 25.2939C34.4855 25.2939 34.724 25.3073 34.9393 25.3747C35.622 25.5863 35.8297 26.2616 35.7836 26.7137C35.7143 27.4005 35.272 27.8296 34.6105 27.8911C34.4605 27.9046 34.3086 27.9046 34.1567 27.9046C28.3182 27.9046 22.4817 27.9065 16.6432 27.9046C16.4567 27.9046 16.2663 27.9104 16.0817 27.8796C15.3913 27.768 14.949 27.1754 15.0047 26.4597C15.0567 25.8075 15.6028 25.3016 16.2893 25.2996C19.2913 25.2939 22.2932 25.2958 25.2951 25.2958C25.3393 25.2958 25.3817 25.2958 25.4259 25.2958C25.4259 25.2939 25.4259 25.29 25.4259 25.2881V25.29Z" fill="white"/>
<path d="M25.4259 10.0019C28.3701 10.0019 31.3143 10.0019 34.2586 10.0058C34.4855 10.0058 34.724 10.0192 34.9393 10.0866C35.622 10.2982 35.8297 10.9735 35.7836 11.4256C35.7143 12.1125 35.272 12.5415 34.6105 12.603C34.4605 12.6165 34.3086 12.6165 34.1567 12.6165C28.3182 12.6165 22.4817 12.6184 16.6432 12.6165C16.4567 12.6165 16.2663 12.6223 16.0817 12.5915C15.3913 12.4799 14.949 11.8874 15.0047 11.1717C15.0567 10.5195 15.6028 10.0135 16.2893 10.0115C19.2913 10.0058 22.2932 10.0077 25.2951 10.0077C25.3393 10.0077 25.3817 10.0077 25.4259 10.0077C25.4259 10.0058 25.4259 10.0019 25.4259 10V10.0019Z" fill="white"/>
<path d="M25.4112 30.4902C28.3632 30.4902 31.3132 30.4902 34.2651 30.4902C34.4228 30.4902 34.5862 30.4844 34.7401 30.5152C35.4478 30.6518 35.7958 31.1982 35.7882 31.8562C35.7805 32.5372 35.2862 33.0336 34.6055 33.0913C34.4478 33.1048 34.2882 33.1048 34.1305 33.1048C28.3151 33.1048 22.4978 33.1067 16.6824 33.1048C16.4805 33.1048 16.2747 33.1106 16.0785 33.0779C15.3882 32.9624 14.9497 32.3679 15.0093 31.6522C15.0632 31.0097 15.6055 30.5018 16.2785 30.4998C18.8266 30.4921 21.3728 30.496 23.9209 30.496C24.4189 30.496 24.917 30.496 25.4151 30.496C25.4151 30.4941 25.4151 30.4902 25.4151 30.4883L25.4112 30.4902Z" fill="white"/>
<path d="M25.4112 15.2021C28.3632 15.2021 31.3132 15.2021 34.2651 15.2021C34.4228 15.2021 34.5862 15.1964 34.7401 15.2271C35.4478 15.3637 35.7958 15.9101 35.7882 16.5681C35.7805 17.2492 35.2862 17.7455 34.6055 17.8032C34.4478 17.8167 34.2882 17.8167 34.1305 17.8167C28.3151 17.8167 22.4978 17.8186 16.6824 17.8167C16.4805 17.8167 16.2747 17.8225 16.0785 17.7898C15.3882 17.6743 14.9497 17.0799 15.0093 16.3642C15.0632 15.7216 15.6055 15.2137 16.2785 15.2117C18.8266 15.204 21.3728 15.2079 23.9209 15.2079C24.4189 15.2079 24.917 15.2079 25.4151 15.2079C25.4151 15.206 25.4151 15.2021 25.4151 15.2002L25.4112 15.2021Z" fill="white"/>
<path d="M25.3955 20.0898C26.607 20.0898 27.8186 20.0898 29.032 20.0898C29.2051 20.0898 29.382 20.0821 29.5493 20.1148C30.257 20.2514 30.6032 20.8094 30.5916 21.4596C30.5801 22.1388 30.0839 22.6332 29.4051 22.6909C29.2551 22.7044 29.1032 22.7044 28.9512 22.7044C26.5916 22.7044 24.2339 22.7063 21.8743 22.7044C21.6724 22.7044 21.4666 22.7102 21.2705 22.6775C20.5878 22.5601 20.1551 21.9791 20.2051 21.2692C20.2512 20.617 20.7955 20.1052 21.4801 20.0994C22.7859 20.0917 24.0916 20.0975 25.3974 20.0975C25.3974 20.0937 25.3974 20.0917 25.3974 20.0879L25.3955 20.0898Z" fill="white"/>
<path d="M18.8986 38.2959C19.7716 38.2959 20.6447 38.2882 21.5159 38.2978C22.1312 38.3036 22.5639 38.646 22.737 39.2386C22.9793 40.064 22.4447 40.8393 21.5851 40.8951C21.2755 40.9143 20.9659 40.9066 20.6543 40.9066C19.3409 40.9086 18.0293 40.9105 16.7159 40.9086C16.4928 40.9086 16.2659 40.9143 16.0486 40.8758C15.3678 40.7508 14.9428 40.1582 15.0062 39.4522C15.062 38.8173 15.6005 38.3151 16.2582 38.3074C17.1389 38.2959 18.0178 38.3055 18.8986 38.3055C18.8986 38.3036 18.8986 38.3017 18.8986 38.2997V38.2959Z" fill="white"/>
<path d="M31.8986 38.2959C32.7717 38.2959 33.6447 38.2882 34.5159 38.2978C35.1428 38.3055 35.5909 38.6749 35.7467 39.2848C35.9524 40.0909 35.4255 40.8277 34.5947 40.8951C34.4659 40.9047 34.3351 40.9066 34.2063 40.9066C32.6697 40.9066 31.1332 40.9086 29.5967 40.9066C29.4236 40.9066 29.2486 40.9105 29.0793 40.8835C28.3909 40.772 27.9467 40.1813 28.0005 39.4656C28.0486 38.8211 28.5909 38.3113 29.2601 38.3036C30.1409 38.294 31.0197 38.3017 31.9005 38.3017C31.9005 38.2997 31.9005 38.2978 31.9005 38.2959H31.8986Z" fill="white"/>
</g>
<defs>
<clipPath id="clip0_5402_74806">
<rect width="34" height="40" fill="white" transform="translate(8 5)"/>
</clipPath>
</defs>
</svg>
