<svg width="54" height="52" viewBox="0 0 54 52" fill="none" xmlns="http://www.w3.org/2000/svg">
<path d="M21.3242 0.181763C24.9673 -0.0603921 28.7753 -0.060899 32.4258 0.181763C43.8424 0.940715 52.9007 10.1564 53.6455 21.6808C53.7848 23.8367 53.7848 26.0668 53.6455 28.2228C52.9007 39.7472 43.8424 48.9628 32.4258 49.7218C28.7753 49.9645 24.9673 49.964 21.3242 49.7218C19.9119 49.6279 18.374 49.2939 17.0205 48.7365C16.4255 48.4914 16.0212 48.3252 15.7256 48.2169C15.5223 48.3566 15.2526 48.5559 14.8594 48.8458C12.8784 50.3066 10.3772 51.3306 6.82812 51.2443L6.71387 51.2423C6.02915 51.226 5.29834 51.2081 4.70312 51.0929C3.98635 50.9541 3.09994 50.6073 2.54492 49.6613C1.94073 48.6311 2.18261 47.5888 2.41699 46.9327C2.63821 46.3137 3.02146 45.5875 3.41309 44.8458L3.4668 44.7443C4.63262 42.535 4.95732 40.7293 4.33398 39.5255C2.25327 36.3845 0.381789 32.5135 0.104492 28.2228C-0.0348366 26.0668 -0.0348359 23.8368 0.104492 21.6808C0.849279 10.1563 9.9076 0.940663 21.3242 0.181763ZM26.8945 34.3751C25.5138 34.3751 24.3945 35.4944 24.3945 36.8751C24.3947 38.2557 25.5139 39.3751 26.8945 39.3751H26.9238C28.3044 39.3751 29.4236 38.2557 29.4238 36.8751C29.4238 35.4944 28.3045 34.3751 26.9238 34.3751H26.8945ZM26.8945 11.8751C23.0647 11.8751 19.3945 14.6694 19.3945 18.7706C19.3947 20.1512 20.5139 21.2706 21.8945 21.2706C23.2751 21.2705 24.3944 20.1512 24.3945 18.7706C24.3945 18.0166 25.2015 16.8751 26.8945 16.8751C28.5875 16.8752 29.3945 18.0166 29.3945 18.7706C29.3945 19.0756 29.2964 19.3801 29.085 19.6691C28.8001 20.0582 28.4329 20.4745 27.9697 20.9806C27.8984 21.0585 27.8245 21.1397 27.748 21.2228C27.3604 21.6443 26.9159 22.127 26.5117 22.6154C25.5843 23.7359 24.3945 25.4181 24.3945 27.5616V28.6603C24.3945 30.041 25.5138 31.1603 26.8945 31.1603C28.2752 31.1602 29.3945 30.0409 29.3945 28.6603V27.5616C29.3945 27.2779 29.5614 26.7729 30.3643 25.8029C30.6776 25.4243 31.0155 25.0558 31.4014 24.6359C31.4847 24.5452 31.5702 24.4518 31.6582 24.3556C32.124 23.8467 32.6569 23.2537 33.1191 22.6222C33.9102 21.5414 34.3945 20.2156 34.3945 18.7706C34.3945 14.6695 30.7243 11.8752 26.8945 11.8751Z" fill="url(#paint0_linear_4355_1572)"/>
<defs>
<linearGradient id="paint0_linear_4355_1572" x1="26.875" y1="0.00012207" x2="26.875" y2="51.2495" gradientUnits="userSpaceOnUse">
<stop stop-color="#3096A3"/>
<stop offset="1" stop-color="#64A445"/>
</linearGradient>
</defs>
</svg>
