<svg width="50" height="50" viewBox="0 0 50 50" fill="none" xmlns="http://www.w3.org/2000/svg">
<g clip-path="url(#clip0_5402_74802)">
<path d="M42.0011 25.0015C42.0011 30.3903 42.0011 35.7807 42.0011 41.1695C42.0011 41.7659 41.9851 42.3605 41.7509 42.9255C41.2205 44.2005 40.0338 44.9806 38.581 44.9963C38.0807 45.0015 37.5805 44.9963 37.0785 44.9963C28.9575 44.9963 20.8366 44.9963 12.7156 44.9963C12.1373 44.9963 11.5697 44.9456 11.0322 44.7147C9.7603 44.1708 9.13234 43.1773 9.033 41.8481C8.98333 41.1764 9.00816 40.4978 9.00816 39.8227C9.00816 29.6172 9.00639 19.4117 9.01171 9.20793C9.01171 8.67973 8.99929 8.13754 9.10395 7.62507C9.4268 6.04396 10.6153 5.10124 12.32 5.01029C12.6287 4.99455 12.9391 5.00155 13.2478 5.00155C21.5461 5.00155 29.8427 4.9998 38.141 5.0068C38.5792 5.0068 39.0298 5.02778 39.4537 5.12573C40.9048 5.45629 41.9053 6.67011 41.9745 8.13754C41.9922 8.52232 41.9993 8.9071 41.9993 9.29189C41.9993 14.5284 41.9993 19.765 41.9993 25.0033L42.0011 25.0015Z" fill="#F7BA2A"/>
<path d="M28.5663 26.3969C26.9982 26.3969 25.43 26.3969 23.8619 26.3969C23.1009 26.3969 22.5137 25.8722 22.4286 25.1271C22.3487 24.4275 22.8295 23.7839 23.555 23.6282C23.6472 23.609 23.7448 23.6055 23.8388 23.6055C26.9893 23.6055 30.1415 23.6055 33.292 23.6055C34.0672 23.6055 34.6934 24.2369 34.6987 25.0169C34.704 25.7655 34.0814 26.3934 33.3133 26.3969C31.7309 26.4021 30.1468 26.3969 28.5645 26.3969H28.5663Z" fill="white"/>
<path d="M20.0773 25.0575C20.0808 26.0405 19.24 26.8607 18.2253 26.866C17.1486 26.8712 16.3042 26.0562 16.2989 25.0103C16.2935 23.9714 17.1344 23.1318 18.181 23.1318C19.2666 23.1318 20.0737 23.9504 20.0773 25.0575Z" fill="white"/>
<path d="M28.5663 33.3725C26.9982 33.3725 25.43 33.3725 23.8619 33.3725C23.1009 33.3725 22.5137 32.8478 22.4286 32.1027C22.3487 31.4031 22.8295 30.7595 23.555 30.6038C23.6472 30.5846 23.7448 30.5811 23.8388 30.5811C26.9893 30.5811 30.1415 30.5811 33.292 30.5811C34.0672 30.5811 34.6934 31.2125 34.6987 31.9925C34.704 32.7411 34.0814 33.369 33.3133 33.3725C31.7309 33.3777 30.1468 33.3725 28.5645 33.3725H28.5663Z" fill="white"/>
<path d="M20.0773 32.0331C20.0808 33.016 19.24 33.8363 18.2253 33.8416C17.1486 33.8468 16.3042 33.0318 16.2989 31.9859C16.2935 30.9469 17.1344 30.1074 18.181 30.1074C19.2666 30.1074 20.0737 30.926 20.0773 32.0331Z" fill="white"/>
<path d="M28.5663 40.3461C26.9982 40.3461 25.43 40.3461 23.8619 40.3461C23.1009 40.3461 22.5137 39.8214 22.4286 39.0763C22.3487 38.3767 22.8295 37.7331 23.555 37.5774C23.6472 37.5582 23.7448 37.5547 23.8388 37.5547C26.9893 37.5547 30.1415 37.5547 33.292 37.5547C34.0672 37.5547 34.6934 38.1861 34.6987 38.9661C34.704 39.7147 34.0814 40.3426 33.3133 40.3461C31.7309 40.3514 30.1468 40.3461 28.5645 40.3461H28.5663Z" fill="white"/>
<path d="M20.0773 39.0067C20.0808 39.9897 19.24 40.81 18.2253 40.8152C17.1486 40.8205 16.3042 40.0054 16.2989 38.9595C16.2935 37.9206 17.1344 37.0811 18.181 37.0811C19.2666 37.0811 20.0737 37.8996 20.0773 39.0067Z" fill="white"/>
<path d="M28.5663 19.4242C26.9982 19.4242 25.43 19.4242 23.8619 19.4242C23.1009 19.4242 22.5137 18.8995 22.4286 18.1545C22.3487 17.4548 22.8295 16.8112 23.555 16.6555C23.6472 16.6363 23.7448 16.6328 23.8388 16.6328C26.9893 16.6328 30.1415 16.6328 33.292 16.6328C34.0672 16.6328 34.6934 17.2642 34.6987 18.0443C34.704 18.7928 34.0814 19.4207 33.3133 19.4242C31.7309 19.4295 30.1468 19.4242 28.5645 19.4242H28.5663Z" fill="white"/>
<path d="M20.0773 18.0848C20.0808 19.0678 19.24 19.8881 18.2253 19.8933C17.1486 19.8986 16.3042 19.0835 16.2989 18.0376C16.2935 16.9987 17.1344 16.1592 18.181 16.1592C19.2666 16.1592 20.0737 16.9777 20.0773 18.0848Z" fill="white"/>
<path d="M28.5663 12.4506C26.9982 12.4506 25.43 12.4506 23.8619 12.4506C23.1009 12.4506 22.5137 11.9259 22.4286 11.1808C22.3487 10.4812 22.8295 9.83758 23.555 9.68192C23.6472 9.66268 23.7448 9.65918 23.8388 9.65918C26.9893 9.65918 30.1415 9.65918 33.292 9.65918C34.0672 9.65918 34.6934 10.2906 34.6987 11.0706C34.704 11.8192 34.0814 12.4471 33.3133 12.4506C31.7309 12.4559 30.1468 12.4506 28.5645 12.4506H28.5663Z" fill="white"/>
<path d="M20.0773 11.1112C20.0808 12.0942 19.24 12.9144 18.2253 12.9197C17.1486 12.9249 16.3042 12.1099 16.2989 11.064C16.2935 10.0251 17.1344 9.18555 18.181 9.18555C19.2666 9.18555 20.0737 10.0041 20.0773 11.1112Z" fill="white"/>
</g>
<defs>
<clipPath id="clip0_5402_74802">
<rect width="33" height="40" fill="white" transform="translate(9 5)"/>
</clipPath>
</defs>
</svg>
