<svg width="505" height="70" viewBox="0 0 505 70" fill="none" xmlns="http://www.w3.org/2000/svg">
<g clip-path="url(#clip0_1321_9232)">
<path d="M505 48.87C505 50.1797 504.856 51.5306 504.567 52.9021C504.071 55.4389 503.648 56.7177 503.298 56.7177C503.091 56.7177 502.957 56.1917 502.906 55.1399C502.761 52.8918 502.689 51.6337 502.689 51.3759C502.132 45.8794 500.729 36.6705 498.479 23.7286C497.84 20.1399 496.994 14.7569 495.941 7.60011C495.415 7.13605 495.198 6.78543 495.281 6.54825C495.518 5.90889 495.879 4.96015 496.375 3.70205C496.787 2.6502 497.035 2.12427 497.117 2.12427C497.293 2.12427 498.17 3.81549 499.748 7.20824C501.502 10.9722 502.266 12.9522 502.029 13.1275C501.791 13.2719 501.337 12.9831 500.667 12.251C500.46 12.0138 499.955 11.4879 499.129 10.6732C500.151 16.0768 501.647 24.6773 503.597 36.4849C504.536 42.6517 505 46.7869 505 48.8906V48.87Z" fill="#00401A"/>
<path d="M364.6 52.861C365.012 52.861 365.208 53.2735 365.208 54.0881C365.208 56.1919 364.651 57.2437 363.547 57.2437C357.697 57.2437 354.313 52.5722 353.374 43.219C351.414 23.2956 349.268 10.962 346.926 6.22869C346.864 6.08432 347.06 5.27995 347.493 3.81561C347.927 2.35126 348.195 1.62939 348.288 1.62939C348.432 1.62939 348.804 2.36157 349.381 3.81561C350.083 5.53776 350.64 7.22898 351.053 8.89958C352.281 13.9836 353.323 20.0884 354.169 27.2143C355.304 37.0934 355.912 42.198 355.964 42.5487C357.047 49.4167 359.926 52.8507 364.6 52.8507V52.861Z" fill="#00401A"/>
<path d="M396.646 54.3459C397.059 54.3459 397.265 54.7584 397.265 55.5731C397.265 57.6768 396.708 58.7286 395.593 58.7286C393.551 58.7286 391.972 58.1202 390.878 56.893C389.785 55.6659 389.238 54.0778 389.238 52.1184C389.238 51.0666 389.403 49.9735 389.723 48.8288C386.039 49.4166 381.933 50.7469 377.404 52.8197C371.028 55.769 366.416 57.2437 363.547 57.2437C363.135 57.2437 362.939 56.8312 362.939 56.0165C362.939 53.9128 363.496 52.8609 364.6 52.8609C367.963 52.8609 373.029 51.211 379.818 47.911C377.301 47.4676 374.03 46.9417 369.996 46.3332C369.82 46.3023 369.47 46.4364 368.943 46.7251C368.799 46.8179 368.593 46.8385 368.324 46.8179C366.488 46.5292 363.692 46.2507 359.947 45.9826C359.658 45.9517 359.513 45.8073 359.513 45.5495C359.513 45.2607 359.781 44.6626 360.308 43.7552C360.916 42.7033 361.577 41.9196 362.278 41.3936C362.804 41.043 363.754 40.8368 365.126 40.7852C366.467 40.7233 367.695 40.8574 368.809 41.1771C376.382 43.3117 383.924 44.3739 391.436 44.3739C392.983 44.3739 394.5 44.3326 395.996 44.2398C396.429 44.178 396.656 44.2398 396.656 44.4151C396.656 44.6729 396.12 45.962 395.036 48.2719C394.923 48.5607 394.758 48.7154 394.551 48.7154C392.766 48.5401 391.477 48.5504 390.693 48.7566C391.043 52.5 393.035 54.3665 396.656 54.3665L396.646 54.3459Z" fill="#00401A"/>
<path d="M414.144 54.3458C414.557 54.3458 414.763 54.7583 414.763 55.573C414.763 57.6767 414.206 58.7286 413.102 58.7286C408.335 58.7286 405.395 55.5111 404.291 49.0866C404.229 51.8296 403.775 53.8096 402.929 55.0058C401.144 57.4911 398.709 58.7286 395.604 58.7286C395.191 58.7286 394.995 58.3161 394.995 57.5014C394.995 55.3977 395.552 54.3458 396.656 54.3458C398.09 54.3458 399.431 53.9952 400.69 53.294C402.155 52.4793 402.836 51.479 402.754 50.3137C402.496 46.3744 401.464 39.3414 399.689 29.2353L396.181 9.03352C396.15 8.79633 396.388 7.82697 396.883 6.11513C397.378 4.40329 397.688 3.54736 397.801 3.54736C398.059 3.54736 399.545 11.23 402.227 26.5954L404.373 39.1764C406.014 49.2825 409.264 54.3355 414.154 54.3355L414.144 54.3458Z" fill="#00401A"/>
<path d="M437.596 48.6949C437.709 47.8492 437.018 46.9624 435.512 46.0446C434.005 45.1268 432.396 44.6318 430.663 44.5802C426.164 44.5184 421.222 47.7461 415.847 54.2635C419.85 54.2635 424.544 53.521 429.92 52.0257C434.944 50.5614 437.503 49.458 437.596 48.6949ZM440.361 46.5499C440.299 48.3855 439.247 50.3964 437.204 52.5517C434.748 55.1813 429.775 57.0685 422.295 58.2028C419.901 58.5534 416.816 58.7287 413.04 58.7287C412.628 58.7287 412.431 58.3059 412.431 57.4603C412.431 55.3875 412.999 54.346 414.144 54.346C414.258 54.1707 415.341 52.7373 417.384 50.0561C417.797 49.3239 418.003 47.9111 418.003 45.8074C418.003 41.9197 417.26 35.2888 415.764 25.9149C414.856 20.336 413.979 14.7364 413.133 9.12649C412.782 8.68306 412.493 8.20869 412.256 7.68277C412.194 7.62089 412.524 6.90934 413.247 5.53781C413.969 4.16627 414.381 3.47534 414.495 3.47534C414.557 3.47534 415.516 5.56874 417.384 9.74523C418.323 12.0243 418.674 13.2514 418.436 13.4267C418.085 13.602 417.374 12.942 416.29 11.4571C416.899 15.2829 417.776 20.965 418.921 28.5033C419.685 33.8761 420.066 38.1247 420.066 41.2597C420.066 44.3946 419.716 46.5602 419.014 48.0555C423.781 42.8581 428.114 40.2594 432.035 40.2594C434.841 40.2594 437.018 41.0019 438.566 42.4971C439.763 43.7552 440.361 45.1165 440.361 46.5705V46.5499Z" fill="#00401A"/>
<path d="M467.496 49.7466C467.496 49.1588 466.722 48.1585 465.175 46.7251C463.307 44.972 461.419 44.0954 459.521 44.0954C455.806 44.0954 452.009 47.0344 448.12 52.9022C449.667 53.6034 451.525 53.954 453.691 53.954C457.23 53.954 460.542 53.325 463.648 52.0669C466.217 51.0769 467.506 50.3035 467.506 49.7466H467.496ZM469.735 47.3335C469.735 48.9938 468.992 50.85 467.496 52.9022C466.237 54.5728 463.906 55.9752 460.48 57.1096C457.612 58.0686 454.981 58.5533 452.587 58.5533C449.843 58.5533 447.635 57.9861 445.963 56.8415C445.231 58.5017 444.725 59.2855 444.426 59.1617C444.013 59.0483 444.189 58.0068 444.952 56.0474C444.313 55.439 443.766 54.6759 443.332 53.7684C442.982 53.129 442.806 52.8093 442.806 52.8093L440.134 54.2531C438.091 55.3668 436.038 56.1918 433.995 56.7486C430.105 57.718 426.195 58.1924 422.243 58.1924C421.893 58.1924 421.717 57.8005 421.717 57.0065C421.717 56.2743 421.862 55.5524 422.151 54.8409C422.44 54.1293 422.842 53.7684 423.337 53.7684C428.424 53.7684 433.056 53.1393 437.235 51.8812C438.494 51.5306 440.113 50.8191 442.105 49.7363C443.766 48.7669 444.746 48.2926 445.045 48.2926H445.221C445.334 48.406 445.365 48.6019 445.303 48.8597C445.128 49.1485 445.035 49.3238 445.035 49.3857C445.035 50.4685 445.633 51.3862 446.83 52.1494C451.504 43.8479 456.157 39.7024 460.769 39.7024C462.905 39.7024 464.958 40.6202 466.949 42.4661C468.796 44.2192 469.714 45.8382 469.714 47.3335H469.735Z" fill="#00401A"/>
<path d="M483.416 54.3459C483.529 54.3459 483.581 54.1706 483.55 53.82C483.55 53.4694 483.488 53.2115 483.375 53.0259C481.941 52.7681 480.744 52.1391 479.784 51.1388C479.877 51.9534 480.341 52.6959 481.187 53.3559C482.033 54.0159 482.776 54.3459 483.426 54.3459H483.416ZM486.831 48.9113C487.244 48.9113 487.45 49.3238 487.45 50.1385C487.45 52.2422 486.893 53.294 485.789 53.294C485.583 53.294 485.397 53.2837 485.221 53.2528C485.283 53.7787 485.304 54.315 485.304 54.8718C485.304 57.8212 484.809 59.2958 483.818 59.2958C482.828 59.2958 481.786 58.8627 480.702 57.9862C478.979 56.6146 478.113 54.5109 478.113 51.675C478.113 50.9738 478.175 50.2416 478.288 49.4785C478.144 49.4785 477.803 49.86 477.277 50.6232C476.606 51.6131 475.812 52.4587 474.914 53.16C470.24 56.728 462.802 58.5018 452.598 58.5018C452.185 58.5018 451.979 58.1202 451.979 57.3571C451.979 56.594 452.144 55.9031 452.463 55.1915C452.783 54.48 453.175 54.119 453.65 54.119C459.438 54.119 464.071 53.6962 467.548 52.8506C471.726 51.8297 475.017 49.8394 477.411 46.8901C478.556 45.5186 479.299 44.8276 479.65 44.8276C479.764 44.8276 480.083 45.3123 480.61 46.2714C481.631 48.0245 483.705 48.901 486.831 48.901V48.9113Z" fill="#00401A"/>
<path d="M494.6 41.507C494.631 44.6316 493.909 47.3231 492.454 49.5712C490.844 52.0565 488.626 53.294 485.789 53.294C485.376 53.294 485.18 52.8815 485.18 52.0668C485.18 49.9631 485.737 48.9112 486.841 48.9112C488.183 48.9112 489.41 48.5606 490.525 47.8594C491.783 47.0447 492.361 46.0444 492.279 44.8791C492.01 41.1667 491.123 34.9277 489.606 26.1726C488.843 22.0786 487.894 16.2006 486.759 8.50759C486.233 8.04353 486.016 7.69292 486.098 7.45573C486.243 7.02262 486.521 6.26982 486.934 5.21796C487.491 3.78455 487.821 3.073 487.945 3.073C488.203 3.073 489.091 4.78484 490.597 8.19822C492.103 11.6116 492.856 13.5194 492.856 13.8906C492.856 13.9731 492.846 14.035 492.815 14.0659C492.609 14.2103 492.175 13.9009 491.505 13.1481C491.298 12.9109 490.793 12.4056 489.968 11.6116C490.989 17.4277 492.01 23.2233 493.032 29.0085C494.053 34.7937 494.579 38.9599 494.61 41.4967L494.6 41.507Z" fill="#00401A"/>
<path d="M473.129 16.8709C473.129 18.8612 472.19 21.0474 470.323 23.4398C468.775 25.3373 466.536 28.2557 463.617 32.2053C462.771 33.515 462.317 34.175 462.255 34.175C461.966 34.175 461.904 33.7625 462.079 32.9478C462.544 31.1328 463.482 29.225 464.886 27.2038C465.525 26.2345 466.681 24.7392 468.352 22.687C469.549 21.2021 470.148 20.3049 470.148 20.0161C470.148 19.3458 469.312 19.0674 467.651 19.1808C466.629 19.2427 462.884 20.2946 456.425 22.3364C448.997 24.6154 441.857 26.3788 434.986 27.6369C424.379 29.421 413.081 30.3078 401.093 30.3078C391.652 30.3078 383.161 29.6788 375.619 28.4207C369.273 27.3688 365.023 26.1107 362.856 24.6567C359.668 22.6355 356.191 19.748 352.425 15.984C351.723 15.3137 351.373 14.8909 351.373 14.7156C351.373 14.6537 351.434 14.6228 351.548 14.6228C351.723 14.6228 352.239 14.829 353.085 15.2415C354.22 15.85 356.407 16.9018 359.616 18.3971C365.26 20.8514 371.481 22.6148 378.291 23.6976C386.008 24.8939 396.006 25.492 408.284 25.492C418.044 25.492 427.784 24.5845 437.482 22.7798C443.353 21.6455 450.183 19.944 457.952 17.6959C464.236 15.8809 468.032 14.9837 469.353 14.9837C470.963 14.9837 472.046 15.2003 472.593 15.6437C472.944 15.9325 473.119 16.345 473.119 16.8709H473.129Z" fill="#00401A"/>
<path d="M345.657 48.87C345.657 50.1797 345.512 51.5306 345.223 52.9021C344.728 55.4389 344.305 56.7177 343.954 56.7177C343.748 56.7177 343.614 56.1917 343.562 55.1399C343.418 52.8918 343.345 51.6337 343.345 51.3759C342.788 45.8794 341.385 36.6705 339.136 23.7286C338.496 20.1399 337.65 14.7569 336.598 7.60011C336.072 7.13605 335.855 6.78543 335.937 6.54825C336.175 5.90889 336.536 4.96015 337.031 3.70205C337.444 2.6502 337.691 2.12427 337.774 2.12427C337.949 2.12427 338.826 3.81549 340.405 7.20824C342.159 10.9722 342.922 12.9522 342.685 13.1275C342.448 13.2719 341.994 12.9831 341.323 12.251C341.117 12.0138 340.611 11.4879 339.786 10.6732C340.807 16.0768 342.303 24.6773 344.253 36.4849C345.192 42.6517 345.657 46.7869 345.657 48.8906V48.87Z" fill="#00401A"/>
<path d="M330.046 50.7984C329.84 50.7984 329.592 50.2106 329.303 49.0453C328.891 47.4985 328.612 46.5291 328.468 46.1475C327.157 43.1982 325.022 40.0736 322.071 36.7736C318.707 33.154 315.344 29.5241 311.991 25.9045C307.781 21.202 304.686 17.0256 302.695 13.375C302.375 13.2306 302.003 13.0244 301.601 12.7563C301.539 12.6119 301.591 11.8385 301.735 10.436C301.88 9.03351 302.014 8.33228 302.127 8.33228C302.333 8.33228 303.592 9.29132 305.924 11.2197C308.245 13.1481 309.38 14.2 309.318 14.3753C309.236 14.664 308.204 14.5094 306.254 13.8906C307.42 15.7881 310.072 19.0055 314.188 23.5326C320.564 30.545 323.835 34.1543 324.011 34.3606C327.23 38.1039 329.2 41.6823 329.933 45.0957C330.748 48.8906 330.799 50.7881 330.067 50.7881L330.046 50.7984Z" fill="#00401A"/>
<path d="M335.123 42.6826C335.267 51.0356 332.729 57.0683 327.498 60.7807C325.455 62.1832 322.102 63.3691 317.459 64.3281C314.766 64.885 313.394 65.0912 313.342 64.9469C313.311 64.8541 314.25 64.3075 316.149 63.2763C318.687 61.9357 320.781 60.7085 322.422 59.5948C327.095 56.4701 330.201 53.8405 331.718 51.7059C332.626 50.4168 333.059 49.035 333.028 47.5397C332.966 44.7038 332.017 38.0008 330.18 27.4203C328.22 16.2624 327.157 9.43567 326.982 6.9504C326.569 6.53791 326.373 6.23885 326.373 6.0326C326.373 5.85729 326.642 5.14574 327.188 3.88764C327.725 2.62954 328.076 2.00049 328.22 2.00049C328.457 2.00049 329.345 3.70202 330.892 7.10508C332.44 10.5081 333.1 12.2819 332.863 12.4262C332.512 12.6325 331.635 11.7869 330.232 9.88941C331.078 14.7671 331.924 19.6345 332.77 24.4813C334.287 33.1334 335.081 39.1867 335.133 42.6723L335.123 42.6826Z" fill="#00401A"/>
<path d="M279.202 50.7984C278.995 50.7984 278.748 50.2106 278.459 49.0453C278.046 47.4985 277.767 46.5291 277.623 46.1475C276.313 43.1982 274.177 40.0736 271.226 36.7736C267.863 33.154 264.499 29.5241 261.146 25.9045C256.936 21.202 253.841 17.0256 251.85 13.375C251.53 13.2306 251.159 13.0244 250.756 12.7563C250.694 12.6119 250.746 11.8385 250.89 10.436C251.035 9.03351 251.169 8.33228 251.282 8.33228C251.489 8.33228 252.748 9.29132 255.079 11.2197C257.401 13.1481 258.536 14.2 258.474 14.3753C258.391 14.664 257.359 14.5094 255.409 13.8906C256.575 15.7881 259.227 19.0055 263.344 23.5326C269.72 30.545 272.99 34.1543 273.166 34.3606C276.385 38.1039 278.356 41.6823 279.088 45.0957C279.903 48.8906 279.955 50.7881 279.222 50.7881L279.202 50.7984Z" fill="#00401A"/>
<path d="M291.696 53.5106C292.109 53.5106 292.315 53.8922 292.315 54.6553C292.315 56.759 291.748 57.8109 290.603 57.8109C286.424 57.8109 283.968 54.1603 283.236 46.8592C282.885 50.221 281.998 53.1807 280.564 55.7587C278.521 59.4712 275.9 61.8327 272.712 62.8536C267.337 64.4623 264.159 65.2667 263.199 65.2667C262.384 65.2667 262.745 64.8439 264.293 63.9983C267.533 62.2142 269.338 61.2346 269.689 61.0593C272.207 59.5743 274.084 58.2853 275.343 57.2025C279.81 53.3766 282.049 49.2413 282.049 44.7967V43.9202C281.585 39.7128 280.43 32.3807 278.583 21.924C277.675 17.0154 276.746 12.1067 275.776 7.19803C275.776 6.96085 275.931 6.05337 276.241 4.45496C276.55 2.86686 276.756 2.0625 276.88 2.0625C277.169 2.0625 277.551 3.08342 278.026 5.12526C279.109 9.013 280.244 14.3754 281.441 21.2125C283.112 31.0607 284.34 39.2281 285.124 45.7042C285.795 50.9016 287.992 53.5003 291.696 53.5003V53.5106Z" fill="#00401A"/>
<path d="M319.409 47.1994C319.409 52.2525 317.872 54.779 314.807 54.779C312.176 54.779 310.691 53.4487 310.34 50.7881C310.226 51.0562 309.803 51.8709 309.071 53.2424C308.72 54.0571 308.029 54.8305 307.007 55.5627C305.872 56.4083 304.696 56.8311 303.499 56.8311C302.179 56.8311 301.065 56.3361 300.146 55.3462C299.228 54.3562 298.795 53.2012 298.857 51.8812C298.299 52.7268 297.422 53.8715 296.226 55.2946C294.503 56.9652 292.614 57.7902 290.572 57.7902C290.159 57.7902 289.963 57.4086 289.963 56.6455C289.963 54.5418 290.53 53.4899 291.676 53.4899C294.193 53.4899 296.731 51.6956 299.3 48.0966C299.713 47.5707 300.074 47.1788 300.394 46.9107C300.745 46.6219 300.982 46.4982 301.095 46.5601C301.271 46.6219 301.302 46.7973 301.188 47.086C300.776 47.9316 300.569 48.6638 300.569 49.2722C300.569 51.2315 301.89 52.2112 304.521 52.2112C307.152 52.2112 308.978 50.6953 310.175 47.6532C310.464 46.7457 310.763 46.0651 311.052 45.5907C311.547 44.8585 311.939 44.611 312.238 44.8482C312.3 44.9101 312.207 45.302 311.97 46.0341C311.619 46.9932 311.857 47.9522 312.672 48.8803C313.456 49.726 314.508 50.1488 315.829 50.1488C317.149 50.1488 317.799 49.8291 317.799 49.1897C317.799 48.8082 317.645 48.4266 317.335 48.0554C317.026 47.6738 316.871 47.3851 316.871 47.1788C316.871 46.9416 317.108 46.2301 317.593 45.0338C318.078 43.8376 318.377 43.2395 318.491 43.2395C318.604 43.2395 318.8 43.6314 319.058 44.4254C319.296 45.3329 319.409 46.2507 319.409 47.1891V47.1994Z" fill="#00401A"/>
<path d="M237.983 53.5107C238.334 53.5107 238.51 53.8923 238.51 54.6554C238.51 56.7591 237.973 57.811 236.89 57.811C234.64 57.811 232.732 56.7797 231.163 54.7173C229.595 52.6548 228.471 51.6236 227.769 51.6236C225.726 51.6236 223.828 53.5107 222.074 57.2747C221.259 59.3784 220.392 61.4409 219.484 63.4518C218.401 65.4936 217.142 66.5145 215.718 66.5145C214.294 66.5145 212.85 65.4627 211.601 63.359C210.343 61.4615 209.713 59.3681 209.713 57.0891C209.713 55.336 209.889 53.6241 210.24 51.9639C210.59 50.417 210.931 49.6745 211.251 49.7261C211.488 49.7261 211.519 50.1798 211.344 51.0873C211.106 52.5723 210.993 53.8923 210.993 55.0266C210.993 57.3675 211.467 59.2959 212.417 60.8118C213.366 62.3277 214.47 63.0909 215.728 63.0909C217.163 63.0909 218.927 60.6056 221.032 55.6454C222.229 52.8404 223.601 50.6233 225.148 48.9836C226.459 47.6121 227.635 46.9211 228.656 46.9211C229.327 46.9211 229.925 47.3336 230.452 48.1483C230.978 48.963 231.545 49.788 232.164 50.6026C233.598 52.6445 235.538 53.6138 237.994 53.4901L237.983 53.5107Z" fill="#00401A"/>
<path d="M250.044 52.1494C250.457 52.1494 250.653 52.5619 250.653 53.3766C250.653 55.4803 250.096 56.5322 248.992 56.5322C247.702 56.4703 246.671 55.9959 245.876 55.0885C245.381 54.5316 244.999 53.521 244.731 52.067C242.513 55.9238 239.892 57.8522 236.879 57.8522C236.467 57.8522 236.271 57.4397 236.271 56.625C236.271 54.5213 236.828 53.4694 237.932 53.4694C240.005 53.356 241.677 52.6857 242.925 51.4585C243.513 50.5201 244.287 49.3445 245.247 47.9111C245.742 47.2098 246.124 46.9314 246.392 47.0758C246.505 47.1377 246.505 47.313 246.392 47.6017C245.897 48.7464 246.175 49.8807 247.228 51.0254C247.991 51.7885 248.92 52.1701 250.034 52.1701L250.044 52.1494Z" fill="#00401A"/>
<path d="M264.726 48.1687C264.613 47.4056 264.128 46.7766 263.282 46.2816C262.58 45.8691 261.982 45.6938 261.487 45.7556C260.754 45.8175 260.341 46.0134 260.259 46.3641C260.228 46.5394 260.795 46.89 261.951 47.4159C263.106 47.9418 264.035 48.1893 264.737 48.1584L264.726 48.1687ZM268.1 49.1793C268.1 49.5609 267.76 50.3034 267.089 51.4171C266.387 52.6133 265.799 53.2321 265.335 53.2527C264.778 53.3146 263.643 52.9949 261.92 52.2936C259.99 51.5099 258.381 50.6334 257.102 49.664C254.997 54.253 252.294 56.5423 248.992 56.5423C248.579 56.5423 248.383 56.1298 248.383 55.3152C248.383 53.2114 248.94 52.1596 250.044 52.1596C251.623 52.1596 252.985 51.6233 254.12 50.5406C254.997 49.7259 256.039 48.2615 257.236 46.1578C257.525 45.6319 257.875 45.106 258.288 44.58C258.371 44.58 258.536 44.6728 258.773 44.8482C260.001 42.631 261.404 41.4451 262.983 41.3007C264.21 41.1873 265.294 41.7957 266.233 43.1363C267.491 44.9203 268.121 46.9312 268.121 49.1793H268.1Z" fill="#00401A"/>
<path d="M200.675 52.861C201.088 52.861 201.284 53.2735 201.284 54.0881C201.284 56.1919 200.727 57.2437 199.623 57.2437C193.773 57.2437 190.389 52.5722 189.45 43.219C187.49 23.2956 185.343 10.962 183.001 6.22869C182.94 6.08432 183.136 5.27995 183.569 3.81561C184.002 2.35126 184.27 1.62939 184.353 1.62939C184.497 1.62939 184.869 2.36157 185.447 3.81561C186.148 5.53776 186.705 7.22898 187.118 8.89958C188.346 13.9836 189.388 20.0884 190.234 27.2143C191.369 37.0934 191.978 42.198 192.029 42.5487C193.113 49.4167 195.991 52.8507 200.665 52.8507L200.675 52.861Z" fill="#00401A"/>
<path d="M207.34 48.8288C207.34 51.1387 206.855 52.9743 205.896 54.3459C204.493 56.2743 202.398 57.2333 199.623 57.2333C199.21 57.2333 199.014 56.8208 199.014 56.0061C199.014 53.9024 199.571 52.8506 200.675 52.8506C201.697 52.8506 202.894 52.4999 204.266 51.7987C205.524 51.1593 206.154 50.6747 206.154 50.355C206.154 49.6847 205.741 48.7566 204.926 47.5707C204.111 46.3847 203.698 45.8382 203.698 45.931C203.698 45.6629 203.812 44.941 204.049 43.7654C204.286 42.5795 204.462 41.9917 204.575 41.9917C204.895 41.9917 205.39 42.6207 206.061 43.8789C206.907 45.4566 207.33 47.1066 207.33 48.8288H207.34Z" fill="#00401A"/>
<path d="M137.986 52.9021C138.337 52.9021 138.512 53.2836 138.512 54.0467C138.512 56.1504 137.976 57.2023 136.893 57.2023C134.643 57.2023 132.735 56.1711 131.166 54.1086C129.598 52.0461 128.474 51.0149 127.772 51.0149C125.729 51.0149 123.831 52.9021 122.077 56.6661C121.262 58.7698 120.395 60.8322 119.487 62.8431C118.404 64.885 117.145 65.9059 115.721 65.9059C114.297 65.9059 112.853 64.854 111.604 62.7503C110.346 60.8529 109.716 58.7595 109.716 56.4804C109.716 54.7274 109.892 53.0155 110.243 51.3552C110.593 49.8084 110.934 49.0659 111.254 49.1175C111.491 49.1175 111.522 49.5712 111.346 50.4787C111.109 51.9637 110.996 53.2836 110.996 54.418C110.996 56.7589 111.47 58.6873 112.419 60.2032C113.369 61.7191 114.473 62.4822 115.731 62.4822C117.166 62.4822 118.93 59.9969 121.035 55.0367C122.231 52.2318 123.604 50.0146 125.151 48.375C126.462 47.0034 127.638 46.3125 128.659 46.3125C129.33 46.3125 129.928 46.725 130.454 47.5397C130.981 48.3543 131.548 49.1793 132.167 49.994C133.601 52.0358 135.541 53.0052 137.997 52.8814L137.986 52.9021Z" fill="#00401A"/>
<path d="M154.824 46.3333C151.781 45.8693 149.696 45.663 148.551 45.7249C149.253 46.1374 150.14 46.8799 151.223 47.9627C153.091 47.0552 154.288 46.519 154.814 46.3436L154.824 46.3333ZM161.097 43.8378C161.366 44.1265 160.922 45.4465 159.787 47.7874C158.477 47.9008 156.423 48.7361 153.648 50.2829C155.639 52.036 157.765 52.9126 160.045 52.9126C160.396 52.9126 160.571 53.2941 160.571 54.0573C160.571 56.161 160.035 57.2128 158.951 57.2128C157.28 57.2128 155.763 56.79 154.391 55.9444C153.483 55.4185 152.039 54.2016 150.047 52.3042C144.197 55.5732 139.833 57.2128 136.934 57.2128C136.521 57.2128 136.315 56.8313 136.315 56.0682C136.315 53.9644 136.851 52.9126 137.935 52.9126C140.153 52.9126 143.331 51.8917 147.447 49.8498C145.167 47.8389 143.248 46.8283 141.7 46.8283C140.679 46.8283 139.874 46.9108 139.286 47.0964C138.791 47.2718 138.512 47.3543 138.45 47.3543C138.389 47.2924 138.574 46.684 138.997 45.5187C139.42 44.3534 139.689 43.6831 139.812 43.5078C141.36 42.2497 144.589 41.6206 149.5 41.6206C151.956 41.6206 154.587 41.9712 157.393 42.6725C159.674 43.2809 160.901 43.6831 161.077 43.8584L161.097 43.8378Z" fill="#00401A"/>
<path d="M174.118 47.4677C174.531 47.4677 174.727 47.8492 174.727 48.6123C174.727 50.716 174.159 51.7679 173.014 51.7679C170.445 51.7679 168.619 50.3964 167.535 47.6533C167.474 50.3448 167.02 52.2835 166.174 53.4797C164.451 55.996 162.026 57.2437 158.9 57.2437C158.487 57.2437 158.291 56.8209 158.291 55.9753C158.291 53.9025 158.858 52.861 160.004 52.861C161.438 52.861 162.779 52.5001 164.038 51.7679C165.472 51.0048 166.132 50.0251 166.008 48.8289C165.833 45.7661 164.719 38.4238 162.676 26.8327C161.861 21.6353 160.788 15.0148 159.478 6.98151C159.416 6.74433 159.643 5.77497 160.138 4.06313C160.633 2.35128 160.953 1.49536 161.108 1.49536C161.283 1.49536 162.686 9.03366 165.317 24.1103C165.905 27.5236 166.71 32.1436 167.732 37.9597C168.289 41.2906 168.856 43.5284 169.444 44.6627C170.404 46.5292 171.972 47.4677 174.139 47.4677H174.118Z" fill="#00401A"/>
<path d="M181.835 40.0221C181.866 43.1468 181.144 45.8383 179.689 48.0864C178.08 50.5716 175.862 51.8091 173.024 51.8091C172.612 51.8091 172.416 51.3966 172.416 50.5819C172.416 48.4782 172.973 47.4264 174.077 47.4264C175.418 47.4264 176.646 47.0758 177.76 46.3745C179.019 45.5599 179.597 44.5596 179.514 43.3943C179.246 39.6818 178.358 33.4429 176.842 24.6877C176.078 20.5937 175.129 14.7157 173.994 7.02273C173.468 6.55867 173.251 6.20805 173.334 5.97087C173.478 5.53775 173.757 4.78495 174.169 3.7331C174.727 2.29968 175.057 1.58813 175.181 1.58813C175.439 1.58813 176.326 3.29998 177.832 6.71336C179.339 10.1267 180.092 12.0345 180.092 12.4058C180.092 12.4883 180.081 12.5501 180.05 12.5811C179.844 12.7254 179.411 12.4161 178.74 11.6633C178.534 11.4261 178.028 10.9208 177.203 10.1267C178.224 15.9429 179.246 21.7384 180.267 27.5236C181.289 33.3088 181.815 37.475 181.846 40.0118L181.835 40.0221Z" fill="#00401A"/>
<path d="M117.537 47.6635C117.537 48.9731 117.392 50.324 117.104 51.6956C116.608 54.2324 116.185 55.5111 115.835 55.5111C115.628 55.5111 115.494 54.9852 115.442 53.9333C115.298 51.6853 115.226 50.4272 115.226 50.1693C114.669 44.6729 113.265 35.464 111.016 22.522C110.377 18.9333 109.531 13.5503 108.478 6.39356C107.952 5.92951 107.735 5.57889 107.818 5.34171C108.055 4.70234 108.416 3.75361 108.911 2.49551C109.324 1.44365 109.572 0.917725 109.654 0.917725C109.83 0.917725 110.707 2.60894 112.285 6.0017C114.039 9.76569 114.803 11.7457 114.565 11.921C114.328 12.0653 113.874 11.7766 113.204 11.0444C112.997 10.8072 112.492 10.2813 111.666 9.46663C112.688 14.8703 114.184 23.4708 116.134 35.2784C117.073 41.4451 117.537 45.5804 117.537 47.6841V47.6635Z" fill="#00401A"/>
<path d="M85.2432 53.4899C85.6559 53.4899 85.8519 53.9024 85.8519 54.7171C85.8519 56.8208 85.2947 57.8726 84.1908 57.8726C78.3407 57.8726 74.9566 53.2011 74.0177 43.8479C72.0574 23.9245 69.9114 11.5909 67.5693 6.85759C67.5074 6.71322 67.7034 5.90886 68.1367 4.44451C68.5701 2.98016 68.8383 2.2583 68.9209 2.2583C69.0653 2.2583 69.4368 2.99048 70.0145 4.44451C70.7161 6.16667 71.2733 7.85789 71.686 9.52848C72.9138 14.6125 73.9558 20.7173 74.8018 27.8432C75.9368 37.7224 76.5455 42.827 76.5971 43.1776C77.6804 50.0456 80.559 53.4796 85.2328 53.4796L85.2432 53.4899Z" fill="#00401A"/>
<path d="M97.3456 52.1802C97.7583 52.1802 97.9544 52.5927 97.9544 53.4074C97.9544 55.5111 97.3972 56.5629 96.2932 56.5629C95.0036 56.5011 93.9718 56.0267 93.1774 55.1192C92.6821 54.5624 92.3004 53.5518 92.0321 52.0977C89.8139 55.9545 87.1932 57.8829 84.1805 57.8829C83.7678 57.8829 83.5718 57.4704 83.5718 56.6558C83.5718 54.552 84.1289 53.5002 85.2329 53.5002C87.3067 53.3868 88.9781 52.7165 90.2266 51.4893C90.8147 50.5509 91.5885 49.3753 92.548 47.9419C93.0432 47.2406 93.425 46.9622 93.6932 47.1066C93.8067 47.1684 93.8067 47.3437 93.6932 47.6325C93.198 48.7771 93.4766 49.9115 94.529 51.0562C95.2925 51.8193 96.221 52.2008 97.3353 52.2008L97.3456 52.1802Z" fill="#00401A"/>
<path d="M105.104 44.776C105.135 47.9007 104.413 50.5922 102.958 52.8403C101.349 55.3255 99.1306 56.563 96.2933 56.563C95.8806 56.563 95.6845 56.1505 95.6845 55.3359C95.6845 53.2321 96.2417 52.1803 97.3456 52.1803C98.6869 52.1803 99.9147 51.8297 101.029 51.1284C102.288 50.3138 102.866 49.3135 102.783 48.1482C102.515 44.4357 101.215 35.8662 98.883 22.4293C98.2433 18.8406 97.3972 13.4575 96.3448 6.30079C95.8187 5.83674 95.602 5.48612 95.6845 5.24893C96.1488 3.99083 96.5203 3.0421 96.7782 2.40274C97.2218 1.35088 97.4798 0.824951 97.5726 0.824951C97.8409 0.824951 98.7179 2.51617 100.204 5.90892C101.72 9.38417 102.484 11.3126 102.484 11.6941C102.484 11.756 102.473 11.7973 102.442 11.8282C102.236 11.9726 101.782 11.6838 101.081 10.9516C100.874 10.7145 100.379 10.1885 99.5949 9.37386C100.792 16.2109 101.989 23.048 103.185 29.8851C104.444 37.2481 105.084 42.2186 105.115 44.7864L105.104 44.776Z" fill="#00401A"/>
<path d="M63.6074 52.2318C64.0201 52.2318 64.2161 52.6443 64.2161 53.459C64.2161 55.5627 63.659 56.6146 62.555 56.6146C56.705 56.6146 53.3209 51.9431 52.382 42.5898C50.4217 22.6664 48.2756 10.3329 45.9335 5.59954C45.8716 5.45516 46.0677 4.6508 46.501 3.18646C46.9343 1.72211 47.2026 1.00024 47.2851 1.00024C47.4296 1.00024 47.801 1.73242 48.3788 3.18646C49.0804 4.90861 49.6375 6.59983 50.0502 8.27043C51.278 13.3544 52.3201 19.4593 53.1661 26.5851C54.301 36.4643 54.9098 41.5689 54.9613 41.9195C56.0447 48.7875 58.9233 52.2215 63.5971 52.2215L63.6074 52.2318Z" fill="#00401A"/>
<path d="M70.2725 48.1999C70.2725 50.5098 69.7876 52.3454 68.8281 53.7169C67.4249 55.6454 65.3304 56.6044 62.555 56.6044C62.1423 56.6044 61.9463 56.1919 61.9463 55.3772C61.9463 53.2735 62.5034 52.2217 63.6074 52.2217C64.6288 52.2217 65.8257 51.871 67.1979 51.1698C68.4566 50.5304 69.086 50.0458 69.086 49.7261C69.086 49.0558 68.6733 48.1277 67.8582 46.9418C67.0431 45.7558 66.6304 45.2093 66.6304 45.3021C66.6304 45.034 66.7439 44.3121 66.9812 43.1365C67.2185 41.9506 67.3939 41.3628 67.5074 41.3628C67.8273 41.3628 68.3225 41.9918 68.9931 43.2499C69.8392 44.8277 70.2622 46.4777 70.2622 48.1999H70.2725Z" fill="#00401A"/>
<path d="M29.8383 52.7165C30.1891 52.7165 30.3645 53.0981 30.3645 53.8612C30.3645 55.9649 29.828 57.0168 28.7446 57.0168C26.4954 57.0168 24.5867 55.9855 23.0184 53.9231C21.4502 51.8606 20.3256 50.8294 19.624 50.8294C17.5811 50.8294 15.6827 52.7165 13.9287 56.4805C13.1136 58.5842 12.247 60.6467 11.339 62.6576C10.2557 64.6994 8.99695 65.7204 7.57314 65.7204C6.14933 65.7204 4.70488 64.6685 3.45646 62.5648C2.19773 60.6673 1.56836 58.5739 1.56836 56.2949C1.56836 54.5418 1.74376 52.83 2.09455 51.1697C2.44535 49.6228 2.78582 48.8803 3.10567 48.9319C3.34297 48.9319 3.37392 49.3856 3.19852 50.2931C2.96122 51.7781 2.84773 53.0981 2.84773 54.2324C2.84773 56.5733 3.32233 58.5017 4.27154 60.0176C5.22075 61.5336 6.32472 62.2967 7.58346 62.2967C9.01759 62.2967 10.7819 59.8114 12.8866 54.8512C14.0835 52.0462 15.4557 49.8291 17.0033 48.1894C18.3137 46.8179 19.4898 46.127 20.5113 46.127C21.1819 46.127 21.7803 46.5394 22.3065 47.3541C22.8327 48.1688 23.4002 48.9938 24.0192 49.8084C25.4534 51.8503 27.393 52.8196 29.8486 52.6959L29.8383 52.7165Z" fill="#00401A"/>
<path d="M41.8891 51.3553C42.3018 51.3553 42.4978 51.7678 42.4978 52.5824C42.4978 54.6861 41.9407 55.738 40.8367 55.738C39.547 55.6761 38.5153 55.2018 37.7208 54.2943C37.2256 53.7374 36.8438 52.7268 36.5756 51.2728C34.3573 55.1296 31.7367 57.058 28.724 57.058C28.3113 57.058 28.1152 56.6455 28.1152 55.8308C28.1152 53.7271 28.6724 52.6752 29.7764 52.6752C31.8502 52.5618 33.5216 51.8915 34.77 50.6643C35.3581 49.7259 36.1319 48.5503 37.0915 47.1169C37.5867 46.4157 37.9684 46.1372 38.2367 46.2816C38.3502 46.3435 38.3502 46.5188 38.2367 46.8075C37.7415 47.9522 38.02 49.0866 39.0724 50.2312C39.8359 50.9943 40.7645 51.3759 41.8788 51.3759L41.8891 51.3553Z" fill="#00401A"/>
<path d="M47.4604 48.9937C47.4604 53.4589 45.2421 55.6967 40.7953 55.6967C40.3826 55.6967 40.1865 55.3152 40.1865 54.552C40.1865 52.4483 40.754 51.3965 41.8992 51.3965C42.9207 51.3965 43.8389 51.1902 44.6643 50.788C45.4588 50.4684 45.8508 50.159 45.8508 49.8703C45.8508 49.5815 45.6342 49.0453 45.2111 48.2718C44.7881 47.4984 44.5715 47.1066 44.5715 47.1066C44.5715 46.9003 44.6953 46.1991 44.9429 45.0028C45.1905 43.8066 45.3762 43.2085 45.4897 43.2085C45.727 43.2085 46.0778 43.6932 46.5421 44.6522C47.1508 45.9103 47.4604 47.354 47.4604 48.9937Z" fill="#00401A"/>
<path d="M482.859 28.1217C482.931 27.8536 482.962 27.5545 482.962 27.2348C482.962 26.7295 482.859 26.2758 482.652 25.8839C482.446 25.5436 482.26 25.3786 482.095 25.3786C481.806 25.3786 481.466 25.5746 481.063 25.9561C480.661 26.3377 480.465 26.6161 480.465 26.7811C480.465 27.0492 481.259 27.503 482.859 28.132V28.1217ZM484.489 28.8642C484.489 28.8642 484.54 28.8951 484.54 28.9673C484.54 29.1323 484.427 29.4417 484.2 29.8748C483.973 30.3079 483.818 30.5245 483.756 30.5245C483.756 30.5245 483.375 30.3904 482.611 30.112C482.013 31.2154 480.754 32.556 478.814 34.1338C476.431 36.0003 472.985 38.0525 468.466 40.2696C467.97 40.5274 467.393 40.8059 466.732 41.1152C466.701 41.0843 466.65 41.043 466.578 41.0121C466.609 40.909 466.805 40.7337 467.166 40.4759C470.498 38.2175 472.789 36.7016 474.047 35.9384C478.164 33.4429 480.805 31.432 481.971 29.8954C480.238 29.1942 479.371 28.4826 479.371 27.7505C479.371 27.0183 479.774 26.1005 480.568 25.0899C481.363 24.0793 482.085 23.574 482.714 23.574C483.55 23.574 483.963 24.2855 483.963 25.7189C483.963 26.3171 483.756 27.1833 483.354 28.3176C483.798 28.5342 484.179 28.7198 484.499 28.8539L484.489 28.8642Z" fill="#00401A"/>
<path d="M456.208 35.5672C454.97 36.1447 453.062 36.5366 450.482 36.7222C450.297 36.7222 450.183 36.6706 450.131 36.5778C450.08 36.4334 450.131 36.32 450.276 36.2272C451.947 35.5053 454.114 34.505 456.776 33.2263C456.404 32.8757 455.239 32.6282 453.289 32.4941C451.421 32.3498 450.266 32.3291 449.801 32.4219C449.595 32.4735 449.44 32.4735 449.347 32.4219C449.254 32.3807 449.275 32.257 449.42 32.0713C450.09 31.0195 450.905 29.9573 451.865 28.8642C453.732 28.4723 456.116 28.6992 459.025 29.5654C459.727 29.7511 460.078 30.1636 460.078 30.7823C460.078 31.4526 459.593 32.3498 458.623 33.4738C457.653 34.5875 456.858 35.2888 456.229 35.5672H456.208Z" fill="#00401A"/>
<path d="M430.962 12.5398L436.027 15.5097L433.593 19.8925L428.619 16.9741L426.577 20.6247L421.511 17.6547L423.946 13.272L428.919 16.1904L430.962 12.5398Z" fill="#00401A"/>
<path d="M397.708 0.360898C397.708 0.494958 397.564 0.897139 397.275 1.57775C396.986 2.25836 396.749 2.6193 396.573 2.66054C388.402 5.39331 381.923 7.61046 377.135 9.30168C368.056 12.4882 361.556 14.9425 357.635 16.675C357.635 16.2316 357.811 15.7366 358.151 15.19C358.492 14.6435 358.801 14.2928 359.069 14.1382C370.284 9.44605 383.171 4.84676 397.708 0.350586V0.360898Z" fill="#00401A"/>
<path d="M362.443 34.4431C362.443 35.763 362.257 36.9283 361.896 37.9389C361.68 38.5474 361.463 38.8464 361.267 38.8464C361.122 38.8052 361.081 38.6299 361.153 38.2999C361.391 37.2686 361.515 36.423 361.515 35.7424C361.515 33.0818 360.08 30.38 357.222 27.6266C357.15 27.5544 357.222 27.111 357.419 26.3066C357.625 25.5023 357.759 25.1001 357.831 25.1001C358.368 25.1001 359.234 26.0282 360.442 27.8741C361.855 30.0397 362.526 32.2259 362.453 34.4534L362.443 34.4431Z" fill="#00401A"/>
<path d="M430.497 4.31065C430.879 2.75349 430.632 1.96975 429.765 1.96975C428.981 1.96975 428.599 2.28943 428.599 2.93911C428.599 3.40316 429.239 3.86722 430.508 4.31065H430.497ZM432.767 5.20782C432.767 5.34188 432.664 5.59969 432.468 5.99156C432.272 6.38342 432.148 6.57936 432.097 6.57936C431.54 6.48655 430.92 6.30093 430.229 6.01218C428.919 8.06433 426.236 10.2093 422.182 12.4574C421.851 12.6327 420.995 12.9833 419.623 13.5092C418.251 14.0352 417.528 14.2723 417.436 14.2311C417.394 14.1383 418.106 13.6845 419.571 12.8596C424.627 10.168 428.021 7.81684 429.755 5.81625C428.238 5.12532 427.485 4.30034 427.485 3.3516C427.485 2.81536 427.805 2.14506 428.455 1.35101C429.105 0.546653 429.713 0.154785 430.291 0.154785C431.024 0.154785 431.395 0.97977 431.395 2.61943C431.395 3.2691 431.282 3.89816 431.065 4.51689C432.2 4.89845 432.767 5.12532 432.767 5.21813V5.20782Z" fill="#00401A"/>
<path d="M414.835 1.13428C414.918 1.25803 414.866 1.50552 414.681 1.89739C414.505 2.28926 414.371 2.50582 414.289 2.54706C411.74 3.48549 409.192 4.43422 406.643 5.37264C403.393 6.62043 401.051 7.65166 399.607 8.46633C399.524 8.30134 399.524 7.99197 399.607 7.53823C399.689 7.13605 399.793 6.88855 399.906 6.78543C404.477 4.74359 409.45 2.85643 414.825 1.13428H414.835Z" fill="#00401A"/>
<path d="M429.992 32.1126C430.105 32.2776 430.033 32.6179 429.786 33.1438C429.538 33.6698 429.362 33.9585 429.259 34.0101C425.824 35.2785 422.398 36.5469 418.962 37.8153C414.588 39.4859 411.42 40.8781 409.481 41.9918C409.378 41.7752 409.378 41.3628 409.481 40.7337C409.594 40.1975 409.728 39.8572 409.883 39.7231C416.043 36.9697 422.749 34.4329 429.982 32.1023L429.992 32.1126Z" fill="#00401A"/>
<path d="M367.065 2.89785C367.23 3.06284 367.23 3.47534 367.065 4.15595C366.962 4.80562 366.797 5.12531 366.58 5.12531C366.58 5.12531 366.415 4.90875 366.075 4.47563C365.734 4.04251 365.384 3.82595 365.002 3.82595C364.218 3.82595 363.661 5.27999 363.341 8.17775C363.021 11.0858 362.722 12.5089 362.453 12.4471C362.103 12.4471 361.742 11.8077 361.36 10.5393C360.926 8.92024 360.184 7.66214 359.131 6.77528C359.08 6.90934 358.997 7.03308 358.884 7.13621C358.698 7.18777 358.223 7.01246 357.491 6.58965C356.748 6.16685 356.345 5.79561 356.294 5.47592C356.129 3.96001 356.418 3.20722 357.15 3.20722C358.471 3.15565 359.874 4.56844 361.37 7.45589C361.587 8.054 361.896 8.73462 362.299 9.51835C362.464 8.1365 362.68 6.76496 362.949 5.38311C363.382 2.81535 364.073 1.55724 365.012 1.61912C365.745 1.61912 366.436 2.04192 367.076 2.87722L367.065 2.89785Z" fill="#00401A"/>
<path d="M451.06 3.10396C451.205 3.24833 451.205 3.62988 451.06 4.23831C450.967 4.82611 450.812 5.11486 450.627 5.11486C450.627 5.11486 450.472 4.91892 450.173 4.52706C449.874 4.13519 449.543 3.93925 449.203 3.93925C448.501 3.93925 447.996 5.24892 447.707 7.85793C447.418 10.4669 447.15 11.7457 446.902 11.7044C446.582 11.7044 446.262 11.1372 445.922 9.99258C445.53 8.53855 444.859 7.40419 443.92 6.59983C443.869 6.72358 443.797 6.8267 443.704 6.92983C443.539 6.98139 443.116 6.81639 442.445 6.43483C441.774 6.05328 441.413 5.72328 441.372 5.43454C441.228 4.07331 441.485 3.3927 442.135 3.3927C443.322 3.34114 444.591 4.61987 445.922 7.21857C446.118 7.75481 446.397 8.37355 446.758 9.07479C446.902 7.83731 447.098 6.59983 447.346 5.36235C447.738 3.05239 448.357 1.92835 449.203 1.9696C449.863 1.9696 450.482 2.35116 451.06 3.10396Z" fill="#00401A"/>
<path d="M481.125 3.43396C481.259 3.56802 481.259 4.03207 481.125 4.83643C481.032 5.15611 480.878 5.15611 480.651 4.83643C480.331 4.36207 479.928 4.11457 479.454 4.11457C478.752 4.11457 478.391 4.53737 478.391 5.38298C478.298 6.92983 478.205 8.75511 478.123 10.8485C478.35 10.8485 478.804 11.1373 479.485 11.7147C480.166 12.2922 480.537 12.6738 480.578 12.8594C480.62 13.1069 480.568 13.4163 480.403 13.7772C480.248 14.1381 480.114 14.3238 480.032 14.3238C479.052 14.4166 478.03 14.6744 476.978 15.0972C475.915 15.52 475.409 15.9222 475.461 16.314C477.194 24.6876 478.061 29.256 478.061 30.0088C478.061 30.576 477.989 30.8647 477.855 30.8647C477.762 30.8235 477.7 30.6688 477.648 30.4213C477.328 28.5548 476.792 25.8839 476.039 22.3983C475.286 19.3252 474.914 17.3865 474.914 16.5925C474.914 15.6128 475.265 14.7466 475.977 13.9938C476.565 13.3338 477.287 12.9316 478.133 12.7975C477.906 12.6119 477.566 12.5191 477.112 12.5191C476.813 12.5191 476.575 12.7047 476.39 13.0863C476.204 13.4575 476.07 13.6535 475.977 13.6535C475.936 13.6535 475.905 13.54 475.905 13.3132C475.905 12.8388 476.039 12.3438 476.317 11.8488C476.637 11.1888 477.009 10.8588 477.442 10.8588C477.401 10.5391 477.112 9.94103 476.586 9.05417C475.998 7.98169 475.482 7.3217 475.048 7.07421C474.955 7.46607 474.863 7.65169 474.77 7.65169C474.584 7.65169 474.12 7.41451 473.367 6.95046C472.613 6.4864 472.242 6.15641 472.242 5.9811C472.242 4.70237 472.459 4.07332 472.892 4.07332C473.573 4.07332 474.357 4.4755 475.244 5.26955C476.224 6.19766 477.04 7.42482 477.7 8.92011V8.84792C477.7 8.09512 477.721 6.85765 477.772 5.12518C477.958 3.35146 478.463 2.4646 479.309 2.4646C479.877 2.4646 480.486 2.79459 481.115 3.45458L481.125 3.43396Z" fill="#00401A"/>
<path d="M466.041 2.6916C466.186 2.83597 466.186 3.21753 466.041 3.82596C465.948 4.41376 465.793 4.7025 465.608 4.7025C465.608 4.7025 465.453 4.50657 465.154 4.1147C464.855 3.72283 464.524 3.5269 464.184 3.5269C463.482 3.5269 462.977 4.83656 462.688 7.44558C462.399 10.0546 462.131 11.3333 461.883 11.2921C461.563 11.2921 461.243 10.7249 460.903 9.58023C460.511 8.12619 459.84 6.99184 458.901 6.18748C458.85 6.31122 458.778 6.41435 458.685 6.51747C458.52 6.56903 458.097 6.40404 457.426 6.02248C456.755 5.64092 456.394 5.31093 456.353 5.02219C456.208 3.66096 456.466 2.98035 457.116 2.98035C458.303 2.92879 459.572 4.20751 460.903 6.80622C461.099 7.34246 461.378 7.9612 461.739 8.66243C461.883 7.42495 462.079 6.18748 462.327 4.95C462.719 2.64004 463.338 1.516 464.184 1.55725C464.844 1.55725 465.463 1.9388 466.041 2.6916Z" fill="#00401A"/>
<path d="M390.94 13.767C391.085 13.9114 391.085 14.293 390.94 14.9014C390.847 15.4892 390.693 15.7779 390.507 15.7779C390.507 15.7779 390.352 15.582 390.053 15.1901C389.754 14.7983 389.424 14.6023 389.083 14.6023C388.381 14.6023 387.876 15.912 387.587 18.521C387.298 21.13 387.03 22.4088 386.782 22.3675C386.462 22.3675 386.143 21.8003 385.802 20.6557C385.41 19.2016 384.739 18.0673 383.801 17.2629C383.749 17.3867 383.677 17.4898 383.584 17.5929C383.419 17.6445 382.996 17.4795 382.325 17.0979C381.654 16.7164 381.293 16.3864 381.252 16.0976C381.108 14.7364 381.366 14.0558 382.016 14.0558C383.202 14.0042 384.471 15.283 385.802 17.8817C385.998 18.4179 386.277 19.0366 386.638 19.7379C386.782 18.5004 386.978 17.2629 387.226 16.0254C387.618 13.7155 388.237 12.5914 389.083 12.6327C389.743 12.6327 390.362 13.0142 390.94 13.767Z" fill="#00401A"/>
<path d="M337.774 61.9048C337.826 61.977 337.743 62.2864 337.537 62.8329C337.33 63.3795 337.207 63.6682 337.155 63.6888C334.576 64.5138 332.78 65.4007 331.759 66.3494C331.47 66.6382 331.326 66.6175 331.326 66.2772C331.326 65.3594 331.811 64.6479 332.78 64.1632C332.048 63.7713 331.687 63.0907 331.687 62.1214C331.687 60.1001 332.729 59.0999 334.823 59.0999C335.742 59.0999 336.206 59.5227 336.206 60.3786C336.206 61.2345 335.886 61.6986 335.257 61.7295C335.133 61.0283 334.7 60.6776 333.946 60.6776C333.142 60.6776 332.739 60.9664 332.739 61.5542C332.739 62.5029 333.544 62.9773 335.143 62.9773C335.339 62.9773 336.03 62.6782 337.217 62.0698C337.537 61.9048 337.712 61.8532 337.764 61.9254L337.774 61.9048Z" fill="#00401A"/>
<path d="M304.366 37.6195C303.128 38.1969 301.219 38.5888 298.64 38.7744C298.454 38.7744 298.341 38.7229 298.289 38.6301C298.238 38.4857 298.289 38.3722 298.434 38.2794C300.105 37.5576 302.272 36.5573 304.934 35.2786C304.562 34.9279 303.396 34.6804 301.446 34.5464C299.579 34.402 298.423 34.3814 297.959 34.4742C297.753 34.5258 297.598 34.5258 297.505 34.4742C297.412 34.4329 297.433 34.3092 297.577 34.1236C298.248 33.0717 299.063 32.0095 300.022 30.9164C301.89 30.5246 304.273 30.7514 307.183 31.6177C307.884 31.8033 308.235 32.2158 308.235 32.8345C308.235 33.5048 307.75 34.402 306.78 35.5261C305.811 36.6398 305.016 37.341 304.387 37.6195H304.366Z" fill="#00401A"/>
<path d="M321.039 14.0248C321.039 13.8804 320.668 13.5504 319.925 13.0348C319.182 12.5089 318.759 12.2511 318.666 12.2511C318.48 12.2511 318.305 12.4882 318.14 12.9626C317.975 13.437 317.892 13.7979 317.892 14.0248C317.892 14.7879 318.274 15.1798 319.048 15.1798C319.285 15.1798 319.667 15.0251 320.214 14.7054C320.76 14.396 321.039 14.1692 321.039 14.0248ZM321.916 13.4679C321.916 14.2104 321.648 14.9426 321.111 15.6644C320.482 16.4276 319.801 16.8194 319.048 16.8194C317.748 16.8194 317.087 16.0563 317.087 14.5198C317.087 13.6638 317.335 12.4676 317.82 10.962C318.099 10.0545 318.243 9.07487 318.243 8.03332C318.202 5.66149 317.242 3.84652 315.375 2.58842C315.282 2.49561 315.333 2.14499 315.519 1.52625C315.705 0.907514 315.818 0.598145 315.87 0.598145C316.221 0.598145 316.778 1.16532 317.541 2.30999C318.542 3.84652 319.048 5.58931 319.048 7.54865C319.048 7.97145 318.986 8.4355 318.852 8.96143C318.728 9.48736 318.656 9.91017 318.656 10.2402C318.707 10.4052 318.831 10.5495 319.037 10.6939C320.946 11.5086 321.906 12.4367 321.906 13.4885L321.916 13.4679Z" fill="#00401A"/>
<path d="M296.886 2.90799C297.061 3.0833 297.061 3.53705 296.886 4.25891C296.772 4.96015 296.597 5.30045 296.36 5.30045C296.36 5.30045 296.174 5.06327 295.813 4.59921C295.452 4.13516 295.06 3.89798 294.657 3.89798C293.811 3.89798 293.223 5.45514 292.872 8.57977C292.522 11.7044 292.202 13.2306 291.913 13.1791C291.531 13.1791 291.139 12.4984 290.737 11.1269C290.272 9.38413 289.468 8.03322 288.343 7.07417C288.281 7.21854 288.199 7.3526 288.085 7.46604C287.879 7.52791 287.384 7.33198 286.579 6.87824C285.784 6.42449 285.351 6.03263 285.289 5.68201C285.114 4.05266 285.423 3.23799 286.207 3.23799C287.631 3.17611 289.138 4.70234 290.737 7.81666C290.964 8.45602 291.304 9.19851 291.738 10.0338C291.913 8.54883 292.14 7.07417 292.439 5.5892C292.903 2.8255 293.646 1.47458 294.657 1.53646C295.441 1.53646 296.184 1.9902 296.876 2.88737L296.886 2.90799Z" fill="#00401A"/>
<path d="M296.566 23.0583C296.762 23.0583 296.793 23.5326 296.659 24.471C296.525 25.3166 296.37 25.9148 296.174 26.2757C295.782 26.8635 295.287 27.1832 294.668 27.2451C294.152 27.3069 293.76 27.1522 293.502 26.7604C292.687 25.626 292.346 24.0379 292.48 21.9961C292.614 20.7999 293.11 18.428 293.987 14.8909C294.121 14.4372 294.276 14.0762 294.472 13.8184C294.957 13.0759 295.204 12.9625 295.204 13.4781C295.204 13.705 295.091 14.1072 294.864 14.695C294.018 18.0052 293.595 20.5008 293.595 22.192C293.595 23.3573 293.76 24.1514 294.08 24.5742C294.276 24.832 294.503 24.966 294.76 24.966C295.441 24.966 295.916 24.4917 296.174 23.5532C296.236 23.2336 296.37 23.0686 296.566 23.0686V23.0583Z" fill="#00401A"/>
<path d="M271.35 14.4477C271.35 16.0873 271.123 17.531 270.669 18.7788C270.401 19.5316 270.133 19.9029 269.885 19.9029C269.699 19.8616 269.658 19.6244 269.751 19.2223C270.05 17.9435 270.194 16.8917 270.194 16.0461C270.194 12.7461 268.42 9.38432 264.86 5.97094C264.767 5.87813 264.85 5.33158 265.098 4.33128C265.345 3.33099 265.521 2.82568 265.613 2.82568C266.274 2.82568 267.357 3.97035 268.853 6.27C270.607 8.9512 271.443 11.6737 271.35 14.427V14.4477Z" fill="#00401A"/>
<path d="M265.665 59.1927C265.758 59.3267 265.696 59.6155 265.49 60.0589C265.283 60.5024 265.139 60.7498 265.046 60.7911C262.157 61.8636 259.258 62.9257 256.369 63.9982C252.676 65.411 250.014 66.5866 248.373 67.5147C248.28 67.3291 248.28 66.9785 248.373 66.4526C248.466 65.9988 248.579 65.7101 248.714 65.5966C253.903 63.2764 259.557 61.1314 265.655 59.1824L265.665 59.1927Z" fill="#00401A"/>
<path d="M247.31 38.6196C247.31 39.4342 247.156 40.0633 246.836 40.4964C246.217 41.1564 245.443 41.1976 244.514 40.6305C244.153 40.4448 243.895 40.1664 243.761 39.7745C243.606 39.5064 243.452 39.4755 243.317 39.7024C242.812 40.8367 242.141 41.4142 241.306 41.4142C240.913 41.4142 240.563 41.2904 240.243 41.043C239.83 40.7233 239.541 40.3005 239.356 39.7849C239.015 38.7639 238.891 37.5574 238.984 36.1652C238.623 36.2065 238.437 36.124 238.437 35.8868C238.437 35.7527 238.571 35.4227 238.85 34.9174C239.118 34.4018 239.294 34.144 239.366 34.144C239.82 34.144 240.026 34.7215 239.985 35.8868C239.944 37.1346 239.995 38.0936 240.16 38.733C240.315 39.3827 240.728 39.7024 241.388 39.7024C241.801 39.7024 242.203 39.5167 242.606 39.1558C243.008 38.7949 243.183 38.3205 243.132 37.7533C242.998 36.4127 242.884 35.629 242.791 35.4124C242.698 35.1959 242.678 34.9793 242.719 34.7421C242.76 34.6081 242.832 34.3399 242.925 33.9584C243.018 33.6903 243.152 33.6593 243.338 33.8862C243.472 34.1337 243.627 34.4843 243.782 34.9484C243.916 35.5671 243.988 36.3096 243.988 37.2068C244.029 37.8461 244.194 38.3514 244.463 38.7433C244.989 39.2899 245.525 39.4445 246.072 39.2177C246.258 39.1249 246.34 38.9908 246.34 38.8052C246.34 38.4649 245.948 37.413 245.175 35.6599C245.061 35.4537 244.999 35.2165 244.999 34.9484C244.999 34.8556 245.02 34.7937 245.071 34.7421C245.278 33.9481 245.443 33.5459 245.587 33.5459C245.732 33.5459 245.814 33.7831 245.866 34.2575C245.866 34.4843 246.124 35.1546 246.65 36.2683C247.104 37.248 247.331 38.0214 247.331 38.5886L247.31 38.6196Z" fill="#00401A"/>
<path d="M229.585 35.3403L234.145 38.0112L231.958 41.9608L227.48 39.3312L225.644 42.6105L221.083 39.9396L223.271 36.0003L227.748 38.63L229.585 35.3403Z" fill="#00401A"/>
<path d="M240.398 59.9146L244.958 62.5854L242.76 66.5247L238.293 63.8951L236.446 67.1847L231.886 64.5138L234.083 60.5642L238.551 63.1939L240.398 59.9146Z" fill="#00401A"/>
<path d="M201.666 60.925L206.226 63.5959L204.039 67.5456L199.479 64.8644L201.666 60.925Z" fill="#00401A"/>
<path d="M252.644 18.4075C252.644 18.5416 252.5 18.9438 252.211 19.6244C251.922 20.305 251.685 20.6659 251.51 20.7072C243.338 23.4399 236.859 25.6571 232.071 27.3483C222.992 30.5348 216.492 32.9891 212.571 34.7216C212.571 34.2782 212.747 33.7832 213.087 33.2366C213.428 32.6901 213.737 32.3395 214.005 32.1848C225.221 27.4927 238.107 22.8934 252.644 18.3972V18.4075Z" fill="#00401A"/>
<path d="M244.153 3.1039C244.318 3.2689 244.318 3.68139 244.153 4.362C244.05 5.01168 243.885 5.33136 243.668 5.33136C243.668 5.33136 243.503 5.1148 243.163 4.68168C242.822 4.24857 242.471 4.03201 242.09 4.03201C241.306 4.03201 240.748 5.48605 240.429 8.38381C240.109 11.2919 239.81 12.715 239.541 12.6531C239.191 12.6531 238.829 12.0137 238.448 10.7453C238.014 9.12629 237.271 7.86819 236.219 6.98133C236.167 7.11539 236.085 7.23914 235.971 7.34226C235.786 7.39382 235.311 7.21851 234.579 6.79571C233.836 6.37291 233.433 6.00166 233.382 5.68198C233.217 4.16607 233.506 3.41327 234.238 3.41327C235.559 3.36171 236.962 4.7745 238.458 7.66194C238.675 8.26006 238.984 8.94067 239.387 9.72441C239.552 8.34256 239.768 6.97102 240.037 5.58917C240.47 3.0214 241.161 1.7633 242.1 1.82517C242.833 1.82517 243.524 2.24798 244.164 3.08328L244.153 3.1039Z" fill="#00401A"/>
<path d="M225.891 2.69155C226.056 2.85654 226.056 3.26904 225.891 3.94965C225.788 4.59933 225.623 4.91901 225.406 4.91901C225.406 4.91901 225.241 4.70245 224.901 4.26933C224.56 3.83621 224.21 3.61966 223.828 3.61966C223.044 3.61966 222.486 5.07369 222.167 7.97145C221.847 10.8795 221.548 12.3026 221.279 12.2408C220.929 12.2408 220.567 11.6014 220.186 10.333C219.752 8.71394 219.009 7.45584 217.957 6.56898C217.906 6.70304 217.823 6.82679 217.709 6.92991C217.524 6.98147 217.049 6.80616 216.317 6.38336C215.574 5.96055 215.171 5.58931 215.12 5.26963C214.955 3.75372 215.244 3.00092 215.976 3.00092C217.297 2.94936 218.7 4.36214 220.196 7.24959C220.413 7.84771 220.722 8.52832 221.125 9.31205C221.29 7.9302 221.506 6.55867 221.775 5.17682C222.208 2.60905 222.899 1.35095 223.838 1.41282C224.571 1.41282 225.262 1.83562 225.902 2.67092L225.891 2.69155Z" fill="#00401A"/>
<path d="M224.674 18.7375C225.19 16.5925 224.859 15.5304 223.663 15.5304C222.59 15.5304 222.053 15.9738 222.053 16.8607C222.053 17.5 222.93 18.1291 224.674 18.7375ZM227.79 19.975C227.79 20.1606 227.655 20.5215 227.377 21.0578C227.098 21.594 226.933 21.8621 226.871 21.8621C226.108 21.7384 225.251 21.4806 224.302 21.0784C222.497 23.8937 218.813 26.843 213.242 29.9264C212.788 30.1739 211.612 30.6482 209.734 31.3701C207.856 32.0919 206.855 32.4219 206.732 32.3601C206.67 32.2363 207.65 31.6073 209.672 30.4832C216.616 26.7811 221.279 23.5533 223.663 20.8103C221.578 19.8615 220.547 18.7272 220.547 17.4175C220.547 16.6853 220.99 15.7675 221.878 14.6641C222.765 13.5607 223.611 13.0142 224.405 13.0142C225.417 13.0142 225.922 14.1485 225.922 16.4069C225.922 17.2938 225.767 18.16 225.468 19.0159C227.026 19.5315 227.81 19.8615 227.81 19.975H227.79Z" fill="#00401A"/>
<path d="M311.186 58.7391C311.186 59.9353 310.732 60.5437 309.834 60.5437C309.484 60.5437 309.174 60.4406 308.906 60.224C308.761 60.1209 308.638 60.1518 308.534 60.3272C308.091 60.9768 307.472 61.3068 306.677 61.3068C306.357 61.3068 306.089 61.2243 305.883 61.0696C305.161 60.6468 304.263 60.6675 303.2 61.1521C302.736 61.3996 301.941 62.0081 300.817 62.9774C300.167 63.5652 299.537 64.1221 298.939 64.6686C297.876 65.4627 296.638 66.1433 295.225 66.7105C294.08 67.1848 293.295 67.422 292.893 67.422C292.79 67.422 292.738 67.3911 292.738 67.3189C292.841 67.2158 293.048 67.1023 293.347 66.9992C293.873 66.8033 294.616 66.4733 295.576 66.0195C297.309 65.0502 298.826 63.8952 300.136 62.5443C301.219 61.3481 302.375 60.4303 303.613 59.8115C304.48 59.3475 305.222 59.3165 305.841 59.7084C306.12 59.9353 306.43 60.0487 306.739 60.0487C307.657 60.0487 308.276 59.6053 308.596 58.7287C308.772 58.2028 308.999 57.9347 309.257 57.9347C309.329 57.9347 309.349 58.0275 309.308 58.2028C309.205 58.5947 309.184 58.8319 309.257 58.9144C309.504 59.2341 309.865 59.3165 310.34 59.1825C310.66 59.1103 310.691 58.9659 310.443 58.7287C310.247 58.6256 310.216 58.4606 310.34 58.2544C310.557 57.7388 310.691 57.481 310.763 57.481C311.042 57.481 311.186 57.8934 311.186 58.7287V58.7391Z" fill="#00401A"/>
<path d="M284.371 64.1427C284.515 64.1427 284.536 64.4933 284.443 65.1945C284.35 65.8236 284.226 66.2773 284.082 66.5454C283.793 66.9785 283.411 67.226 282.957 67.2776C282.565 67.3292 282.276 67.2054 282.08 66.9167C281.472 66.0711 281.214 64.8748 281.317 63.3486C281.41 62.4514 281.791 60.6777 282.452 58.0275C282.545 57.6872 282.668 57.419 282.813 57.2231C283.174 56.6662 283.36 56.5837 283.36 56.9653C283.36 57.1303 283.277 57.4397 283.102 57.8728C282.472 60.3477 282.153 62.2246 282.153 63.4827C282.153 64.3592 282.276 64.9573 282.514 65.2667C282.658 65.4626 282.833 65.5555 283.019 65.5555C283.525 65.5555 283.886 65.2048 284.072 64.5036C284.123 64.2561 284.216 64.1427 284.36 64.1427H284.371Z" fill="#00401A"/>
<path d="M293.192 37.2791C293.337 37.2791 293.357 37.6298 293.265 38.331C293.172 38.96 293.048 39.4138 292.903 39.6819C292.615 40.115 292.233 40.3625 291.779 40.4141C291.387 40.4656 291.098 40.3419 290.902 40.0532C290.293 39.2075 290.035 38.0113 290.138 36.4851C290.231 35.5879 290.613 33.8142 291.273 31.1639C291.366 30.8236 291.49 30.5555 291.634 30.3596C291.996 29.8027 292.181 29.7202 292.181 30.1018C292.181 30.2668 292.099 30.5761 291.923 31.0093C291.294 33.4842 290.974 35.361 290.974 36.6192C290.974 37.4957 291.098 38.0938 291.335 38.4032C291.48 38.5991 291.655 38.6919 291.841 38.6919C292.346 38.6919 292.707 38.3413 292.893 37.6401C292.945 37.3926 293.038 37.2791 293.182 37.2791H293.192Z" fill="#00401A"/>
<path d="M325.414 25.7911C325.558 25.7911 325.579 26.1417 325.486 26.843C325.393 27.472 325.269 27.9258 325.125 28.1939C324.836 28.627 324.454 28.8745 324 28.926C323.608 28.9776 323.319 28.8539 323.123 28.5651C322.515 27.7195 322.257 26.5233 322.36 24.9971C322.453 24.0999 322.834 22.3262 323.495 19.6759C323.588 19.3356 323.711 19.0675 323.856 18.8715C324.217 18.3147 324.403 18.2322 324.403 18.6137C324.403 18.7787 324.32 19.0881 324.145 19.5212C323.515 21.9962 323.196 23.873 323.196 25.1311C323.196 26.0077 323.319 26.6058 323.557 26.9151C323.701 27.1111 323.876 27.2039 324.062 27.2039C324.568 27.2039 324.929 26.8533 325.115 26.152C325.166 25.9045 325.259 25.7911 325.403 25.7911H325.414Z" fill="#00401A"/>
<path d="M258.515 32.1539C258.66 32.1539 258.68 32.5045 258.587 33.2058C258.494 33.8348 258.371 34.2885 258.226 34.5567C257.937 34.9898 257.556 35.2373 257.102 35.2888C256.71 35.3404 256.421 35.2167 256.225 34.9279C255.616 34.0823 255.358 32.8861 255.461 31.3598C255.554 30.4627 255.936 28.689 256.596 26.0387C256.689 25.6984 256.813 25.4303 256.957 25.2343C257.318 24.6775 257.504 24.595 257.504 24.9765C257.504 25.1415 257.421 25.4509 257.246 25.884C256.617 28.359 256.297 30.2358 256.297 31.4939C256.297 32.3705 256.421 32.9686 256.658 33.2779C256.802 33.4739 256.978 33.5667 257.163 33.5667C257.669 33.5667 258.03 33.2161 258.216 32.5148C258.267 32.2673 258.36 32.1539 258.505 32.1539H258.515Z" fill="#00401A"/>
<path d="M203.936 2.89785C204.101 3.06284 204.101 3.47534 203.936 4.15595C203.833 4.80562 203.667 5.12531 203.451 5.12531C203.451 5.12531 203.286 4.90875 202.945 4.47563C202.605 4.04251 202.254 3.82595 201.872 3.82595C201.088 3.82595 200.531 5.27999 200.211 8.17775C199.891 11.0858 199.592 12.5089 199.324 12.4471C198.973 12.4471 198.612 11.8077 198.23 10.5393C197.797 8.92024 197.054 7.66214 196.002 6.77528C195.95 6.90934 195.867 7.03308 195.754 7.13621C195.568 7.18777 195.094 7.01246 194.361 6.58965C193.618 6.16685 193.216 5.79561 193.164 5.47592C192.999 3.96001 193.288 3.20722 194.021 3.20722C195.341 3.15565 196.744 4.56844 198.24 7.45589C198.457 8.054 198.767 8.73462 199.169 9.51835C199.334 8.1365 199.551 6.76496 199.819 5.38311C200.252 2.81535 200.944 1.55724 201.883 1.61912C202.615 1.61912 203.306 2.04192 203.946 2.87722L203.936 2.89785Z" fill="#00401A"/>
<path d="M202.749 29.72C202.976 29.72 203.017 30.2769 202.863 31.3906C202.708 32.3909 202.512 33.1025 202.285 33.5253C201.82 34.2162 201.232 34.5977 200.5 34.6802C199.881 34.7524 199.427 34.5668 199.117 34.1028C198.158 32.7622 197.755 30.875 197.91 28.4619C198.065 27.0388 198.663 24.2339 199.695 20.0574C199.85 19.5211 200.036 19.0983 200.273 18.789C200.851 17.9021 201.14 17.768 201.14 18.3868C201.14 18.6549 201.005 19.1396 200.737 19.8305C199.736 23.7492 199.241 26.6985 199.241 28.6991C199.241 30.081 199.437 31.0194 199.819 31.5247C200.046 31.834 200.314 31.9887 200.624 31.9887C201.428 31.9887 201.986 31.4319 202.295 30.3181C202.367 29.9366 202.522 29.7406 202.759 29.7406L202.749 29.72Z" fill="#00401A"/>
<path d="M147.086 30.3699L151.647 33.0408L149.459 36.9801L144.899 34.3092L147.086 30.3699Z" fill="#00401A"/>
<path d="M130.413 33.6594L134.973 36.3303L132.776 40.2799L128.308 37.6503L126.461 40.9399L121.901 38.2587L124.099 34.3194L128.566 36.9491L130.413 33.6594Z" fill="#00401A"/>
<path d="M169.475 6.02241C169.991 3.87745 169.661 2.81528 168.464 2.81528C167.391 2.81528 166.855 3.25871 166.855 4.14557C166.855 4.78493 167.731 5.41398 169.475 6.02241ZM172.591 7.25988C172.591 7.44551 172.457 7.80644 172.178 8.34268C171.9 8.87892 171.735 9.14704 171.673 9.14704C170.909 9.02329 170.053 8.76548 169.104 8.3633C167.298 11.1786 163.615 14.1279 158.043 17.2113C157.589 17.4588 156.413 17.9331 154.535 18.655C152.658 19.3769 151.657 19.7068 151.533 19.645C151.471 19.5212 152.451 18.8922 154.474 17.7681C161.417 14.066 166.081 10.8383 168.464 8.09518C166.38 7.14645 165.348 6.01209 165.348 4.70243C165.348 3.97026 165.792 3.05246 166.679 1.94904C167.566 0.845625 168.412 0.299072 169.207 0.299072C170.218 0.299072 170.724 1.43343 170.724 3.69182C170.724 4.57868 170.569 5.44492 170.27 6.30084C171.828 6.81646 172.612 7.14645 172.612 7.25988H172.591Z" fill="#00401A"/>
<path d="M174.624 23.1306C174.624 23.7906 174.5 24.2959 174.242 24.6465C173.747 25.1828 173.128 25.2137 172.374 24.76C172.086 24.6156 171.879 24.3887 171.766 24.069C171.642 23.8525 171.518 23.8319 171.405 24.0175C171.002 24.9353 170.455 25.389 169.785 25.389C169.475 25.389 169.186 25.2859 168.928 25.09C168.598 24.8322 168.361 24.4918 168.216 24.069C167.938 23.2441 167.835 22.2747 167.917 21.1507C167.628 21.1919 167.474 21.1094 167.474 20.9341C167.474 20.8207 167.587 20.5629 167.804 20.1504C168.02 19.7379 168.165 19.5316 168.216 19.5316C168.588 19.5316 168.753 19.9957 168.712 20.9341C168.67 21.9447 168.712 22.7078 168.846 23.2337C168.97 23.7597 169.3 24.0175 169.836 24.0175C170.166 24.0175 170.497 23.8731 170.816 23.5741C171.136 23.2853 171.281 22.9038 171.24 22.45C171.126 21.3672 171.033 20.7382 170.961 20.5629C170.889 20.3875 170.868 20.2122 170.909 20.0266C170.951 19.9132 171.002 19.7069 171.074 19.3976C171.147 19.181 171.26 19.1604 171.405 19.346C171.518 19.5522 171.632 19.8307 171.766 20.2019C171.879 20.6969 171.931 21.3053 171.931 22.0169C171.972 22.5325 172.096 22.945 172.313 23.2544C172.736 23.6978 173.169 23.8215 173.602 23.6359C173.747 23.5637 173.819 23.4503 173.819 23.3059C173.819 23.0275 173.509 22.1922 172.88 20.7794C172.787 20.6144 172.746 20.4185 172.746 20.2019C172.746 20.1297 172.766 20.0782 172.797 20.0369C172.963 19.3976 173.097 19.0779 173.21 19.0779C173.324 19.0779 173.396 19.2738 173.427 19.6554C173.427 19.841 173.633 20.3772 174.056 21.2744C174.428 22.0685 174.603 22.6872 174.603 23.1409L174.624 23.1306Z" fill="#00401A"/>
<path d="M156.816 10.6216C156.816 10.7557 156.671 11.1579 156.382 11.8385C156.093 12.5191 155.856 12.88 155.681 12.9213C147.509 15.6541 141.03 17.8712 136.242 19.5624C127.163 22.7489 120.663 25.2033 116.742 26.9357C116.742 26.4923 116.918 25.9973 117.258 25.4508C117.599 24.9042 117.908 24.5536 118.177 24.3989C129.392 19.7068 142.278 15.1075 156.816 10.6113V10.6216Z" fill="#00401A"/>
<path d="M153.05 1.2582C153.215 1.42319 153.215 1.83569 153.05 2.5163C152.947 3.16598 152.781 3.48566 152.565 3.48566C152.565 3.48566 152.4 3.2691 152.059 2.83598C151.719 2.40286 151.368 2.18631 150.986 2.18631C150.202 2.18631 149.645 3.64034 149.325 6.5381C149.005 9.44618 148.706 10.8693 148.438 10.8074C148.087 10.8074 147.726 10.168 147.344 8.89962C146.911 7.28059 146.168 6.02249 145.116 5.13563C145.064 5.26969 144.981 5.39344 144.868 5.49656C144.682 5.54812 144.208 5.37281 143.475 4.95001C142.732 4.5272 142.33 4.15596 142.278 3.83628C142.113 2.32037 142.402 1.56757 143.135 1.56757C144.455 1.51601 145.858 2.92879 147.354 5.81624C147.571 6.41436 147.881 7.09497 148.283 7.8787C148.448 6.49685 148.665 5.12532 148.933 3.74347C149.366 1.1757 150.058 -0.0824036 150.997 -0.0205297C151.729 -0.0205297 152.42 0.402275 153.06 1.23757L153.05 1.2582Z" fill="#00401A"/>
<path d="M130.475 2.08315C130.64 2.24815 130.64 2.66064 130.475 3.34125C130.372 3.99093 130.207 4.31061 129.99 4.31061C129.99 4.31061 129.825 4.09405 129.485 3.66093C129.144 3.22782 128.793 3.01126 128.411 3.01126C127.627 3.01126 127.07 4.46529 126.75 7.36305C126.431 10.2711 126.131 11.6942 125.863 11.6324C125.512 11.6324 125.151 10.993 124.769 9.72458C124.336 8.10554 123.593 6.84744 122.541 5.96058C122.489 6.09464 122.407 6.21839 122.293 6.32151C122.108 6.37307 121.633 6.19776 120.9 5.77496C120.158 5.35215 119.755 4.98091 119.704 4.66123C119.538 3.14532 119.827 2.39252 120.56 2.39252C121.881 2.34096 123.284 3.75374 124.78 6.64119C124.996 7.23931 125.306 7.91992 125.708 8.70366C125.873 7.32181 126.09 5.95027 126.358 4.56842C126.792 2.00065 127.483 0.742548 128.422 0.804421C129.154 0.804421 129.846 1.22723 130.485 2.06252L130.475 2.08315Z" fill="#00401A"/>
<path d="M92.455 59.7083L97.0154 62.3791L94.8178 66.3288L90.3503 63.6991L88.5034 66.9784L83.9431 64.3075L86.1407 60.3682L90.6082 62.9979L92.455 59.7083Z" fill="#00401A"/>
<path d="M61.7295 60.1001L66.2899 62.7813L64.0923 66.7206L59.5422 64.0497L61.7295 60.1001Z" fill="#00401A"/>
<path d="M39.774 32.5767L44.3343 35.2579L42.147 39.1972L37.5867 36.5263L39.774 32.5767Z" fill="#00401A"/>
<path d="M32.3349 59.2959L36.8849 61.9668L34.6976 65.9164L30.2302 63.2868L28.3833 66.5764L23.823 63.8952L26.0206 59.9559L30.4881 62.5855L32.3349 59.2959Z" fill="#00401A"/>
<path d="M97.4797 22.5222C97.5828 22.6769 97.5209 23.0069 97.2836 23.5019C97.0566 23.9969 96.8812 24.2753 96.7884 24.3269C93.5281 25.5334 90.2677 26.74 87.0074 27.9465C82.8495 29.5346 79.8471 30.8546 78.0002 31.9064C77.8971 31.7002 77.8971 31.3083 78.0002 30.7102C78.1034 30.1946 78.2272 29.8749 78.382 29.7512C84.232 27.1318 90.5979 24.7291 97.4693 22.5222H97.4797Z" fill="#00401A"/>
<path d="M86.5535 10.9414C86.5535 12.3645 86.3575 13.6123 85.9654 14.6951C85.7281 15.3448 85.5011 15.6748 85.2845 15.6748C85.1297 15.6335 85.0884 15.4376 85.171 15.087C85.4289 13.9835 85.5527 13.0658 85.5527 12.3336C85.5527 9.47706 84.0154 6.56899 80.9408 3.61967C80.8583 3.53717 80.9408 3.0628 81.1472 2.19657C81.3638 1.33033 81.5083 0.897217 81.5908 0.897217C82.1583 0.897217 83.0972 1.8872 84.3972 3.87748C85.9138 6.19775 86.6361 8.55927 86.5535 10.9414Z" fill="#00401A"/>
<path d="M61.9256 11.8179C61.9256 13.241 61.7296 14.4888 61.3375 15.5716C61.1002 16.2212 60.8732 16.5512 60.6565 16.5512C60.5018 16.51 60.4605 16.314 60.5431 15.9634C60.801 14.86 60.9248 13.9422 60.9248 13.21C60.9248 10.3535 59.3875 7.44546 56.3129 4.49613C56.2303 4.41363 56.3129 3.93927 56.5192 3.07303C56.7359 2.2068 56.8803 1.77368 56.9629 1.77368C57.5303 1.77368 58.4692 2.76366 59.7692 4.75394C61.2859 7.07421 62.0081 9.43573 61.9256 11.8179Z" fill="#00401A"/>
<path d="M70.2209 21.3259C70.3034 21.4497 70.2518 21.7281 70.0558 22.1406C69.8598 22.5531 69.7257 22.7903 69.6431 22.8315C66.9193 23.8421 64.2058 24.8424 61.482 25.853C58.0153 27.1833 55.5081 28.2867 53.9708 29.1633C53.8883 28.988 53.8883 28.658 53.9708 28.1733C54.0534 27.7402 54.1669 27.4824 54.2907 27.3689C59.1709 25.1827 64.4844 23.1718 70.2209 21.3362V21.3259Z" fill="#00401A"/>
<path d="M35.1002 30.7205C35.1002 31.3805 34.9764 31.8858 34.7185 32.2364C34.2232 32.7726 33.6042 32.8036 32.851 32.3498C32.5621 32.2054 32.3558 31.9786 32.2423 31.6589C32.1185 31.4423 31.9947 31.4217 31.8812 31.6073C31.4788 32.5251 30.932 32.9789 30.2613 32.9789C29.9518 32.9789 29.6629 32.8757 29.405 32.6798C29.0748 32.422 28.8375 32.0817 28.6931 31.6589C28.4145 30.8339 28.3113 29.8645 28.3938 28.7405C28.105 28.7817 27.9502 28.6993 27.9502 28.5239C27.9502 28.4105 28.0637 28.1527 28.2804 27.7402C28.497 27.3277 28.6415 27.1215 28.6931 27.1215C29.0645 27.1215 29.2296 27.5855 29.1883 28.5239C29.147 29.5345 29.1883 30.2977 29.3224 30.8236C29.4462 31.3495 29.7764 31.6073 30.3129 31.6073C30.6431 31.6073 30.9732 31.463 31.2931 31.1639C31.6129 30.8751 31.7573 30.4936 31.7161 30.0399C31.6026 28.9571 31.5097 28.328 31.4375 28.1527C31.3653 27.9774 31.3447 27.8021 31.3859 27.6165C31.4272 27.503 31.4788 27.2968 31.551 26.9874C31.6232 26.7708 31.7367 26.7502 31.8812 26.9358C31.9947 27.1421 32.1081 27.4205 32.2423 27.7918C32.3558 28.2868 32.4074 28.8952 32.4074 29.6067C32.4486 30.1223 32.5724 30.5348 32.7891 30.8442C33.2121 31.2876 33.6454 31.4114 34.0788 31.2258C34.2232 31.1536 34.2955 31.0401 34.2955 30.8958C34.2955 30.6173 33.9859 29.782 33.3566 28.3693C33.2637 28.2043 33.2224 28.0083 33.2224 27.7918C33.2224 27.7196 33.2431 27.668 33.274 27.6268C33.4391 26.9874 33.5732 26.6677 33.6867 26.6677C33.8002 26.6677 33.8724 26.8637 33.9034 27.2452C33.9034 27.4308 34.1097 27.9671 34.5328 28.8642C34.9042 29.6583 35.0796 30.277 35.0796 30.7308L35.1002 30.7205Z" fill="#00401A"/>
<path d="M43.6429 8.01275C44.1588 8.01275 43.9318 8.74493 42.962 10.199C36.8953 12.3749 29.673 15.2623 21.2952 18.8613C12.0817 22.7903 6.79915 25.2549 5.4682 26.2552C6.51026 27.2968 7.769 28.0186 9.26503 28.4415C9.17218 29.6067 8.8317 30.1945 8.2436 30.1945C7.72773 30.1945 6.93328 29.7924 5.86026 28.9983C4.78724 28.2043 4.25073 27.5752 4.25073 27.1215C4.25073 25.4715 4.59121 24.399 5.27216 23.9143C6.79915 22.945 13.3714 20.0163 24.9889 15.1592C36.5445 10.3949 42.7556 8.00244 43.6326 8.00244L43.6429 8.01275Z" fill="#00401A"/>
<path d="M6.20081 45.859C5.57145 48.1896 4.51906 49.3548 3.0643 49.3548C2.25953 49.3548 1.67143 49.0661 1.27937 48.4783C0.433335 47.1171 0 45.6734 0 44.1471C0 43.054 0.20635 41.5381 0.61905 39.5891C1.05238 37.2069 1.84683 34.5257 2.99207 31.5352C3.45636 30.4421 3.80715 29.8955 4.04446 29.8955C4.13731 29.9471 4.1889 30.0605 4.1889 30.2564C4.1889 30.5967 4.06509 31.1227 3.82779 31.8239C3.32223 33.2573 2.61033 35.9695 1.7127 39.95C1.32064 42.1878 1.43413 43.8687 2.04286 45.0134C2.43493 45.8177 3.00239 46.2199 3.75557 46.2199C4.1889 46.2199 4.56033 46.0549 4.84922 45.7146C5.06589 45.4671 5.34446 45.0752 5.68494 44.5081C5.88097 44.0749 6.02542 43.8481 6.11827 43.8481C6.58256 43.8481 6.6032 44.5184 6.1905 45.8487L6.20081 45.859Z" fill="#00401A"/>
<path d="M22.6882 34.2781L27.2485 36.949L25.0509 40.8986L20.5834 38.2689L18.7366 41.5483L14.1763 38.8774L16.3739 34.9381L20.8414 37.5677L22.6882 34.2781Z" fill="#00401A"/>
<path d="M56.2612 59.0586C56.3437 59.1823 56.2921 59.4608 56.0961 59.8733C55.9001 60.2858 55.7659 60.5229 55.6834 60.5642C52.9596 61.5748 50.2461 62.5751 47.5223 63.5857C44.0556 64.916 41.5484 66.0194 40.0111 66.896C39.9286 66.7206 39.9286 66.3907 40.0111 65.906C40.0937 65.4729 40.2072 65.215 40.331 65.1016C45.2111 62.9154 50.5246 60.9045 56.2612 59.0689V59.0586Z" fill="#00401A"/>
<path d="M16.931 1.84592C17.1167 2.03154 17.1167 2.50591 16.931 3.27933C16.8072 4.02182 16.6214 4.38275 16.3738 4.38275L15.796 3.64026C15.4143 3.14527 15.0016 2.89777 14.5683 2.89777C13.681 2.89777 13.0413 4.54775 12.6802 7.858C12.3087 11.1579 11.9683 12.7873 11.669 12.7254C11.2667 12.7254 10.854 12.0035 10.4206 10.5598C9.92539 8.71392 9.07936 7.29082 7.88253 6.2699C7.82062 6.42459 7.72777 6.55865 7.60396 6.68239C7.38729 6.74427 6.8611 6.53802 6.01506 6.06366C5.16903 5.58929 4.71506 5.16648 4.65315 4.79524C4.46744 3.07308 4.78728 2.21716 5.623 2.21716C7.12935 2.15529 8.72856 3.77432 10.4206 7.06395C10.6683 7.74456 11.019 8.5283 11.4833 9.41516C11.669 7.84769 11.9167 6.28021 12.2262 4.71274C12.7214 1.79436 13.5056 0.360945 14.5786 0.422819C15.4143 0.422819 16.1984 0.897185 16.931 1.85623V1.84592Z" fill="#00401A"/>
<path d="M36.8336 2.05222C37.0193 2.23784 37.0193 2.71221 36.8336 3.48563C36.7098 4.22812 36.524 4.58905 36.2764 4.58905L35.6986 3.84656C35.3169 3.35157 34.9042 3.10407 34.4709 3.10407C33.5835 3.10407 32.9439 4.75404 32.5828 8.0643C32.2113 11.3642 31.8708 12.9936 31.5716 12.9317C31.1693 12.9317 30.7566 12.2098 30.3232 10.7661C29.828 8.92022 28.9819 7.49712 27.7851 6.4762C27.7232 6.63089 27.6304 6.76495 27.5065 6.88869C27.2899 6.95057 26.7637 6.74432 25.9177 6.26995C25.0716 5.79559 24.6176 5.37278 24.5557 5.00154C24.37 3.27938 24.6899 2.42346 25.5256 2.42346C27.0319 2.36159 28.6312 3.98062 30.3232 7.27025C30.5708 7.95086 30.9216 8.7346 31.3859 9.62146C31.5716 8.05399 31.8193 6.48651 32.1288 4.91904C32.624 2.00066 33.4081 0.567244 34.4812 0.629118C35.3169 0.629118 36.101 1.10348 36.8336 2.06253V2.05222Z" fill="#00401A"/>
<path d="M91.7225 41.806C91.2892 43.4251 90.5566 44.2294 89.5558 44.2294C88.9987 44.2294 88.586 44.0232 88.3177 43.621C87.7296 42.6826 87.4304 41.6823 87.4304 40.6201C87.4304 39.8673 87.5749 38.8155 87.8638 37.4645C88.163 35.8146 88.7098 33.9584 89.5042 31.8856C89.8241 31.1328 90.0717 30.7512 90.2368 30.7512C90.309 30.7822 90.34 30.8647 90.34 30.9987C90.34 31.2359 90.2574 31.5968 90.0923 32.0815C89.7415 33.0715 89.2463 34.9483 88.6273 37.7017C88.359 39.2486 88.4312 40.4139 88.8542 41.2079C89.1225 41.7648 89.5146 42.0432 90.0407 42.0432C90.34 42.0432 90.5979 41.9298 90.7939 41.6926C90.9487 41.5276 91.1344 41.2492 91.3717 40.8573C91.5058 40.5582 91.609 40.4035 91.6709 40.4035C91.9908 40.4035 92.0114 40.8676 91.7225 41.7957V41.806Z" fill="#00401A"/>
<path d="M129.474 63.5548C129.041 65.1738 128.308 65.9782 127.308 65.9782C126.75 65.9782 126.338 65.772 126.069 65.3698C125.481 64.4313 125.182 63.4311 125.182 62.3689C125.182 61.6161 125.327 60.5642 125.615 59.2133C125.915 57.5633 126.461 55.7071 127.256 53.6344C127.576 52.8816 127.823 52.5 127.988 52.5C128.061 52.5309 128.092 52.6134 128.092 52.7475C128.092 52.9847 128.009 53.3456 127.844 53.8303C127.493 54.8203 126.998 56.6971 126.379 59.4505C126.111 60.9974 126.183 62.1626 126.606 62.9567C126.874 63.5136 127.266 63.792 127.792 63.792C128.092 63.792 128.35 63.6786 128.546 63.4414C128.7 63.2764 128.886 62.9979 129.123 62.6061C129.258 62.307 129.361 62.1523 129.423 62.1523C129.742 62.1523 129.763 62.6164 129.474 63.5445V63.5548Z" fill="#00401A"/>
<path d="M171.539 64.3695C171.105 65.9885 170.373 66.7929 169.372 66.7929C168.815 66.7929 168.402 66.5866 168.134 66.1845C167.546 65.246 167.247 64.2458 167.247 63.1836C167.247 62.4308 167.391 61.3789 167.68 60.028C167.979 58.378 168.526 56.5218 169.32 54.4491C169.64 53.6963 169.888 53.3147 170.053 53.3147C170.125 53.3456 170.156 53.4281 170.156 53.5622C170.156 53.7994 170.074 54.1603 169.908 54.645C169.558 55.635 169.062 57.5118 168.443 60.2652C168.175 61.812 168.247 62.9773 168.67 63.7714C168.939 64.3283 169.331 64.6067 169.857 64.6067C170.156 64.6067 170.414 64.4932 170.61 64.2561C170.765 64.0911 170.951 63.8126 171.188 63.4208C171.322 63.1217 171.425 62.967 171.487 62.967C171.807 62.967 171.828 63.4311 171.539 64.3592V64.3695Z" fill="#00401A"/>
<path d="M189.605 65.1945C189.171 66.8135 188.439 67.6178 187.438 67.6178C186.881 67.6178 186.468 67.4116 186.2 67.0094C185.612 66.071 185.312 65.0707 185.312 64.0085C185.312 63.2557 185.457 62.2039 185.746 60.853C186.045 59.203 186.592 57.3468 187.386 55.274C187.706 54.5212 187.954 54.1396 188.119 54.1396C188.191 54.1706 188.222 54.2531 188.222 54.3871C188.222 54.6243 188.139 54.9853 187.974 55.4699C187.624 56.4599 187.128 58.3368 186.509 61.0902C186.241 62.637 186.313 63.8023 186.736 64.5963C187.005 65.1532 187.397 65.4316 187.923 65.4316C188.222 65.4316 188.48 65.3182 188.676 65.081C188.831 64.916 189.016 64.6376 189.254 64.2457C189.388 63.9467 189.491 63.792 189.553 63.792C189.873 63.792 189.893 64.256 189.605 65.1841V65.1945Z" fill="#00401A"/>
<path d="M212.582 17.4071C212.148 19.0261 211.416 19.8305 210.415 19.8305C209.858 19.8305 209.445 19.6242 209.177 19.2221C208.589 18.2836 208.29 17.2833 208.29 16.2212C208.29 15.4684 208.434 14.4165 208.723 13.0656C209.022 11.4156 209.569 9.55943 210.363 7.48665C210.683 6.73385 210.931 6.35229 211.096 6.35229C211.168 6.38323 211.199 6.46573 211.199 6.59979C211.199 6.83697 211.117 7.1979 210.951 7.68258C210.601 8.67257 210.105 10.5494 209.486 13.3028C209.218 14.8496 209.29 16.0149 209.713 16.809C209.982 17.3658 210.374 17.6443 210.9 17.6443C211.199 17.6443 211.457 17.5308 211.653 17.2937C211.808 17.1287 211.994 16.8502 212.231 16.4584C212.365 16.1593 212.468 16.0046 212.53 16.0046C212.85 16.0046 212.871 16.4687 212.582 17.3968V17.4071Z" fill="#00401A"/>
<path d="M143.847 29.9161C143.413 31.5352 142.681 32.3395 141.68 32.3395C141.123 32.3395 140.71 32.1333 140.442 31.7311C139.854 30.7927 139.554 29.7924 139.554 28.7302C139.554 27.9774 139.699 26.9256 139.988 25.5746C140.287 23.9247 140.834 22.0685 141.628 19.9957C141.948 19.2429 142.196 18.8613 142.361 18.8613C142.433 18.8923 142.464 18.9748 142.464 19.1088C142.464 19.346 142.381 19.7069 142.216 20.1916C141.866 21.1816 141.37 23.0584 140.751 25.8118C140.483 27.3587 140.555 28.524 140.978 29.318C141.247 29.8749 141.639 30.1533 142.165 30.1533C142.464 30.1533 142.722 30.0399 142.918 29.8027C143.073 29.6377 143.258 29.3593 143.496 28.9674C143.63 28.6683 143.733 28.5137 143.795 28.5137C144.115 28.5137 144.135 28.9777 143.847 29.9058V29.9161Z" fill="#00401A"/>
<path d="M151.017 65.7617C149.903 66.9683 148.479 67.5767 146.725 67.5767C145.477 67.5458 144.858 67.1333 144.858 66.3392C144.858 65.9473 145.054 65.4008 145.435 64.6789C145.838 63.8849 146.23 63.3796 146.622 63.1424C145.931 62.6887 145.59 62.2555 145.59 61.8327C145.59 61.4924 145.858 61.0387 146.385 60.4406C146.911 59.8528 147.406 59.5537 147.86 59.5537C148.252 59.5537 148.438 59.8115 148.438 60.3374C148.438 60.4406 148.386 60.6159 148.273 60.884C148.159 61.1418 148.056 61.2759 147.953 61.2759C147.881 61.2449 147.839 61.1727 147.798 61.0696C147.726 60.8531 147.592 60.7396 147.396 60.7396C147.282 60.7396 147.097 60.8118 146.87 60.9562C146.632 61.1006 146.519 61.2346 146.519 61.3687C146.519 61.8224 146.993 62.0493 147.953 62.0493C148.159 62.0493 148.469 61.8946 148.892 61.5749C149.16 61.3377 149.387 61.2346 149.573 61.2759C149.676 61.2759 149.655 61.5543 149.521 62.1112C149.439 62.2452 149.263 62.3793 148.995 62.5133C148.407 62.7196 147.716 63.163 146.921 63.8539C146.065 64.5758 145.631 65.1327 145.631 65.5142C145.631 66.0195 146.22 66.267 147.396 66.267C148.355 66.267 149.47 65.9989 150.749 65.4627C150.955 65.3905 151.089 65.3802 151.151 65.4111C151.224 65.4833 151.172 65.5967 150.997 65.7617H151.017Z" fill="#00401A"/>
<path d="M427.206 65.9885C427.206 65.9163 427.041 65.8235 426.711 65.6998C426.381 65.576 426.154 65.5141 426.02 65.5141C425.514 65.5141 424.905 65.7926 424.173 66.3494C423.481 66.8341 423.141 67.1641 423.141 67.3291C423.832 67.2982 424.678 67.1126 425.689 66.7826C426.7 66.4526 427.206 66.1948 427.206 65.9885ZM428.093 65.3595C428.093 66.1844 427.681 66.8547 426.855 67.3807C426.236 67.8035 425.246 68.1438 423.904 68.4119C422.677 68.68 421.593 68.8141 420.644 68.8141C420.51 68.8141 420.097 68.6594 419.406 68.3603C418.715 68.0613 418.374 67.8447 418.374 67.7313C418.374 67.6591 418.787 67.6282 419.612 67.6282C420.139 67.6591 420.892 67.5766 421.882 67.3807C422.955 66.6897 423.595 66.1432 423.801 65.741C424.389 64.6273 424.689 63.8539 424.689 63.4001C424.689 62.6783 424.431 62.3173 423.904 62.3173C423.605 62.3173 423.306 62.5442 423.017 62.9979C422.914 63.2042 422.862 63.1526 422.862 62.8432C422.862 62.6061 422.986 62.2967 423.244 61.9048C423.585 61.3789 423.894 61.1211 424.183 61.1211C424.854 61.1211 425.194 61.5542 425.194 62.4101C425.194 63.0701 425.112 63.6579 424.947 64.1735C424.812 64.5654 424.699 64.9263 424.596 65.2563C425.421 64.6376 425.978 64.3179 426.288 64.3179C427.495 64.3179 428.104 64.6582 428.104 65.3491L428.093 65.3595Z" fill="#00401A"/>
<path d="M386.215 65.1532C384.76 66.8547 382.954 67.7004 380.819 67.7004C378.683 67.7004 377.682 67.0301 377.682 65.6998C377.682 64.4314 378.177 63.2557 379.178 62.1626C379.323 62.0183 380.2 61.2964 381.799 60.0177C381.19 59.8733 380.623 59.8011 380.086 59.8011C379.044 59.8011 378.311 59.9455 377.899 60.2342C377.754 60.3786 377.631 60.4302 377.538 60.3786C377.445 60.2858 377.445 60.1621 377.538 60.0177C377.878 59.1205 378.301 58.5533 378.817 58.3058C379.157 58.1099 379.849 58.0171 380.891 58.0171C382.397 58.0171 383.15 58.2646 383.15 58.7493C383.15 59.9352 382.346 61.1314 380.746 62.3173C379.312 63.3176 378.6 64.1426 378.6 64.7923C378.6 65.081 378.879 65.3698 379.426 65.6482C379.973 65.9266 380.488 66.071 380.973 66.071C382.872 66.071 384.481 65.6688 385.823 64.8645C386.091 64.7201 386.277 64.6685 386.369 64.7201C386.514 64.7717 386.462 64.916 386.225 65.1532H386.215Z" fill="#00401A"/>
<path d="M367.685 65.5863C367.829 65.5863 367.85 65.9369 367.757 66.6381C367.664 67.2672 367.54 67.7209 367.396 67.989C367.107 68.4222 366.725 68.6697 366.271 68.7212C365.879 68.7728 365.59 68.649 365.394 68.3603C364.785 67.5147 364.527 66.3184 364.631 64.7922C364.723 63.8951 365.105 62.1213 365.765 59.4711C365.858 59.1308 365.982 58.8626 366.127 58.6667C366.488 58.1098 366.673 58.0273 366.673 58.4089C366.673 58.5739 366.591 58.8833 366.415 59.3164C365.786 61.7913 365.466 63.6682 365.466 64.9263C365.466 65.8028 365.59 66.4009 365.827 66.7103C365.972 66.9062 366.147 66.9991 366.333 66.9991C366.838 66.9991 367.2 66.6484 367.385 65.9472C367.437 65.6997 367.53 65.5863 367.674 65.5863H367.685Z" fill="#00401A"/>
<path d="M355.438 59.5022C355.582 59.6465 355.582 60.0281 355.438 60.6365C355.345 61.2243 355.19 61.5131 355.004 61.5131C355.004 61.5131 354.849 61.3171 354.55 60.9253C354.251 60.5334 353.921 60.3374 353.58 60.3374C352.879 60.3374 352.373 61.6471 352.084 64.2561C351.795 66.8651 351.527 68.1439 351.28 68.1026C350.96 68.1026 350.64 67.5354 350.299 66.3908C349.907 64.9367 349.237 63.8024 348.298 62.998C348.246 63.1218 348.174 63.2249 348.081 63.328C347.916 63.3796 347.493 63.2146 346.822 62.833C346.152 62.4515 345.791 62.1215 345.749 61.8327C345.605 60.4715 345.863 59.7909 346.513 59.7909C347.699 59.7393 348.968 61.0181 350.299 63.6168C350.495 64.153 350.774 64.7717 351.135 65.473C351.28 64.2355 351.476 62.998 351.723 61.7605C352.115 59.4506 352.734 58.3265 353.58 58.3678C354.241 58.3678 354.86 58.7494 355.438 59.5022Z" fill="#00401A"/>
<path d="M406.664 65.1739C406.808 65.1739 406.829 65.5245 406.736 66.2258C406.643 66.8548 406.52 67.3086 406.375 67.5767C406.086 68.0098 405.704 68.2573 405.251 68.3089C404.858 68.3604 404.57 68.2367 404.374 67.9479C403.765 67.1023 403.507 65.9061 403.61 64.3799C403.703 63.4827 404.085 61.709 404.745 59.0587C404.838 58.7184 404.962 58.4503 405.106 58.2544C405.467 57.6975 405.653 57.615 405.653 57.9965C405.653 58.1615 405.57 58.4709 405.395 58.904C404.766 61.379 404.446 63.2558 404.446 64.5139C404.446 65.3905 404.57 65.9886 404.807 66.298C404.951 66.4939 405.127 66.5867 405.312 66.5867C405.818 66.5867 406.179 66.2361 406.365 65.5348C406.416 65.2873 406.509 65.1739 406.654 65.1739H406.664Z" fill="#00401A"/>
<path d="M487.491 62.3275C487.491 61.5232 487.202 61.121 486.635 61.121C486.15 61.121 485.913 61.286 485.913 61.6057C485.913 61.6779 486.109 61.8016 486.49 61.9975C486.872 62.1832 487.213 62.2966 487.491 62.3275ZM488.43 62.0079C488.43 63.0906 488.234 63.6372 487.842 63.6372C486.769 63.6372 485.82 63.2763 484.974 62.5441C484.871 63.1731 484.602 63.7609 484.169 64.3075C483.653 64.8953 482.023 65.7718 479.268 66.9268C476.998 67.9477 475.657 68.5149 475.224 68.6387C473.387 69.0305 471.798 69.3193 470.457 69.4946H470.158C470.086 69.4637 470.065 69.4224 470.106 69.3915C470.106 69.3193 470.199 69.2677 470.374 69.2265C470.859 69.0821 472.118 68.6077 474.171 67.8137C476.513 66.9062 478.205 66.205 479.258 65.7306C481.827 64.6375 483.436 63.7816 484.076 63.1628C484.448 62.7916 484.695 62.4616 484.798 62.1728C484.943 61.6882 485.232 61.1726 485.665 60.6054C486.098 60.0485 486.47 59.7598 486.779 59.7598C487.171 59.7598 487.543 60.0073 487.894 60.4919C488.244 60.9869 488.42 61.4819 488.42 62.0079H488.43Z" fill="#00401A"/>
<path d="M466.557 61.9359C466.557 61.6368 466.268 61.4821 465.701 61.4821C465.133 61.4821 464.318 62.1215 463.214 63.4105C463.482 63.4415 464.101 63.2455 465.092 62.8124C466.072 62.3793 466.567 62.0905 466.567 61.9462L466.557 61.9359ZM467.444 61.214C467.444 62.0183 467.042 62.7505 466.237 63.4105C465.185 64.2871 463.874 64.7202 462.306 64.7202C461.935 64.7202 461.636 64.6892 461.419 64.6171C460.542 64.2458 459.603 64.2561 458.613 64.6686C457.457 65.112 455.971 66.0608 454.166 67.5045C453.289 68.2367 452.68 68.7214 452.319 68.9482C451.731 69.2679 451.029 69.567 450.235 69.8351C449.543 70.0516 449.193 70.062 449.193 69.8866C449.193 69.7938 449.285 69.7217 449.461 69.6495C449.832 69.5051 450.513 69.1854 451.493 68.6904C452.154 68.2779 453.216 67.3808 454.682 65.9886C456.002 64.8336 457.426 63.9364 458.963 63.3177C459.985 62.9465 460.666 62.8743 461.027 63.1011C461.512 63.4208 462.059 63.5343 462.688 63.4208C462.76 63.0496 463.183 62.4618 463.947 61.6574C464.824 60.7087 465.556 60.2446 466.144 60.2446C467.021 60.2446 467.455 60.5746 467.455 61.2346L467.444 61.214Z" fill="#00401A"/>
</g>
<defs>
<clipPath id="clip0_1321_9232">
<rect width="505" height="70" fill="white"/>
</clipPath>
</defs>
</svg>
