<svg width="24" height="24" viewBox="0 0 24 24" fill="none" xmlns="http://www.w3.org/2000/svg">
<g clip-path="url(#clip0_4629_20935)">
<path d="M11.7123 0.412671C9.64717 1.46739 8.16667 3.05511 7.32255 5.21718C6.69558 6.82276 6.58372 8.48568 6.91084 10.1665C7.55661 13.4848 10.0955 16.1874 13.4457 16.9986C15.4751 17.4903 17.4604 17.3154 19.362 16.4233C21.258 15.535 22.6548 14.1306 23.6005 12.2402C23.6343 15.5453 21.9602 20.1092 17.3984 22.5683C12.8648 25.0124 7.39775 24.2839 3.65469 20.6986C-0.149481 17.0578 -1.05564 11.5098 1.27555 6.89138C3.64341 2.20156 8.28793 0.358149 11.7123 0.412671Z" fill="#F7BA2A"/>
<path d="M12.6468 4.66816C12.5782 4.63808 12.5237 4.61646 12.472 4.59108C11.9992 4.36453 11.7275 3.79393 11.845 3.27597C11.9616 2.76272 12.4438 2.36038 12.9495 2.3538C13.1873 2.35098 13.3556 2.49105 13.38 2.71101C13.4016 2.91124 13.2484 3.09079 13.0209 3.12933C12.9674 3.13873 12.9119 3.14249 12.8602 3.15847C12.6525 3.22333 12.5397 3.44894 12.6092 3.65575C12.6684 3.83341 12.8245 3.9387 13.0134 3.93024C13.1948 3.92178 13.334 3.80521 13.3763 3.62191C13.3885 3.56926 13.3922 3.5138 13.4026 3.46022C13.4421 3.25717 13.6056 3.12933 13.804 3.14531C13.9967 3.16129 14.1565 3.33332 14.1621 3.52978C14.1743 3.95468 13.8923 4.40495 13.5013 4.58168C13.4411 4.60894 13.381 4.63338 13.3001 4.66722C13.4862 4.76217 13.6545 4.84959 13.8237 4.93513C14.4497 5.25193 15.0833 5.55462 15.6576 5.96447C16.0346 6.23238 16.3918 6.52003 16.6869 6.88006C17.2979 7.62363 17.4493 8.45556 17.1776 9.37303C17.0563 9.78477 16.8834 10.1692 16.6136 10.5067C16.5553 10.58 16.4923 10.6148 16.3965 10.6148C14.3351 10.612 12.2727 10.612 10.2113 10.612C10.0007 10.612 9.78923 10.6064 9.57867 10.6101C9.49125 10.612 9.43297 10.5782 9.38127 10.5114C8.97613 9.98405 8.74207 9.38901 8.67909 8.72911C8.60389 7.93572 8.91597 7.28146 9.43391 6.71086C9.82683 6.27938 10.3034 5.95037 10.8072 5.6646C11.312 5.37883 11.83 5.11468 12.3423 4.84019C12.441 4.78755 12.5368 4.72927 12.6468 4.66628V4.66816Z" fill="#F7BA2A"/>
<path d="M11.4088 15.2765C11.375 15.2643 11.3562 15.2596 11.3411 15.2502C10.6587 14.83 10.0326 14.3431 9.52316 13.7189C9.48086 13.6672 9.4536 13.5873 9.45266 13.5196C9.44702 12.8559 9.45266 12.1923 9.44702 11.5286C9.44702 11.4205 9.48274 11.3989 9.58144 11.3998C10.5694 11.4026 11.5573 11.4007 12.5443 11.4007C13.8171 11.4007 15.0898 11.4007 16.3626 11.4026C16.5299 11.4026 16.5243 11.4054 16.5233 11.5681C16.5205 12.7036 16.5186 13.8401 16.5196 14.9757C16.5196 15.4128 16.5224 15.8499 16.5318 16.287C16.5337 16.3933 16.4979 16.4299 16.3955 16.4393C15.8305 16.491 15.2665 16.5014 14.7016 16.4262C14.5869 16.4111 14.5634 16.3641 14.5644 16.2617C14.5691 15.7268 14.5597 15.1919 14.5709 14.657C14.5803 14.1842 14.4403 13.7743 14.1085 13.435C13.4542 12.7666 12.3563 12.8268 11.7716 13.5553C11.5178 13.8712 11.3985 14.2246 11.4079 14.6269C11.4126 14.8366 11.4079 15.0471 11.4079 15.2756L11.4088 15.2765Z" fill="#F7BA2A"/>
<path d="M19.2898 15.5632V12.1875C19.3217 12.1847 19.3546 12.18 19.3875 12.18C19.8359 12.18 20.2852 12.1828 20.7336 12.1781C20.8323 12.1772 20.8605 12.2091 20.8596 12.3041C20.8567 13.0101 20.8596 13.717 20.8549 14.4229C20.8549 14.4699 20.8276 14.532 20.7919 14.562C20.3454 14.9371 19.8632 15.2596 19.3527 15.5397C19.3396 15.5463 19.3255 15.55 19.2888 15.5632H19.2898Z" fill="#F7BA2A"/>
<path d="M13.7701 16.256C13.2399 16.1366 12.7389 15.957 12.251 15.7418C12.2275 15.7314 12.1974 15.6995 12.1974 15.6779C12.1984 15.2614 12.1711 14.8412 12.2181 14.4286C12.267 13.9952 12.6176 13.748 13.0453 13.7724C13.4288 13.794 13.7691 14.1296 13.7804 14.5367C13.7954 15.0941 13.7832 15.6515 13.7823 16.209C13.7823 16.2203 13.7766 16.2315 13.7701 16.256Z" fill="#F7BA2A"/>
<path d="M20.0689 9.49622C20.2503 9.6062 20.4317 9.71242 20.6094 9.82523C20.8951 10.0067 21.1386 10.2238 21.2223 10.5735C21.2552 10.7098 21.2467 10.8386 21.1696 10.9551C21.0841 11.0849 20.9938 11.2127 20.8961 11.333C20.8669 11.3688 20.804 11.3951 20.756 11.396C20.3001 11.4007 19.8433 11.4017 19.3865 11.396C19.3329 11.396 19.268 11.3584 19.2295 11.318C19.1552 11.239 19.096 11.145 19.0302 11.0586C18.8554 10.8273 18.8713 10.5895 19.0029 10.346C19.1139 10.1411 19.284 9.99255 19.4748 9.86753C19.6694 9.73968 19.8706 9.6203 20.068 9.49716L20.0689 9.49622Z" fill="#F7BA2A"/>
<path d="M22.8334 6.10263C22.8269 6.19476 22.8287 6.28124 22.8137 6.3649C22.7827 6.53787 22.6483 6.65537 22.4762 6.67229C22.3042 6.68921 22.1331 6.59333 22.0786 6.42788C22.0053 6.20792 22.01 5.98137 22.0767 5.7614C22.1256 5.60065 22.3033 5.49349 22.4584 5.50759C22.6323 5.52357 22.778 5.64672 22.809 5.8178C22.8269 5.91275 22.8259 6.01145 22.8334 6.10263Z" fill="#F7BA2A"/>
<path d="M22.8335 8.07855C22.8269 8.16221 22.8278 8.24963 22.8118 8.33236C22.7789 8.5025 22.6323 8.62565 22.4593 8.63881C22.2958 8.65103 22.1303 8.55138 22.0777 8.3897C22.0081 8.17349 22.011 7.9507 22.0739 7.73449C22.1219 7.56905 22.3033 7.45812 22.4622 7.47316C22.6389 7.49008 22.7827 7.61887 22.8118 7.79748C22.8269 7.88866 22.8269 7.9836 22.8335 8.07855Z" fill="#F7BA2A"/>
<path d="M21.4413 7.47326C21.3595 7.46574 21.274 7.46386 21.1894 7.44975C21.0061 7.41873 20.8726 7.26739 20.867 7.08972C20.8604 6.91206 20.9826 6.73063 21.1621 6.70713C21.3445 6.68269 21.5353 6.67987 21.7176 6.70149C21.9066 6.72405 22.0401 6.90736 22.0325 7.0822C22.025 7.26927 21.8944 7.41685 21.7007 7.44975C21.6171 7.46386 21.5306 7.46574 21.4413 7.47326Z" fill="#F7BA2A"/>
<path d="M23.4107 7.47321C23.328 7.46569 23.2387 7.46287 23.1503 7.44783C22.9689 7.41586 22.8429 7.27204 22.8335 7.09531C22.8241 6.91671 22.9435 6.73246 23.1212 6.70802C23.3035 6.68264 23.4943 6.67982 23.6767 6.7005C23.8685 6.72212 23.9991 6.8979 23.9982 7.07557C23.9972 7.26264 23.8609 7.4168 23.6607 7.44971C23.5808 7.46287 23.4981 7.46475 23.4097 7.47321H23.4107Z" fill="#F7BA2A"/>
<path d="M18.6994 1.1665C18.783 1.17214 18.8648 1.17214 18.9457 1.1853C19.1261 1.21351 19.2596 1.35639 19.2737 1.53124C19.2887 1.71266 19.1835 1.89973 18.9992 1.92699C18.7952 1.95707 18.58 1.95237 18.3751 1.92323C18.2106 1.89973 18.0856 1.68634 18.1006 1.53218C18.1175 1.35733 18.251 1.21351 18.4315 1.18624C18.5198 1.17308 18.6101 1.17308 18.6984 1.16744L18.6994 1.1665Z" fill="#F7BA2A"/>
<path d="M20.6499 1.97218C20.554 1.95996 20.4544 1.95808 20.3613 1.93364C20.1893 1.88946 20.0652 1.71367 20.0756 1.5501C20.0868 1.3715 20.2222 1.21357 20.4046 1.19101C20.5474 1.17315 20.6922 1.16939 20.836 1.17503C21.0823 1.18443 21.243 1.34612 21.2421 1.56891C21.2421 1.77665 21.0701 1.94304 20.8379 1.95996C20.7758 1.96466 20.7129 1.95996 20.6508 1.95996C20.6508 1.96372 20.6508 1.96748 20.6499 1.97124V1.97218Z" fill="#F7BA2A"/>
<path d="M20.0774 0.595041C20.0652 0.694685 20.0662 0.798089 20.0389 0.893972C19.9891 1.07258 19.8171 1.17974 19.6356 1.16282C19.4608 1.14684 19.3095 0.999256 19.2954 0.815949C19.285 0.675884 19.2869 0.534879 19.2935 0.394814C19.3048 0.170146 19.4749 0 19.6779 0C19.88 0 20.0511 0.172966 20.0652 0.394814C20.0699 0.460616 20.0652 0.527359 20.0652 0.594101C20.069 0.594101 20.0727 0.594101 20.0765 0.595041H20.0774Z" fill="#F7BA2A"/>
<path d="M19.2936 2.55318C19.2936 2.48644 19.2898 2.42063 19.2936 2.35389C19.3077 2.1405 19.4637 1.97882 19.662 1.9666C19.8444 1.95626 20.0305 2.09726 20.0521 2.30031C20.0719 2.47986 20.07 2.66786 20.0399 2.84553C20.007 3.03824 19.8162 3.15104 19.6273 3.12942C19.4496 3.10874 19.3067 2.95457 19.2926 2.76281C19.2879 2.69324 19.2926 2.62274 19.2926 2.55224L19.2936 2.55318Z" fill="#F7BA2A"/>
<path d="M15.3671 1.96097C15.1575 1.96285 14.962 1.77296 14.9639 1.56991C14.9658 1.35182 15.1415 1.18262 15.3643 1.18262C15.5721 1.18262 15.7516 1.36592 15.7478 1.57555C15.7441 1.7786 15.5655 1.96003 15.3671 1.96191V1.96097Z" fill="#F7BA2A"/>
<path d="M22.8288 2.73735C22.6202 2.73923 22.4369 2.55874 22.4387 2.35381C22.4416 2.14418 22.6211 1.96652 22.8298 1.9684C23.0338 1.97028 23.2095 2.15171 23.2124 2.36321C23.2142 2.56532 23.0403 2.73547 22.8288 2.73735Z" fill="#F7BA2A"/>
</g>
<defs>
<clipPath id="clip0_4629_20935">
<rect width="24" height="24" fill="white"/>
</clipPath>
</defs>
</svg>
