<svg width="171" height="200" viewBox="0 0 171 200" fill="none" xmlns="http://www.w3.org/2000/svg">
<g clip-path="url(#clip0_5877_314952)">
<path d="M85.8798 176.135C87.2098 175.78 88.5636 175.49 89.8698 175.064C92.322 174.265 93.8539 174.585 95.4511 176.567C95.9083 177.141 96.1636 177.975 96.2526 178.721C96.4308 180.2 97.2027 181.023 98.6039 181.372C99.1026 181.496 99.5895 181.674 100.076 181.857C102.327 182.709 103.075 184.017 102.725 186.39C102.588 187.295 102.511 188.194 103.069 189.029C103.562 189.762 103.9 189.822 104.518 189.2C105.925 187.792 107.754 187.691 109.268 188.981C110.877 190.354 111.548 192.188 111.815 194.218C112.064 196.129 113.495 197.283 115.443 197.194C116.155 197.159 116.874 197.111 117.586 197.111C119.557 197.111 120.988 198.04 122.075 199.638C122.229 199.863 122.615 200.058 122.888 200.058C138.569 200.082 154.25 200.082 169.931 200.088C171.006 200.088 171.006 200.094 171.006 201.182C171.006 207.307 171.006 213.431 171.006 219.555C171.006 219.798 171.006 220.04 171.006 220.395H170.186C134.336 220.395 17.0227 220.395 0.825156 220.395C0.552031 220.395 0.284844 220.413 0.0117188 220.419C0.0117188 213.632 0.0117188 206.839 0.0117188 200.052C0.480781 200.058 0.943906 200.076 1.41297 200.076C15.0217 200.064 28.6305 200.052 42.2452 200.017C42.5658 200.017 43.0586 199.78 43.1714 199.526C44.1095 197.324 46.3539 196.786 48.3727 197.236C49.0139 197.378 49.6611 197.597 50.2489 197.893C52.0005 198.768 53.9005 197.715 54.328 195.603C54.5417 194.526 54.4527 193.39 54.6486 192.313C55.0939 189.851 56.3764 187.952 58.698 186.857C59.0364 186.697 59.452 186.656 59.832 186.626C60.6395 186.567 61.4589 186.597 62.2664 186.514C63.4361 186.39 64.1605 185.786 64.4277 184.561C64.962 182.088 66.102 179.904 67.8358 178.04C69.3617 176.401 71.0955 175.082 73.4586 175.295C74.7114 175.407 75.9345 175.881 77.1576 176.242L85.8917 176.129L85.8798 176.135Z" fill="#6E4430"/>
<path d="M97.6125 61.959C97.9272 62.0004 98.2359 62.0477 98.5506 62.0892C98.4794 62.243 98.3903 62.5389 98.3369 62.5329C98.0578 62.5034 97.7906 62.3909 97.5234 62.314C97.5531 62.1957 97.5828 62.0773 97.6125 61.959Z" fill="white"/>
<path d="M25.7617 55.1616C22.8048 52.2918 20.893 49.0255 19.5273 45.1912C20.7445 45.1675 21.843 45.1498 22.9533 45.132C22.2705 43.6113 21.5223 42.1912 20.982 40.6941C20.4477 39.2149 20.127 37.6646 19.7114 36.1498C19.8005 36.1024 19.8895 36.0551 19.9786 36.0137C20.412 36.3628 20.8573 36.6882 21.267 37.061C23.6836 39.2681 26.1002 41.4693 28.493 43.706C30.4167 45.5048 32.287 47.351 34.1989 49.1616C36.4314 51.2799 38.7114 53.345 40.9083 55.493C44.2808 58.8007 47.6295 62.132 50.9427 65.4989C54.7248 69.3332 58.4833 73.1912 62.2061 77.0847C64.688 79.6823 67.0927 82.351 69.5211 84.99C70.3345 85.8776 71.1064 86.8007 71.9436 87.6705C72.3948 88.1379 72.3236 88.4752 71.8367 88.7947C70.8511 89.4456 69.913 90.1971 68.862 90.7119C66.8255 91.7001 64.6998 92.4456 62.4673 92.9367C58.4892 93.8184 54.4933 93.8302 50.4973 93.3509C46.7686 92.9012 43.1586 91.848 39.792 90.2089C36.0633 88.3924 32.6077 86.1143 29.918 82.8657C28.392 81.0196 27.0858 79.0314 26.118 76.8302C26.0705 76.7237 26.0705 76.5995 26.0467 76.4575C27.258 76.1794 28.4336 75.9072 29.5677 75.6527C28.3742 74.3509 27.1748 73.2267 26.1892 71.9367C24.972 70.3391 23.7727 68.7001 23.1908 66.7237C22.8998 65.7237 22.9058 65.7296 23.9092 65.5344C24.8414 65.351 25.7677 65.1498 26.7117 64.9545C26.0052 63.9131 25.3342 62.9959 24.7464 62.0314C23.6183 60.1853 22.5495 58.3036 21.9617 56.1971C21.7658 55.493 21.8489 55.3865 22.5911 55.3983C23.2798 55.4101 23.9686 55.422 24.6573 55.3865C24.9839 55.3746 25.3045 55.2622 25.7677 55.1675L25.7617 55.1616Z" fill="#5E944C"/>
<path d="M38.1827 41.7051C35.297 38.7643 32.0195 36.8589 28.172 35.5039C28.1542 36.7169 28.1305 37.8116 28.1127 38.9181C26.5867 38.2376 25.1617 37.4921 23.6595 36.9595C22.1752 36.4329 20.6195 36.1134 19.0936 35.6992C19.0461 35.7879 18.9986 35.8767 18.957 35.9654C19.3073 36.3974 19.6339 36.8412 20.008 37.2495C22.2227 39.6518 25.9039 41.4921 28.1483 43.8708C29.9533 45.782 31.6158 46.8412 33.4386 48.7406C35.5642 50.9595 38.1648 53.1075 40.3261 55.2968C43.6452 58.6578 47.552 62.1844 50.9364 65.4862C54.7898 69.2495 57.6636 72.8944 61.5764 76.5986C64.183 79.066 66.1186 82.9714 68.7786 85.3915C69.6692 86.2021 70.0017 86.8471 70.8686 87.6814C71.3377 88.1311 71.6761 88.0542 71.9967 87.5749C72.6498 86.5927 73.4039 85.6578 73.9145 84.6104C74.9061 82.5808 75.6483 80.4625 76.1411 78.2376C77.0198 74.2731 77.0258 70.2909 76.5389 66.3086C76.0817 62.5927 75.0189 58.995 73.3683 55.6459C71.5395 51.9299 69.2477 48.4921 65.988 45.8175C64.1355 44.2968 62.1345 43.0009 59.9258 42.0365C59.8189 41.9891 59.6942 41.9891 59.5517 41.9654C59.2727 43.1725 59.0055 44.3441 58.7442 45.4743C57.438 44.285 56.3039 43.0956 55.0095 42.1134C53.4064 40.9004 51.7617 39.7051 49.7786 39.1311C48.7752 38.8412 48.7811 38.8471 48.5852 39.853C48.407 40.782 48.2052 41.7051 48.0092 42.6459C46.9642 41.9477 46.0439 41.2791 45.0702 40.6873C43.2177 39.5631 41.3295 38.5039 39.2158 37.9181C38.5092 37.7228 38.4023 37.8116 38.4142 38.5453C38.4261 39.2317 38.438 39.9181 38.4083 40.6045C38.3964 40.9299 38.2836 41.2495 38.1886 41.711L38.1827 41.7051Z" fill="#88B64F"/>
<path d="M19.1289 35.9883C19.1289 35.9883 74.5436 85.9528 79.163 103.846L79.5964 98.7279C79.5964 98.7279 71.2839 77.8108 19.1289 35.9883Z" fill="#A8C94B"/>
<path d="M37.3944 130.344C35.0787 128.095 33.5766 125.533 32.5078 122.527C33.4578 122.51 34.3247 122.492 35.1916 122.48C34.6513 121.291 34.0694 120.172 33.6478 119.001C33.2322 117.841 32.9769 116.628 32.6503 115.439C32.7216 115.403 32.7928 115.368 32.8641 115.332C33.2025 115.604 33.5528 115.859 33.8734 116.155C35.7675 117.882 37.6616 119.61 39.5378 121.362C41.0459 122.77 42.5125 124.22 44.0088 125.64C45.7603 127.297 47.5475 128.918 49.2634 130.604C51.9116 133.196 54.53 135.811 57.1306 138.444C60.0934 141.45 63.0384 144.474 65.9597 147.527C67.9072 149.563 69.7894 151.652 71.6953 153.723C72.3366 154.415 72.9422 155.143 73.5953 155.823C73.9516 156.19 73.8922 156.456 73.5122 156.705C72.7403 157.22 72.0041 157.805 71.1788 158.208C69.5816 158.983 67.9191 159.569 66.1675 159.953C63.0503 160.646 59.9153 160.652 56.7863 160.279C53.865 159.93 51.0328 159.101 48.3966 157.811C45.4753 156.385 42.7678 154.598 40.66 152.054C39.4606 150.61 38.4394 149.048 37.6794 147.326C37.6438 147.243 37.6437 147.143 37.6259 147.03C38.5759 146.811 39.4962 146.598 40.3869 146.397C39.4487 145.379 38.5106 144.492 37.7388 143.486C36.7828 142.237 35.8447 140.947 35.3875 139.403C35.1559 138.616 35.1619 138.622 35.9516 138.474C36.6819 138.332 37.4063 138.172 38.1484 138.018C37.5963 137.202 37.0678 136.486 36.6047 135.728C35.72 134.279 34.8828 132.805 34.4197 131.155C34.2653 130.604 34.3306 130.515 34.9125 130.527C35.4528 130.539 35.9931 130.545 36.5334 130.521C36.7887 130.51 37.0381 130.427 37.4003 130.35L37.3944 130.344Z" fill="#5E944C"/>
<path d="M47.1378 119.799C44.8756 117.492 42.3047 116.001 39.2884 114.941C39.2706 115.888 39.2587 116.752 39.2409 117.616C38.0475 117.083 36.9253 116.498 35.7497 116.083C34.5859 115.669 33.3688 115.421 32.1694 115.095C32.1338 115.166 32.0981 115.237 32.0625 115.308C32.3356 115.646 32.5909 115.995 32.8878 116.314C34.6275 118.196 37.5072 119.64 39.2647 121.504C40.6778 123.001 41.9841 123.835 43.4091 125.32C45.0775 127.06 47.1141 128.746 48.8062 130.456C51.4069 133.089 54.4706 135.859 57.1188 138.444C60.1409 141.391 62.3913 144.249 65.455 147.154C67.4975 149.089 69.0175 152.149 71.1016 154.048C71.8022 154.681 72.0575 155.19 72.7403 155.841C73.1084 156.196 73.3756 156.137 73.625 155.758C74.1356 154.989 74.7234 154.255 75.1272 153.433C75.905 151.841 76.4869 150.178 76.8728 148.438C77.5616 145.332 77.5675 142.208 77.1875 139.089C76.8313 136.178 75.9941 133.356 74.7056 130.728C73.2747 127.817 71.4756 125.119 68.9166 123.024C67.4619 121.835 65.8944 120.817 64.1666 120.06C64.0834 120.024 63.9825 120.024 63.8697 120.006C63.65 120.953 63.4422 121.87 63.2403 122.758C62.2191 121.823 61.3284 120.894 60.3131 120.125C59.0544 119.178 57.7659 118.237 56.2103 117.788C55.4206 117.563 55.4266 117.569 55.2781 118.35C55.1356 119.077 54.9813 119.799 54.8269 120.539C54.0075 119.989 53.2831 119.468 52.5231 119.006C51.0684 118.125 49.59 117.296 47.9334 116.835C47.3813 116.681 47.2922 116.752 47.3041 117.326C47.3159 117.864 47.3219 118.403 47.3041 118.941C47.2922 119.196 47.2091 119.444 47.1319 119.805L47.1378 119.799Z" fill="#88B64F"/>
<path d="M32.1992 115.314C32.1992 115.314 75.638 154.48 79.2539 168.504L79.5923 164.492C79.5923 164.492 73.0789 148.096 32.1992 115.314Z" fill="#A8C94B"/>
<path d="M125.536 36.8882C128.024 34.468 129.639 31.7166 130.79 28.4858C129.763 28.468 128.837 28.4503 127.905 28.4325C128.481 27.1544 129.11 25.9533 129.567 24.6929C130.019 23.4503 130.292 22.1426 130.636 20.8586C130.559 20.8172 130.488 20.7817 130.41 20.7402C130.048 21.0361 129.668 21.3083 129.324 21.6219C127.287 23.4799 125.251 25.3379 123.238 27.2195C121.617 28.7343 120.038 30.2905 118.429 31.8172C116.546 33.5982 114.629 35.3438 112.776 37.1544C109.932 39.9414 107.112 42.7521 104.321 45.5864C101.133 48.8172 97.968 52.0716 94.833 55.3497C92.743 57.5391 90.7183 59.7876 88.6639 62.0124C87.9751 62.758 87.328 63.5391 86.6214 64.2669C86.2414 64.6633 86.3008 64.9473 86.7105 65.2136C87.5417 65.7639 88.3314 66.397 89.2161 66.829C90.932 67.6633 92.7251 68.2905 94.6073 68.7047C97.9561 69.4503 101.329 69.4562 104.695 69.0538C107.836 68.6751 110.882 67.7876 113.72 66.403C116.867 64.8704 119.776 62.9473 122.039 60.2136C123.327 58.6574 124.425 56.9828 125.245 55.1249C125.286 55.0361 125.28 54.9296 125.304 54.8112C124.283 54.5746 123.291 54.3497 122.335 54.1308C123.345 53.0361 124.354 52.0834 125.18 51.0006C126.207 49.6574 127.216 48.2728 127.703 46.6101C127.952 45.7639 127.94 45.7757 127.097 45.6101C126.314 45.4562 125.53 45.2846 124.734 45.1189C125.328 44.2432 125.892 43.468 126.391 42.6515C127.341 41.0953 128.243 39.5095 128.742 37.7343C128.908 37.1426 128.837 37.0479 128.214 37.0598C127.632 37.0716 127.05 37.0775 126.474 37.0538C126.201 37.042 125.928 36.9473 125.542 36.8704L125.536 36.8882Z" fill="#5E944C"/>
<path d="M115.063 25.5452C117.497 23.0659 120.258 21.4623 123.5 20.3203C123.518 21.344 123.536 22.2671 123.548 23.1961C124.836 22.6221 126.036 21.9949 127.3 21.5452C128.547 21.1014 129.865 20.8292 131.148 20.4801C131.189 20.557 131.225 20.628 131.267 20.7049C130.97 21.0659 130.697 21.4446 130.382 21.7878C128.512 23.8114 125.412 25.3676 123.524 27.3677C122.004 28.9771 120.603 29.8706 119.065 31.4742C117.272 33.344 115.081 35.1546 113.258 37.0008C110.462 39.8292 107.166 42.8055 104.316 45.5866C101.068 48.7582 98.6459 51.8292 95.3506 54.9475C93.1537 57.0304 91.5209 60.3203 89.2824 62.3558C88.5343 63.0422 88.2553 63.5807 87.519 64.2848C87.1212 64.6635 86.8362 64.5984 86.569 64.196C86.0168 63.3676 85.3874 62.5807 84.954 61.6931C84.1168 59.983 83.4934 58.1961 83.0778 56.3203C82.3356 52.9771 82.3296 49.6221 82.7393 46.2671C83.1253 43.1369 84.0218 40.1073 85.4112 37.2789C86.9549 34.1487 88.8846 31.2493 91.6337 28.9949C93.1953 27.7108 94.8815 26.6162 96.7399 25.8114C96.829 25.77 96.9359 25.7759 97.0546 25.7523C97.2862 26.77 97.5178 27.7582 97.7315 28.7108C98.8299 27.7108 99.7859 26.7049 100.878 25.8824C102.232 24.8647 103.616 23.8529 105.29 23.3736C106.139 23.131 106.133 23.1369 106.293 23.983C106.448 24.7641 106.614 25.5452 106.78 26.3381C107.659 25.7463 108.437 25.1842 109.256 24.6872C110.818 23.7404 112.409 22.8469 114.19 22.3499C114.784 22.1842 114.879 22.2611 114.867 22.8765C114.855 23.4564 114.849 24.0363 114.867 24.6103C114.879 24.8824 114.974 25.1546 115.051 25.5392L115.063 25.5452Z" fill="#88B64F"/>
<path d="M131.124 20.7285C131.124 20.7285 84.4193 62.8409 80.5243 77.9238L80.1621 73.6102C80.1621 73.6102 87.1684 55.983 131.124 20.7344V20.7285Z" fill="#A8C94B"/>
<path d="M135.47 93.5034C138.427 90.6336 140.338 87.3673 141.704 83.533C140.487 83.5093 139.388 83.4916 138.278 83.4738C138.961 81.9531 139.709 80.533 140.249 79.0359C140.784 77.5567 141.104 76.0064 141.52 74.4916C141.431 74.4442 141.342 74.3969 141.253 74.3555C140.819 74.7046 140.374 75.03 139.964 75.4028C137.548 77.6099 135.131 79.8111 132.738 82.0478C130.815 83.8466 128.944 85.6927 127.033 87.5034C124.8 89.6217 122.52 91.6868 120.323 93.8348C116.951 97.1425 113.602 100.474 110.289 103.841C106.507 107.675 102.748 111.533 99.0253 115.426C96.5435 118.024 94.1388 120.693 91.7104 123.332C90.8969 124.219 90.125 125.142 89.2878 126.012C88.8366 126.48 88.9078 126.817 89.3947 127.137C90.3803 127.787 91.3185 128.539 92.3694 129.054C94.406 130.042 96.5316 130.787 98.7641 131.279C102.742 132.16 106.738 132.172 110.734 131.693C114.463 131.243 118.073 130.19 121.439 128.551C125.168 126.734 128.624 124.456 131.313 121.208C132.839 119.361 134.146 117.373 135.113 115.172C135.161 115.066 135.161 114.941 135.185 114.799C133.973 114.521 132.798 114.249 131.664 113.995C132.857 112.693 134.057 111.568 135.042 110.279C136.259 108.681 137.459 107.042 138.041 105.066C138.332 104.066 138.326 104.071 137.322 103.876C136.39 103.693 135.464 103.492 134.52 103.296C135.226 102.255 135.897 101.338 136.485 100.373C137.613 98.5271 138.682 96.6454 139.27 94.5389C139.466 93.8348 139.383 93.7282 138.64 93.7401C137.952 93.7519 137.263 93.7637 136.574 93.7282C136.248 93.7164 135.927 93.604 135.464 93.5093L135.47 93.5034Z" fill="#5E944C"/>
<path d="M123.048 80.0469C125.934 77.1061 129.211 75.2007 133.059 73.8457C133.076 75.0587 133.1 76.1534 133.118 77.2599C134.644 76.5794 136.069 75.8339 137.571 75.3013C139.055 74.7747 140.611 74.4552 142.137 74.041C142.185 74.1297 142.232 74.2185 142.274 74.3072C141.923 74.7392 141.597 75.183 141.223 75.5913C139.008 77.9936 135.327 79.8339 133.082 82.2126C131.277 84.1238 129.615 85.183 127.792 87.0824C125.666 89.3013 123.066 91.4493 120.905 93.6386C117.585 96.9995 113.679 100.526 110.294 103.828C106.441 107.591 103.567 111.236 99.6542 114.94C97.0477 117.408 95.1121 121.313 92.4521 123.733C91.5614 124.544 91.2289 125.189 90.3621 126.023C89.893 126.473 89.5545 126.396 89.2339 125.917C88.5808 124.934 87.8267 124 87.3161 122.952C86.3246 120.923 85.5824 118.804 85.0896 116.579C84.2108 112.615 84.2049 108.633 84.6917 104.65C85.1489 100.934 86.2117 97.3368 87.8624 93.9877C89.6911 90.2717 91.983 86.8339 95.2427 84.1593C97.0952 82.6386 99.0961 81.3427 101.305 80.3782C101.412 80.3309 101.536 80.3309 101.679 80.3072C101.958 81.5143 102.225 82.6859 102.486 83.8161C103.793 82.6268 104.927 81.4374 106.221 80.4552C107.824 79.2422 109.469 78.0469 111.452 77.4729C112.455 77.183 112.45 77.1889 112.645 78.1948C112.824 79.1238 113.025 80.0469 113.221 80.9877C114.266 80.2895 115.187 79.6208 116.16 79.0291C118.013 77.9049 119.901 76.8457 122.015 76.2599C122.721 76.0646 122.828 76.1534 122.816 76.8871C122.805 77.5735 122.793 78.2599 122.822 78.9463C122.834 79.2717 122.947 79.5913 123.042 80.0528L123.048 80.0469Z" fill="#88B64F"/>
<path d="M142.102 74.332C142.102 74.332 86.6876 124.297 82.0682 142.19L81.6348 137.072C81.6348 137.072 89.9473 116.155 142.102 74.332Z" fill="#A8C94B"/>
<path d="M71.5059 175.486C71.5059 175.486 73.5722 174.942 74.2491 175.563C75.2525 176.486 76.0481 180.575 81.4334 180.575C86.8187 180.575 90.0547 177.291 89.9953 175.03C88.3803 175.03 87.4184 176.279 81.5522 176.279C76.0897 176.279 74.3084 174.61 73.4059 174.67C72.5034 174.729 71.5 175.486 71.5 175.486H71.5059Z" fill="#462B21"/>
<path d="M79.0157 176.835L77.9707 38.2014C77.9707 38.2014 79.0157 35.5445 79.4135 39.1659C79.7876 42.5801 84.7454 163.16 85.3035 176.84C85.3391 177.639 85.1194 178.84 84.2644 178.977C82.3704 179.278 79.0573 179.438 79.0157 176.835Z" fill="#5E944C"/>
<path d="M80.4769 135.952C79.8 135.195 79.1528 134.384 79.1528 133.302C79.1469 122.26 79.1469 111.225 79.1885 100.183C79.1944 98.3193 79.6278 96.3726 78.5175 94.7572C78.4166 94.6034 78.3691 94.2247 78.4403 94.1832C78.6244 94.0708 78.4582 94.1537 78.6719 94.201C79.2775 94.3253 79.6872 94.6921 79.7882 95.3253C79.8713 95.8815 79.9722 96.4436 79.99 97.0057C80.1207 101.278 80.2572 105.556 80.3403 109.828C80.5006 118.059 80.6313 126.29 80.7678 134.526C80.7738 134.982 80.7678 135.432 80.7678 135.887C80.6669 135.911 80.5719 135.935 80.471 135.958L80.4769 135.952Z" fill="#88B64F"/>
<path d="M55.7707 12.6516C54.5239 10.4445 53.9657 8.1841 53.8292 5.68114C54.5535 5.87641 55.2067 6.05984 55.8598 6.23736C55.7173 5.2196 55.5273 4.24919 55.4679 3.27286C55.4085 2.30836 55.4917 1.33795 55.5095 0.367534C55.5688 0.3557 55.6342 0.343866 55.6935 0.332031C55.8895 0.610138 56.0973 0.882327 56.2754 1.17227C57.3145 2.89416 58.3654 4.61605 59.3867 6.34978C60.206 7.74623 60.9957 9.16043 61.8032 10.5628C62.7532 12.2019 63.7389 13.8172 64.6592 15.4681C66.0782 18.0066 67.4676 20.5569 68.8451 23.119C70.4067 26.0421 71.9564 28.9711 73.4764 31.9178C74.4917 33.8823 75.4417 35.8764 76.4214 37.8587C76.7479 38.5214 77.0448 39.2019 77.3832 39.8587C77.5673 40.2137 77.4664 40.3971 77.122 40.5036C76.4273 40.7166 75.7445 41.0007 75.032 41.119C73.6545 41.3498 72.271 41.4208 70.8639 41.3261C68.3582 41.1604 65.9951 40.474 63.721 39.4977C61.5954 38.5865 59.6479 37.3379 57.9438 35.7876C56.0557 34.0658 54.417 32.1249 53.3898 29.7403C52.8079 28.3853 52.3864 26.9829 52.1964 25.5155C52.1845 25.4445 52.2082 25.3675 52.2201 25.2788C52.9801 25.3261 53.7282 25.3675 54.4407 25.409C53.9598 24.4326 53.4492 23.5628 53.0929 22.6279C52.6535 21.474 52.226 20.2965 52.232 19.0303C52.232 18.3912 52.232 18.3912 52.8673 18.4504C53.4492 18.5036 54.031 18.545 54.6248 18.5924C54.3873 17.8527 54.1557 17.1959 53.9717 16.5214C53.6273 15.2374 53.3245 13.9415 53.3423 12.5924C53.3482 12.1427 53.4195 12.0953 53.8529 12.2314C54.2567 12.3557 54.6604 12.48 55.076 12.5865C55.272 12.6338 55.4798 12.6279 55.7707 12.6516Z" fill="#5E944C"/>
<path d="M65.4544 6.85213C64.261 4.61544 62.6579 2.92313 60.6213 1.45568C60.3957 2.16574 60.1938 2.81071 59.9919 3.4616C59.2082 2.79296 58.4957 2.10657 57.7001 1.5326C56.9163 0.964555 56.0494 0.503016 55.2241 -0.00585938C55.1826 0.0414779 55.141 0.082898 55.0935 0.130235C55.2241 0.443845 55.3429 0.763371 55.4913 1.07106C56.3819 2.8758 58.2344 4.59769 59.1429 6.39651C59.8732 7.8403 60.6748 8.75154 61.4169 10.1894C62.2838 11.8699 63.4476 13.5918 64.3441 15.2545C65.7216 17.8166 67.4138 20.5799 68.8329 23.1125C70.4538 26.0001 71.5166 28.6509 73.1791 31.5208C74.2894 33.432 74.7526 36.0711 75.8985 37.9646C76.2844 38.5977 76.3676 39.0356 76.7357 39.6805C76.9376 40.0296 77.1454 40.0415 77.4244 39.8107C77.9826 39.3433 78.5882 38.9231 79.0751 38.3906C80.0132 37.361 80.8207 36.2367 81.5035 35.0119C82.7148 32.8225 83.4154 30.4675 83.8191 28.0356C84.1991 25.7634 84.1991 23.4557 83.8073 21.1835C83.3738 18.6746 82.6198 16.2427 81.1591 14.0947C80.3279 12.8758 79.3719 11.7634 78.2379 10.8107C78.1844 10.7634 78.1073 10.7456 78.0301 10.7042C77.656 11.3669 77.2938 12.0178 76.9435 12.6391C76.3794 11.7101 75.9163 10.8107 75.3226 10.006C74.5863 9.01189 73.8204 8.02373 72.7516 7.33734C72.2113 6.99414 72.2113 7.00006 71.9204 7.55627C71.6532 8.07106 71.3741 8.58586 71.0891 9.10657C70.5963 8.50893 70.1688 7.95864 69.6938 7.44385C68.7973 6.4616 67.8651 5.50302 66.7191 4.79296C66.3391 4.55627 66.256 4.58586 66.1373 5.02373C66.0244 5.43201 65.9116 5.84029 65.7751 6.23674C65.7098 6.42609 65.591 6.59769 65.4544 6.85213Z" fill="#88B64F"/>
<path d="M55.1951 0.177734C55.1951 0.177734 79.2242 39.2961 78.8264 50.6688L79.9723 47.7162C79.9723 47.7162 78.7136 33.9233 55.1892 0.177734H55.1951Z" fill="#A8C94B"/>
</g>
<defs>
<clipPath id="clip0_5877_314952">
<rect width="171" height="200" fill="white"/>
</clipPath>
</defs>
</svg>
