<svg width="18" height="18" viewBox="0 0 18 18" fill="none" xmlns="http://www.w3.org/2000/svg">
<path d="M9 0.9375C9.42087 0.9375 9.76411 1.11444 10.0762 1.35254C10.3684 1.57551 10.6903 1.89828 11.0674 2.27539L11.0938 2.30176C11.4797 2.68768 11.8165 2.83984 12.3359 2.83984C12.4009 2.83984 12.4832 2.8376 12.5762 2.83496C12.8121 2.82828 13.1172 2.81933 13.3838 2.8418C13.7749 2.87482 14.265 2.98017 14.6387 3.35059C15.0151 3.72391 15.1232 4.21577 15.1572 4.60938C15.1805 4.87839 15.1717 5.18609 15.165 5.42383C15.1624 5.5165 15.1602 5.59903 15.1602 5.66406C15.1602 6.00188 15.1977 6.19076 15.2627 6.33984C15.3296 6.49303 15.448 6.65599 15.6982 6.90625L15.7246 6.93262C16.1017 7.30969 16.4245 7.63162 16.6475 7.92383C16.8856 8.23589 17.0625 8.57912 17.0625 9C17.0625 9.42085 16.8856 9.76411 16.6475 10.0762C16.4245 10.3684 16.1017 10.6903 15.7246 11.0674L15.6982 11.0938C15.448 11.344 15.3296 11.507 15.2627 11.6602C15.1977 11.8092 15.1602 11.9981 15.1602 12.3359C15.1602 12.401 15.1624 12.4835 15.165 12.5762C15.1717 12.8139 15.1805 13.1216 15.1572 13.3906C15.1232 13.7842 15.0151 14.2761 14.6387 14.6494C14.265 15.0198 13.7749 15.1252 13.3838 15.1582C13.1172 15.1807 12.8121 15.1717 12.5762 15.165C12.4832 15.1624 12.4009 15.1602 12.3359 15.1602C12.0052 15.1602 11.8192 15.1935 11.6729 15.2539C11.5266 15.3143 11.3703 15.4226 11.1348 15.6582C11.0845 15.7085 11.0178 15.7794 10.9414 15.8613C10.7689 16.0462 10.5444 16.2867 10.335 16.4697C10.0171 16.7475 9.56131 17.0625 9 17.0625C8.4387 17.0625 7.98288 16.7475 7.66504 16.4697C7.45561 16.2867 7.23106 16.0462 7.05859 15.8613C6.98216 15.7794 6.91553 15.7085 6.86523 15.6582C6.62967 15.4227 6.47338 15.3143 6.32715 15.2539C6.18078 15.1935 5.99482 15.1602 5.66406 15.1602C5.59914 15.1602 5.51683 15.1624 5.42383 15.165C5.18788 15.1717 4.88277 15.1807 4.61621 15.1582C4.22509 15.1252 3.73497 15.0198 3.36133 14.6494C2.98485 14.2761 2.87684 13.7842 2.84277 13.3906C2.81951 13.1216 2.82827 12.8139 2.83496 12.5762C2.83757 12.4834 2.83984 12.401 2.83984 12.3359C2.83984 11.9981 2.80235 11.8092 2.7373 11.6602C2.6704 11.507 2.55201 11.344 2.30176 11.0938L2.27539 11.0674C1.89828 10.6903 1.57551 10.3684 1.35254 10.0762C1.11444 9.76411 0.937511 9.42085 0.9375 9C0.937506 8.57914 1.11445 8.23589 1.35254 7.92383C1.57551 7.63162 1.89828 7.30969 2.27539 6.93262L2.30176 6.90625C2.68777 6.52024 2.83984 6.18337 2.83984 5.66406C2.83984 5.59914 2.8376 5.51684 2.83496 5.42383C2.82828 5.18788 2.81933 4.88278 2.8418 4.61621C2.87482 4.22509 2.98017 3.73497 3.35059 3.36133C3.72391 2.98487 4.21577 2.87684 4.60938 2.84277C4.87839 2.81951 5.18609 2.82827 5.42383 2.83496C5.51658 2.83757 5.59898 2.83984 5.66406 2.83984C6.18337 2.83984 6.52026 2.68775 6.90625 2.30176L6.93262 2.27539C7.30969 1.89828 7.63162 1.57551 7.92383 1.35254C8.23589 1.11444 8.57913 0.9375 9 0.9375ZM11.915 6.77832C11.7236 6.41124 11.2706 6.26869 10.9033 6.45996C9.83247 7.01779 8.95915 8.08582 8.38184 8.92773C8.21925 9.16483 8.07451 9.39221 7.9502 9.59766C7.8653 9.52579 7.7826 9.4612 7.70703 9.4043C7.54581 9.28293 7.40086 9.18719 7.29492 9.12109L7.10938 9.01172L7.1084 9.01074C6.74446 8.81306 6.28857 8.94764 6.09082 9.31152C5.89316 9.67543 6.02878 10.1313 6.39258 10.3291C6.50059 10.3974 6.73404 10.547 6.80566 10.6025C7.05581 10.7909 7.31022 11.0282 7.46484 11.2744C7.61015 11.5056 7.86993 11.6395 8.14258 11.624C8.41521 11.6086 8.65813 11.4453 8.77637 11.1992C8.81487 11.1217 8.91254 10.9309 8.99512 10.7852C9.14139 10.522 9.35337 10.1616 9.61816 9.77539C10.1658 8.97678 10.8677 8.16973 11.5967 7.79004C11.9639 7.59863 12.1063 7.14561 11.915 6.77832Z" fill="url(#paint0_linear_5877_315094)"/>
<defs>
<linearGradient id="paint0_linear_5877_315094" x1="9" y1="0.9375" x2="9" y2="17.0625" gradientUnits="userSpaceOnUse">
<stop stop-color="#3198A0"/>
<stop offset="1" stop-color="#51F909"/>
</linearGradient>
</defs>
</svg>
