<svg width="33" height="33" viewBox="0 0 33 33" fill="none" xmlns="http://www.w3.org/2000/svg">
<path d="M16.125 0C16.9666 5.34932e-07 17.6523 0.354012 18.2764 0.830078C18.8609 1.27603 19.5055 1.92144 20.2598 2.67578L20.3135 2.72852C21.0853 3.50031 21.758 3.80469 22.7969 3.80469C22.9267 3.80469 23.0913 3.80019 23.2773 3.79492C23.7495 3.78155 24.3602 3.76356 24.8936 3.80859C25.6759 3.87466 26.656 4.08509 27.4033 4.82617C28.1561 5.5728 28.3713 6.55659 28.4395 7.34375C28.486 7.88197 28.4685 8.49809 28.4551 8.97363C28.4499 9.15894 28.4453 9.32308 28.4453 9.45312C28.4453 10.1293 28.5211 10.5074 28.6514 10.8057C28.7852 11.1119 29.0213 11.4363 29.5215 11.9365L29.5742 11.9902C30.3286 12.7445 30.974 13.3891 31.4199 13.9736C31.896 14.5977 32.25 15.2834 32.25 16.125C32.25 16.9666 31.896 17.6523 31.4199 18.2764C30.9739 18.861 30.3288 19.5063 29.5742 20.2607L29.5215 20.3135C29.0212 20.8137 28.7852 21.1381 28.6514 21.4443C28.5211 21.7426 28.4453 22.1206 28.4453 22.7969C28.4453 22.9269 28.4499 23.091 28.4551 23.2764C28.4685 23.7519 28.486 24.368 28.4395 24.9062C28.3713 25.6934 28.1561 26.6772 27.4033 27.4238C26.6561 28.1648 25.6759 28.3753 24.8936 28.4414C24.3602 28.4864 23.7495 28.4685 23.2773 28.4551C23.0913 28.4498 22.9267 28.4453 22.7969 28.4453C22.1354 28.4453 21.7634 28.5121 21.4707 28.6328C21.1782 28.7536 20.8648 28.9701 20.3936 29.4414C20.293 29.542 20.1606 29.6839 20.0078 29.8477C19.6629 30.2174 19.2138 30.6983 18.7949 31.0645C18.1593 31.62 17.2476 32.25 16.125 32.25C15.0024 32.25 14.0908 31.6201 13.4551 31.0645C13.0363 30.6984 12.5881 30.2174 12.2432 29.8477C12.0903 29.6838 11.9571 29.5421 11.8564 29.4414C11.3852 28.9701 11.0718 28.7536 10.7793 28.6328C10.4866 28.5121 10.1146 28.4453 9.45312 28.4453C9.32329 28.4453 9.15866 28.4498 8.97266 28.4551C8.50052 28.4685 7.88976 28.4864 7.35645 28.4414C6.57414 28.3753 5.59394 28.1648 4.84668 27.4238C4.0939 26.6772 3.87868 25.6934 3.81055 24.9062C3.76399 24.368 3.78154 23.7519 3.79492 23.2764C3.80014 23.091 3.80469 22.9269 3.80469 22.7969C3.80469 22.1206 3.72893 21.7426 3.59863 21.4443C3.4648 21.1381 3.22875 20.8137 2.72852 20.3135L2.67578 20.2607C1.92122 19.5063 1.27613 18.861 0.830078 18.2764C0.354013 17.6523 2.29678e-05 16.9666 0 16.125C1.17102e-05 15.2834 0.354021 14.5977 0.830078 13.9736C1.27603 13.3891 1.92144 12.7445 2.67578 11.9902L2.72852 11.9365C3.50046 11.1645 3.80468 10.4917 3.80469 9.45312C3.80469 9.32327 3.80019 9.15868 3.79492 8.97266C3.78155 8.5005 3.76357 7.88978 3.80859 7.35645C3.87466 6.57411 4.08512 5.59396 4.82617 4.84668C5.57279 4.09389 6.55659 3.87868 7.34375 3.81055C7.88198 3.764 8.49808 3.78154 8.97363 3.79492C9.15896 3.80014 9.32307 3.80469 9.45312 3.80469C10.4917 3.80469 11.1646 3.50044 11.9365 2.72852L11.9902 2.67578C12.7445 1.92144 13.3891 1.27603 13.9736 0.830078C14.5977 0.354012 15.2834 0 16.125 0ZM21.9551 11.6826C21.5724 10.948 20.6673 10.6625 19.9326 11.0449C17.7907 12.1605 16.0424 14.2965 14.8877 15.9805C14.5624 16.4548 14.2731 16.9103 14.0244 17.3213C13.8547 17.1776 13.6911 17.0483 13.54 16.9346C13.2172 16.6915 12.9269 16.4995 12.7148 16.3672L12.3438 16.1475L12.3408 16.1465C11.6129 15.7513 10.702 16.0211 10.3066 16.749C9.91174 17.4767 10.1819 18.3867 10.9092 18.7822C11.1248 18.9186 11.5919 19.2199 11.7354 19.3311C12.2356 19.7077 12.7454 20.1805 13.0547 20.6729C13.3453 21.1355 13.8647 21.404 14.4102 21.373C14.9554 21.3421 15.4413 21.0167 15.6777 20.5244C15.7544 20.3699 15.9489 19.9881 16.1143 19.6963C16.4068 19.1699 16.8325 18.4494 17.3623 17.6768C18.4576 16.0795 19.8603 14.4655 21.3184 13.7061C22.053 13.3234 22.3377 12.4173 21.9551 11.6826Z" fill="url(#paint0_linear_6841_15389)"/>
<defs>
<linearGradient id="paint0_linear_6841_15389" x1="16.125" y1="0" x2="16.125" y2="32.25" gradientUnits="userSpaceOnUse">
<stop stop-color="#3198A0"/>
<stop offset="1" stop-color="#51F909"/>
</linearGradient>
</defs>
</svg>
