<svg width="1270" height="245" viewBox="0 0 1270 245" fill="none" xmlns="http://www.w3.org/2000/svg">
<path d="M1270 0.585937L1258.47 0.000919223L1263.73 10.2806L1270 0.585937ZM3.65133 244.578C4.20361 244.576 4.64948 244.126 4.64721 243.574C4.64493 243.022 4.19538 242.576 3.6431 242.578L3.64721 243.578L3.65133 244.578ZM11.9199 242.513C11.3676 242.52 10.9249 242.972 10.9311 243.525C10.9372 244.077 11.3899 244.519 11.9421 244.513L11.931 243.513L11.9199 242.513ZM19.7049 244.407C20.2571 244.398 20.6976 243.944 20.6887 243.391C20.6799 242.839 20.225 242.399 19.6728 242.407L19.6888 243.407L19.7049 244.407ZM27.9786 242.256C27.4265 242.267 26.988 242.724 26.9992 243.276C27.0104 243.828 27.4672 244.267 28.0193 244.255L27.999 243.256L27.9786 242.256ZM35.8405 244.082C36.3927 244.069 36.8296 243.611 36.8164 243.059C36.8032 242.506 36.345 242.07 35.7929 242.083L35.8167 243.082L35.8405 244.082ZM43.8754 241.877C43.3233 241.892 42.8878 242.351 42.9028 242.903C42.9177 243.456 43.3774 243.891 43.9295 243.876L43.9024 242.876L43.8754 241.877ZM52.1007 243.643C52.6528 243.626 53.0868 243.165 53.0703 242.613C53.0537 242.061 52.5928 241.627 52.0407 241.644L52.0707 242.643L52.1007 243.643ZM59.8678 241.398C59.3158 241.416 58.8829 241.878 58.9009 242.43C58.9189 242.982 59.381 243.415 59.933 243.397L59.9004 242.398L59.8678 241.398ZM68.1358 243.119C68.6878 243.1 69.1194 242.637 69.1 242.085C69.0806 241.533 68.6174 241.101 68.0655 241.12L68.1006 242.12L68.1358 243.119ZM76.1069 240.828C75.5551 240.848 75.1245 241.313 75.1452 241.865C75.1659 242.416 75.6301 242.847 76.182 242.826L76.1445 241.827L76.1069 240.828ZM84.06 242.522C84.6119 242.5 85.0414 242.035 85.0195 241.483C84.9975 240.931 84.5324 240.501 83.9805 240.523L84.0203 241.522L84.06 242.522ZM92.1293 240.19C91.5775 240.213 91.1489 240.679 91.1721 241.231C91.1953 241.783 91.6614 242.211 92.2132 242.188L92.1712 241.189L92.1293 240.19ZM100.366 241.837C100.917 241.813 101.345 241.346 101.321 240.794C101.296 240.242 100.829 239.815 100.278 239.839L100.322 240.838L100.366 241.837ZM108.107 239.486C107.555 239.511 107.128 239.979 107.154 240.531C107.179 241.083 107.647 241.509 108.199 241.484L108.153 240.485L108.107 239.486ZM116.245 241.105C116.796 241.078 117.222 240.61 117.195 240.058C117.169 239.506 116.7 239.081 116.149 239.107L116.197 240.106L116.245 241.105ZM124.399 238.702C123.848 238.73 123.423 239.2 123.451 239.751C123.478 240.303 123.948 240.728 124.499 240.7L124.449 239.701L124.399 238.702ZM132.398 240.297C132.95 240.268 133.374 239.798 133.345 239.247C133.317 238.695 132.846 238.271 132.295 238.3L132.347 239.298L132.398 240.297ZM140.214 237.881C139.663 237.911 139.24 238.382 139.27 238.934C139.299 239.485 139.77 239.908 140.322 239.879L140.268 238.88L140.214 237.881ZM148.412 239.436C148.963 239.406 149.385 238.934 149.355 238.382C149.324 237.831 148.852 237.409 148.301 237.439L148.356 238.438L148.412 239.436ZM156.551 236.973C155.999 237.005 155.578 237.478 155.61 238.029C155.641 238.58 156.114 239.002 156.665 238.97L156.608 237.972L156.551 236.973ZM164.51 238.513C165.061 238.48 165.482 238.007 165.449 237.455C165.417 236.904 164.943 236.484 164.392 236.516L164.451 237.514L164.51 238.513ZM172.328 236.04C171.777 236.073 171.357 236.548 171.391 237.099C171.424 237.65 171.899 238.07 172.45 238.036L172.389 237.038L172.328 236.04ZM180.523 237.538C181.074 237.503 181.493 237.028 181.459 236.477C181.424 235.926 180.949 235.507 180.398 235.542L180.461 236.54L180.523 237.538ZM188.6 235.021C188.049 235.056 187.63 235.532 187.666 236.083C187.701 236.634 188.177 237.052 188.728 237.017L188.664 236.019L188.6 235.021ZM196.654 236.5C197.205 236.463 197.622 235.987 197.586 235.436C197.549 234.885 197.073 234.468 196.522 234.504L196.588 235.502L196.654 236.5ZM204.438 233.975C203.887 234.012 203.47 234.489 203.508 235.04C203.545 235.591 204.022 236.008 204.573 235.97L204.505 234.972L204.438 233.975ZM212.602 235.42C213.153 235.382 213.568 234.904 213.53 234.353C213.492 233.802 213.014 233.386 212.463 233.425L212.532 234.422L212.602 235.42ZM220.596 232.853C220.045 232.893 219.63 233.371 219.669 233.922C219.709 234.473 220.187 234.887 220.738 234.848L220.667 233.851L220.596 232.853ZM228.826 234.267C229.377 234.227 229.791 233.748 229.751 233.197C229.71 232.646 229.231 232.232 228.681 232.272L228.753 233.269L228.826 234.267ZM236.559 231.692C236.008 231.733 235.595 232.213 235.636 232.764C235.677 233.314 236.156 233.728 236.707 233.687L236.633 232.69L236.559 231.692ZM244.68 233.087C245.23 233.045 245.643 232.565 245.601 232.014C245.559 231.464 245.079 231.051 244.528 231.093L244.604 232.09L244.68 233.087ZM252.586 230.474C252.036 230.517 251.624 230.998 251.667 231.548C251.709 232.099 252.191 232.511 252.741 232.468L252.664 231.471L252.586 230.474ZM260.89 231.828C261.441 231.784 261.852 231.303 261.808 230.752C261.765 230.202 261.283 229.791 260.732 229.834L260.811 230.831L260.89 231.828ZM268.708 229.195C268.158 229.24 267.748 229.722 267.792 230.272C267.837 230.823 268.319 231.233 268.87 231.188L268.789 230.192L268.708 229.195ZM276.784 230.541C277.334 230.496 277.743 230.013 277.698 229.462C277.652 228.912 277.169 228.503 276.619 228.548L276.701 229.545L276.784 230.541ZM284.605 227.882C284.054 227.928 283.646 228.412 283.692 228.963C283.738 229.513 284.222 229.921 284.772 229.875L284.689 228.879L284.605 227.882ZM292.835 229.189C293.385 229.142 293.793 228.658 293.746 228.108C293.699 227.557 293.214 227.15 292.664 227.197L292.75 228.193L292.835 229.189ZM300.796 226.492C300.245 226.54 299.839 227.025 299.887 227.575C299.935 228.125 300.42 228.532 300.97 228.484L300.883 227.488L300.796 226.492ZM308.929 227.781C309.479 227.732 309.886 227.247 309.837 226.696C309.788 226.146 309.302 225.74 308.752 225.789L308.841 226.785L308.929 227.781ZM316.671 225.077C316.121 225.127 315.715 225.613 315.765 226.163C315.815 226.713 316.301 227.119 316.851 227.069L316.761 226.073L316.671 225.077ZM324.836 226.337C325.386 226.287 325.79 225.8 325.74 225.25C325.689 224.7 325.202 224.295 324.652 224.346L324.744 225.342L324.836 226.337ZM332.694 223.596C332.145 223.648 331.741 224.136 331.792 224.685C331.844 225.235 332.332 225.639 332.882 225.587L332.788 224.592L332.694 223.596ZM340.988 224.818C341.537 224.766 341.94 224.277 341.888 223.728C341.835 223.178 341.347 222.775 340.797 222.827L340.892 223.823L340.988 224.818ZM348.79 222.056C348.241 222.109 347.838 222.598 347.892 223.148C347.945 223.698 348.434 224.1 348.984 224.046L348.887 223.051L348.79 222.056ZM356.9 223.269C357.45 223.215 357.852 222.725 357.797 222.176C357.743 221.626 357.253 221.224 356.703 221.279L356.802 222.274L356.9 223.269ZM364.669 220.484C364.119 220.539 363.719 221.029 363.774 221.579C363.829 222.128 364.32 222.529 364.869 222.474L364.769 221.479L364.669 220.484ZM372.889 221.66C373.439 221.604 373.839 221.113 373.782 220.563C373.726 220.014 373.235 219.614 372.686 219.67L372.787 220.665L372.889 221.66ZM380.753 218.838C380.203 218.895 379.804 219.387 379.861 219.936C379.918 220.485 380.41 220.884 380.959 220.827L380.856 219.833L380.753 218.838ZM389.025 219.981C389.574 219.923 389.972 219.431 389.914 218.882C389.856 218.333 389.364 217.935 388.814 217.993L388.92 218.987L389.025 219.981ZM396.715 217.151C396.166 217.21 395.768 217.703 395.827 218.252C395.886 218.801 396.379 219.198 396.928 219.139L396.822 218.145L396.715 217.151ZM404.876 218.279C405.425 218.22 405.822 217.726 405.762 217.177C405.702 216.628 405.208 216.231 404.659 216.291L404.768 217.285L404.876 218.279ZM412.646 215.413C412.097 215.474 411.702 215.969 411.762 216.517C411.823 217.066 412.318 217.462 412.866 217.401L412.756 216.407L412.646 215.413ZM420.899 216.505C421.448 216.443 421.843 215.948 421.781 215.399C421.719 214.85 421.224 214.456 420.675 214.517L420.787 215.511L420.899 216.505ZM428.745 213.603C428.197 213.665 427.803 214.161 427.865 214.71C427.928 215.258 428.424 215.652 428.972 215.59L428.859 214.596L428.745 213.603ZM436.932 214.674C437.481 214.61 437.874 214.114 437.811 213.565C437.747 213.017 437.251 212.624 436.702 212.687L436.817 213.681L436.932 214.674ZM444.624 211.762C444.075 211.827 443.683 212.324 443.747 212.872C443.812 213.421 444.309 213.813 444.857 213.748L444.741 212.755L444.624 211.762ZM452.818 212.805C453.367 212.739 453.758 212.242 453.693 211.693C453.627 211.145 453.13 210.753 452.581 210.819L452.7 211.812L452.818 212.805ZM460.574 209.858C460.026 209.924 459.635 210.422 459.701 210.971C459.768 211.519 460.266 211.91 460.814 211.843L460.694 210.85L460.574 209.858ZM468.844 210.863C469.392 210.796 469.782 210.297 469.715 209.749C469.647 209.201 469.148 208.811 468.6 208.878L468.722 209.871L468.844 210.863ZM476.66 207.88C476.112 207.949 475.723 208.448 475.791 208.996C475.86 209.544 476.359 209.933 476.908 209.865L476.784 208.873L476.66 207.88ZM484.812 208.872C485.36 208.803 485.748 208.302 485.678 207.754C485.609 207.207 485.109 206.819 484.561 206.888L484.686 207.88L484.812 208.872ZM492.491 205.878C491.943 205.948 491.556 206.449 491.626 206.997C491.696 207.545 492.197 207.932 492.745 207.861L492.618 206.87L492.491 205.878ZM500.708 206.833C501.255 206.761 501.641 206.26 501.57 205.712C501.499 205.164 500.997 204.778 500.45 204.849L500.579 205.841L500.708 206.833ZM508.436 203.803C507.889 203.875 507.504 204.378 507.576 204.925C507.648 205.473 508.15 205.858 508.698 205.786L508.567 204.794L508.436 203.803ZM516.716 204.721C517.263 204.647 517.648 204.144 517.574 203.597C517.501 203.049 516.998 202.665 516.451 202.738L516.583 203.73L516.716 204.721ZM524.464 201.659C523.916 201.733 523.533 202.237 523.607 202.784C523.681 203.331 524.185 203.715 524.733 203.641L524.598 202.65L524.464 201.659ZM532.642 202.561C533.189 202.485 533.571 201.981 533.496 201.434C533.421 200.887 532.916 200.504 532.369 200.579L532.505 201.57L532.642 202.561ZM540.298 199.482C539.751 199.558 539.37 200.063 539.446 200.61C539.522 201.157 540.028 201.539 540.575 201.462L540.436 200.472L540.298 199.482ZM548.53 200.346C549.077 200.269 549.458 199.763 549.381 199.216C549.303 198.669 548.797 198.288 548.251 198.366L548.391 199.356L548.53 200.346ZM556.225 197.231C555.678 197.31 555.299 197.816 555.377 198.363C555.455 198.91 555.962 199.29 556.509 199.211L556.367 198.221L556.225 197.231ZM564.508 198.058C565.055 197.979 565.433 197.471 565.354 196.925C565.275 196.378 564.767 196 564.221 196.079L564.364 197.068L564.508 198.058ZM572.207 194.912C571.66 194.992 571.283 195.501 571.363 196.047C571.443 196.593 571.951 196.971 572.498 196.891L572.352 195.901L572.207 194.912ZM580.406 195.72C580.952 195.639 581.329 195.13 581.248 194.583C581.166 194.037 580.658 193.66 580.111 193.742L580.259 194.731L580.406 195.72ZM588.034 192.553C587.488 192.636 587.112 193.145 587.195 193.691C587.277 194.237 587.787 194.613 588.333 194.531L588.184 193.542L588.034 192.553ZM596.277 193.323C596.823 193.24 597.198 192.729 597.115 192.184C597.031 191.638 596.521 191.263 595.975 191.346L596.126 192.335L596.277 193.323ZM603.932 190.121C603.386 190.205 603.013 190.716 603.097 191.262C603.182 191.808 603.693 192.182 604.238 192.097L604.085 191.109L603.932 190.121ZM612.216 190.852C612.762 190.767 613.134 190.255 613.049 189.709C612.963 189.164 612.451 188.791 611.906 188.877L612.061 189.865L612.216 190.852ZM619.874 187.617C619.329 187.704 618.957 188.216 619.044 188.762C619.131 189.307 619.643 189.679 620.189 189.592L620.032 188.605L619.874 187.617ZM628.092 188.326C628.637 188.239 629.008 187.725 628.92 187.18C628.832 186.635 628.319 186.264 627.774 186.352L627.933 187.339L628.092 188.326ZM635.686 185.068C635.141 185.157 634.772 185.671 634.861 186.216C634.95 186.761 635.464 187.131 636.009 187.042L635.848 186.055L635.686 185.068ZM643.938 185.739C644.483 185.649 644.852 185.134 644.762 184.59C644.672 184.045 644.157 183.676 643.612 183.766L643.775 184.753L643.938 185.739ZM651.549 182.445C651.005 182.536 650.637 183.052 650.728 183.596C650.82 184.141 651.335 184.509 651.88 184.417L651.715 183.431L651.549 182.445ZM659.833 183.077C660.377 182.984 660.744 182.468 660.651 181.924C660.559 181.379 660.042 181.013 659.498 181.105L659.665 182.091L659.833 183.077ZM667.451 179.747C666.907 179.84 666.542 180.357 666.635 180.902C666.729 181.446 667.246 181.811 667.79 181.718L667.621 180.732L667.451 179.747ZM675.685 180.352C676.23 180.258 676.594 179.74 676.499 179.196C676.404 178.652 675.887 178.287 675.343 178.382L675.514 179.367L675.685 180.352ZM683.242 176.998C682.699 177.094 682.335 177.613 682.431 178.157C682.527 178.701 683.046 179.064 683.59 178.968L683.416 177.983L683.242 176.998ZM691.502 177.564C692.046 177.467 692.408 176.948 692.311 176.404C692.214 175.861 691.694 175.498 691.151 175.596L691.326 176.58L691.502 177.564ZM699.066 174.174C698.523 174.272 698.162 174.792 698.26 175.335C698.358 175.879 698.878 176.24 699.422 176.142L699.244 175.158L699.066 174.174ZM707.349 174.7C707.892 174.6 708.252 174.079 708.152 173.536C708.053 172.993 707.532 172.633 706.988 172.732L707.168 173.716L707.349 174.7ZM714.917 171.271C714.374 171.372 714.015 171.894 714.116 172.437C714.216 172.98 714.738 173.339 715.281 173.238L715.099 172.255L714.917 171.271ZM723.172 171.766C723.715 171.664 724.072 171.141 723.97 170.598C723.868 170.055 723.346 169.698 722.803 169.8L722.987 170.783L723.172 171.766ZM730.688 168.31C730.145 168.413 729.789 168.937 729.892 169.479C729.996 170.022 730.519 170.378 731.062 170.275L730.875 169.293L730.688 168.31ZM738.955 168.765C739.497 168.66 739.852 168.136 739.748 167.594C739.643 167.051 739.119 166.696 738.577 166.801L738.766 167.783L738.955 168.765ZM746.469 165.272C745.927 165.377 745.573 165.902 745.679 166.444C745.784 166.987 746.31 167.34 746.852 167.235L746.66 166.253L746.469 165.272ZM754.751 165.685C755.293 165.578 755.645 165.052 755.538 164.51C755.431 163.968 754.905 163.616 754.363 163.723L754.557 164.704L754.751 165.685ZM762.26 162.154C761.718 162.262 761.367 162.789 761.475 163.331C761.583 163.872 762.11 164.223 762.652 164.115L762.456 163.134L762.26 162.154ZM770.534 162.529C771.076 162.42 771.425 161.892 771.316 161.351C771.206 160.809 770.679 160.459 770.137 160.569L770.336 161.549L770.534 162.529ZM778.006 158.966C777.465 159.077 777.116 159.605 777.227 160.146C777.338 160.687 777.867 161.036 778.408 160.925L778.207 159.946L778.006 158.966ZM786.281 159.301C786.821 159.189 787.169 158.659 787.057 158.119C786.944 157.578 786.415 157.231 785.874 157.343L786.077 158.322L786.281 159.301ZM793.741 155.699C793.201 155.813 792.855 156.343 792.968 156.884C793.082 157.424 793.612 157.77 794.153 157.657L793.947 156.678L793.741 155.699ZM802.023 155.992C802.563 155.877 802.908 155.346 802.793 154.805C802.678 154.265 802.147 153.921 801.607 154.036L801.815 155.014L802.023 155.992ZM809.469 152.351C808.93 152.468 808.586 153 808.703 153.539C808.819 154.079 809.351 154.423 809.891 154.306L809.68 153.329L809.469 152.351ZM817.753 152.601C818.293 152.483 818.635 151.95 818.517 151.411C818.399 150.871 817.866 150.529 817.327 150.647L817.54 151.624L817.753 152.601ZM825.177 148.922C824.637 149.042 824.297 149.575 824.416 150.115C824.535 150.654 825.069 150.995 825.608 150.875L825.393 149.899L825.177 148.922ZM833.459 149.129C833.998 149.008 834.337 148.474 834.217 147.935C834.096 147.396 833.561 147.057 833.022 147.177L833.241 148.153L833.459 149.129ZM840.863 145.411C840.324 145.533 839.986 146.069 840.108 146.607C840.23 147.146 840.766 147.484 841.305 147.362L841.084 146.386L840.863 145.411ZM849.144 145.573C849.683 145.45 850.019 144.913 849.895 144.375C849.772 143.837 849.235 143.5 848.697 143.624L848.921 144.599L849.144 145.573ZM856.525 141.816C855.987 141.941 855.652 142.478 855.777 143.016C855.902 143.554 856.44 143.889 856.978 143.764L856.751 142.79L856.525 141.816ZM864.807 141.932C865.344 141.805 865.677 141.267 865.551 140.729C865.424 140.192 864.886 139.859 864.348 139.985L864.577 140.958L864.807 141.932ZM872.177 138.13C871.64 138.258 871.308 138.797 871.436 139.335C871.565 139.872 872.104 140.204 872.641 140.075L872.409 139.103L872.177 138.13ZM880.467 138.197C881.004 138.068 881.334 137.527 881.204 136.991C881.075 136.454 880.534 136.124 879.997 136.253L880.232 137.225L880.467 138.197ZM887.808 134.355C887.272 134.486 886.943 135.027 887.075 135.564C887.206 136.1 887.747 136.429 888.284 136.298L888.046 135.326L887.808 134.355ZM896.09 134.376C896.626 134.243 896.953 133.701 896.82 133.165C896.687 132.629 896.145 132.302 895.609 132.434L895.85 133.405L896.09 134.376ZM903.399 130.492C902.863 130.627 902.538 131.17 902.672 131.705C902.807 132.241 903.35 132.566 903.886 132.432L903.642 131.462L903.399 130.492ZM911.67 130.466C912.205 130.33 912.529 129.786 912.393 129.25C912.257 128.715 911.713 128.392 911.177 128.528L911.424 129.497L911.67 130.466ZM918.98 126.532C918.445 126.669 918.123 127.214 918.261 127.749C918.399 128.284 918.944 128.606 919.479 128.468L919.229 127.5L918.98 126.532ZM927.276 126.448C927.811 126.308 928.131 125.762 927.992 125.228C927.852 124.693 927.306 124.373 926.772 124.512L927.024 125.48L927.276 126.448ZM934.549 122.47C934.015 122.612 933.697 123.159 933.838 123.693C933.979 124.227 934.526 124.545 935.06 124.404L934.805 123.437L934.549 122.47ZM942.83 122.338C943.363 122.195 943.68 121.647 943.537 121.113C943.394 120.58 942.846 120.263 942.313 120.406L942.571 121.372L942.83 122.338ZM950.061 118.318C949.528 118.463 949.213 119.012 949.357 119.545C949.502 120.078 950.051 120.393 950.584 120.248L950.323 119.283L950.061 118.318ZM958.323 118.136C958.856 117.99 959.169 117.439 959.022 116.907C958.876 116.374 958.326 116.061 957.793 116.207L958.058 117.172L958.323 118.136ZM965.553 114.061C965.021 114.209 964.71 114.761 964.858 115.293C965.006 115.825 965.557 116.136 966.09 115.988L965.821 115.025L965.553 114.061ZM973.854 113.812C974.385 113.662 974.695 113.11 974.545 112.578C974.395 112.047 973.842 111.737 973.311 111.887L973.582 112.85L973.854 113.812ZM981.05 109.689C980.519 109.841 980.212 110.395 980.364 110.926C980.516 111.457 981.069 111.764 981.6 111.612L981.325 110.651L981.05 109.689ZM989.327 109.388C989.858 109.235 990.163 108.68 990.01 108.15C989.856 107.619 989.301 107.314 988.771 107.467L989.049 108.428L989.327 109.388ZM996.471 105.222C995.942 105.377 995.638 105.933 995.794 106.463C995.949 106.993 996.505 107.296 997.035 107.141L996.753 106.181L996.471 105.222ZM1004.72 104.868C1005.25 104.711 1005.55 104.154 1005.4 103.625C1005.24 103.095 1004.68 102.794 1004.15 102.952L1004.44 103.91L1004.72 104.868ZM1011.86 100.643C1011.33 100.802 1011.03 101.36 1011.19 101.889C1011.35 102.418 1011.91 102.717 1012.44 102.558L1012.15 101.6L1011.86 100.643ZM1020.16 100.212C1020.69 100.051 1020.98 99.4917 1020.82 98.9635C1020.66 98.4354 1020.1 98.1381 1019.57 98.2996L1019.87 99.2559L1020.16 100.212ZM1027.27 95.9312C1026.74 96.0947 1026.45 96.6549 1026.61 97.1824C1026.77 97.7099 1027.33 98.0051 1027.86 97.8415L1027.56 96.8864L1027.27 95.9312ZM1035.54 95.4456C1036.07 95.2801 1036.36 94.7187 1036.19 94.1918C1036.03 93.665 1035.47 93.3721 1034.94 93.5376L1035.24 94.4916L1035.54 95.4456ZM1042.58 91.1187C1042.06 91.2863 1041.77 91.8488 1041.93 92.375C1042.1 92.9013 1042.66 93.1919 1043.19 93.0243L1042.89 92.0715L1042.58 91.1187ZM1050.82 90.5775C1051.34 90.4077 1051.63 89.8441 1051.46 89.3185C1051.29 88.793 1050.73 88.5046 1050.2 88.6743L1050.51 89.6259L1050.82 90.5775ZM1057.85 86.1881C1057.32 86.36 1057.04 86.9248 1057.21 87.4497C1057.38 87.9745 1057.95 88.2606 1058.47 88.0887L1058.16 87.1384L1057.85 86.1881ZM1066.14 85.5572C1066.67 85.3831 1066.95 84.817 1066.78 84.2929C1066.6 83.7688 1066.04 83.485 1065.51 83.6592L1065.83 84.6082L1066.14 85.5572ZM1073.15 81.1037C1072.63 81.2801 1072.35 81.8473 1072.52 82.3707C1072.7 82.8941 1073.27 83.1754 1073.79 82.999L1073.47 82.0514L1073.15 81.1037ZM1081.41 80.4142C1081.93 80.2355 1082.21 79.6671 1082.03 79.1445C1081.85 78.6219 1081.28 78.343 1080.76 78.5216L1081.08 79.4679L1081.41 80.4142ZM1088.34 75.9128C1087.82 76.0937 1087.54 76.6634 1087.72 77.1852C1087.9 77.707 1088.47 77.9833 1089 77.8024L1088.67 76.8576L1088.34 75.9128ZM1096.55 75.1637C1097.07 74.9805 1097.35 74.4096 1097.16 73.8885C1096.98 73.3675 1096.41 73.0937 1095.89 73.277L1096.22 74.2203L1096.55 75.1637ZM1103.46 70.5935C1102.94 70.7792 1102.67 71.3513 1102.86 71.8715C1103.04 72.3916 1103.62 72.6628 1104.14 72.4772L1103.8 71.5354L1103.46 70.5935ZM1111.75 69.7409C1112.27 69.5528 1112.54 68.9794 1112.35 68.4601C1112.16 67.9408 1111.59 67.6723 1111.07 67.8604L1111.41 68.8006L1111.75 69.7409ZM1118.64 65.099C1118.12 65.2895 1117.85 65.8642 1118.04 66.3826C1118.23 66.901 1118.81 67.1668 1119.33 66.9762L1118.98 66.0376L1118.64 65.099ZM1126.87 64.1832C1127.39 63.9902 1127.65 63.4142 1127.46 62.8968C1127.26 62.3793 1126.69 62.1163 1126.17 62.3093L1126.52 63.2463L1126.87 64.1832ZM1133.67 59.4912C1133.15 59.6867 1132.89 60.264 1133.09 60.7805C1133.28 61.297 1133.86 61.5571 1134.38 61.3616L1134.02 60.4264L1133.67 59.4912ZM1141.85 58.5112C1142.36 58.313 1142.62 57.7345 1142.42 57.219C1142.22 56.7035 1141.64 56.4462 1141.13 56.6443L1141.49 57.5778L1141.85 58.5112ZM1148.63 53.7386C1148.12 53.9394 1147.86 54.5193 1148.06 55.0338C1148.26 55.5482 1148.84 55.8025 1149.36 55.6017L1148.99 54.6702L1148.63 53.7386ZM1156.89 52.6392C1157.4 52.4356 1157.65 51.8545 1157.45 51.341C1157.25 50.8276 1156.67 50.5764 1156.15 50.7799L1156.52 51.7095L1156.89 52.6392ZM1163.64 47.791C1163.12 47.9973 1162.87 48.5798 1163.08 49.0922C1163.29 49.6045 1163.87 49.8526 1164.38 49.6463L1164.01 48.7187L1163.64 47.791ZM1171.83 46.6231C1172.34 46.414 1172.59 45.8302 1172.38 45.319C1172.17 44.8078 1171.59 44.5629 1171.08 44.7719L1171.45 45.6975L1171.83 46.6231ZM1178.47 41.7224C1177.96 41.9343 1177.72 42.5195 1177.93 43.0295C1178.15 43.5396 1178.73 43.7812 1179.24 43.5694L1178.86 42.6459L1178.47 41.7224ZM1186.61 40.4849C1187.12 40.2701 1187.35 39.6835 1187.14 39.1747C1186.92 38.6659 1186.34 38.4275 1185.83 38.6423L1186.22 39.5636L1186.61 40.4849ZM1193.26 35.482C1192.75 35.6997 1192.51 36.2877 1192.73 36.7952C1192.95 37.3028 1193.54 37.5377 1194.04 37.32L1193.65 36.401L1193.26 35.482ZM1201.47 34.1067C1201.98 33.8859 1202.21 33.2966 1201.99 32.7903C1201.77 32.2841 1201.18 32.0527 1200.67 32.2734L1201.07 33.1901L1201.47 34.1067ZM1208.04 29.0326C1207.54 29.2564 1207.31 29.8472 1207.54 30.3521C1207.76 30.857 1208.35 31.0848 1208.85 30.861L1208.45 29.9468L1208.04 29.0326ZM1216.19 27.5825C1216.69 27.3556 1216.92 26.7634 1216.69 26.2599C1216.46 25.7564 1215.87 25.5323 1215.37 25.7592L1215.78 26.6709L1216.19 27.5825ZM1222.64 22.4532C1222.14 22.6834 1221.92 23.2769 1222.15 23.779C1222.38 24.281 1222.97 24.5015 1223.47 24.2713L1223.06 23.3623L1222.64 22.4532ZM1230.72 20.9223C1231.22 20.6889 1231.43 20.094 1231.2 19.5934C1230.97 19.0929 1230.37 18.8763 1229.87 19.1096L1230.29 20.016L1230.72 20.9223ZM1237.21 15.6584C1236.71 15.8952 1236.5 16.4916 1236.74 16.9905C1236.97 17.4895 1237.57 17.7021 1238.07 17.4654L1237.64 16.5619L1237.21 15.6584ZM1245.36 13.9737C1245.86 13.7335 1246.07 13.1357 1245.83 12.6384C1245.59 12.141 1244.99 11.9325 1244.49 12.1726L1244.93 13.0731L1245.36 13.9737ZM1251.72 8.65188C1251.23 8.89546 1251.02 9.49474 1251.27 9.99041C1251.51 10.4861 1252.11 10.6904 1252.6 10.4469L1252.16 9.54937L1251.72 8.65188ZM1259.79 6.88483C1260.28 6.63774 1260.48 6.03703 1260.24 5.5431C1259.99 5.04917 1259.39 4.84907 1258.89 5.09616L1259.34 5.9905L1259.79 6.88483ZM1266.01 1.50525C1265.52 1.7559 1265.32 2.35805 1265.57 2.85018C1265.82 3.34231 1266.42 3.53806 1266.92 3.28741L1266.46 2.39633L1266.01 1.50525ZM0 243.586V244.586C1.16142 244.586 2.3788 244.583 3.65133 244.578L3.64721 243.578L3.6431 242.578C2.37314 242.583 1.1585 242.586 0 242.586V243.586ZM11.931 243.513L11.9421 244.513C14.3867 244.486 16.9755 244.451 19.7049 244.407L19.6888 243.407L19.6728 242.407C16.9465 242.451 14.361 242.486 11.9199 242.513L11.931 243.513ZM27.999 243.256L28.0193 244.255C30.5308 244.204 33.1386 244.147 35.8405 244.082L35.8167 243.082L35.7929 242.083C33.0932 242.147 30.4877 242.205 27.9786 242.256L27.999 243.256ZM43.9024 242.876L43.9295 243.876C46.576 243.804 49.3003 243.727 52.1007 243.643L52.0707 242.643L52.0407 241.644C49.2423 241.728 46.52 241.805 43.8754 241.877L43.9024 242.876ZM59.9004 242.398L59.933 243.397C62.6059 243.31 65.3406 243.217 68.1358 243.119L68.1006 242.12L68.0655 241.12C65.2719 241.219 62.539 241.311 59.8678 241.398L59.9004 242.398ZM76.1445 241.827L76.182 242.826C78.7616 242.729 81.3879 242.628 84.06 242.522L84.0203 241.522L83.9805 240.523C81.3098 240.629 78.685 240.731 76.1069 240.828L76.1445 241.827ZM92.1712 241.189L92.2132 242.188C94.8888 242.076 97.6065 241.959 100.366 241.837L100.322 240.838L100.278 239.839C97.5198 239.961 94.8034 240.078 92.1293 240.19L92.1712 241.189ZM108.153 240.485L108.199 241.484C110.845 241.362 113.528 241.236 116.245 241.105L116.197 240.106L116.149 239.107C113.433 239.238 110.752 239.364 108.107 239.486L108.153 240.485ZM124.449 239.701L124.499 240.7C127.103 240.57 129.736 240.435 132.398 240.297L132.347 239.298L132.295 238.3C129.633 238.438 127.001 238.572 124.399 238.702L124.449 239.701ZM140.268 238.88L140.322 239.879C142.991 239.735 145.688 239.588 148.412 239.436L148.356 238.438L148.301 237.439C145.578 237.591 142.882 237.738 140.214 237.881L140.268 238.88ZM156.608 237.972L156.665 238.97C159.257 238.821 161.872 238.669 164.51 238.513L164.451 237.514L164.392 236.516C161.755 236.672 159.141 236.825 156.551 236.973L156.608 237.972ZM172.389 237.038L172.45 238.036C175.119 237.874 177.81 237.708 180.523 237.538L180.461 236.54L180.398 235.542C177.686 235.711 174.996 235.878 172.328 236.04L172.389 237.038ZM188.664 236.019L188.728 237.017C191.351 236.848 193.993 236.676 196.654 236.5L196.588 235.502L196.522 234.504C193.862 234.68 191.221 234.852 188.6 235.021L188.664 236.019ZM204.505 234.972L204.573 235.97C207.231 235.79 209.907 235.607 212.602 235.42L212.532 234.422L212.463 233.425C209.77 233.611 207.095 233.795 204.438 233.975L204.505 234.972ZM220.667 233.851L220.738 234.848C223.417 234.658 226.113 234.464 228.826 234.267L228.753 233.269L228.681 232.272C225.969 232.469 223.274 232.663 220.596 232.853L220.667 233.851ZM236.633 232.69L236.707 233.687C239.35 233.49 242.007 233.29 244.68 233.087L244.604 232.09L244.528 231.093C241.857 231.296 239.2 231.496 236.559 231.692L236.633 232.69ZM252.664 231.471L252.741 232.468C255.443 232.258 258.16 232.045 260.89 231.828L260.811 230.831L260.732 229.834C258.003 230.051 255.287 230.264 252.586 230.474L252.664 231.471ZM268.789 230.192L268.87 231.188C271.495 230.976 274.133 230.76 276.784 230.541L276.701 229.545L276.619 228.548C273.969 228.767 271.333 228.983 268.708 229.195L268.789 230.192ZM284.689 228.879L284.772 229.875C287.448 229.65 290.135 229.421 292.835 229.189L292.75 228.193L292.664 227.197C289.965 227.428 287.279 227.657 284.605 227.882L284.689 228.879ZM300.883 227.488L300.97 228.484C303.612 228.253 306.265 228.019 308.929 227.781L308.841 226.785L308.752 225.789C306.089 226.027 303.437 226.261 300.796 226.492L300.883 227.488ZM316.761 226.073L316.851 227.069C319.502 226.828 322.164 226.584 324.836 226.337L324.744 225.342L324.652 224.346C321.981 224.593 319.321 224.836 316.671 225.077L316.761 226.073ZM332.788 224.592L332.882 225.587C335.574 225.334 338.276 225.078 340.988 224.818L340.892 223.823L340.797 222.827C338.086 223.087 335.385 223.343 332.694 223.596L332.788 224.592ZM348.887 223.051L348.984 224.046C351.614 223.79 354.253 223.531 356.9 223.269L356.802 222.274L356.703 221.279C354.057 221.541 351.419 221.8 348.79 222.056L348.887 223.051ZM364.769 221.479L364.869 222.474C367.534 222.205 370.207 221.934 372.889 221.66L372.787 220.665L372.686 219.67C370.005 219.944 367.333 220.216 364.669 220.484L364.769 221.479ZM380.856 219.833L380.959 220.827C383.64 220.548 386.328 220.266 389.025 219.981L388.92 218.987L388.814 217.993C386.119 218.277 383.432 218.559 380.753 218.838L380.856 219.833ZM396.822 218.145L396.928 219.139C399.57 218.856 402.22 218.569 404.876 218.279L404.768 217.285L404.659 216.291C402.004 216.581 399.356 216.867 396.715 217.151L396.822 218.145ZM412.756 216.407L412.866 217.401C415.537 217.106 418.215 216.807 420.899 216.505L420.787 215.511L420.675 214.517C417.992 214.819 415.316 215.118 412.646 215.413L412.756 216.407ZM428.859 214.596L428.972 215.59C431.619 215.288 434.273 214.982 436.932 214.674L436.817 213.681L436.702 212.687C434.044 212.995 431.391 213.301 428.745 213.603L428.859 214.596ZM444.741 212.755L444.857 213.748C447.505 213.437 450.159 213.122 452.818 212.805L452.7 211.812L452.581 210.819C449.923 211.136 447.27 211.451 444.624 211.762L444.741 212.755ZM460.694 210.85L460.814 211.843C463.485 211.52 466.162 211.193 468.844 210.863L468.722 209.871L468.6 208.878C465.919 209.208 463.244 209.534 460.574 209.858L460.694 210.85ZM476.784 208.873L476.908 209.865C479.537 209.537 482.172 209.206 484.812 208.872L484.686 207.88L484.561 206.888C481.922 207.222 479.289 207.552 476.66 207.88L476.784 208.873ZM492.618 206.87L492.745 207.861C495.395 207.522 498.049 207.179 500.708 206.833L500.579 205.841L500.45 204.849C497.792 205.195 495.139 205.538 492.491 205.878L492.618 206.87ZM508.567 204.794L508.698 205.786C511.366 205.434 514.039 205.079 516.716 204.721L516.583 203.73L516.451 202.738C513.775 203.096 511.103 203.451 508.436 203.803L508.567 204.794ZM524.598 202.65L524.733 203.641C527.365 203.284 530.001 202.924 532.642 202.561L532.505 201.57L532.369 200.579C529.73 200.942 527.095 201.302 524.464 201.659L524.598 202.65ZM540.436 200.472L540.575 201.462C543.223 201.093 545.875 200.721 548.53 200.346L548.391 199.356L548.251 198.366C545.596 198.741 542.945 199.113 540.298 199.482L540.436 200.472ZM556.367 198.221L556.509 199.211C559.172 198.83 561.838 198.446 564.508 198.058L564.364 197.068L564.221 196.079C561.552 196.466 558.887 196.85 556.225 197.231L556.367 198.221ZM572.352 195.901L572.498 196.891C575.131 196.504 577.767 196.113 580.406 195.72L580.259 194.731L580.111 193.742C577.473 194.135 574.839 194.525 572.207 194.912L572.352 195.901ZM588.184 193.542L588.333 194.531C590.978 194.131 593.626 193.729 596.277 193.323L596.126 192.335L595.975 191.346C593.325 191.752 590.678 192.154 588.034 192.553L588.184 193.542ZM604.085 191.109L604.238 192.097C606.895 191.685 609.554 191.271 612.216 190.852L612.061 189.865L611.906 188.877C609.245 189.295 606.587 189.709 603.932 190.121L604.085 191.109ZM620.032 188.605L620.189 189.592C622.821 189.173 625.455 188.751 628.092 188.326L627.933 187.339L627.774 186.352C625.138 186.777 622.505 187.198 619.874 187.617L620.032 188.605ZM635.848 186.055L636.009 187.042C638.65 186.611 641.293 186.177 643.938 185.739L643.775 184.753L643.612 183.766C640.968 184.203 638.326 184.637 635.686 185.068L635.848 186.055ZM651.715 183.431L651.88 184.417C654.529 183.974 657.18 183.527 659.833 183.077L659.665 182.091L659.498 181.105C656.847 181.555 654.197 182.001 651.549 182.445L651.715 183.431ZM667.621 180.732L667.79 181.718C670.42 181.266 673.052 180.811 675.685 180.352L675.514 179.367L675.343 178.382C672.711 178.84 670.08 179.295 667.451 179.747L667.621 180.732ZM683.416 177.983L683.59 178.968C686.226 178.503 688.863 178.035 691.502 177.564L691.326 176.58L691.151 175.596C688.513 176.066 685.877 176.534 683.242 176.998L683.416 177.983ZM699.244 175.158L699.422 176.142C702.063 175.664 704.705 175.183 707.349 174.7L707.168 173.716L706.988 172.732C704.347 173.216 701.706 173.696 699.066 174.174L699.244 175.158ZM715.099 172.255L715.281 173.238C717.911 172.75 720.541 172.26 723.172 171.766L722.987 170.783L722.803 169.8C720.173 170.294 717.544 170.784 714.917 171.271L715.099 172.255ZM730.875 169.293L731.062 170.275C733.692 169.775 736.323 169.271 738.955 168.765L738.766 167.783L738.577 166.801C735.947 167.307 733.317 167.81 730.688 168.31L730.875 169.293ZM746.66 166.253L746.852 167.235C749.484 166.721 752.117 166.205 754.751 165.685L754.557 164.704L754.363 163.723C751.732 164.242 749.1 164.759 746.469 165.272L746.66 166.253ZM762.456 163.134L762.652 164.115C765.279 163.59 767.907 163.061 770.534 162.529L770.336 161.549L770.137 160.569C767.511 161.101 764.885 161.629 762.26 162.154L762.456 163.134ZM778.207 159.946L778.408 160.925C781.032 160.387 783.656 159.846 786.281 159.301L786.077 158.322L785.874 157.343C783.252 157.887 780.629 158.428 778.006 158.966L778.207 159.946ZM793.947 156.678L794.153 157.657C796.776 157.105 799.4 156.55 802.023 155.992L801.815 155.014L801.607 154.036C798.985 154.594 796.363 155.148 793.741 155.699L793.947 156.678ZM809.68 153.329L809.891 154.306C812.512 153.741 815.133 153.173 817.753 152.601L817.54 151.624L817.327 150.647C814.708 151.218 812.089 151.787 809.469 152.351L809.68 153.329ZM825.393 149.899L825.608 150.875C828.226 150.297 830.843 149.715 833.459 149.129L833.241 148.153L833.022 147.177C830.408 147.762 827.793 148.344 825.177 148.922L825.393 149.899ZM841.084 146.386L841.305 147.362C843.919 146.769 846.532 146.173 849.144 145.573L848.921 144.599L848.697 143.624C846.087 144.223 843.475 144.819 840.863 145.411L841.084 146.386ZM856.751 142.79L856.978 143.764C859.588 143.157 862.198 142.546 864.807 141.932L864.577 140.958L864.348 139.985C861.742 140.599 859.134 141.209 856.525 141.816L856.751 142.79ZM872.409 139.103L872.641 140.075C875.251 139.453 877.86 138.827 880.467 138.197L880.232 137.225L879.997 136.253C877.392 136.882 874.785 137.508 872.177 138.13L872.409 139.103ZM888.046 135.326L888.284 136.298C890.887 135.661 893.49 135.02 896.09 134.376L895.85 133.405L895.609 132.434C893.011 133.078 890.41 133.718 887.808 134.355L888.046 135.326ZM903.642 131.462L903.886 132.432C906.482 131.78 909.077 131.125 911.67 130.466L911.424 129.497L911.177 128.528C908.587 129.186 905.994 129.841 903.399 130.492L903.642 131.462ZM919.229 127.5L919.479 128.468C922.08 127.799 924.679 127.125 927.276 126.448L927.024 125.48L926.772 124.512C924.177 125.189 921.579 125.862 918.98 126.532L919.229 127.5ZM934.805 123.437L935.06 124.404C937.653 123.719 940.242 123.03 942.83 122.338L942.571 121.372L942.313 120.406C939.727 121.098 937.14 121.786 934.549 122.47L934.805 123.437ZM950.323 119.283L950.584 120.248C953.167 119.548 955.746 118.844 958.323 118.136L958.058 117.172L957.793 116.207C955.218 116.915 952.641 117.618 950.061 118.318L950.323 119.283ZM965.821 115.025L966.09 115.988C968.681 115.267 971.269 114.541 973.854 113.812L973.582 112.85L973.311 111.887C970.728 112.616 968.142 113.34 965.553 114.061L965.821 115.025ZM981.325 110.651L981.6 111.612C984.179 110.875 986.755 110.134 989.327 109.388L989.049 108.428L988.771 107.467C986.201 108.212 983.627 108.953 981.05 109.689L981.325 110.651ZM996.753 106.181L997.035 107.141C999.601 106.387 1002.16 105.63 1004.72 104.868L1004.44 103.91L1004.15 102.952C1001.6 103.712 999.035 104.469 996.471 105.222L996.753 106.181ZM1012.15 101.6L1012.44 102.558C1015.01 101.78 1017.59 100.998 1020.16 100.212L1019.87 99.2559L1019.57 98.2996C1017.01 99.0849 1014.43 99.866 1011.86 100.643L1012.15 101.6ZM1027.56 96.8864L1027.86 97.8415C1030.42 97.0471 1032.98 96.2485 1035.54 95.4456L1035.24 94.4916L1034.94 93.5376C1032.39 94.3397 1029.83 95.1375 1027.27 95.9312L1027.56 96.8864ZM1042.89 92.0715L1043.19 93.0243C1045.74 92.213 1048.28 91.3974 1050.82 90.5775L1050.51 89.6259L1050.2 88.6743C1047.67 89.4934 1045.13 90.3081 1042.58 91.1187L1042.89 92.0715ZM1058.16 87.1384L1058.47 88.0887C1061.03 87.2493 1063.59 86.4054 1066.14 85.5572L1065.83 84.6082L1065.51 83.6592C1062.96 84.5065 1060.41 85.3495 1057.85 86.1881L1058.16 87.1384ZM1073.47 82.0514L1073.79 82.999C1076.33 82.1419 1078.87 81.2803 1081.41 80.4142L1081.08 79.4679L1080.76 78.5216C1078.23 79.3868 1075.69 80.2475 1073.15 81.1037L1073.47 82.0514ZM1088.67 76.8576L1089 77.8024C1091.52 76.9274 1094.04 76.0478 1096.55 75.1637L1096.22 74.2203L1095.89 73.277C1093.38 74.1601 1090.86 75.0387 1088.34 75.9128L1088.67 76.8576ZM1103.8 71.5354L1104.14 72.4772C1106.68 71.5698 1109.22 70.6577 1111.75 69.7409L1111.41 68.8006L1111.07 67.8604C1108.54 68.7761 1106 69.6872 1103.46 70.5935L1103.8 71.5354ZM1118.98 66.0376L1119.33 66.9762C1121.85 66.05 1124.36 65.119 1126.87 64.1832L1126.52 63.2463L1126.17 62.3093C1123.66 63.244 1121.15 64.1739 1118.64 65.099L1118.98 66.0376ZM1134.02 60.4264L1134.38 61.3616C1136.87 60.4162 1139.36 59.4661 1141.85 58.5112L1141.49 57.5778L1141.13 56.6443C1138.65 57.5981 1136.16 58.547 1133.67 59.4912L1134.02 60.4264ZM1148.99 54.6702L1149.36 55.6017C1151.88 54.6192 1154.39 53.6317 1156.89 52.6392L1156.52 51.7095L1156.15 50.7799C1153.65 51.7711 1151.15 52.7574 1148.63 53.7386L1148.99 54.6702ZM1164.01 48.7187L1164.38 49.6463C1166.87 48.6437 1169.36 47.6359 1171.83 46.6231L1171.45 45.6975L1171.08 44.7719C1168.6 45.7834 1166.12 46.7897 1163.64 47.791L1164.01 48.7187ZM1178.86 42.6459L1179.24 43.5694C1181.7 42.5463 1184.16 41.5182 1186.61 40.4849L1186.22 39.5636L1185.83 38.6423C1183.38 39.6741 1180.93 40.7008 1178.47 41.7224L1178.86 42.6459ZM1193.65 36.401L1194.04 37.32C1196.53 36.2543 1199 35.1832 1201.47 34.1067L1201.07 33.1901L1200.67 32.2734C1198.21 33.3483 1195.74 34.4178 1193.26 35.482L1193.65 36.401ZM1208.45 29.9468L1208.85 30.861C1211.31 29.7736 1213.75 28.6808 1216.19 27.5825L1215.78 26.6709L1215.37 25.7592C1212.93 26.8558 1210.49 27.9469 1208.04 29.0326L1208.45 29.9468ZM1223.06 23.3623L1223.47 24.2713C1225.9 23.1605 1228.31 22.0442 1230.72 20.9223L1230.29 20.016L1229.87 19.1096C1227.47 20.2297 1225.06 21.3442 1222.64 22.4532L1223.06 23.3623ZM1237.64 16.5619L1238.07 17.4654C1240.51 16.3073 1242.94 15.1434 1245.36 13.9737L1244.93 13.0731L1244.49 12.1726C1242.08 13.3403 1239.65 14.5023 1237.21 15.6584L1237.64 16.5619ZM1252.16 9.54937L1252.6 10.4469C1255.01 9.2654 1257.4 8.07807 1259.79 6.88483L1259.34 5.9905L1258.89 5.09616C1256.51 6.28725 1254.12 7.47249 1251.72 8.65188L1252.16 9.54937Z" fill="url(#paint0_linear_5877_314985)"/>
<defs>
<linearGradient id="paint0_linear_5877_314985" x1="635" y1="0.585937" x2="635" y2="243.586" gradientUnits="userSpaceOnUse">
<stop stop-color="#3198A0"/>
<stop offset="1" stop-color="#51F909"/>
</linearGradient>
</defs>
</svg>
