<svg width="136" height="160" viewBox="0 0 136 160" fill="none" xmlns="http://www.w3.org/2000/svg">
<g clip-path="url(#clip0_5877_314907)">
<path d="M68.3025 140.908C69.3603 140.624 70.437 140.392 71.4759 140.051C73.4261 139.412 74.6445 139.668 75.9148 141.254C76.2784 141.713 76.4814 142.38 76.5523 142.977C76.6939 144.16 77.3078 144.818 78.4223 145.097C78.8189 145.197 79.2062 145.339 79.5934 145.486C81.3831 146.167 81.9781 147.213 81.6995 149.112C81.5909 149.836 81.5295 150.555 81.9734 151.223C82.3653 151.81 82.6345 151.857 83.1256 151.36C84.2448 150.234 85.6992 150.153 86.9034 151.185C88.1831 152.283 88.7167 153.751 88.9292 155.374C89.1275 156.903 90.2656 157.826 91.8145 157.755C92.3811 157.727 92.9525 157.689 93.5192 157.689C95.087 157.689 96.225 158.432 97.0892 159.71C97.212 159.89 97.5189 160.047 97.7362 160.047C110.208 160.065 122.679 160.065 135.15 160.07C136.005 160.07 136.005 160.075 136.005 160.946C136.005 165.845 136.005 170.745 136.005 175.644C136.005 175.838 136.005 176.032 136.005 176.316H135.353C106.841 176.316 13.5389 176.316 0.65671 176.316C0.439488 176.316 0.226988 176.331 0.00976562 176.335C0.00976562 170.906 0.00976562 165.471 0.00976562 160.042C0.382821 160.047 0.751155 160.061 1.12421 160.061C11.9475 160.051 22.7709 160.042 33.5989 160.013C33.8539 160.013 34.2459 159.824 34.3356 159.621C35.0817 157.86 36.8667 157.429 38.4723 157.789C38.9823 157.902 39.497 158.077 39.9645 158.314C41.3575 159.015 42.8687 158.172 43.2087 156.482C43.3787 155.621 43.3078 154.712 43.4637 153.85C43.8178 151.881 44.8378 150.361 46.6842 149.486C46.9534 149.358 47.2839 149.325 47.5862 149.301C48.2284 149.254 48.88 149.277 49.5223 149.211C50.4525 149.112 51.0287 148.629 51.2412 147.649C51.6662 145.67 52.5728 143.923 53.9517 142.432C55.1653 141.121 56.5442 140.065 58.4237 140.236C59.42 140.326 60.3928 140.705 61.3656 140.993L68.312 140.903L68.3025 140.908Z" fill="#6E4430"/>
<path d="M77.6333 49.5664C77.8836 49.5995 78.1292 49.6374 78.3794 49.6705C78.3228 49.7936 78.2519 50.0303 78.2094 50.0256C77.9875 50.0019 77.775 49.912 77.5625 49.8504C77.5861 49.7558 77.6097 49.6611 77.6333 49.5664Z" fill="white"/>
<path d="M99.843 29.5101C101.822 27.574 103.106 25.3729 104.022 22.7882C103.205 22.774 102.469 22.7598 101.727 22.7456C102.185 21.7232 102.686 20.7622 103.049 19.7539C103.408 18.7598 103.626 17.7137 103.899 16.6865C103.838 16.6533 103.781 16.6249 103.72 16.5918C103.432 16.8285 103.13 17.0462 102.856 17.2971C101.236 18.7835 99.6164 20.2699 98.0155 21.7752C96.7264 22.9871 95.4703 24.232 94.1905 25.4533C92.6936 26.8782 91.1683 28.2746 89.695 29.7232C87.433 31.9527 85.19 34.2013 82.9705 36.4687C80.4347 39.0533 77.9178 41.6569 75.4244 44.2794C73.7622 46.0308 72.1519 47.8297 70.518 49.6095C69.9703 50.206 69.4555 50.8308 68.8936 51.4131C68.5914 51.7303 68.6386 51.9575 68.9644 52.1705C69.6255 52.6107 70.2536 53.1172 70.9572 53.4628C72.3219 54.1303 73.748 54.632 75.245 54.9634C77.9083 55.5598 80.5905 55.5646 83.268 55.2427C85.7661 54.9397 88.1886 54.2297 90.4458 53.122C92.9486 51.8959 95.2625 50.3575 97.0616 48.1705C98.0864 46.9255 98.96 45.5859 99.6116 44.0995C99.6447 44.0285 99.64 43.9433 99.6589 43.8486C98.8466 43.6593 98.058 43.4794 97.2977 43.3042C98.1005 42.4285 98.9033 41.6664 99.5597 40.8001C100.377 39.7255 101.179 38.6178 101.567 37.2877C101.765 36.6107 101.756 36.6202 101.085 36.4877C100.462 36.3646 99.8383 36.2273 99.2055 36.0948C99.6778 35.3942 100.126 34.774 100.523 34.1208C101.279 32.8758 101.996 31.6072 102.393 30.1871C102.525 29.7137 102.469 29.638 101.973 29.6474C101.51 29.6569 101.047 29.6616 100.589 29.6427C100.372 29.6332 100.155 29.5575 99.8478 29.4959L99.843 29.5101Z" fill="#5E944C"/>
<path d="M91.5124 20.4357C93.4485 18.4523 95.6444 17.1695 98.2227 16.2559C98.2369 17.0748 98.251 17.8133 98.2605 18.5565C99.2852 18.0973 100.239 17.5955 101.245 17.2357C102.237 16.8807 103.285 16.663 104.305 16.3837C104.338 16.4452 104.366 16.502 104.399 16.5636C104.163 16.8523 103.946 17.1553 103.696 17.4298C102.208 19.0488 99.7432 20.2937 98.2416 21.8937C97.0327 23.1813 95.9182 23.8961 94.6952 25.1789C93.2691 26.6748 91.5266 28.1233 90.0769 29.6002C87.8527 31.863 85.2319 34.244 82.9652 36.4689C80.3821 39.0062 78.4555 41.463 75.8346 43.9576C74.0874 45.6239 72.7888 48.2559 71.0085 49.8843C70.4135 50.4334 70.1916 50.8641 69.606 51.4275C69.2896 51.7304 69.063 51.6783 68.8505 51.3564C68.4113 50.6937 67.9107 50.0641 67.566 49.3541C66.9002 47.986 66.4044 46.5565 66.0738 45.0559C65.4835 42.3813 65.4788 39.6973 65.8046 37.0133C66.1116 34.5091 66.8246 32.0854 67.9296 29.8227C69.1574 27.3186 70.6921 24.9991 72.8785 23.1955C74.1205 22.1683 75.4616 21.2925 76.9396 20.6488C77.0105 20.6156 77.0955 20.6204 77.1899 20.6014C77.3741 21.4156 77.5582 22.2062 77.7282 22.9683C78.6019 22.1683 79.3621 21.3636 80.231 20.7056C81.3077 19.8914 82.408 19.0819 83.7396 18.6985C84.4149 18.5044 84.4102 18.5091 84.5377 19.186C84.6605 19.8109 84.7927 20.4357 84.9249 21.0701C85.6238 20.5967 86.2424 20.147 86.8941 19.7494C88.136 18.992 89.4016 18.2772 90.8182 17.8795C91.2905 17.747 91.366 17.8085 91.3566 18.3008C91.3471 18.7647 91.3424 19.2286 91.3566 19.6878C91.366 19.9056 91.4416 20.1233 91.503 20.431L91.5124 20.4357Z" fill="#88B64F"/>
<path d="M104.285 16.582C104.285 16.582 67.1397 50.272 64.042 62.3382L63.7539 58.8874C63.7539 58.8874 69.3261 44.7856 104.285 16.5868V16.582Z" fill="#A8C94B"/>
<path d="M56.87 140.389C56.87 140.389 58.5133 139.953 59.0516 140.45C59.8497 141.189 60.4825 144.46 64.7655 144.46C69.0486 144.46 71.6222 141.833 71.575 140.024C70.2905 140.024 69.5255 141.023 64.86 141.023C60.5155 141.023 59.0988 139.688 58.3811 139.736C57.6633 139.783 56.8652 140.389 56.8652 140.389H56.87Z" fill="#462B21"/>
<path d="M62.8448 141.467L62.0137 30.5603C62.0137 30.5603 62.8448 28.4349 63.1612 31.3319C63.4587 34.0633 67.4017 130.527 67.8456 141.472C67.8739 142.111 67.6992 143.072 67.0192 143.18C65.5128 143.422 62.8778 143.55 62.8448 141.467Z" fill="#5E944C"/>
<path d="M64.0064 108.761C63.4681 108.155 62.9534 107.507 62.9534 106.64C62.9487 97.8073 62.9487 88.9789 62.9817 80.1458C62.9864 78.6547 63.3312 77.0973 62.4481 75.805C62.3678 75.6819 62.3301 75.3789 62.3867 75.3458C62.5331 75.2559 62.4009 75.3221 62.5709 75.36C63.0526 75.4594 63.3784 75.7529 63.4587 76.2594C63.5248 76.7044 63.6051 77.1541 63.6192 77.6038C63.7231 81.0216 63.8317 84.444 63.8978 87.8618C64.0253 94.4464 64.1292 101.031 64.2378 107.62C64.2426 107.985 64.2378 108.345 64.2378 108.709C64.1576 108.728 64.082 108.747 64.0017 108.766L64.0064 108.761Z" fill="#88B64F"/>
<path d="M44.3551 10.1212C43.3634 8.35557 42.9196 6.54728 42.811 4.54492C43.3871 4.70113 43.9065 4.84787 44.426 4.98989C44.3126 4.17568 44.1615 3.39935 44.1143 2.61829C44.0671 1.84669 44.1332 1.07036 44.1473 0.294027C44.1946 0.28456 44.2465 0.275092 44.2937 0.265625C44.4496 0.48811 44.6148 0.705862 44.7565 0.937814C45.5829 2.31533 46.4187 3.69284 47.2309 5.07983C47.8826 6.19699 48.5107 7.32835 49.1529 8.45024C49.9084 9.76148 50.6923 11.0538 51.4243 12.3745C52.5529 14.4053 53.6579 16.4455 54.7534 18.4952C55.9954 20.8337 57.2279 23.1769 58.4368 25.5343C59.2443 27.1059 59.9998 28.7011 60.779 30.2869C61.0387 30.8171 61.2748 31.3615 61.544 31.8869C61.6904 32.171 61.6101 32.3177 61.3362 32.4029C60.7837 32.5733 60.2407 32.8005 59.674 32.8952C58.5785 33.0798 57.4782 33.1366 56.359 33.0609C54.3662 32.9283 52.4868 32.3792 50.6782 31.5982C48.9876 30.8692 47.4387 29.8704 46.0834 28.6301C44.5818 27.2526 43.2784 25.6999 42.4615 23.7923C41.9987 22.7082 41.6635 21.5863 41.5123 20.4124C41.5029 20.3556 41.5218 20.294 41.5312 20.223C42.1357 20.2609 42.7307 20.294 43.2973 20.3272C42.9148 19.5461 42.5087 18.8502 42.2254 18.1023C41.8759 17.1792 41.5359 16.2372 41.5407 15.2242C41.5407 14.713 41.5407 14.713 42.0459 14.7603C42.5087 14.8029 42.9715 14.836 43.4437 14.8739C43.2548 14.2822 43.0707 13.7568 42.9243 13.2171C42.6504 12.1899 42.4096 11.1532 42.4237 10.0739C42.4284 9.71415 42.4851 9.67628 42.8298 9.78515C43.1509 9.88456 43.4721 9.98397 43.8026 10.0692C43.9585 10.107 44.1237 10.1023 44.3551 10.1212Z" fill="#5E944C"/>
<path d="M52.0586 5.48248C51.1095 3.69314 49.8345 2.33929 48.2147 1.16532C48.0353 1.73337 47.8747 2.24935 47.7142 2.77006C47.0909 2.23515 46.5242 1.68603 45.8914 1.22686C45.2681 0.772425 44.5786 0.403194 43.9222 -0.00390625C43.8892 0.0339636 43.8561 0.0670997 43.8184 0.104969C43.9222 0.355857 44.0167 0.611478 44.1347 0.857632C44.8431 2.30142 46.3164 3.67893 47.0389 5.11799C47.6197 6.27302 48.2572 7.00201 48.8475 8.15231C49.537 9.49669 50.4625 10.8742 51.1756 12.2044C52.2711 14.2541 53.617 16.4647 54.7456 18.4908C56.0347 20.8008 56.88 22.9215 58.2022 25.2174C59.0853 26.7464 59.4536 28.8576 60.365 30.3724C60.672 30.8789 60.7381 31.2292 61.0309 31.7452C61.1914 32.0245 61.3567 32.034 61.5786 31.8493C62.0225 31.4754 62.5042 31.1393 62.8914 30.7133C63.6375 29.8896 64.2798 28.9902 64.8228 28.0103C65.7861 26.2588 66.3434 24.3748 66.6645 22.4292C66.9667 20.6115 66.9667 18.7653 66.655 16.9476C66.3103 14.9405 65.7106 12.9949 64.5489 11.2766C63.8878 10.3014 63.1275 9.41148 62.2256 8.64935C62.1831 8.61148 62.1217 8.59728 62.0603 8.56414C61.7628 9.09432 61.4747 9.61503 61.1961 10.1121C60.7475 9.36888 60.3792 8.64935 59.907 8.00556C59.3214 7.2103 58.7122 6.41976 57.8622 5.87065C57.4325 5.59609 57.4325 5.60083 57.2011 6.0458C56.9886 6.45763 56.7667 6.86947 56.54 7.28604C56.1481 6.80793 55.8081 6.36769 55.4303 5.95586C54.7172 5.17006 53.9759 4.40319 53.0645 3.83515C52.7622 3.6458 52.6961 3.66947 52.6017 4.01976C52.512 4.34639 52.4222 4.67302 52.3136 4.99018C52.2617 5.14166 52.1672 5.27893 52.0586 5.48248Z" fill="#88B64F"/>
<path d="M43.8973 0.142578C43.8973 0.142578 63.0081 31.4372 62.6917 40.5355L63.6031 38.1733C63.6031 38.1733 62.602 27.139 43.8926 0.142578H43.8973Z" fill="#A8C94B"/>
</g>
<defs>
<clipPath id="clip0_5877_314907">
<rect width="136" height="160" fill="white"/>
</clipPath>
</defs>
</svg>
