<svg width="119" height="140" viewBox="0 0 119 140" fill="none" xmlns="http://www.w3.org/2000/svg">
<g clip-path="url(#clip0_5877_314892)">
<path d="M59.764 123.296C60.6895 123.047 61.6316 122.844 62.5407 122.546C64.2472 121.987 65.3132 122.21 66.4247 123.598C66.7428 124 66.9205 124.584 66.9825 125.106C67.1065 126.141 67.6436 126.717 68.6188 126.961C68.9658 127.048 69.3046 127.172 69.6435 127.301C71.2095 127.897 71.7301 128.813 71.4863 130.474C71.3913 131.107 71.3376 131.737 71.726 132.321C72.0689 132.835 72.3044 132.876 72.7342 132.441C73.7134 131.455 74.9861 131.385 76.0397 132.288C77.1595 133.249 77.6264 134.533 77.8123 135.954C77.9859 137.291 78.9817 138.099 80.3369 138.037C80.8328 138.012 81.3327 137.979 81.8286 137.979C83.2004 137.979 84.1962 138.629 84.9523 139.748C85.0598 139.905 85.3283 140.042 85.5184 140.042C96.4309 140.058 107.343 140.058 118.256 140.062C119.004 140.062 119.004 140.067 119.004 140.829C119.004 145.116 119.004 149.403 119.004 153.69C119.004 153.859 119.004 154.029 119.004 154.278H118.433C93.4848 154.278 11.8458 154.278 0.573889 154.278C0.383819 154.278 0.197882 154.29 0.0078125 154.294C0.0078125 149.543 0.0078125 144.788 0.0078125 140.038C0.334236 140.042 0.656528 140.054 0.982951 140.054C10.4534 140.046 19.9238 140.038 29.3983 140.013C29.6215 140.013 29.9644 139.847 30.0429 139.669C30.6958 138.128 32.2576 137.751 33.6625 138.066C34.1088 138.165 34.5591 138.319 34.9682 138.526C36.1871 139.139 37.5093 138.401 37.8068 136.923C37.9556 136.169 37.8936 135.374 38.03 134.62C38.3399 132.897 39.2324 131.567 40.848 130.801C41.0835 130.689 41.3727 130.66 41.6372 130.639C42.1991 130.598 42.7693 130.619 43.3313 130.561C44.1452 130.474 44.6493 130.051 44.8353 129.194C45.2072 127.462 46.0005 125.934 47.207 124.629C48.2689 123.482 49.4755 122.558 51.12 122.707C51.9918 122.786 52.843 123.117 53.6942 123.37L59.7723 123.291L59.764 123.296Z" fill="#6E4430"/>
<path d="M67.9292 43.3711C68.1482 43.4001 68.363 43.4332 68.582 43.4622C68.5324 43.5699 68.4704 43.777 68.4333 43.7729C68.2391 43.7522 68.0531 43.6735 67.8672 43.6196C67.8878 43.5368 67.9085 43.4539 67.9292 43.3711Z" fill="white"/>
<path d="M49.7619 122.838C49.7619 122.838 51.1999 122.457 51.6709 122.892C52.3692 123.538 52.9229 126.4 56.6706 126.4C60.4182 126.4 62.6701 124.102 62.6288 122.519C61.5049 122.519 60.8356 123.393 56.7532 123.393C52.9518 123.393 51.7122 122.225 51.0842 122.267C50.4561 122.308 49.7578 122.838 49.7578 122.838H49.7619Z" fill="#462B21"/>
<path d="M54.9889 123.783L54.2617 26.7398C54.2617 26.7398 54.9889 24.88 55.2658 27.4149C55.5261 29.8049 58.9763 114.211 59.3647 123.787C59.3895 124.346 59.2366 125.187 58.6416 125.282C57.3235 125.494 55.0179 125.605 54.9889 123.783Z" fill="#5E944C"/>
<path d="M56.0054 95.1665C55.5344 94.6364 55.084 94.0689 55.084 93.3109C55.0799 85.5819 55.0799 77.8571 55.1088 70.1281C55.1129 68.8233 55.4146 67.4606 54.6419 66.3298C54.5716 66.2222 54.5386 65.9571 54.5882 65.9281C54.7163 65.8494 54.6006 65.9074 54.7493 65.9405C55.1708 66.0275 55.4559 66.2843 55.5261 66.7275C55.584 67.1168 55.6542 67.5103 55.6666 67.9038C55.7575 70.8943 55.8525 73.889 55.9104 76.8796C56.022 82.6411 56.1129 88.4026 56.2079 94.1683C56.212 94.4872 56.2079 94.802 56.2079 95.121C56.1377 95.1375 56.0715 95.1541 56.0013 95.1707L56.0054 95.1665Z" fill="#88B64F"/>
<path d="M38.8119 8.85609C37.9442 7.31112 37.5558 5.72887 37.4608 3.9768C37.9649 4.11349 38.4194 4.24189 38.8739 4.36615C38.7748 3.65372 38.6425 2.97443 38.6012 2.291C38.5599 1.61585 38.6177 0.936564 38.6301 0.257274C38.6715 0.24899 38.7169 0.240706 38.7582 0.232422C38.8946 0.427096 39.0392 0.617629 39.1632 0.820588C39.8863 2.02591 40.6176 3.23124 41.3283 4.44485C41.8985 5.42236 42.4481 6.4123 43.01 7.39396C43.6711 8.5413 44.357 9.67207 44.9975 10.8277C45.985 12.6046 46.9519 14.3898 47.9105 16.1833C48.9972 18.2295 50.0756 20.2798 51.1334 22.3425C51.84 23.7176 52.5011 25.1135 53.1829 26.5011C53.4101 26.965 53.6167 27.4413 53.8522 27.9011C53.9803 28.1496 53.9101 28.278 53.6704 28.3525C53.187 28.5017 52.7118 28.7005 52.216 28.7833C51.2574 28.9448 50.2946 28.9946 49.3153 28.9283C47.5717 28.8123 45.9272 28.3318 44.3446 27.6484C42.8654 27.0105 41.5101 26.1366 40.3242 25.0514C39.0103 23.846 37.8699 22.4875 37.155 20.8182C36.7501 19.8697 36.4567 18.888 36.3245 17.8608C36.3163 17.8111 36.3328 17.7573 36.341 17.6951C36.8699 17.7283 37.3906 17.7573 37.8864 17.7863C37.5517 17.1028 37.1964 16.494 36.9484 15.8395C36.6427 15.0318 36.3452 14.2076 36.3493 13.3212C36.3493 12.8738 36.3493 12.8738 36.7914 12.9153C37.1964 12.9525 37.6013 12.9815 38.0145 13.0147C37.8492 12.4969 37.6881 12.0372 37.56 11.565C37.3203 10.6662 37.1096 9.75905 37.122 8.81467C37.1261 8.49988 37.1757 8.46674 37.4773 8.56201C37.7583 8.64899 38.0393 8.73597 38.3285 8.81053C38.4649 8.84367 38.6095 8.83952 38.8119 8.85609Z" fill="#5E944C"/>
<path d="M45.552 4.79669C44.7215 3.23101 43.6059 2.04639 42.1886 1.01917C42.0316 1.51621 41.8911 1.96769 41.7507 2.42331C41.2052 1.95527 40.7094 1.47479 40.1557 1.07302C39.6103 0.675384 39.007 0.352307 38.4327 -0.00390625C38.4038 0.0292298 38.3749 0.0582239 38.3418 0.09136C38.4327 0.310887 38.5153 0.534555 38.6186 0.74994C39.2384 2.01325 40.5276 3.21858 41.1598 4.47775C41.668 5.4884 42.2258 6.12627 42.7423 7.13278C43.3456 8.30911 44.1554 9.51444 44.7794 10.6783C45.738 12.4718 46.9156 14.4062 47.9031 16.1789C49.0311 18.2002 49.7708 20.0559 50.9277 22.0647C51.7004 23.4026 52.0227 25.2499 52.8201 26.5754C53.0887 27.0186 53.1466 27.3251 53.4027 27.7766C53.5432 28.0209 53.6878 28.0292 53.882 27.8677C54.2704 27.5405 54.6919 27.2464 55.0307 26.8736C55.6836 26.1529 56.2455 25.3659 56.7207 24.5085C57.5636 22.976 58.0512 21.3275 58.3321 19.6251C58.5966 18.0346 58.5966 16.4192 58.3239 14.8286C58.0222 13.0724 57.4975 11.3701 56.481 9.86651C55.9026 9.01325 55.2373 8.23456 54.4481 7.56769C54.4109 7.53456 54.3572 7.52213 54.3035 7.49314C54.0432 7.95704 53.7911 8.41266 53.5474 8.84757C53.1548 8.19728 52.8325 7.56769 52.4193 7.00438C51.907 6.30852 51.3739 5.6168 50.6302 5.13633C50.2542 4.89609 50.2542 4.90024 50.0517 5.28959C49.8658 5.64994 49.6716 6.0103 49.4733 6.37479C49.1303 5.95645 48.8328 5.57124 48.5022 5.21089C47.8783 4.52331 47.2296 3.85231 46.4321 3.35527C46.1677 3.18959 46.1099 3.21029 46.0272 3.5168C45.9487 3.8026 45.8702 4.0884 45.7752 4.36592C45.7297 4.49846 45.6471 4.61858 45.552 4.79669Z" fill="#88B64F"/>
<path d="M38.4104 0.125C38.4104 0.125 55.1324 27.5078 54.8555 35.4688L55.653 33.4019C55.653 33.4019 54.777 23.7469 38.4062 0.125H38.4104Z" fill="#A8C94B"/>
</g>
<defs>
<clipPath id="clip0_5877_314892">
<rect width="119" height="140" fill="white"/>
</clipPath>
</defs>
</svg>
