<svg width="153" height="180" viewBox="0 0 153 180" fill="none" xmlns="http://www.w3.org/2000/svg">
<g clip-path="url(#clip0_5877_314927)">
<path d="M76.8391 158.523C78.0291 158.203 79.2404 157.942 80.4091 157.559C82.6032 156.84 83.9738 157.127 85.4029 158.911C85.812 159.428 86.0404 160.179 86.1201 160.85C86.2794 162.181 86.9701 162.921 88.2238 163.236C88.6701 163.347 89.1057 163.507 89.5413 163.672C91.5548 164.439 92.2241 165.616 91.9107 167.752C91.7885 168.566 91.7195 169.376 92.2188 170.127C92.6598 170.787 92.9626 170.84 93.5151 170.281C94.7741 169.014 96.4104 168.923 97.7651 170.084C99.2048 171.32 99.8051 172.971 100.044 174.797C100.267 176.517 101.548 177.556 103.29 177.476C103.928 177.444 104.57 177.401 105.208 177.401C106.972 177.401 108.252 178.237 109.224 179.675C109.362 179.878 109.708 180.053 109.952 180.053C123.982 180.075 138.013 180.075 152.043 180.08C153.004 180.08 153.004 180.085 153.004 181.065C153.004 186.577 153.004 192.089 153.004 197.601C153.004 197.819 153.004 198.037 153.004 198.357H152.271C120.194 198.357 15.2301 198.357 0.737578 198.357C0.493203 198.357 0.254141 198.373 0.00976562 198.378C0.00976562 192.27 0.00976562 186.156 0.00976562 180.048C0.429453 180.053 0.843828 180.069 1.26352 180.069C13.4398 180.059 25.616 180.048 37.7976 180.016C38.0845 180.016 38.5254 179.803 38.6263 179.574C39.4657 177.593 41.4738 177.108 43.2801 177.513C43.8538 177.641 44.4329 177.838 44.9588 178.104C46.526 178.892 48.226 177.944 48.6085 176.043C48.7998 175.074 48.7201 174.052 48.8954 173.082C49.2938 170.867 50.4413 169.158 52.5185 168.172C52.8213 168.029 53.1932 167.991 53.5332 167.965C54.2557 167.911 54.9888 167.938 55.7113 167.863C56.7579 167.752 57.406 167.208 57.6451 166.106C58.1232 163.88 59.1432 161.915 60.6945 160.237C62.0598 158.762 63.611 157.575 65.7254 157.766C66.8463 157.868 67.9407 158.294 69.0351 158.618L76.8498 158.517L76.8391 158.523Z" fill="#6E4430"/>
<path d="M87.3375 55.7637C87.6191 55.8009 87.8953 55.8436 88.1769 55.8808C88.1131 56.0193 88.0334 56.2856 87.9856 56.2802C87.7359 56.2536 87.4969 56.1524 87.2578 56.0832C87.2844 55.9767 87.3109 55.8702 87.3375 55.7637Z" fill="white"/>
<path d="M23.051 49.6452C20.4054 47.0624 18.6948 44.1228 17.4729 40.6719C18.562 40.6506 19.5448 40.6346 20.5382 40.6186C19.9273 39.25 19.2579 37.9719 18.7745 36.6245C18.2963 35.2932 18.0095 33.8979 17.6376 32.5346C17.7173 32.492 17.797 32.4494 17.8767 32.4121C18.2645 32.7263 18.6629 33.0192 19.0295 33.3547C21.1917 35.3411 23.3538 37.3222 25.4948 39.3352C27.216 40.9541 28.8895 42.6157 30.6001 44.2452C32.5976 46.1518 34.6376 48.0103 36.6032 49.9435C39.6207 52.9204 42.617 55.9186 45.5813 58.9488C48.9654 62.3997 52.3282 65.8719 55.6591 69.376C57.8798 71.7139 60.0313 74.1157 62.2041 76.4908C62.932 77.2896 63.6226 78.1204 64.3716 78.9032C64.7754 79.3239 64.7116 79.6275 64.276 79.9151C63.3941 80.5009 62.5548 81.1772 61.6145 81.6405C59.7923 82.5299 57.8904 83.2009 55.8929 83.6429C52.3335 84.4364 48.7582 84.447 45.1829 84.0157C41.8466 83.6109 38.6166 82.663 35.6045 81.1878C32.2682 79.5529 29.1763 77.5026 26.7698 74.579C25.4045 72.9174 24.2357 71.1281 23.3698 69.147C23.3273 69.0512 23.3273 68.9393 23.306 68.8115C24.3898 68.5612 25.4416 68.3162 26.4563 68.0873C25.3885 66.9157 24.3154 65.9038 23.4335 64.7429C22.3445 63.305 21.2713 61.8299 20.7507 60.0512C20.4904 59.1512 20.4957 59.1565 21.3935 58.9807C22.2276 58.8157 23.0563 58.6346 23.901 58.4589C23.2688 57.5216 22.6685 56.6961 22.1426 55.8281C21.1332 54.1665 20.177 52.4731 19.651 50.5772C19.4757 49.9435 19.5501 49.8476 20.2141 49.8583C20.8304 49.8689 21.4466 49.8796 22.0629 49.8476C22.3551 49.837 22.642 49.7358 23.0563 49.6506L23.051 49.6452Z" fill="#5E944C"/>
<path d="M34.1648 37.5342C31.5829 34.8874 28.6504 33.1727 25.2079 31.9531C25.192 33.0448 25.1707 34.03 25.1548 35.0259C23.7895 34.4135 22.5145 33.7425 21.1704 33.2632C19.8423 32.7892 18.4504 32.5016 17.0851 32.1289C17.0426 32.2087 17.0001 32.2886 16.9629 32.3685C17.2763 32.7573 17.5685 33.1567 17.9032 33.5241C19.8848 35.6863 23.1785 37.3425 25.1866 39.4833C26.8016 41.2034 28.2891 42.1567 29.9201 43.8661C31.822 45.8632 34.1488 47.7963 36.0826 49.7667C39.0523 52.7916 42.5479 55.9655 45.576 58.9371C49.0238 62.3241 51.5951 65.6046 55.096 68.9383C57.4282 71.159 59.1601 74.6738 61.5401 76.8519C62.337 77.5815 62.6345 78.162 63.4101 78.9129C63.8298 79.3176 64.1326 79.2484 64.4195 78.817C65.0038 77.933 65.6785 77.0916 66.1354 76.149C67.0226 74.3224 67.6866 72.4158 68.1276 70.4135C68.9138 66.8454 68.9191 63.2614 68.4835 59.6774C68.0745 56.333 67.1235 53.0951 65.6466 50.0809C64.0104 46.7366 61.9598 43.6425 59.0432 41.2354C57.3857 39.8667 55.5954 38.7005 53.6191 37.8324C53.5235 37.7898 53.412 37.7898 53.2845 37.7685C53.0348 38.8549 52.7957 39.9093 52.562 40.9265C51.3932 39.8561 50.3785 38.7857 49.2204 37.9016C47.786 36.8099 46.3145 35.7342 44.5401 35.2176C43.6423 34.9567 43.6476 34.962 43.4723 35.8673C43.3129 36.7034 43.1323 37.5342 42.957 38.3809C42.022 37.7525 41.1985 37.1508 40.3273 36.6182C38.6698 35.6064 36.9804 34.6531 35.0891 34.1259C34.457 33.9502 34.3613 34.03 34.372 34.6904C34.3826 35.3082 34.3932 35.9259 34.3666 36.5437C34.356 36.8366 34.2551 37.1241 34.1701 37.5395L34.1648 37.5342Z" fill="#88B64F"/>
<path d="M17.1172 32.3906C17.1172 32.3906 66.6987 77.3587 70.8319 93.4628L71.2197 88.8563C71.2197 88.8563 63.7822 70.0309 17.1172 32.3906Z" fill="#A8C94B"/>
<path d="M112.323 33.2011C114.549 31.023 115.994 28.5467 117.024 25.639C116.105 25.623 115.277 25.607 114.443 25.591C114.958 24.4407 115.521 23.3597 115.93 22.2254C116.334 21.107 116.578 19.9301 116.886 18.7745C116.817 18.7372 116.754 18.7052 116.684 18.668C116.36 18.9342 116.02 19.1792 115.712 19.4615C113.89 21.1337 112.068 22.8058 110.267 24.4993C108.817 25.8626 107.404 27.2632 105.964 28.6372C104.28 30.2402 102.564 31.8112 100.906 33.4408C98.3617 35.949 95.8382 38.4786 93.3414 41.0295C90.4885 43.9372 87.657 46.8662 84.852 49.8165C82.982 51.7869 81.1704 53.8106 79.3323 55.8129C78.716 56.4839 78.137 57.1869 77.5048 57.8419C77.1648 58.1987 77.2179 58.4544 77.5845 58.694C78.3282 59.1893 79.0348 59.7591 79.8264 60.1479C81.3617 60.8987 82.966 61.4632 84.6501 61.836C87.6464 62.507 90.6639 62.5123 93.676 62.1502C96.4864 61.8094 99.2117 61.0106 101.751 59.7644C104.567 58.3851 107.17 56.6544 109.194 54.194C110.347 52.7934 111.329 51.2863 112.063 49.6141C112.1 49.5342 112.094 49.4384 112.116 49.3319C111.202 49.1189 110.315 48.9165 109.459 48.7194C110.363 47.7342 111.266 46.8768 112.004 45.9023C112.923 44.6934 113.826 43.4473 114.262 41.9508C114.485 41.1893 114.474 41.1999 113.72 41.0508C113.019 40.9123 112.318 40.7579 111.606 40.6088C112.137 39.8206 112.642 39.123 113.088 38.3881C113.938 36.9875 114.745 35.5603 115.192 33.9626C115.34 33.4301 115.277 33.3449 114.719 33.3555C114.198 33.3662 113.678 33.3715 113.162 33.3502C112.918 33.3396 112.674 33.2544 112.328 33.1851L112.323 33.2011Z" fill="#5E944C"/>
<path d="M102.952 22.9914C105.13 20.7601 107.601 19.3169 110.501 18.2891C110.517 19.2104 110.533 20.0411 110.544 20.8772C111.697 20.3607 112.77 19.7962 113.901 19.3914C115.017 18.992 116.196 18.7471 117.344 18.4328C117.381 18.5021 117.413 18.566 117.45 18.6352C117.184 18.9601 116.94 19.3009 116.658 19.6098C114.985 21.4311 112.212 22.8317 110.523 24.6317C109.163 26.0802 107.909 26.8843 106.533 28.3275C104.928 30.0104 102.968 31.6399 101.337 33.3015C98.835 35.847 95.8866 38.5257 93.3366 41.0287C90.4306 43.8831 88.2631 46.6471 85.3147 49.4536C83.3491 51.3281 81.8881 54.2891 79.8853 56.121C79.2159 56.7388 78.9663 57.2234 78.3075 57.8571C77.9516 58.1979 77.6966 58.1394 77.4575 57.7772C76.9634 57.0317 76.4003 56.3234 76.0125 55.5246C75.2634 53.9855 74.7056 52.3772 74.3338 50.6891C73.6697 47.6802 73.6644 44.6607 74.0309 41.6411C74.3763 38.824 75.1784 36.0973 76.4216 33.5518C77.8028 30.7346 79.5294 28.1252 81.9891 26.0962C83.3863 24.9405 84.895 23.9553 86.5578 23.2311C86.6375 23.1938 86.7331 23.1991 86.8394 23.1778C87.0466 24.0938 87.2538 24.9831 87.445 25.8405C88.4278 24.9405 89.2831 24.0352 90.2606 23.295C91.4719 22.379 92.7097 21.4684 94.2078 21.037C94.9675 20.8186 94.9622 20.824 95.1056 21.5855C95.2438 22.2885 95.3925 22.9914 95.5413 23.705C96.3275 23.1725 97.0234 22.6666 97.7566 22.2192C99.1538 21.3672 100.578 20.563 102.171 20.1157C102.703 19.9666 102.788 20.0358 102.777 20.5897C102.766 21.1115 102.761 21.6334 102.777 22.15C102.788 22.395 102.873 22.6399 102.942 22.9861L102.952 22.9914Z" fill="#88B64F"/>
<path d="M117.322 18.6562C117.322 18.6562 75.5337 56.5574 72.0487 70.132L71.7246 66.2497C71.7246 66.2497 77.9934 50.3852 117.322 18.6616V18.6562Z" fill="#A8C94B"/>
<path d="M63.978 157.936C63.978 157.936 65.8267 157.446 66.4323 158.005C67.3302 158.836 68.042 162.515 72.8605 162.515C77.6789 162.515 80.5742 159.56 80.5211 157.525C79.0761 157.525 78.2155 158.649 72.9667 158.649C68.0792 158.649 66.4855 157.147 65.678 157.201C64.8705 157.254 63.9727 157.936 63.9727 157.936H63.978Z" fill="#462B21"/>
<path d="M70.6987 159.151L69.7637 34.3808C69.7637 34.3808 70.6987 31.9897 71.0546 35.2489C71.3893 38.3217 75.8252 146.844 76.3246 159.156C76.3565 159.875 76.1599 160.956 75.3949 161.078C73.7002 161.35 70.7359 161.494 70.6987 159.151Z" fill="#5E944C"/>
<path d="M72.005 122.358C71.3994 121.676 70.8203 120.947 70.8203 119.972C70.815 110.035 70.815 100.103 70.8522 90.1655C70.8575 88.488 71.2453 86.7359 70.2519 85.2821C70.1616 85.1436 70.1191 84.8028 70.1828 84.7655C70.3475 84.6643 70.1988 84.7389 70.39 84.7815C70.9319 84.8933 71.2985 85.2235 71.3888 85.7933C71.4632 86.2939 71.5535 86.7998 71.5694 87.3057C71.6863 91.1507 71.8085 95.001 71.8828 98.846C72.0263 106.254 72.1432 113.661 72.2653 121.074C72.2707 121.484 72.2653 121.889 72.2653 122.299C72.175 122.321 72.09 122.342 71.9997 122.363L72.005 122.358Z" fill="#88B64F"/>
<path d="M49.9002 11.3864C48.7846 9.40001 48.2852 7.36569 48.1631 5.11303C48.8112 5.28877 49.3956 5.45386 49.9799 5.61362C49.8524 4.69764 49.6824 3.82427 49.6293 2.94557C49.5762 2.07753 49.6505 1.20415 49.6665 0.330781C49.7196 0.32013 49.7781 0.309479 49.8312 0.298828C50.0065 0.549124 50.1924 0.794094 50.3518 1.05504C51.2815 2.60475 52.2218 4.15445 53.1355 5.7148C53.8687 6.97161 54.5752 8.24439 55.2977 9.50652C56.1477 10.9817 57.0296 12.4355 57.8531 13.9213C59.1227 16.2059 60.3659 18.5012 61.5984 20.8071C62.9955 23.4379 64.3821 26.074 65.7421 28.726C66.6506 30.4941 67.5006 32.2888 68.3771 34.0728C68.6693 34.6692 68.9349 35.2817 69.2377 35.8728C69.4024 36.1923 69.3121 36.3574 69.004 36.4533C68.3824 36.645 67.7715 36.9006 67.134 37.0071C65.9015 37.2148 64.6637 37.2787 63.4046 37.1935C61.1627 37.0444 59.0484 36.4266 57.0137 35.5479C55.1118 34.7278 53.3693 33.6042 51.8446 32.2089C50.1552 30.6592 48.689 28.9124 47.7699 26.7663C47.2493 25.5468 46.8721 24.2846 46.7021 22.9639C46.6915 22.9 46.7127 22.8308 46.7234 22.7509C47.4034 22.7935 48.0727 22.8308 48.7102 22.8681C48.2799 21.9894 47.823 21.2065 47.5043 20.3651C47.1112 19.3266 46.7287 18.2669 46.734 17.1272C46.734 16.5521 46.734 16.5521 47.3024 16.6053C47.8231 16.6533 48.3437 16.6905 48.8749 16.7331C48.6624 16.0675 48.4552 15.4763 48.2906 14.8692C47.9824 13.7136 47.7115 12.5473 47.7274 11.3331C47.7327 10.9284 47.7965 10.8858 48.1843 11.0083C48.5455 11.1201 48.9068 11.232 49.2787 11.3278C49.454 11.3704 49.6399 11.3651 49.9002 11.3864Z" fill="#5E944C"/>
<path d="M58.565 6.16828C57.4972 4.15527 56.0628 2.63219 54.2406 1.31148C54.0387 1.95053 53.8581 2.53101 53.6775 3.1168C52.9762 2.51503 52.3387 1.89728 51.6269 1.38071C50.9256 0.869466 50.15 0.454082 49.4116 -0.00390625C49.3744 0.0386973 49.3372 0.0759754 49.2947 0.118579C49.4116 0.400827 49.5178 0.688401 49.6506 0.965324C50.4475 2.58958 52.105 4.13929 52.9178 5.75822C53.5712 7.05763 54.2884 7.87775 54.9525 9.17183C55.7281 10.6843 56.7694 12.234 57.5716 13.7304C58.8041 16.0363 60.3181 18.5233 61.5878 20.8026C63.0381 23.4014 63.9891 25.7872 65.4766 28.3701C66.47 30.0902 66.8844 32.4653 67.9097 34.1695C68.255 34.7393 68.3294 35.1334 68.6587 35.7138C68.8394 36.028 69.0253 36.0387 69.275 35.831C69.7744 35.4103 70.3162 35.0322 70.7519 34.5529C71.5912 33.6263 72.3137 32.6144 72.9247 31.5121C74.0084 29.5417 74.6353 27.4221 74.9966 25.2334C75.3366 23.1884 75.3365 21.1115 74.9859 19.0665C74.5981 16.8085 73.9234 14.6198 72.6166 12.6866C71.8728 11.5896 71.0175 10.5884 70.0028 9.73101C69.955 9.6884 69.8859 9.67243 69.8169 9.63515C69.4822 10.2316 69.1581 10.8174 68.8447 11.3766C68.34 10.5405 67.9256 9.731 67.3944 9.00674C66.7356 8.11207 66.0503 7.22272 65.0941 6.60497C64.6106 6.29609 64.6106 6.30142 64.3503 6.80201C64.1112 7.26532 63.8616 7.72864 63.6066 8.19728C63.1656 7.65941 62.7831 7.16414 62.3581 6.70083C61.5559 5.8168 60.7219 4.95408 59.6966 4.31503C59.3566 4.10201 59.2822 4.12864 59.1759 4.52272C59.075 4.89018 58.9741 5.25763 58.8519 5.61444C58.7934 5.78485 58.6872 5.93929 58.565 6.16828Z" fill="#88B64F"/>
<path d="M49.3842 0.160156C49.3842 0.160156 70.8839 35.3667 70.528 45.6022L71.5533 42.9448C71.5533 42.9448 70.427 30.5312 49.3789 0.160156H49.3842Z" fill="#A8C94B"/>
</g>
<defs>
<clipPath id="clip0_5877_314927">
<rect width="153" height="180" fill="white"/>
</clipPath>
</defs>
</svg>
