<svg width="40" height="40" viewBox="0 0 40 40" fill="none" xmlns="http://www.w3.org/2000/svg">
<rect x="0.5" y="0.5" width="39" height="39" rx="19.5" fill="white"/>
<rect x="0.5" y="0.5" width="39" height="39" rx="19.5" stroke="#4181DC" stroke-linecap="round" stroke-dasharray="5 5"/>
<path d="M23.193 20.4516C23.6202 20.4516 24.0416 20.455 24.463 20.4516C24.971 20.4469 25.4813 20.44 25.972 20.5969C27.033 20.9372 27.7453 21.6396 28.1194 22.6881C28.1529 22.7826 28.1425 22.8299 28.0374 22.8692C25.4051 23.8692 22.7739 24.875 20.1416 25.8727C20.0538 25.9062 19.9314 25.8969 19.8414 25.8635C18.2077 25.2475 16.5775 24.6247 14.9462 24.0041C13.959 23.6281 12.9708 23.2509 11.9813 22.8807C11.8636 22.8369 11.8405 22.7907 11.8832 22.6708C12.3612 21.3155 13.5665 20.455 15.0039 20.4527C15.55 20.4527 16.0961 20.4562 16.6422 20.4492C16.7669 20.4481 16.813 20.4827 16.8384 20.6084C17.0786 21.7642 17.7321 22.5923 18.8508 22.9937C20.5422 23.6027 22.5811 22.8392 23.111 20.823C23.1422 20.7042 23.1641 20.5819 23.1919 20.4527L23.193 20.4516ZM20.0042 24.1229C19.7433 24.1206 19.5366 24.3202 19.5343 24.5774C19.532 24.8485 19.7283 25.0526 19.9961 25.0572C20.2513 25.0618 20.4556 24.8646 20.4591 24.612C20.4637 24.3409 20.2628 24.1264 20.0053 24.1241L20.0042 24.1229Z" fill="url(#paint0_linear_5877_314993)"/>
<path d="M16.3185 12.1836H23.659C23.6648 12.1917 23.6752 12.1986 23.6752 12.2067C23.6694 12.9056 23.7133 13.6092 23.6463 14.3025C23.5008 15.8192 22.6961 16.8873 21.2691 17.4363C19.8964 17.9646 18.6356 17.6682 17.5492 16.7316C16.7098 16.0072 16.3277 15.036 16.3185 13.9253C16.3138 13.3982 16.3185 12.871 16.3185 12.3451C16.3185 12.2932 16.3185 12.2424 16.3185 12.1847V12.1836Z" fill="url(#paint1_linear_5877_314993)"/>
<path d="M15.4062 11.2448C15.4097 8.87105 17.3043 6.66221 20.0013 6.66798C22.7318 6.67375 24.5779 8.86528 24.594 11.2448H15.4062Z" fill="url(#paint2_linear_5877_314993)"/>
<path d="M15.8456 29.1972C15.5096 29.6078 15.1932 29.9965 14.8734 30.3841C14.437 30.9112 13.9994 31.4372 13.5596 31.9631C13.204 32.3888 12.8484 32.8155 12.4847 33.2342C12.4397 33.2861 12.3473 33.3253 12.2769 33.3253C11.1755 33.3311 10.0729 33.3357 8.97145 33.3277C7.78689 33.3196 6.82401 32.4533 6.682 31.2815C6.53191 30.0461 7.4567 28.8846 8.69436 28.7589C8.86523 28.7416 9.03841 28.7324 9.21044 28.7324C10.8349 28.7301 12.4593 28.7289 14.0826 28.7347C14.2708 28.7347 14.4636 28.7681 14.6448 28.8189C15.0397 28.9307 15.4276 29.0646 15.8456 29.1972Z" fill="url(#paint3_linear_5877_314993)"/>
<path d="M24.1711 29.195C24.4759 29.097 24.7726 29.0105 25.0624 28.9044C25.4318 28.7683 25.8082 28.7233 26.2019 28.7267C27.7929 28.7371 29.3838 28.7291 30.9748 28.7325C31.5382 28.7325 32.0508 28.8963 32.493 29.2527C33.1949 29.8191 33.4974 30.7949 33.2446 31.6611C32.986 32.5481 32.224 33.1975 31.3142 33.3013C31.1629 33.3186 31.0094 33.3278 30.8558 33.3278C29.8156 33.3301 28.7765 33.3278 27.7363 33.3313C27.637 33.3313 27.5689 33.3047 27.5031 33.2263C26.4155 31.9137 25.3256 30.6034 24.2357 29.2919C24.2149 29.2666 24.1988 29.2377 24.1699 29.1962L24.1711 29.195Z" fill="url(#paint4_linear_5877_314993)"/>
<path d="M32.6545 24.2422C32.8115 24.5651 32.9627 24.8731 33.1093 25.1834C33.1497 25.2687 33.0793 25.2872 33.0181 25.308C32.4282 25.5029 31.837 25.6978 31.2471 25.8939C29.2821 26.5468 27.317 27.2008 25.3532 27.8548C23.6294 28.4292 21.9057 29.0036 20.182 29.5814C20.0573 29.623 19.9465 29.623 19.8206 29.5814C15.5858 28.1593 11.351 26.7405 7.11498 25.3218C6.85751 25.2353 6.85751 25.2376 6.97989 24.9931C7.08265 24.7878 7.18771 24.5836 7.28585 24.376C7.32856 24.286 7.37128 24.2595 7.47404 24.2964C9.87778 25.158 12.2838 26.015 14.6887 26.8732C16.3513 27.466 18.0138 28.0566 19.6729 28.6564C19.898 28.7383 20.1012 28.7394 20.3252 28.6587C22.0073 28.052 23.6929 27.4522 25.3774 26.8513C27.7061 26.0208 30.0348 25.1903 32.3635 24.3587C32.4536 24.3264 32.5402 24.2883 32.6521 24.2422H32.6545Z" fill="url(#paint5_linear_5877_314993)"/>
<path d="M24.5056 33.3355H15.4922C15.5372 33.2755 15.5661 33.2351 15.5984 33.197C16.1757 32.5073 16.7541 31.8175 17.3302 31.1266C17.6096 30.7921 17.889 30.4588 18.1649 30.1208C18.2192 30.0539 18.2688 30.0401 18.3497 30.0689C18.7965 30.2235 19.2479 30.3677 19.6935 30.5257C19.906 30.6007 20.1069 30.6041 20.3205 30.528C20.7522 30.3734 21.1921 30.2408 21.6239 30.0851C21.7428 30.0424 21.8029 30.0712 21.8768 30.16C22.4032 30.799 22.9332 31.4357 23.4619 32.0724C23.7898 32.4658 24.1177 32.8591 24.4456 33.2524C24.4629 33.2732 24.4768 33.2962 24.5056 33.3366V33.3355Z" fill="url(#paint6_linear_5877_314993)"/>
<path d="M10.1289 24.2343C10.2698 23.9506 10.4025 23.676 10.548 23.4084C10.5619 23.3831 10.6588 23.3785 10.705 23.3969C11.4127 23.6622 12.1182 23.9321 12.8236 24.202C15.0888 25.0659 17.3551 25.9264 19.618 26.7961C19.8697 26.893 20.0983 26.9034 20.3512 26.8065C21.6673 26.2978 22.9858 25.7972 24.3043 25.2955C25.9045 24.6865 27.5047 24.0786 29.1048 23.4707C29.1314 23.4604 29.1591 23.4511 29.1857 23.4407C29.4339 23.3439 29.4327 23.345 29.554 23.5918C29.659 23.8052 29.7664 24.0163 29.8807 24.2458C29.6579 24.3266 29.4524 24.4016 29.2469 24.4754C26.4413 25.4766 23.6347 26.4777 20.8291 27.4789C20.6132 27.5562 20.4008 27.6485 20.1803 27.7085C20.0683 27.7385 19.9298 27.7454 19.8224 27.7073C17.5006 26.8849 15.1823 26.0533 12.8628 25.224C12.0027 24.916 11.1426 24.6103 10.2825 24.3024C10.234 24.2851 10.1878 24.2608 10.1289 24.2355V24.2343Z" fill="url(#paint7_linear_5877_314993)"/>
<path d="M22.2334 20.453C22.0752 21.4934 21.0015 22.3377 19.9243 22.2904C18.8795 22.2443 17.8254 21.3527 17.7734 20.453C17.897 20.453 18.0205 20.453 18.1429 20.453C18.4188 20.4507 18.5862 20.3111 18.6209 20.0412C18.6809 19.5718 18.7375 19.1012 18.7929 18.6317C18.8125 18.461 18.8194 18.4564 18.988 18.4876C19.6496 18.6087 20.3111 18.6087 20.9727 18.4922C21.1816 18.4553 21.1782 18.4529 21.2047 18.6709C21.2601 19.1312 21.3156 19.5914 21.3791 20.0516C21.4148 20.3123 21.588 20.4519 21.8536 20.453C21.9771 20.453 22.1018 20.453 22.2346 20.453H22.2334Z" fill="url(#paint8_linear_5877_314993)"/>
<path d="M13.6457 33.3281C13.6965 33.2612 13.7265 33.2197 13.7577 33.1816C14.7471 31.9947 15.7365 30.8078 16.7283 29.6232C16.7583 29.5875 16.8276 29.554 16.868 29.5644C16.9961 29.5956 17.1197 29.6486 17.2559 29.6959C17.2386 29.7317 17.2317 29.7594 17.2155 29.779C16.6059 30.5172 15.9986 31.2554 15.3856 31.9901C15.0404 32.4053 14.6905 32.8171 14.3338 33.2231C14.2853 33.2785 14.1929 33.3154 14.1167 33.3246C13.9724 33.3408 13.8246 33.3292 13.6445 33.3292L13.6457 33.3281Z" fill="url(#paint9_linear_5877_314993)"/>
<path d="M22.7277 29.6917C22.8732 29.6432 22.9875 29.5913 23.1076 29.5717C23.163 29.5625 23.2473 29.6005 23.2865 29.6455C23.5544 29.9454 23.8164 30.2511 24.0739 30.5602C24.6235 31.2177 25.1719 31.8763 25.718 32.5372C25.9246 32.7875 26.1244 33.0435 26.3472 33.3227C26.1382 33.3227 25.9512 33.3273 25.7641 33.3192C25.7318 33.3181 25.6983 33.2673 25.6718 33.235C24.7228 32.1 23.7749 30.9651 22.8259 29.8289C22.7935 29.7897 22.7658 29.747 22.7266 29.694L22.7277 29.6917Z" fill="url(#paint10_linear_5877_314993)"/>
<path d="M24.6113 12.184C25.1574 12.1298 25.4969 12.4343 25.513 12.8668C25.5292 13.3005 25.1343 13.5912 24.6113 13.5462V12.184Z" fill="url(#paint11_linear_5877_314993)"/>
<path d="M15.3913 12.1806V13.5509C15.0738 13.5694 14.7944 13.5083 14.6027 13.2395C14.4411 13.0111 14.4388 12.7643 14.5866 12.5267C14.769 12.2314 15.0518 12.1541 15.3901 12.1806H15.3913Z" fill="url(#paint12_linear_5877_314993)"/>
<defs>
<linearGradient id="paint0_linear_5877_314993" x1="19.9998" y1="20.4492" x2="19.9998" y2="25.8937" gradientUnits="userSpaceOnUse">
<stop stop-color="#3198A0"/>
<stop offset="1" stop-color="#51F909"/>
</linearGradient>
<linearGradient id="paint1_linear_5877_314993" x1="20.0002" y1="12.1836" x2="20.0002" y2="17.6966" gradientUnits="userSpaceOnUse">
<stop stop-color="#3198A0"/>
<stop offset="1" stop-color="#51F909"/>
</linearGradient>
<linearGradient id="paint2_linear_5877_314993" x1="20.0001" y1="6.66797" x2="20.0001" y2="11.2448" gradientUnits="userSpaceOnUse">
<stop stop-color="#3198A0"/>
<stop offset="1" stop-color="#51F909"/>
</linearGradient>
<linearGradient id="paint3_linear_5877_314993" x1="11.2558" y1="28.7305" x2="11.2558" y2="33.332" gradientUnits="userSpaceOnUse">
<stop stop-color="#3198A0"/>
<stop offset="1" stop-color="#51F909"/>
</linearGradient>
<linearGradient id="paint4_linear_5877_314993" x1="28.7514" y1="28.7266" x2="28.7514" y2="33.3313" gradientUnits="userSpaceOnUse">
<stop stop-color="#3198A0"/>
<stop offset="1" stop-color="#51F909"/>
</linearGradient>
<linearGradient id="paint5_linear_5877_314993" x1="20.0108" y1="24.2422" x2="20.0108" y2="29.6126" gradientUnits="userSpaceOnUse">
<stop stop-color="#3198A0"/>
<stop offset="1" stop-color="#51F909"/>
</linearGradient>
<linearGradient id="paint6_linear_5877_314993" x1="19.9989" y1="30.0547" x2="19.9989" y2="33.3366" gradientUnits="userSpaceOnUse">
<stop stop-color="#3198A0"/>
<stop offset="1" stop-color="#51F909"/>
</linearGradient>
<linearGradient id="paint7_linear_5877_314993" x1="20.0048" y1="23.3809" x2="20.0048" y2="27.7335" gradientUnits="userSpaceOnUse">
<stop stop-color="#3198A0"/>
<stop offset="1" stop-color="#51F909"/>
</linearGradient>
<linearGradient id="paint8_linear_5877_314993" x1="20.004" y1="18.4727" x2="20.004" y2="22.2923" gradientUnits="userSpaceOnUse">
<stop stop-color="#3198A0"/>
<stop offset="1" stop-color="#51F909"/>
</linearGradient>
<linearGradient id="paint9_linear_5877_314993" x1="15.4502" y1="29.5625" x2="15.4502" y2="33.3332" gradientUnits="userSpaceOnUse">
<stop stop-color="#3198A0"/>
<stop offset="1" stop-color="#51F909"/>
</linearGradient>
<linearGradient id="paint10_linear_5877_314993" x1="24.5369" y1="29.5703" x2="24.5369" y2="33.324" gradientUnits="userSpaceOnUse">
<stop stop-color="#3198A0"/>
<stop offset="1" stop-color="#51F909"/>
</linearGradient>
<linearGradient id="paint11_linear_5877_314993" x1="25.0624" y1="12.1777" x2="25.0624" y2="13.5508" gradientUnits="userSpaceOnUse">
<stop stop-color="#3198A0"/>
<stop offset="1" stop-color="#51F909"/>
</linearGradient>
<linearGradient id="paint12_linear_5877_314993" x1="14.9349" y1="12.1758" x2="14.9349" y2="13.554" gradientUnits="userSpaceOnUse">
<stop stop-color="#3198A0"/>
<stop offset="1" stop-color="#51F909"/>
</linearGradient>
</defs>
</svg>
