<svg width="36" height="28" viewBox="0 0 36 28" fill="none" xmlns="http://www.w3.org/2000/svg">
<mask id="path-1-inside-1_4629_32331" fill="white">
<path d="M28.2858 17.3571C28.2858 14.6292 27.2021 12.013 25.2732 10.084C23.3442 8.15508 20.728 7.07141 18.0001 7.07141C15.2721 7.07141 12.6559 8.15508 10.727 10.084C8.79803 12.013 7.71436 14.6292 7.71436 17.3571L18.0001 17.3571H28.2858Z"/>
</mask>
<path d="M28.2858 17.3571C28.2858 14.6292 27.2021 12.013 25.2732 10.084C23.3442 8.15508 20.728 7.07141 18.0001 7.07141C15.2721 7.07141 12.6559 8.15508 10.727 10.084C8.79803 12.013 7.71436 14.6292 7.71436 17.3571L18.0001 17.3571H28.2858Z" fill="#FFB93D" stroke="#F7BA2A" stroke-width="2" mask="url(#path-1-inside-1_4629_32331)"/>
<rect x="16.5715" y="0.5" width="1.57143" height="4.78572" rx="0.785714" fill="#FFB93D" stroke="#F7BA2A"/>
<rect x="-0.183013" y="0.683013" width="1.57143" height="4.78572" rx="0.785716" transform="matrix(0.499999 0.866026 -0.866025 0.500001 30.582 5)" fill="#FFB93D" stroke="#F7BA2A"/>
<rect x="0.183013" y="0.683013" width="1.57143" height="4.78572" rx="0.785716" transform="matrix(-0.499999 0.866026 0.866025 0.500001 4.18301 4.68301)" fill="#FFB93D" stroke="#F7BA2A"/>
<rect x="0.5" y="18.1428" width="1.57143" height="4.78571" rx="0.785717" transform="rotate(-90 0.5 18.1428)" fill="#FFB93D" stroke="#F7BA2A"/>
<rect x="30.7144" y="18.1428" width="1.57143" height="4.78571" rx="0.785717" transform="rotate(-90 30.7144 18.1428)" fill="#FFB93D" stroke="#F7BA2A"/>
</svg>
