<svg width="24" height="25" viewBox="0 0 24 25" fill="none" xmlns="http://www.w3.org/2000/svg">
<path d="M8.69336 0.750977C5.59063 9.50833 12.9597 18.6735 22.3857 17.2275L22.9746 17.1367C22.2228 18.6966 21.1367 20.0762 19.7881 21.1738C18.209 22.459 16.3251 23.3149 14.3184 23.6582C12.3115 24.0015 10.2495 23.821 8.33301 23.1338C6.41674 22.4466 4.71024 21.2764 3.37891 19.7363C2.04748 18.196 1.13603 16.3376 0.733398 14.3418C0.330774 12.346 0.44995 10.2798 1.08008 8.34375C1.71018 6.40778 2.82996 4.66747 4.33008 3.29102C5.58737 2.13741 7.0768 1.2726 8.69336 0.750977Z" fill="#FFB93D" stroke="#F7BA2A"/>
<path d="M16.1504 9.1803L16.2295 9.39514L16.4453 9.47522L18.0186 10.0573L16.4453 10.6403L16.2295 10.7194L16.1504 10.9352L15.5674 12.5084L14.9854 10.9352L14.9053 10.7194L14.6904 10.6403L13.1162 10.0573L14.6904 9.47522L14.9053 9.39514L14.9854 9.1803L15.5674 7.60608L16.1504 9.1803Z" fill="#FFB93D" stroke="#F7BA2A"/>
<path d="M21.637 3.6925L21.717 3.90833L21.9329 3.98743L22.5588 4.21887L21.9329 4.45129L21.717 4.53137L21.637 4.74719L21.4045 5.37317L21.1731 4.74719L21.094 4.53137L20.8782 4.45129L20.2512 4.21887L20.8782 3.98743L21.094 3.90833L21.1731 3.6925L21.4045 3.06555L21.637 3.6925Z" fill="#FFB93D" stroke="#F7BA2A"/>
</svg>
