<svg width="64" height="64" viewBox="0 0 64 64" fill="none" xmlns="http://www.w3.org/2000/svg">
<g clip-path="url(#clip0_417_3075)">
<path d="M51.2196 63C54.4076 63.0049 56.9976 60.4087 56.9976 57.1986C56.9976 49.99 56.9976 42.7813 56.9976 35.5702V35.2499H7V57.1258C7 60.3262 9.57548 62.9224 12.7562 62.9297L51.2196 63ZM40.7537 48.9903C39.5576 50.218 38.3374 51.4215 37.1293 52.6371C35.4653 54.3137 33.8014 55.9903 32.135 57.6669C32.1037 57.7009 32.0651 57.7276 31.9687 57.8101C31.7444 57.5723 31.5418 57.3442 31.3272 57.1283C28.6553 54.4375 25.9785 51.7491 23.309 49.0558C22.3444 48.0804 21.809 46.9158 21.8814 45.5134C21.9875 43.4316 23.6369 41.6142 25.6915 41.3109C27.2638 41.0804 28.5877 41.5754 29.7018 42.6915C30.1841 43.1792 30.6544 43.6766 31.1536 44.1473C31.713 44.6739 32.3231 44.652 32.8681 44.1061C33.3625 43.616 33.84 43.1064 34.3416 42.6236C35.6848 41.3328 37.2571 40.9082 39.0247 41.5002C40.8164 42.1019 41.8172 43.4388 42.0849 45.2829C42.2923 46.7217 41.7521 47.964 40.7537 48.9903Z" fill="url(#paint0_linear_417_3075)"/>
<path d="M31.9733 56.5678C31.7828 56.3639 31.6091 56.1698 31.4283 55.9879C29.1566 53.6998 26.8826 51.4166 24.6158 49.1262C23.7959 48.2964 23.3425 47.3088 23.4028 46.1151C23.492 44.3463 24.8955 42.8007 26.6414 42.5459C27.9774 42.3494 29.1036 42.7691 30.0489 43.7203C30.4588 44.1328 30.8592 44.5574 31.2836 44.9553C31.7586 45.4042 32.2795 45.3847 32.7425 44.9213C33.1621 44.504 33.5673 44.0721 33.9941 43.6596C35.1347 42.5629 36.4707 42.2014 37.9731 42.7061C39.4947 43.2156 40.346 44.3535 40.5727 45.9185C40.7487 47.1414 40.2905 48.1969 39.4417 49.0704C38.4264 50.1137 37.3895 51.1352 36.3622 52.1688C34.9466 53.5931 33.5335 55.0198 32.118 56.444C32.089 56.4731 32.0577 56.495 31.9757 56.5653L31.9733 56.5678Z" fill="url(#paint1_linear_417_3075)"/>
<path d="M56.5876 33.2676H7.42676C7.50151 33.105 7.56904 32.9449 7.64862 32.7872C8.70967 30.6496 9.77315 28.5144 10.8366 26.3768C10.9861 26.0759 11.1356 25.7726 11.2852 25.4718C12.4282 25.3505 13.5809 25.3844 14.7312 25.4038C15.1604 25.4111 15.3413 25.3116 15.2014 24.8555C15.0447 24.3314 14.8928 23.8024 14.777 23.2687C14.6926 22.8829 14.6395 22.4825 14.6323 22.0895C14.6323 22.0482 14.6275 21.8953 14.6251 21.6891C15.5294 21.6915 16.4313 21.6915 17.3332 21.6915C18.3219 21.6915 19.3106 21.6891 20.2993 21.6867C20.5043 21.6867 20.6225 21.7206 20.6683 21.9609C21.0541 23.9917 21.9295 25.7872 23.2727 27.3522C23.2944 27.3789 23.3041 27.4177 23.3426 27.4929H19.5349C18.9296 27.4953 18.5341 27.8739 18.5317 28.4513C18.5293 29.0264 18.9224 29.4291 19.518 29.4291C21.9512 29.4316 24.3844 29.4291 26.82 29.4291H44.4264C45.063 29.4291 45.4609 29.0603 45.4633 28.478C45.4657 27.8884 45.0799 27.4953 44.4891 27.4929C43.3267 27.4905 42.1644 27.4929 41.0045 27.4929H40.6524C40.7344 27.374 40.7826 27.2915 40.8405 27.2187C42.0993 25.695 42.9505 23.9771 43.3074 22.0215C43.3508 21.7716 43.4594 21.6818 43.727 21.6843C44.6772 21.6915 45.6273 21.694 46.5774 21.694C47.4769 21.694 48.3788 21.6915 49.2783 21.6915C49.1963 23.834 48.5669 25.3771 48.579 25.4427C49.9825 25.3383 51.3691 25.3602 52.7436 25.5082C52.8835 25.7872 53.0234 26.0638 53.1632 26.3428C53.8794 27.7744 54.5957 29.2035 55.3119 30.635C55.717 31.4454 56.1101 32.2583 56.508 33.0711C56.5345 33.122 56.5514 33.1803 56.5876 33.2676Z" fill="url(#paint2_linear_417_3075)"/>
<path d="M32.0219 27.8811C30.5123 27.8811 29.0027 27.8884 27.4931 27.8714C27.2881 27.8714 27.0445 27.7937 26.8902 27.6651C25.084 26.1827 24.0663 24.2634 23.8541 21.9268C23.4996 17.9768 26.1812 14.1359 30.3073 13.226C34.7806 12.2385 39.3384 15.3369 40.0425 19.8669C40.5345 23.0381 39.4903 25.6294 37.0836 27.6918C36.9558 27.801 36.7508 27.869 36.5796 27.8714C35.0604 27.8859 33.5435 27.8787 32.0243 27.8787L32.0219 27.8811ZM29.538 23.0066C29.5453 23.982 30.1409 24.8409 31.0549 25.217C31.1151 25.2412 31.1658 25.3553 31.1706 25.4305C31.2044 25.9109 31.5227 26.236 31.9857 26.2433C32.4463 26.2506 32.767 25.9376 32.8225 25.4523C32.8321 25.365 32.9093 25.2437 32.9865 25.2097C33.98 24.7632 34.5612 23.7806 34.4454 22.7033C34.3224 21.5483 33.558 20.7064 32.4487 20.5026C32.2317 20.4638 32.005 20.4638 31.7928 20.408C31.2212 20.2624 31.0066 19.5539 31.3997 19.1196C31.6216 18.8745 31.8989 18.7629 32.2293 18.8745C32.6199 19.0055 32.7743 19.3137 32.8152 19.6995C32.8683 20.1896 33.1963 20.4832 33.6665 20.4638C34.115 20.4468 34.4454 20.095 34.4575 19.6218C34.4816 18.6974 33.886 17.756 33.0299 17.3969C32.8779 17.3338 32.8201 17.2561 32.8128 17.0984C32.7911 16.6641 32.4583 16.3438 32.0387 16.3341C31.5902 16.322 31.2309 16.6083 31.1827 17.045C31.161 17.2392 31.0814 17.3338 30.9078 17.4211C30.1095 17.8215 29.6345 18.4766 29.5477 19.3719C29.4512 20.3473 29.8129 21.1237 30.6208 21.6963C31.0838 22.0239 31.6071 22.0918 32.1424 22.1622C32.509 22.2107 32.7887 22.5431 32.808 22.9047C32.8273 23.2516 32.5548 23.6132 32.2051 23.7078C31.6939 23.8485 31.255 23.4967 31.1803 22.8877C31.1151 22.3587 30.7872 22.0797 30.2615 22.1112C29.8322 22.1355 29.5332 22.5043 29.538 23.0041V23.0066Z" fill="url(#paint3_linear_417_3075)"/>
<path d="M55.8353 26.0565C54.9431 26.1414 54.0532 26.2336 53.1634 26.3428C50.5638 26.6558 47.969 27.1047 45.3574 27.8763C45.4442 27.6166 45.4852 27.4783 45.5358 27.3449C46.3798 25.8867 46.8694 23.5646 46.5776 21.6939C46.5342 21.4101 46.4715 21.1359 46.3895 20.8763C45.9916 19.3113 45.0583 18.0447 44.1154 16.7782C42.9362 15.1889 41.47 13.9005 39.9098 12.7189C37.7877 11.1127 35.6221 9.56222 33.4783 7.98267C33.0635 7.67695 32.6777 7.32756 32.2509 7.03882C32.1207 6.95147 31.8385 6.92236 31.7252 7.00485C29.4391 8.66205 27.1554 10.3217 24.8982 12.0177C22.9859 13.4565 21.1773 15.0166 19.6532 16.8825C19.5399 17.0232 19.0455 17.6783 18.9201 17.8894C18.2135 19.088 17.6468 20.3352 17.3333 21.6915C17.2875 21.888 17.2465 22.087 17.2128 22.2884C16.9644 23.749 17.4274 25.0544 17.9073 26.3671C18.0857 26.8596 18.3462 27.3206 18.609 27.8835C16.0335 27.1387 13.4436 26.6728 10.8368 26.3768C9.94693 26.2749 9.05708 26.1948 8.16242 26.1293C8.1576 26.0832 8.15277 26.0395 8.14795 25.9934C8.77012 25.8891 9.39952 25.8163 10.012 25.6756C10.4365 25.5785 10.8609 25.513 11.2853 25.4718C12.4284 25.3504 13.5811 25.3844 14.7313 25.4038C15.1606 25.4111 15.3414 25.3116 15.2016 24.8555C15.0448 24.3314 14.8929 23.8024 14.7772 23.2686C14.6928 22.8828 14.6397 22.4825 14.6325 22.0894C14.6325 22.0482 14.6276 21.8953 14.6252 21.6891C14.618 21.1601 14.6108 20.2867 14.6397 20.0707C15.0304 17.0062 16.5617 14.5459 18.8526 12.6024C21.1146 10.6832 23.5164 8.92652 25.8652 7.10919C27.5919 5.77227 29.2968 4.40381 30.5508 2.58648C31.1126 1.77123 31.5419 0.863778 32.029 0C32.1737 0.312998 32.3377 0.70364 32.5258 1.07972C33.4156 2.8364 34.6141 4.34558 36.1696 5.55147C38.4798 7.34211 40.8334 9.07695 43.1171 10.9016C44.9233 12.3452 46.6475 13.8981 47.8533 15.9144C49.0687 17.921 49.346 19.9931 49.2785 21.6915C49.1965 23.834 48.5671 25.3771 48.5791 25.4426C49.9826 25.3383 51.3692 25.3601 52.7438 25.5081C53.7807 25.6198 54.8104 25.8042 55.8353 26.0565Z" fill="url(#paint4_linear_417_3075)"/>
</g>
<defs>
<linearGradient id="paint0_linear_417_3075" x1="31.9988" y1="35.2499" x2="31.9988" y2="63" gradientUnits="userSpaceOnUse">
<stop stop-color="#3096A3"/>
<stop offset="1" stop-color="#64A445"/>
</linearGradient>
<linearGradient id="paint1_linear_417_3075" x1="32.0037" y1="42.4822" x2="32.0037" y2="56.5678" gradientUnits="userSpaceOnUse">
<stop stop-color="#3096A3"/>
<stop offset="1" stop-color="#64A445"/>
</linearGradient>
<linearGradient id="paint2_linear_417_3075" x1="32.0072" y1="21.6842" x2="32.0072" y2="33.2676" gradientUnits="userSpaceOnUse">
<stop stop-color="#3096A3"/>
<stop offset="1" stop-color="#64A445"/>
</linearGradient>
<linearGradient id="paint3_linear_417_3075" x1="31.9921" y1="13.042" x2="31.9921" y2="27.8826" gradientUnits="userSpaceOnUse">
<stop stop-color="#3096A3"/>
<stop offset="1" stop-color="#64A445"/>
</linearGradient>
<linearGradient id="paint4_linear_417_3075" x1="31.9916" y1="0" x2="31.9916" y2="27.8835" gradientUnits="userSpaceOnUse">
<stop stop-color="#3096A3"/>
<stop offset="1" stop-color="#64A445"/>
</linearGradient>
<clipPath id="clip0_417_3075">
<rect width="50" height="63" fill="white" transform="translate(7)"/>
</clipPath>
</defs>
</svg>
