<svg width="50" height="50" viewBox="0 0 50 50" fill="none" xmlns="http://www.w3.org/2000/svg">
<g clip-path="url(#clip0_5791_140281)">
<path d="M42.0003 25.0015C42.0003 30.3903 42.0003 35.7807 42.0003 41.1695C42.0003 41.7659 41.9843 42.3605 41.7501 42.9255C41.2197 44.2005 40.033 44.9806 38.5802 44.9963C38.0799 45.0015 37.5797 44.9963 37.0777 44.9963C28.9567 44.9963 20.8358 44.9963 12.7148 44.9963C12.1365 44.9963 11.5689 44.9456 11.0314 44.7147C9.75951 44.1708 9.13154 43.1773 9.0322 41.8481C8.98253 41.1764 9.00737 40.4978 9.00737 39.8227C9.00737 29.6172 9.00559 19.4117 9.01092 9.20793C9.01092 8.67973 8.9985 8.13754 9.10316 7.62507C9.42601 6.04396 10.6145 5.10124 12.3193 5.01029C12.6279 4.99455 12.9383 5.00155 13.247 5.00155C21.5453 5.00155 29.8419 4.9998 38.1402 5.0068C38.5784 5.0068 39.029 5.02778 39.4529 5.12573C40.904 5.45629 41.9045 6.67011 41.9737 8.13754C41.9914 8.52232 41.9985 8.9071 41.9985 9.29189C41.9985 14.5284 41.9985 19.765 41.9985 25.0033L42.0003 25.0015Z" fill="#F7BA2A"/>
<path d="M28.5662 26.3989C26.9981 26.3989 25.43 26.3989 23.8618 26.3989C23.1008 26.3989 22.5137 25.8741 22.4285 25.1291C22.3487 24.4295 22.8294 23.7858 23.5549 23.6302C23.6472 23.6109 23.7447 23.6074 23.8388 23.6074C26.9892 23.6074 30.1415 23.6074 33.2919 23.6074C34.0671 23.6074 34.6933 24.2388 34.6986 25.0189C34.7039 25.7675 34.0813 26.3954 33.3132 26.3989C31.7309 26.4041 30.1468 26.3989 28.5645 26.3989H28.5662Z" fill="white"/>
<path d="M20.0781 25.0585C20.0816 26.0414 19.2408 26.8617 18.2261 26.867C17.1493 26.8722 16.305 26.0572 16.2996 25.0113C16.2943 23.9723 17.1352 23.1328 18.1818 23.1328C19.2674 23.1328 20.0745 23.9514 20.0781 25.0585Z" fill="white"/>
<path d="M28.5662 33.3735C26.9981 33.3735 25.43 33.3735 23.8618 33.3735C23.1008 33.3735 22.5137 32.8488 22.4285 32.1037C22.3487 31.4041 22.8294 30.7604 23.5549 30.6048C23.6472 30.5855 23.7447 30.582 23.8388 30.582C26.9892 30.582 30.1415 30.582 33.2919 30.582C34.0671 30.582 34.6933 31.2134 34.6986 31.9935C34.7039 32.7421 34.0813 33.37 33.3132 33.3735C31.7309 33.3787 30.1468 33.3735 28.5645 33.3735H28.5662Z" fill="white"/>
<path d="M20.0781 32.0331C20.0816 33.016 19.2408 33.8363 18.2261 33.8416C17.1493 33.8468 16.305 33.0318 16.2996 31.9859C16.2943 30.9469 17.1352 30.1074 18.1818 30.1074C19.2674 30.1074 20.0745 30.926 20.0781 32.0331Z" fill="white"/>
<path d="M28.5662 40.3461C26.9981 40.3461 25.43 40.3461 23.8618 40.3461C23.1008 40.3461 22.5137 39.8214 22.4285 39.0763C22.3487 38.3767 22.8294 37.7331 23.5549 37.5774C23.6472 37.5582 23.7447 37.5547 23.8388 37.5547C26.9892 37.5547 30.1415 37.5547 33.2919 37.5547C34.0671 37.5547 34.6933 38.1861 34.6986 38.9661C34.7039 39.7147 34.0813 40.3426 33.3132 40.3461C31.7309 40.3514 30.1468 40.3461 28.5645 40.3461H28.5662Z" fill="white"/>
<path d="M20.0781 39.0057C20.0816 39.9887 19.2408 40.809 18.2261 40.8142C17.1493 40.8195 16.305 40.0044 16.2996 38.9585C16.2943 37.9196 17.1352 37.0801 18.1818 37.0801C19.2674 37.0801 20.0745 37.8986 20.0781 39.0057Z" fill="white"/>
<path d="M28.5662 19.4242C26.9981 19.4242 25.43 19.4242 23.8618 19.4242C23.1008 19.4242 22.5137 18.8995 22.4285 18.1545C22.3487 17.4548 22.8294 16.8112 23.5549 16.6555C23.6472 16.6363 23.7447 16.6328 23.8388 16.6328C26.9892 16.6328 30.1415 16.6328 33.2919 16.6328C34.0671 16.6328 34.6933 17.2642 34.6986 18.0443C34.7039 18.7928 34.0813 19.4207 33.3132 19.4242C31.7309 19.4295 30.1468 19.4242 28.5645 19.4242H28.5662Z" fill="white"/>
<path d="M20.0781 18.0839C20.0816 19.0668 19.2408 19.8871 18.2261 19.8924C17.1493 19.8976 16.305 19.0826 16.2996 18.0366C16.2943 16.9977 17.1352 16.1582 18.1818 16.1582C19.2674 16.1582 20.0745 16.9767 20.0781 18.0839Z" fill="white"/>
<path d="M28.5662 12.4516C26.9981 12.4516 25.43 12.4516 23.8618 12.4516C23.1008 12.4516 22.5137 11.9269 22.4285 11.1818C22.3487 10.4822 22.8294 9.83856 23.5549 9.68289C23.6472 9.66365 23.7447 9.66016 23.8388 9.66016C26.9892 9.66016 30.1415 9.66016 33.2919 9.66016C34.0671 9.66016 34.6933 10.2916 34.6986 11.0716C34.7039 11.8202 34.0813 12.4481 33.3132 12.4516C31.7309 12.4568 30.1468 12.4516 28.5645 12.4516H28.5662Z" fill="white"/>
<path d="M20.0781 11.1112C20.0816 12.0942 19.2408 12.9144 18.2261 12.9197C17.1493 12.9249 16.305 12.1099 16.2996 11.064C16.2943 10.0251 17.1352 9.18555 18.1818 9.18555C19.2674 9.18555 20.0745 10.0041 20.0781 11.1112Z" fill="white"/>
</g>
<defs>
<clipPath id="clip0_5791_140281">
<rect width="33" height="40" fill="white" transform="translate(9.00006 5)"/>
</clipPath>
</defs>
</svg>
