<svg width="50" height="50" viewBox="0 0 50 50" fill="none" xmlns="http://www.w3.org/2000/svg">
<g clip-path="url(#clip0_5791_140284)">
<path d="M38.2288 5H11.7712C9.6884 5 8 6.68913 8 8.77279V41.2272C8 43.3109 9.6884 45 11.7712 45H38.2288C40.3116 45 42 43.3109 42 41.2272V8.77279C42 6.68913 40.3116 5 38.2288 5Z" fill="#F7BA2A"/>
<path d="M25.4258 25.291C28.37 25.291 31.3142 25.291 34.2585 25.2948C34.4854 25.2948 34.7238 25.3083 34.9392 25.3756C35.6219 25.5873 35.8296 26.2626 35.7835 26.7147C35.7142 27.4015 35.2719 27.8305 34.6104 27.8921C34.4604 27.9056 34.3085 27.9056 34.1565 27.9056C28.3181 27.9056 22.4815 27.9075 16.6431 27.9056C16.4565 27.9056 16.2661 27.9114 16.0815 27.8806C15.3911 27.769 14.9488 27.1764 15.0046 26.4607C15.0565 25.8085 15.6027 25.3025 16.2892 25.3006C19.2911 25.2948 22.2931 25.2968 25.295 25.2968C25.3392 25.2968 25.3815 25.2968 25.4258 25.2968C25.4258 25.2948 25.4258 25.291 25.4258 25.2891V25.291Z" fill="white"/>
<path d="M25.4258 10.0019C28.37 10.0019 31.3142 10.0019 34.2585 10.0058C34.4854 10.0058 34.7238 10.0192 34.9392 10.0866C35.6219 10.2982 35.8296 10.9735 35.7835 11.4256C35.7142 12.1125 35.2719 12.5415 34.6104 12.603C34.4604 12.6165 34.3085 12.6165 34.1565 12.6165C28.3181 12.6165 22.4815 12.6184 16.6431 12.6165C16.4565 12.6165 16.2661 12.6223 16.0815 12.5915C15.3911 12.4799 14.9488 11.8874 15.0046 11.1717C15.0565 10.5195 15.6027 10.0135 16.2892 10.0115C19.2911 10.0058 22.2931 10.0077 25.295 10.0077C25.3392 10.0077 25.3815 10.0077 25.4258 10.0077C25.4258 10.0058 25.4258 10.0019 25.4258 10V10.0019Z" fill="white"/>
<path d="M25.4104 30.4902C28.3623 30.4902 31.3123 30.4902 34.2642 30.4902C34.4219 30.4902 34.5854 30.4844 34.7392 30.5152C35.4469 30.6518 35.795 31.1982 35.7873 31.8562C35.7796 32.5372 35.2854 33.0336 34.6046 33.0913C34.4469 33.1048 34.2873 33.1048 34.1296 33.1048C28.3142 33.1048 22.4969 33.1067 16.6815 33.1048C16.4796 33.1048 16.2738 33.1106 16.0777 33.0779C15.3873 32.9624 14.9488 32.3679 15.0085 31.6522C15.0623 31.0097 15.6046 30.5018 16.2777 30.4998C18.8258 30.4921 21.3719 30.496 23.92 30.496C24.4181 30.496 24.9161 30.496 25.4142 30.496C25.4142 30.4941 25.4142 30.4902 25.4142 30.4883L25.4104 30.4902Z" fill="white"/>
<path d="M25.4104 15.2031C28.3623 15.2031 31.3123 15.2031 34.2642 15.2031C34.4219 15.2031 34.5854 15.1973 34.7392 15.2281C35.4469 15.3647 35.795 15.9111 35.7873 16.5691C35.7796 17.2501 35.2854 17.7465 34.6046 17.8042C34.4469 17.8177 34.2873 17.8177 34.1296 17.8177C28.3142 17.8177 22.4969 17.8196 16.6815 17.8177C16.4796 17.8177 16.2738 17.8235 16.0777 17.7908C15.3873 17.6753 14.9488 17.0808 15.0085 16.3651C15.0623 15.7226 15.6046 15.2146 16.2777 15.2127C18.8258 15.205 21.3719 15.2089 23.92 15.2089C24.4181 15.2089 24.9161 15.2089 25.4142 15.2089C25.4142 15.2069 25.4142 15.2031 25.4142 15.2012L25.4104 15.2031Z" fill="white"/>
<path d="M25.395 20.0898C26.6065 20.0898 27.8181 20.0898 29.0315 20.0898C29.2046 20.0898 29.3815 20.0821 29.5488 20.1148C30.2565 20.2514 30.6027 20.8094 30.5911 21.4596C30.5796 22.1388 30.0834 22.6332 29.4046 22.6909C29.2546 22.7044 29.1027 22.7044 28.9508 22.7044C26.5911 22.7044 24.2334 22.7063 21.8738 22.7044C21.6719 22.7044 21.4661 22.7102 21.27 22.6775C20.5873 22.5601 20.1546 21.9791 20.2046 21.2692C20.2508 20.617 20.795 20.1052 21.4796 20.0994C22.7854 20.0917 24.0911 20.0975 25.3969 20.0975C25.3969 20.0937 25.3969 20.0917 25.3969 20.0879L25.395 20.0898Z" fill="white"/>
<path d="M18.8988 38.2959C19.7719 38.2959 20.645 38.2882 21.5161 38.2978C22.1315 38.3036 22.5642 38.646 22.7373 39.2386C22.9796 40.064 22.445 40.8393 21.5853 40.8951C21.2757 40.9143 20.9661 40.9066 20.6546 40.9066C19.3411 40.9086 18.0296 40.9105 16.7161 40.9086C16.493 40.9086 16.2661 40.9143 16.0488 40.8758C15.368 40.7508 14.943 40.1582 15.0065 39.4522C15.0623 38.8173 15.6007 38.3151 16.2584 38.3074C17.1392 38.2959 18.018 38.3055 18.8988 38.3055C18.8988 38.3036 18.8988 38.3017 18.8988 38.2997V38.2959Z" fill="white"/>
<path d="M31.8988 38.2959C32.7719 38.2959 33.645 38.2882 34.5161 38.2978C35.1431 38.3055 35.5911 38.6749 35.7469 39.2848C35.9527 40.0909 35.4257 40.8277 34.595 40.8951C34.4661 40.9047 34.3354 40.9066 34.2065 40.9066C32.67 40.9066 31.1334 40.9086 29.5969 40.9066C29.4238 40.9066 29.2488 40.9105 29.0796 40.8835C28.3911 40.772 27.9469 40.1813 28.0007 39.4656C28.0488 38.8211 28.5911 38.3113 29.2604 38.3036C30.1411 38.294 31.02 38.3017 31.9007 38.3017C31.9007 38.2997 31.9007 38.2978 31.9007 38.2959H31.8988Z" fill="white"/>
</g>
<defs>
<clipPath id="clip0_5791_140284">
<rect width="34" height="40" fill="white" transform="translate(8 5)"/>
</clipPath>
</defs>
</svg>
