<svg width="433" height="60" viewBox="0 0 433 60" fill="none" xmlns="http://www.w3.org/2000/svg">
<g clip-path="url(#clip0_1882_36086)">
<path d="M433.001 41.8859C433.001 43.0113 432.877 44.1677 432.628 45.3396C432.201 47.5204 431.836 48.6069 431.541 48.6069C431.362 48.6069 431.253 48.1568 431.199 47.2565C431.075 45.3318 431.012 44.253 431.012 44.028C430.539 39.3171 429.335 31.4164 427.401 20.326C426.849 17.2449 426.119 12.6349 425.218 6.5037C424.767 6.10013 424.581 5.80521 424.651 5.60343C424.853 5.0524 425.164 4.2375 425.591 3.15873C425.94 2.25846 426.158 1.80832 426.228 1.80832C426.375 1.80832 427.129 3.25962 428.48 6.16222C429.987 9.39078 430.64 11.0827 430.438 11.2301C430.236 11.3543 429.847 11.106 429.273 10.4773C429.094 10.2755 428.659 9.82539 427.96 9.12691C428.838 13.7602 430.111 21.1331 431.797 31.2534C432.597 36.5386 433.001 40.0776 433.001 41.8859Z" fill="white"/>
<path d="M312.613 45.3085C312.963 45.3085 313.141 45.6577 313.141 46.364C313.141 48.1645 312.667 49.0648 311.712 49.0648C306.702 49.0648 303.789 45.0602 302.989 37.0431C301.312 19.969 299.471 9.39853 297.467 5.33954C297.42 5.21537 297.583 4.52464 297.956 3.27513C298.329 2.02561 298.554 1.39697 298.632 1.39697C298.756 1.39697 299.067 2.02561 299.572 3.27513C300.17 4.74971 300.651 6.20877 301.001 7.62903C302.057 11.9829 302.943 17.2216 303.673 23.3295C304.652 31.7967 305.164 36.1738 305.211 36.4765C306.135 42.3593 308.605 45.3007 312.613 45.3007V45.3085Z" fill="white"/>
<path d="M340.094 46.5813C340.444 46.5813 340.623 46.9305 340.623 47.6368C340.623 49.4373 340.149 50.3376 339.193 50.3376C337.438 50.3376 336.094 49.8099 335.154 48.7621C334.214 47.7066 333.748 46.3485 333.748 44.6643C333.748 43.7641 333.888 42.825 334.16 41.8471C330.999 42.3516 327.48 43.4847 323.596 45.2619C318.136 47.792 314.175 49.0571 311.72 49.0571C311.371 49.0571 311.192 48.7078 311.192 48.0093C311.192 46.2088 311.666 45.3007 312.621 45.3007C315.503 45.3007 319.853 43.8883 325.663 41.0555C323.511 40.683 320.699 40.2251 317.243 39.7051C317.095 39.6818 316.792 39.7905 316.342 40.0466C316.217 40.1242 316.039 40.1475 315.814 40.1242C314.237 39.8758 311.844 39.6352 308.637 39.4102C308.388 39.3869 308.264 39.2627 308.264 39.0376C308.264 38.7893 308.489 38.2771 308.939 37.501C309.468 36.6007 310.027 35.9255 310.633 35.4754C311.083 35.1727 311.899 35.0019 313.079 34.9476C314.229 34.9011 315.285 35.0097 316.241 35.2891C322.734 37.1207 329.197 38.0287 335.636 38.0287C336.964 38.0287 338.269 37.9899 339.543 37.9123C339.916 37.8657 340.11 37.9123 340.11 38.0598C340.11 38.2848 339.644 39.3869 338.72 41.3659C338.619 41.6143 338.479 41.7385 338.308 41.7385C336.778 41.591 335.675 41.5988 334.999 41.7773C335.302 44.9825 337.003 46.5891 340.11 46.5891L340.094 46.5813Z" fill="white"/>
<path d="M355.094 46.5813C355.444 46.5813 355.622 46.9305 355.622 47.6368C355.622 49.4373 355.148 50.3376 354.193 50.3376C350.107 50.3376 347.591 47.5825 346.635 42.0722C346.589 44.4237 346.2 46.1156 345.47 47.1401C343.94 49.2666 341.851 50.3298 339.194 50.3298C338.845 50.3298 338.666 49.9806 338.666 49.2743C338.666 47.4738 339.14 46.5735 340.095 46.5735C341.322 46.5735 342.48 46.2709 343.552 45.6733C344.802 44.9748 345.393 44.1211 345.315 43.1199C345.09 39.7361 344.212 33.7136 342.682 25.0524L339.676 7.73768C339.652 7.53589 339.854 6.70547 340.274 5.23865C340.701 3.77183 340.965 3.0423 341.066 3.0423C341.291 3.0423 342.557 9.63135 344.864 22.8017L346.705 33.5817C348.111 42.2429 350.9 46.5813 355.086 46.5813H355.094Z" fill="white"/>
<path d="M375.211 41.7385C375.312 41.0089 374.714 40.2561 373.424 39.4645C372.135 38.6729 370.752 38.2538 369.269 38.2072C365.408 38.1607 361.175 40.9236 356.561 46.5115C359.995 46.5115 364.018 45.8751 368.632 44.5945C372.943 43.345 375.133 42.3904 375.211 41.7385ZM377.58 39.8991C377.533 41.4746 376.624 43.1898 374.877 45.0446C372.772 47.2953 368.508 48.9174 362.092 49.8875C360.033 50.1902 357.392 50.3376 354.161 50.3376C353.812 50.3376 353.633 49.9729 353.633 49.2511C353.633 47.4738 354.122 46.5813 355.101 46.5813C355.202 46.4339 356.126 45.2076 357.882 42.9026C358.231 42.274 358.41 41.0633 358.41 39.2627C358.41 35.9333 357.773 30.2445 356.491 22.2119C355.715 17.4311 354.961 12.6349 354.239 7.82307C353.936 7.45054 353.687 7.03145 353.485 6.58131C353.439 6.53475 353.718 5.92163 354.332 4.74196C354.946 3.5623 355.303 2.98022 355.404 2.98022C355.451 2.98022 356.282 4.77301 357.882 8.35081C358.682 10.3066 358.985 11.3543 358.783 11.5095C358.48 11.657 357.866 11.0982 356.942 9.81763C357.47 13.1005 358.224 17.9666 359.194 24.4315C359.847 29.0415 360.173 32.6814 360.173 35.359C360.173 38.0365 359.87 39.9069 359.272 41.1797C363.358 36.7249 367.078 34.4975 370.434 34.4975C372.842 34.4975 374.706 35.1339 376.034 36.4145C377.059 37.4932 377.572 38.6574 377.572 39.9069L377.58 39.8991Z" fill="white"/>
<path d="M400.842 42.6387C400.842 42.1343 400.182 41.2728 398.854 40.0466C397.246 38.5409 395.63 37.7959 394.007 37.7959C390.822 37.7959 387.568 40.3104 384.236 45.3473C385.564 45.9449 387.156 46.2476 389.013 46.2476C392.042 46.2476 394.893 45.7121 397.549 44.6333C399.755 43.7796 400.858 43.1199 400.858 42.6387H400.842ZM402.761 40.5743C402.761 42.0023 402.124 43.5933 400.842 45.3473C399.763 46.7753 397.759 47.9783 394.83 48.9562C392.376 49.7788 390.116 50.1979 388.065 50.1979C385.711 50.1979 383.816 49.709 382.387 48.7311C381.758 50.1591 381.323 50.8188 381.074 50.7257C380.725 50.6248 380.872 49.74 381.525 48.0559C380.973 47.5281 380.507 46.8762 380.135 46.1001C379.832 45.5491 379.684 45.2775 379.684 45.2775L377.393 46.5192C375.637 47.4738 373.882 48.1878 372.126 48.6612C368.794 49.4917 365.439 49.903 362.052 49.903C361.749 49.903 361.602 49.5615 361.602 48.8863C361.602 48.2577 361.726 47.6445 361.974 47.0237C362.223 46.4106 362.565 46.1001 362.992 46.1001C367.349 46.1001 371.326 45.5646 374.907 44.4858C375.987 44.1832 377.377 43.57 379.078 42.6465C380.507 41.8161 381.346 41.4047 381.595 41.4047H381.742C381.843 41.5056 381.867 41.6686 381.82 41.8937C381.672 42.142 381.595 42.2972 381.595 42.3438C381.595 43.2674 382.107 44.059 383.133 44.7109C387.141 37.6019 391.125 34.0396 395.087 34.0396C396.92 34.0396 398.683 34.8312 400.384 36.4067C401.961 37.9123 402.753 39.3015 402.753 40.5743H402.761Z" fill="white"/>
<path d="M414.49 46.5813C414.591 46.5813 414.63 46.4338 414.599 46.1312C414.599 45.8285 414.552 45.6034 414.451 45.456C413.224 45.2309 412.199 44.6954 411.367 43.8417C411.445 44.5402 411.841 45.1766 412.571 45.7353C413.301 46.3019 413.938 46.5813 414.49 46.5813ZM417.418 41.9247C417.768 41.9247 417.946 42.274 417.946 42.9802C417.946 44.7807 417.473 45.681 416.517 45.681C416.339 45.681 416.175 45.6655 416.028 45.6422C416.074 46.0924 416.106 46.558 416.106 47.0314C416.106 49.5615 415.678 50.8265 414.824 50.8265C413.969 50.8265 413.084 50.454 412.152 49.7012C410.676 48.5215 409.938 46.721 409.938 44.2918C409.938 43.6942 409.985 43.0656 410.086 42.4137C409.962 42.4137 409.674 42.7396 409.224 43.3915C408.649 44.2452 407.973 44.967 407.196 45.5724C403.188 48.6302 396.811 50.1513 388.065 50.1513C387.716 50.1513 387.537 49.8254 387.537 49.1735C387.537 48.5215 387.677 47.9317 387.949 47.3108C388.221 46.6977 388.562 46.3873 388.966 46.3873C393.93 46.3873 397.899 46.0225 400.881 45.3007C404.462 44.4237 407.282 42.7241 409.34 40.194C410.319 39.0144 410.956 38.4323 411.259 38.4323C411.36 38.4323 411.632 38.8436 412.082 39.674C412.96 41.1797 414.738 41.9247 417.418 41.9247Z" fill="white"/>
<path d="M424.084 35.5763C424.107 38.2538 423.494 40.5588 422.243 42.4913C420.868 44.6178 418.957 45.681 416.526 45.681C416.177 45.681 415.998 45.3318 415.998 44.6256C415.998 42.825 416.472 41.9247 417.427 41.9247C418.577 41.9247 419.633 41.6221 420.589 41.0245C421.668 40.326 422.165 39.4723 422.095 38.4711C421.87 35.2891 421.101 29.9418 419.804 22.4292C419.152 18.9212 418.336 13.8766 417.357 7.28756C416.907 6.88399 416.72 6.58907 416.79 6.38729C416.915 6.01476 417.155 5.3706 417.505 4.47033C417.979 3.2441 418.266 2.63098 418.367 2.63098C418.592 2.63098 419.354 4.0978 420.643 7.02369C421.932 9.95733 422.577 11.5794 422.577 11.9053C422.577 11.9829 422.561 12.0295 422.538 12.0528C422.36 12.177 421.987 11.9131 421.412 11.2612C421.233 11.0594 420.798 10.6248 420.099 9.94957C420.977 14.9321 421.855 19.9069 422.732 24.8584C423.61 29.8176 424.061 33.3877 424.084 35.5607V35.5763Z" fill="white"/>
<path d="M405.675 14.4587C405.675 16.1583 404.875 18.0365 403.267 20.0931C401.939 21.7229 400.02 24.222 397.511 27.6057C396.781 28.7311 396.393 29.2976 396.346 29.2976C396.098 29.2976 396.043 28.9484 396.199 28.2421C396.602 26.6899 397.402 25.0524 398.606 23.3217C399.158 22.4913 400.144 21.2029 401.574 19.449C402.599 18.1684 403.111 17.4078 403.111 17.1595C403.111 16.5852 402.397 16.3446 400.968 16.4455C400.09 16.492 396.882 17.4001 391.344 19.154C384.975 21.1098 378.854 22.6232 372.959 23.702C363.863 25.2309 354.177 25.9915 343.901 25.9915C335.807 25.9915 328.529 25.4559 322.059 24.3772C316.622 23.4769 312.971 22.3981 311.122 21.1486C308.388 19.4179 305.406 16.9422 302.174 13.7136C301.576 13.1393 301.273 12.7745 301.273 12.6271C301.273 12.5805 301.32 12.5495 301.421 12.5495C301.569 12.5495 302.011 12.728 302.734 13.0772C303.712 13.605 305.577 14.5052 308.334 15.778C313.173 17.8813 318.509 19.3946 324.35 20.326C330.968 21.3504 339.536 21.8626 350.06 21.8626C358.434 21.8626 366.776 21.0865 375.095 19.5343C380.136 18.5565 385.984 17.1052 392.649 15.1804C398.039 13.6282 401.294 12.8521 402.42 12.8521C403.795 12.8521 404.727 13.0384 405.201 13.4187C405.504 13.667 405.651 14.0163 405.651 14.4742L405.675 14.4587Z" fill="white"/>
<path d="M296.372 41.8859C296.372 43.0113 296.248 44.1677 295.999 45.3396C295.572 47.5204 295.207 48.6069 294.912 48.6069C294.733 48.6069 294.624 48.1568 294.57 47.2565C294.446 45.3318 294.384 44.253 294.384 44.028C293.91 39.3171 292.706 31.4164 290.772 20.326C290.22 17.2449 289.49 12.6349 288.589 6.5037C288.139 6.10013 287.952 5.80521 288.022 5.60343C288.224 5.0524 288.535 4.2375 288.962 3.15873C289.311 2.25846 289.529 1.80832 289.599 1.80832C289.746 1.80832 290.5 3.25962 291.851 6.16222C293.358 9.39078 294.011 11.0827 293.809 11.2301C293.607 11.3543 293.218 11.106 292.644 10.4773C292.465 10.2755 292.03 9.82539 291.331 9.12691C292.209 13.7602 293.483 21.1331 295.168 31.2534C295.968 36.5386 296.372 40.0776 296.372 41.8859Z" fill="white"/>
<path d="M282.988 43.539C282.81 43.539 282.6 43.0345 282.351 42.0334C282.002 40.7062 281.761 39.8758 281.637 39.5576C280.51 37.0275 278.677 34.35 276.145 31.5173C273.263 28.4129 270.382 25.3085 267.5 22.2041C263.888 18.1684 261.232 14.5906 259.531 11.4629C259.259 11.3388 258.94 11.1603 258.591 10.9352C258.544 10.811 258.575 10.1436 258.7 8.94062C258.824 7.73767 258.94 7.14008 259.041 7.14008C259.22 7.14008 260.3 7.96274 262.296 9.61582C264.292 11.2689 265.263 12.1692 265.209 12.3244C265.131 12.5728 264.253 12.4408 262.576 11.9131C263.578 13.5429 265.846 16.298 269.38 20.1785C274.84 26.1855 277.652 29.2821 277.8 29.4606C280.557 32.6659 282.25 35.7315 282.872 38.6651C283.571 41.917 283.61 43.5468 282.98 43.5468L282.988 43.539Z" fill="white"/>
<path d="M287.347 36.5852C287.471 43.7485 285.289 48.9173 280.807 52.0993C279.051 53.3023 276.185 54.319 272.201 55.1416C269.894 55.615 268.721 55.7935 268.667 55.6694C268.643 55.5918 269.443 55.1183 271.074 54.2414C273.257 53.0927 275.044 52.0372 276.449 51.0904C280.457 48.4129 283.114 46.1544 284.419 44.3306C285.195 43.2285 285.568 42.0411 285.545 40.7606C285.498 38.3314 284.683 32.5805 283.098 23.5157C281.421 13.9464 280.504 8.10243 280.356 5.97593C280.007 5.62669 279.828 5.36281 279.828 5.18431C279.828 5.03685 280.061 4.42374 280.527 3.34496C280.993 2.26619 281.288 1.73068 281.413 1.73068C281.615 1.73068 282.376 3.18974 283.704 6.10787C285.032 9.02599 285.599 10.5471 285.397 10.6713C285.094 10.8498 284.341 10.1203 283.145 8.49048C283.875 12.6736 284.597 16.8413 285.328 21.0012C286.632 28.4129 287.308 33.6127 287.355 36.5929L287.347 36.5852Z" fill="white"/>
<path d="M239.391 43.539C239.212 43.539 239.002 43.0345 238.754 42.0334C238.404 40.7062 238.163 39.8758 238.039 39.5576C236.913 37.0275 235.08 34.35 232.547 31.5173C229.666 28.4129 226.784 25.3085 223.902 22.2041C220.291 18.1684 217.634 14.5906 215.933 11.4629C215.661 11.3388 215.343 11.1603 214.993 10.9352C214.947 10.811 214.978 10.1436 215.102 8.94062C215.226 7.73767 215.343 7.14008 215.444 7.14008C215.622 7.14008 216.702 7.96274 218.698 9.61582C220.694 11.2689 221.665 12.1692 221.611 12.3244C221.533 12.5728 220.656 12.4408 218.978 11.9131C219.98 13.5429 222.248 16.298 225.782 20.1785C231.243 26.1855 234.054 29.2821 234.202 29.4606C236.959 32.6659 238.653 35.7315 239.274 38.6651C239.973 41.917 240.012 43.5468 239.383 43.5468L239.391 43.539Z" fill="white"/>
<path d="M250.109 45.8673C250.459 45.8673 250.638 46.1933 250.638 46.8452C250.638 48.6457 250.148 49.5538 249.17 49.5538C245.589 49.5538 243.484 46.4261 242.855 40.163C242.552 43.0423 241.791 45.5879 240.563 47.7843C238.808 50.9662 236.563 52.9919 233.837 53.8689C229.223 55.2425 226.504 55.9333 225.681 55.9333C224.982 55.9333 225.293 55.5685 226.621 54.8467C229.402 53.3178 230.94 52.4796 231.242 52.3322C233.402 51.0516 235.017 49.9496 236.089 49.026C239.926 45.7431 241.845 42.2041 241.845 38.3935V37.6407C241.441 34.0318 240.455 27.7455 238.878 18.7815C238.101 14.5751 237.301 10.3687 236.47 6.16221C236.47 5.96043 236.602 5.17657 236.866 3.81064C237.13 2.44471 237.309 1.76175 237.41 1.76175C237.658 1.76175 237.985 2.63874 238.388 4.39272C239.313 7.72217 240.291 12.3167 241.317 18.1762C242.746 26.6124 243.802 33.6127 244.478 39.1773C245.053 43.6321 246.933 45.8595 250.117 45.8595L250.109 45.8673Z" fill="white"/>
<path d="M273.869 40.4579C273.869 44.7885 272.556 46.9538 269.923 46.9538C267.671 46.9538 266.389 45.813 266.086 43.539C265.985 43.7641 265.62 44.4626 264.999 45.6422C264.696 46.3407 264.105 47.0082 263.235 47.6368C262.257 48.3663 261.255 48.7233 260.229 48.7233C259.103 48.7233 258.14 48.2965 257.355 47.4428C256.563 46.5891 256.198 45.6034 256.245 44.4781C255.771 45.2076 255.018 46.1777 253.992 47.404C252.516 48.832 250.893 49.546 249.145 49.546C248.796 49.546 248.617 49.22 248.617 48.5681C248.617 46.7676 249.107 45.8595 250.085 45.8595C252.237 45.8595 254.419 44.3229 256.625 41.2418C256.975 40.7916 257.293 40.4501 257.565 40.2251C257.868 39.9767 258.07 39.8758 258.163 39.9224C258.311 39.969 258.342 40.1242 258.241 40.3725C257.891 41.1021 257.713 41.7229 257.713 42.2507C257.713 43.927 258.839 44.7652 261.099 44.7652C263.36 44.7652 264.921 43.4614 265.946 40.8615C266.195 40.0854 266.451 39.4955 266.7 39.0997C267.127 38.4711 267.461 38.2615 267.717 38.4633C267.764 38.5099 267.694 38.8514 267.492 39.48C267.189 40.3027 267.391 41.1176 268.098 41.9247C268.774 42.6543 269.675 43.0113 270.801 43.0113C271.927 43.0113 272.494 42.7396 272.494 42.1886C272.494 41.8626 272.362 41.5367 272.098 41.2107C271.834 40.8847 271.702 40.6364 271.702 40.4579C271.702 40.2561 271.912 39.643 272.323 38.6185C272.735 37.5941 272.991 37.0819 273.092 37.0819C273.193 37.0819 273.356 37.4234 273.582 38.0986C273.783 38.8747 273.884 39.6663 273.884 40.4657L273.869 40.4579Z" fill="white"/>
<path d="M204.049 45.8673C204.352 45.8673 204.499 46.1932 204.499 46.8452C204.499 48.6457 204.033 49.5537 203.109 49.5537C201.182 49.5537 199.543 48.669 198.2 46.9073C196.856 45.1455 195.885 44.2608 195.287 44.2608C193.532 44.2608 191.9 45.8751 190.401 49.1036C189.702 50.9042 188.957 52.6736 188.18 54.3966C187.256 56.1506 186.176 57.0276 184.949 57.0276C183.721 57.0276 182.494 56.1273 181.414 54.3267C180.335 52.6969 179.799 50.9119 179.799 48.9562C179.799 47.4505 179.946 45.9915 180.249 44.5634C180.552 43.2363 180.84 42.5999 181.112 42.6465C181.313 42.6465 181.337 43.0345 181.189 43.8106C180.987 45.0912 180.886 46.2165 180.886 47.1944C180.886 49.1967 181.29 50.8498 182.106 52.1537C182.921 53.4575 183.869 54.1094 184.941 54.1094C186.168 54.1094 187.683 51.9829 189.493 47.7222C190.518 45.3163 191.698 43.4148 193.027 42.0101C194.153 40.8304 195.155 40.2484 196.033 40.2484C196.607 40.2484 197.12 40.5976 197.571 41.2961C198.021 41.9946 198.51 42.7008 199.039 43.3993C200.266 45.1533 201.936 45.9759 204.041 45.8751L204.049 45.8673Z" fill="white"/>
<path d="M214.386 44.7032C214.736 44.7032 214.915 45.0524 214.915 45.7586C214.915 47.5592 214.441 48.4595 213.485 48.4595C212.383 48.4129 211.489 47.9938 210.813 47.2177C210.386 46.7443 210.06 45.8751 209.835 44.6255C207.932 47.9317 205.687 49.5848 203.108 49.5848C202.759 49.5848 202.58 49.2356 202.58 48.5371C202.58 46.7365 203.054 45.8285 204.009 45.8285C205.788 45.7276 207.217 45.1533 208.297 44.0978C208.802 43.2984 209.462 42.2817 210.293 41.0555C210.72 40.4579 211.047 40.2173 211.272 40.3415C211.373 40.3881 211.373 40.5433 211.272 40.7916C210.845 41.7695 211.085 42.7474 211.986 43.7253C212.639 44.3772 213.439 44.7032 214.394 44.7032H214.386Z" fill="white"/>
<path d="M226.987 41.2806C226.886 40.6286 226.474 40.0931 225.744 39.6663C225.146 39.317 224.626 39.1618 224.206 39.2161C223.577 39.2627 223.228 39.4412 223.15 39.7439C223.127 39.8913 223.608 40.194 224.595 40.6442C225.581 41.0943 226.381 41.3116 226.979 41.2806H226.987ZM229.884 42.142C229.884 42.468 229.597 43.1044 229.022 44.059C228.424 45.0834 227.919 45.6112 227.515 45.6345C227.041 45.681 226.063 45.4094 224.579 44.8118C222.925 44.1366 221.55 43.3838 220.447 42.5611C218.645 46.4959 216.322 48.4594 213.495 48.4594C213.145 48.4594 212.967 48.1102 212.967 47.404C212.967 45.6034 213.441 44.7031 214.396 44.7031C215.748 44.7031 216.913 44.2375 217.891 43.3139C218.645 42.6154 219.53 41.3582 220.563 39.5576C220.812 39.1075 221.115 38.6574 221.464 38.2072C221.542 38.2072 221.674 38.2848 221.876 38.4323C222.932 36.5308 224.129 35.5142 225.488 35.39C226.544 35.2891 227.468 35.8168 228.269 36.9655C229.348 38.4944 229.884 40.2173 229.884 42.1498V42.142Z" fill="white"/>
<path d="M172.062 45.3085C172.412 45.3085 172.591 45.6577 172.591 46.364C172.591 48.1645 172.117 49.0648 171.161 49.0648C166.151 49.0648 163.239 45.0602 162.439 37.0431C160.761 19.969 158.92 9.39853 156.916 5.33954C156.869 5.21537 157.032 4.52464 157.405 3.27513C157.778 2.02561 158.003 1.39697 158.081 1.39697C158.205 1.39697 158.516 2.02561 159.021 3.27513C159.619 4.74971 160.101 6.20877 160.45 7.62903C161.506 11.9829 162.392 17.2216 163.122 23.3295C164.101 31.7967 164.613 36.1738 164.66 36.4765C165.584 42.3593 168.054 45.3007 172.062 45.3007V45.3085Z" fill="white"/>
<path d="M177.771 41.8549C177.771 43.8339 177.359 45.4094 176.528 46.5891C175.324 48.2422 173.53 49.0648 171.153 49.0648C170.804 49.0648 170.625 48.7156 170.625 48.0093C170.625 46.2088 171.099 45.3085 172.054 45.3085C172.932 45.3085 173.957 45.0058 175.138 44.4082C176.218 43.8572 176.753 43.4459 176.753 43.1665C176.753 42.5922 176.404 41.7928 175.697 40.7839C174.998 39.7672 174.649 39.3015 174.649 39.3791C174.649 39.1541 174.749 38.5332 174.951 37.5165C175.153 36.4998 175.301 35.9954 175.402 35.9954C175.674 35.9954 176.101 36.5309 176.684 37.6096C177.414 38.96 177.771 40.3803 177.771 41.8549Z" fill="white"/>
<path d="M118.312 45.3473C118.615 45.3473 118.763 45.6733 118.763 46.3252C118.763 48.1257 118.297 49.0338 117.372 49.0338C115.446 49.0338 113.807 48.149 112.463 46.3873C111.12 44.6255 110.149 43.7408 109.551 43.7408C107.795 43.7408 106.164 45.3551 104.665 48.5836C103.966 50.3842 103.22 52.1537 102.443 53.8766C101.519 55.6306 100.44 56.5076 99.2123 56.5076C97.985 56.5076 96.7578 55.6073 95.6781 53.8068C94.5985 52.1769 94.0625 50.3919 94.0625 48.4362C94.0625 46.9305 94.2101 45.4715 94.513 44.0435C94.8159 42.7163 95.1033 42.0799 95.3752 42.1265C95.5771 42.1265 95.6004 42.5145 95.4529 43.2906C95.2509 44.5712 95.1499 45.6965 95.1499 46.6744C95.1499 48.6768 95.5538 50.3298 96.3694 51.6337C97.185 52.9375 98.1326 53.5894 99.2045 53.5894C100.432 53.5894 101.946 51.4629 103.756 47.2022C104.781 44.7963 105.962 42.8948 107.29 41.4901C108.417 40.3104 109.419 39.7284 110.296 39.7284C110.871 39.7284 111.384 40.0776 111.834 40.7761C112.285 41.4746 112.774 42.1808 113.302 42.8793C114.53 44.6333 116.2 45.456 118.304 45.3551L118.312 45.3473Z" fill="white"/>
<path d="M132.752 39.7129C130.142 39.3093 128.355 39.1385 127.377 39.1851C127.975 39.5344 128.744 40.1708 129.668 41.1021C131.276 40.326 132.301 39.8603 132.752 39.7129ZM138.127 37.5708C138.352 37.8192 137.979 38.9445 137 40.9546C135.874 41.0555 134.119 41.7695 131.734 43.0966C133.435 44.6023 135.268 45.3473 137.226 45.3473C137.529 45.3473 137.676 45.6733 137.676 46.3252C137.676 48.1257 137.21 49.0338 136.286 49.0338C134.857 49.0338 133.552 48.669 132.379 47.9472C131.602 47.4971 130.359 46.4571 128.658 44.8273C123.648 47.629 119.897 49.0338 117.419 49.0338C117.069 49.0338 116.891 48.7078 116.891 48.0559C116.891 46.2553 117.357 45.3473 118.281 45.3473C120.184 45.3473 122.903 44.4703 126.437 42.7163C124.479 40.9857 122.84 40.1242 121.512 40.1242C120.634 40.1242 119.943 40.2018 119.446 40.3493C119.019 40.4967 118.778 40.5743 118.731 40.5743C118.685 40.5278 118.84 40 119.198 38.9988C119.563 37.9977 119.796 37.4234 119.897 37.2682C121.225 36.1894 123.998 35.6539 128.208 35.6539C130.313 35.6539 132.565 35.9565 134.973 36.5541C136.93 37.0819 137.979 37.4156 138.127 37.5708Z" fill="white"/>
<path d="M149.296 40.6907C149.646 40.6907 149.824 41.0167 149.824 41.6686C149.824 43.4692 149.335 44.3772 148.356 44.3772C146.15 44.3772 144.581 43.1975 143.657 40.8459C143.61 43.151 143.222 44.8118 142.492 45.844C141.016 47.9938 138.934 49.0726 136.255 49.0726C135.905 49.0726 135.727 48.7078 135.727 47.986C135.727 46.2088 136.216 45.3163 137.195 45.3163C138.422 45.3163 139.579 45.0058 140.651 44.3772C141.878 43.7253 142.445 42.8871 142.344 41.8626C142.197 39.2317 141.241 32.9453 139.486 23.0035C138.787 18.5487 137.87 12.8754 136.744 5.99146C136.697 5.78968 136.884 4.95926 137.311 3.49243C137.738 2.02561 138.01 1.29608 138.142 1.29608C138.29 1.29608 139.494 7.7532 141.754 20.6752C142.259 23.6088 142.942 27.5592 143.82 32.5417C144.294 35.3978 144.783 37.3147 145.288 38.2848C146.112 39.8913 147.455 40.6907 149.312 40.6907H149.296Z" fill="white"/>
<path d="M155.906 34.3034C155.929 36.981 155.316 39.286 154.065 41.2185C152.69 43.345 150.78 44.4082 148.349 44.4082C147.999 44.4082 147.82 44.059 147.82 43.3527C147.82 41.5522 148.294 40.6519 149.25 40.6519C150.399 40.6519 151.455 40.3492 152.411 39.7516C153.49 39.0532 153.988 38.1994 153.918 37.1983C153.692 34.0163 152.923 28.669 151.626 21.1564C150.974 17.6484 150.158 12.6038 149.18 6.01473C148.729 5.61116 148.543 5.31625 148.613 5.11446C148.737 4.74193 148.978 4.09777 149.327 3.1975C149.801 1.97127 150.088 1.35815 150.189 1.35815C150.415 1.35815 151.176 2.82498 152.465 5.75086C153.755 8.6845 154.399 10.3065 154.399 10.6325C154.399 10.7101 154.384 10.7567 154.36 10.78C154.182 10.9041 153.809 10.6403 153.234 9.98835C153.056 9.78656 152.621 9.35195 151.921 8.67674C152.799 13.6593 153.677 18.6341 154.555 23.5856C155.432 28.537 155.883 32.1149 155.906 34.2879V34.3034Z" fill="white"/>
<path d="M100.774 40.8537C100.774 41.979 100.65 43.1354 100.402 44.3073C99.9743 46.4882 99.6093 47.5747 99.3141 47.5747C99.1354 47.5747 99.0267 47.1246 98.9723 46.2243C98.8481 44.2996 98.7859 43.2208 98.7859 42.9957C98.3121 38.2848 97.1082 30.3842 95.1741 19.2937C94.6226 16.2126 93.8925 11.6026 92.9915 5.47147C92.5409 5.0679 92.3545 4.77299 92.4244 4.5712C92.6264 4.02017 92.9371 3.20527 93.3643 2.1265C93.7138 1.22623 93.9313 0.776093 94.0012 0.776093C94.1488 0.776093 94.9022 2.22739 96.2538 5.12999C97.7606 8.35855 98.4131 10.0504 98.2111 10.1979C98.0092 10.3221 97.6208 10.0737 97.046 9.44509C96.8674 9.2433 96.4324 8.79317 95.7333 8.09468C96.6111 12.728 97.8849 20.1009 99.5704 30.2212C100.37 35.5064 100.774 39.0454 100.774 40.8537Z" fill="white"/>
<path d="M73.0916 45.8518C73.4412 45.8518 73.6198 46.201 73.6198 46.9073C73.6198 48.7078 73.146 49.6081 72.1906 49.6081C67.1807 49.6081 64.2679 45.6034 63.4679 37.5863C61.7901 20.5122 59.9492 9.9418 57.9453 5.88282C57.8987 5.75864 58.0618 5.06791 58.4346 3.8184C58.8074 2.56888 59.0327 1.94025 59.1104 1.94025C59.2347 1.94025 59.5453 2.56888 60.0502 3.8184C60.6483 5.29298 61.1299 6.75204 61.4794 8.1723C62.5358 12.5262 63.4213 17.7648 64.1514 23.8727C65.1301 32.3399 65.6427 36.7171 65.6893 37.0198C66.6137 42.9026 69.0837 45.844 73.0916 45.844V45.8518Z" fill="white"/>
<path d="M83.4685 44.7264C83.818 44.7264 83.9967 45.0757 83.9967 45.7819C83.9967 47.5824 83.5229 48.4827 82.5675 48.4827C81.4645 48.4362 80.5713 48.0171 79.8955 47.241C79.4683 46.7675 79.1421 45.8983 78.9168 44.6488C77.0138 47.955 74.7691 49.6081 72.1903 49.6081C71.8408 49.6081 71.6621 49.2588 71.6621 48.5603C71.6621 46.7598 72.1359 45.8518 73.0913 45.8518C74.87 45.7509 76.2992 45.1765 77.3789 44.1211C77.8838 43.3217 78.544 42.305 79.3751 41.0788C79.8023 40.4812 80.1285 40.2406 80.3538 40.3648C80.4548 40.4113 80.4548 40.5665 80.3538 40.8149C79.9266 41.7928 80.1674 42.7706 81.0684 43.7485C81.7209 44.4005 82.5209 44.7264 83.4763 44.7264H83.4685Z" fill="white"/>
<path d="M90.1177 38.3779C90.141 41.0555 89.5274 43.3605 88.2768 45.293C86.902 47.4195 84.9912 48.4827 82.56 48.4827C82.2105 48.4827 82.0319 48.1335 82.0319 47.4272C82.0319 45.6267 82.5057 44.7264 83.4611 44.7264C84.6106 44.7264 85.667 44.4237 86.6224 43.8261C87.702 43.1277 88.1992 42.274 88.1292 41.2728C87.904 38.0908 86.7855 30.7412 84.7815 19.2239C84.23 16.1428 83.4999 11.5328 82.5989 5.40162C82.1484 4.99805 81.962 4.70313 82.0319 4.50135C82.4358 3.42257 82.7465 2.60767 82.9717 2.05665C83.3445 1.15637 83.5698 0.706238 83.6475 0.706238C83.8727 0.706238 84.6262 2.15754 85.9 5.06014C87.2049 8.04035 87.8574 9.69343 87.8574 10.0194C87.8574 10.066 87.8419 10.1048 87.8185 10.1358C87.6399 10.26 87.2515 10.0116 86.6534 9.38299C86.4748 9.18121 86.0554 8.73107 85.3718 8.03259C86.3971 13.8921 87.4302 19.7516 88.4555 25.6112C89.5351 31.9208 90.0866 36.1816 90.1099 38.3857L90.1177 38.3779Z" fill="white"/>
<path d="M54.5428 44.773C54.8923 44.773 55.071 45.1222 55.071 45.8285C55.071 47.629 54.5972 48.5293 53.6418 48.5293C48.6318 48.5293 45.7191 44.5247 44.919 36.5076C43.2413 19.4335 41.4004 8.86303 39.3964 4.80405C39.3498 4.67987 39.5129 3.98915 39.8858 2.73963C40.2586 1.49012 40.4839 0.861481 40.5615 0.861481C40.6858 0.861481 40.9965 1.49012 41.5014 2.73963C42.0995 4.21422 42.5811 5.67328 42.9306 7.09353C43.987 11.4474 44.8724 16.6861 45.6026 22.794C46.5813 31.2612 47.0939 35.6384 47.1405 35.941C48.0648 41.8238 50.5349 44.7652 54.5428 44.7652V44.773Z" fill="white"/>
<path d="M60.2515 41.3194C60.2515 43.2984 59.8398 44.8739 59.0087 46.0536C57.8047 47.7066 56.0105 48.5293 53.6337 48.5293C53.2841 48.5293 53.1055 48.1801 53.1055 47.4738C53.1055 45.6733 53.5793 44.773 54.5347 44.773C55.4124 44.773 56.4377 44.4703 57.6183 43.8727C58.698 43.3217 59.2339 42.9104 59.2339 42.631C59.2339 42.0567 58.8844 41.2573 58.1776 40.2484C57.4785 39.2317 57.129 38.766 57.129 38.8436C57.129 38.6186 57.2299 37.9977 57.4319 36.981C57.6338 35.9643 57.7814 35.4598 57.8824 35.4598C58.1543 35.4598 58.5815 35.9953 59.164 37.0741C59.8941 38.4245 60.2515 39.8448 60.2515 41.3194Z" fill="white"/>
<path d="M25.5779 45.1843C25.8808 45.1843 26.0284 45.5103 26.0284 46.1622C26.0284 47.9628 25.5623 48.8708 24.638 48.8708C22.7117 48.8708 21.0728 47.986 19.729 46.2243C18.3853 44.4626 17.4144 43.5778 16.8163 43.5778C15.0608 43.5778 13.4297 45.1921 11.9306 48.4207C11.2315 50.2212 10.4859 51.9907 9.70912 53.7136C8.7848 55.4676 7.70514 56.3446 6.47789 56.3446C5.25065 56.3446 4.0234 55.4443 2.94374 53.6438C1.86407 52.014 1.32812 50.229 1.32812 48.2732C1.32812 46.7676 1.47571 45.3085 1.77863 43.8805C2.08156 42.5534 2.36895 41.917 2.64081 41.9635C2.84276 41.9635 2.86606 42.3516 2.71848 43.1277C2.51653 44.4082 2.41556 45.5336 2.41556 46.5115C2.41556 48.5138 2.81946 50.1669 3.63503 51.4707C4.45061 52.7746 5.39823 53.4265 6.47013 53.4265C7.69737 53.4265 9.21201 51.3 11.0218 47.0392C12.0471 44.6333 13.2277 42.7319 14.556 41.3271C15.6822 40.1475 16.6842 39.5654 17.5619 39.5654C18.1367 39.5654 18.6494 39.9146 19.0999 40.6131C19.5504 41.3116 20.0397 42.0179 20.5679 42.7164C21.7952 44.4703 23.4651 45.293 25.5701 45.1921L25.5779 45.1843Z" fill="white"/>
<path d="M35.9236 44.0202C36.2731 44.0202 36.4518 44.3694 36.4518 45.0757C36.4518 46.8762 35.978 47.7765 35.0226 47.7765C33.9196 47.7299 33.0264 47.3108 32.3506 46.5347C31.9234 46.0613 31.5972 45.1921 31.3719 43.9426C29.4689 47.2487 27.2241 48.9018 24.6454 48.9018C24.2958 48.9018 24.1172 48.5526 24.1172 47.8541C24.1172 46.0535 24.591 45.1455 25.5464 45.1455C27.3251 45.0446 28.7543 44.4703 29.834 43.4148C30.3389 42.6154 30.9991 41.5988 31.8302 40.3725C32.2574 39.7749 32.5836 39.5343 32.8089 39.6585C32.9099 39.7051 32.9099 39.8603 32.8089 40.1086C32.3817 41.0865 32.6225 42.0644 33.5235 43.0423C34.1759 43.6942 34.976 44.0202 35.9314 44.0202H35.9236Z" fill="white"/>
<path d="M40.6942 41.9946C40.6942 45.8285 38.7912 47.7454 34.9774 47.7454C34.6279 47.7454 34.4492 47.4195 34.4492 46.7676C34.4492 44.967 34.9386 44.059 35.9173 44.059C36.795 44.059 37.5872 43.8805 38.2863 43.5312C38.9621 43.2596 39.3038 42.9957 39.3038 42.7396C39.3038 42.4835 39.1252 42.0334 38.7601 41.3659C38.395 40.6985 38.2164 40.3725 38.2164 40.3725C38.2164 40.194 38.3251 39.5964 38.5349 38.572C38.7446 37.5475 38.9077 37.0353 39.0009 37.0353C39.2029 37.0353 39.5058 37.4466 39.9019 38.2771C40.4301 39.3558 40.6942 40.5898 40.6942 41.9946Z" fill="white"/>
<path d="M414.009 24.0978C414.071 23.865 414.094 23.6088 414.094 23.3372C414.094 22.9026 414.009 22.5146 413.83 22.1808C413.651 21.8937 413.496 21.7462 413.349 21.7462C413.1 21.7462 412.805 21.9092 412.463 22.2352C412.121 22.5611 411.95 22.8017 411.95 22.9414C411.95 23.1742 412.634 23.5623 414.009 24.0978ZM415.407 24.7342C415.407 24.7342 415.453 24.7652 415.453 24.8196C415.453 24.967 415.353 25.2231 415.158 25.5957C414.964 25.9682 414.832 26.1544 414.778 26.1544C414.778 26.1544 414.451 26.038 413.791 25.8052C413.279 26.752 412.199 27.9007 410.537 29.2588C408.494 30.8576 405.542 32.6116 401.666 34.5208C401.247 34.7381 400.75 34.9787 400.183 35.2425C400.152 35.2115 400.113 35.1804 400.051 35.1572C400.082 35.0718 400.245 34.9166 400.556 34.6993C403.414 32.7668 405.379 31.4707 406.459 30.811C409.985 28.669 412.253 26.9461 413.255 25.6345C411.772 25.0369 411.026 24.4237 411.026 23.8029C411.026 23.182 411.368 22.3904 412.051 21.5211C412.735 20.6519 413.349 20.2251 413.884 20.2251C414.599 20.2251 414.956 20.8382 414.956 22.0567C414.956 22.5689 414.778 23.3062 414.428 24.2841C414.809 24.4703 415.135 24.6255 415.415 24.7419L415.407 24.7342Z" fill="white"/>
<path d="M391.165 30.485C390.109 30.9817 388.47 31.3155 386.257 31.4707C386.093 31.4707 386 31.4319 385.954 31.3543C385.915 31.2379 385.954 31.137 386.07 31.0516C387.507 30.4307 389.363 29.577 391.639 28.475C391.321 28.1723 390.319 27.9627 388.641 27.8463C387.041 27.7299 386.047 27.7066 385.643 27.7842C385.464 27.823 385.332 27.823 385.255 27.7842C385.177 27.7454 385.192 27.6445 385.317 27.4816C385.899 26.5813 386.59 25.6655 387.414 24.7264C389.014 24.3849 391.057 24.5867 393.55 25.324C394.148 25.487 394.451 25.8362 394.451 26.3717C394.451 26.9538 394.039 27.7144 393.208 28.6767C392.377 29.6313 391.694 30.2289 391.158 30.4695L391.165 30.485Z" fill="white"/>
<path d="M369.517 10.7489L373.859 13.2945L371.77 17.0508L367.513 14.544L365.758 17.6795L361.416 15.1339L363.505 11.3776L367.762 13.8766L369.517 10.7489Z" fill="white"/>
<path d="M341.011 0.310425C341.011 0.426839 340.887 0.776083 340.639 1.35815C340.39 1.94023 340.188 2.25067 340.04 2.28947C333.034 4.63328 327.481 6.53472 323.379 7.98602C315.589 10.7101 310.02 12.8211 306.656 14.3112C306.656 13.9309 306.804 13.5041 307.099 13.0384C307.394 12.5727 307.658 12.2701 307.884 12.1381C317.507 8.11019 328.545 4.17538 341.011 0.325947V0.310425Z" fill="white"/>
<path d="M310.765 29.5227C310.765 30.6558 310.61 31.657 310.291 32.5184C310.105 33.0384 309.919 33.2945 309.748 33.2945C309.623 33.2635 309.592 33.1083 309.654 32.8211C309.856 31.9441 309.965 31.2068 309.965 30.6248C309.965 28.343 308.738 26.0225 306.283 23.6709C306.221 23.6088 306.283 23.2286 306.447 22.5378C306.617 21.8471 306.734 21.4979 306.804 21.4979C307.262 21.4979 308.008 22.2895 309.049 23.8805C310.26 25.7353 310.835 27.6135 310.773 29.5149L310.765 29.5227Z" fill="white"/>
<path d="M369.12 3.69422C369.447 2.35933 369.237 1.69189 368.491 1.69189C367.823 1.69189 367.489 1.97128 367.489 2.52231C367.489 2.92588 368.033 3.31393 369.12 3.69422ZM371.07 4.46255C371.07 4.57897 370.985 4.80403 370.814 5.13776C370.643 5.47148 370.534 5.63446 370.495 5.63446C370.021 5.55685 369.485 5.39387 368.895 5.14552C367.769 6.89949 365.47 8.73884 361.998 10.6636C361.71 10.8188 360.98 11.1137 359.807 11.5638C358.634 12.014 358.005 12.2158 357.935 12.1769C357.896 12.0993 358.51 11.7113 359.768 11.005C364.103 8.70004 367.015 6.68219 368.499 4.96701C367.202 4.37718 366.549 3.67093 366.549 2.84827C366.549 2.39038 366.829 1.81606 367.38 1.1331C367.932 0.450134 368.46 0.100891 368.957 0.100891C369.586 0.100891 369.905 0.807139 369.905 2.21963C369.905 2.77066 369.812 3.31393 369.617 3.84944C370.588 4.1754 371.078 4.37718 371.078 4.44703L371.07 4.46255Z" fill="white"/>
<path d="M355.691 0.970123C355.761 1.07102 355.715 1.29608 355.559 1.62981C355.404 1.96353 355.295 2.14979 355.225 2.18083C353.043 2.98797 350.86 3.79511 348.678 4.60225C345.889 5.66551 343.877 6.55026 342.642 7.2565C342.572 7.11681 342.572 6.85293 342.642 6.45712C342.712 6.11564 342.798 5.89833 342.899 5.81296C346.821 4.05899 351.085 2.44471 355.691 0.970123Z" fill="white"/>
<path d="M368.687 27.5281C368.78 27.6678 368.725 27.9628 368.516 28.4129C368.306 28.863 368.158 29.1114 368.065 29.1579C365.121 30.2445 362.177 31.331 359.241 32.4253C355.49 33.8611 352.779 35.0563 351.109 36.0031C351.016 35.8168 351.016 35.4598 351.109 34.9243C351.202 34.4587 351.319 34.1715 351.459 34.0551C356.74 31.6958 362.488 29.5149 368.694 27.5281H368.687Z" fill="white"/>
<path d="M314.727 2.48351C314.867 2.62321 314.867 2.98021 314.727 3.56228C314.634 4.12107 314.494 4.39271 314.308 4.39271C314.308 4.39271 314.16 4.20644 313.873 3.83392C313.585 3.46139 313.274 3.27513 312.948 3.27513C312.28 3.27513 311.799 4.51688 311.527 7.00815C311.247 9.49942 310.991 10.7179 310.766 10.6713C310.463 10.6713 310.152 10.1281 309.826 9.04152C309.453 7.65231 308.816 6.57354 307.915 5.81296C307.868 5.92938 307.798 6.03027 307.705 6.1234C307.542 6.16997 307.146 6.01475 306.509 5.65774C305.872 5.30074 305.53 4.98254 305.484 4.70314C305.344 3.40706 305.585 2.75514 306.214 2.75514C307.348 2.70858 308.552 3.92705 309.826 6.40279C310.012 6.91502 310.276 7.50485 310.626 8.17229C310.766 6.99263 310.952 5.81296 311.185 4.6333C311.558 2.43694 312.148 1.35817 312.956 1.40474C313.585 1.40474 314.175 1.76174 314.727 2.48351Z" fill="white"/>
<path d="M386.745 2.65425C386.87 2.77842 386.87 3.10438 386.745 3.62437C386.66 4.12107 386.536 4.37718 386.372 4.37718C386.372 4.37718 386.24 4.2142 385.984 3.88048C385.72 3.54676 385.448 3.38378 385.153 3.38378C384.547 3.38378 384.12 4.50136 383.871 6.74427C383.623 8.97943 383.39 10.0815 383.18 10.0349C382.908 10.0349 382.629 9.54598 382.333 8.5681C381.999 7.31859 381.425 6.34847 380.617 5.6655C380.578 5.76639 380.516 5.86729 380.43 5.9449C380.283 5.9837 379.926 5.844 379.351 5.5258C378.776 5.19984 378.473 4.92045 378.426 4.66434C378.302 3.50019 378.52 2.91812 379.087 2.91812C380.104 2.87932 381.192 3.96585 382.333 6.20101C382.497 6.6589 382.737 7.18665 383.056 7.792C383.18 6.72875 383.351 5.6655 383.553 4.61001C383.887 2.63096 384.415 1.66084 385.145 1.70741C385.704 1.70741 386.24 2.03337 386.738 2.67753L386.745 2.65425Z" fill="white"/>
<path d="M412.526 2.9414C412.643 3.05782 412.643 3.46139 412.526 4.14435C412.448 4.41599 412.309 4.41599 412.115 4.14435C411.843 3.73302 411.501 3.53124 411.089 3.53124C410.483 3.53124 410.18 3.896 410.18 4.61777C410.103 5.9449 410.025 7.50485 409.947 9.29763C410.142 9.29763 410.53 9.54598 411.12 10.0427C411.703 10.5394 412.021 10.8653 412.06 11.0206C412.099 11.2379 412.052 11.5017 411.913 11.8122C411.773 12.1226 411.672 12.2778 411.594 12.2778C410.755 12.3555 409.878 12.5728 408.977 12.9375C408.068 13.2945 407.633 13.6438 407.672 13.9775C409.155 21.1564 409.901 25.0679 409.901 25.7121C409.901 26.201 409.839 26.4416 409.722 26.4416C409.644 26.4028 409.582 26.2786 409.544 26.0613C409.272 24.4626 408.813 22.1653 408.169 19.1851C407.524 16.5541 407.206 14.8933 407.206 14.2103C407.206 13.3721 407.508 12.6271 408.114 11.9829C408.619 11.4164 409.241 11.0749 409.963 10.9585C409.769 10.8033 409.474 10.7256 409.085 10.7256C408.829 10.7256 408.627 10.8886 408.472 11.2068C408.316 11.525 408.2 11.688 408.122 11.688C408.083 11.688 408.068 11.5871 408.068 11.3931C408.068 10.9818 408.184 10.5627 408.417 10.1358C408.689 9.56927 409.015 9.28987 409.38 9.28987C409.342 9.01824 409.101 8.49825 408.65 7.73768C408.145 6.82189 407.703 6.25533 407.33 6.03803C407.252 6.37175 407.174 6.53473 407.097 6.53473C406.941 6.53473 406.538 6.33294 405.893 5.93714C405.248 5.53357 404.93 5.26193 404.93 5.10671C404.93 4.01242 405.116 3.46915 405.489 3.46915C406.071 3.46915 406.747 3.81063 407.508 4.4936C408.347 5.29298 409.054 6.34071 409.621 7.62126V7.56694C409.621 6.92278 409.637 5.85953 409.676 4.37718C409.831 2.85603 410.274 2.09546 410.996 2.09546C411.485 2.09546 411.998 2.37485 412.549 2.9414H412.526Z" fill="white"/>
<path d="M399.593 2.305C399.717 2.42918 399.717 2.75514 399.593 3.27512C399.508 3.77183 399.383 4.02794 399.22 4.02794C399.22 4.02794 399.088 3.86496 398.832 3.53124C398.568 3.19752 398.296 3.03454 398.001 3.03454C397.395 3.03454 396.968 4.15211 396.719 6.39503C396.47 8.63019 396.237 9.73225 396.028 9.68568C395.756 9.68568 395.476 9.19674 395.181 8.21886C394.847 6.96934 394.272 5.99922 393.464 5.31626C393.426 5.41715 393.364 5.51804 393.278 5.59565C393.13 5.63446 392.773 5.49476 392.198 5.17656C391.624 4.8506 391.321 4.57121 391.274 4.31509C391.15 3.15095 391.367 2.56888 391.934 2.56888C392.952 2.53007 394.039 3.61661 395.181 5.85176C395.344 6.30966 395.585 6.83741 395.903 7.44276C396.028 6.37951 396.199 5.31626 396.401 4.26077C396.735 2.28172 397.263 1.3116 397.993 1.35817C398.552 1.35817 399.088 1.68413 399.585 2.32829L399.593 2.305Z" fill="white"/>
<path d="M335.2 11.7967C335.325 11.9208 335.325 12.2468 335.2 12.7668C335.115 13.2635 334.991 13.5196 334.828 13.5196C334.828 13.5196 334.695 13.3566 334.439 13.0229C334.175 12.6892 333.903 12.5262 333.608 12.5262C333.002 12.5262 332.575 13.6438 332.326 15.8867C332.078 18.1219 331.845 19.2239 331.635 19.1773C331.363 19.1773 331.084 18.6884 330.788 17.7105C330.454 16.461 329.88 15.4909 329.072 14.8079C329.033 14.9088 328.971 15.0097 328.885 15.0873C328.738 15.1261 328.381 14.9864 327.806 14.6682C327.231 14.3423 326.928 14.0629 326.882 13.8068C326.757 12.6426 326.975 12.0605 327.542 12.0605C328.559 12.0217 329.647 13.1083 330.788 15.3434C330.952 15.8013 331.192 16.3291 331.511 16.9344C331.635 15.8712 331.806 14.8079 332.008 13.7524C332.342 11.7734 332.87 10.8033 333.6 10.8498C334.16 10.8498 334.695 11.1758 335.193 11.82L335.2 11.7967Z" fill="white"/>
<path d="M289.614 53.0617C289.653 53.1238 289.591 53.3877 289.412 53.8611C289.234 54.3267 289.125 54.5751 289.086 54.5984C286.88 55.3046 285.335 56.0652 284.457 56.8801C284.208 57.1284 284.084 57.1129 284.084 56.818C284.084 56.0264 284.503 55.421 285.335 55.0097C284.713 54.676 284.395 54.0939 284.395 53.2635C284.395 51.5328 285.288 50.6713 287.082 50.6713C287.874 50.6713 288.271 51.0361 288.271 51.7656C288.271 52.4951 287.999 52.8987 287.455 52.922C287.354 52.3167 286.973 52.014 286.329 52.014C285.637 52.014 285.296 52.2623 285.296 52.7668C285.296 53.5817 285.987 53.9853 287.362 53.9853C287.525 53.9853 288.123 53.7214 289.141 53.2014C289.412 53.0539 289.568 53.0151 289.607 53.0772L289.614 53.0617Z" fill="white"/>
<path d="M260.976 32.2468C259.92 32.7435 258.281 33.0772 256.067 33.2324C255.904 33.2324 255.811 33.1936 255.764 33.116C255.725 32.9996 255.764 32.8987 255.881 32.8133C257.318 32.1925 259.174 31.3388 261.45 30.2367C261.131 29.934 260.129 29.7245 258.452 29.6081C256.852 29.4917 255.857 29.4684 255.453 29.546C255.275 29.5848 255.143 29.5848 255.065 29.546C254.987 29.5072 255.003 29.4063 255.127 29.2433C255.71 28.343 256.401 27.4272 257.224 26.4882C258.824 26.1467 260.867 26.3485 263.361 27.0858C263.959 27.2487 264.262 27.598 264.262 28.1335C264.262 28.7156 263.85 29.4761 263.019 30.4385C262.188 31.3931 261.504 31.9907 260.968 32.2313L260.976 32.2468Z" fill="white"/>
<path d="M275.268 12.0217C275.268 11.9053 274.95 11.6182 274.313 11.168C273.676 10.7179 273.319 10.4928 273.233 10.4928C273.07 10.4928 272.923 10.6946 272.783 11.1059C272.643 11.5173 272.573 11.8199 272.573 12.0217C272.573 12.6814 272.899 13.0074 273.56 13.0074C273.762 13.0074 274.096 12.8754 274.562 12.6038C275.028 12.3322 275.268 12.1381 275.268 12.0217ZM276.014 11.5405C276.014 12.1769 275.781 12.8056 275.323 13.4265C274.787 14.0861 274.197 14.4121 273.56 14.4121C272.441 14.4121 271.882 13.7524 271.882 12.4408C271.882 11.7035 272.092 10.6868 272.511 9.39076C272.752 8.61466 272.868 7.77648 272.868 6.87621C272.829 4.84283 272.014 3.28288 270.414 2.21187C270.336 2.13426 270.375 1.83158 270.53 1.29607C270.693 0.768328 270.787 0.504456 270.833 0.504456C271.136 0.504456 271.61 0.993396 272.27 1.97128C273.125 3.29064 273.56 4.78075 273.56 6.45711C273.56 6.81412 273.505 7.21769 273.397 7.66782C273.288 8.11796 273.233 8.48273 273.233 8.76212C273.272 8.90182 273.381 9.03375 273.56 9.15017C275.199 9.84865 276.014 10.648 276.014 11.5405Z" fill="white"/>
<path d="M254.553 2.49128C254.7 2.63874 254.7 3.02679 254.553 3.64766C254.452 4.24526 254.304 4.54017 254.102 4.54017C254.102 4.54017 253.947 4.33839 253.636 3.94258C253.326 3.54677 252.992 3.34499 252.642 3.34499C251.92 3.34499 251.407 4.67987 251.112 7.3574C250.817 10.0349 250.537 11.3465 250.289 11.3C249.962 11.3 249.628 10.7179 249.279 9.54599C248.883 8.05589 248.191 6.89175 247.22 6.07685C247.174 6.20102 247.096 6.31744 246.995 6.41057C246.824 6.45713 246.389 6.29415 245.706 5.9061C245.022 5.51806 244.649 5.17657 244.603 4.88166C244.455 3.48468 244.712 2.79396 245.387 2.79396C246.607 2.74739 247.904 4.05123 249.271 6.71324C249.473 7.26427 249.76 7.89291 250.133 8.61468C250.281 7.34188 250.483 6.07685 250.731 4.80405C251.127 2.43695 251.764 1.28057 252.634 1.3349C253.31 1.3349 253.939 1.72295 254.537 2.49128H254.553Z" fill="white"/>
<path d="M254.289 19.7672C254.46 19.7672 254.483 20.1707 254.375 20.9779C254.266 21.6997 254.126 22.2119 253.955 22.5223C253.621 23.0268 253.186 23.2984 252.658 23.3527C252.215 23.4071 251.881 23.2674 251.656 22.9337C250.957 21.9635 250.669 20.5976 250.778 18.8436C250.887 17.8114 251.322 15.7858 252.075 12.7513C252.184 12.3632 252.324 12.0528 252.495 11.8355C252.914 11.1991 253.124 11.0982 253.124 11.5406C253.124 11.7346 253.023 12.0838 252.829 12.5805C252.106 15.4133 251.741 17.5553 251.741 19.0066C251.741 20.0078 251.881 20.6907 252.161 21.0477C252.332 21.2728 252.526 21.3815 252.743 21.3815C253.326 21.3815 253.73 20.9779 253.955 20.1707C254.009 19.8914 254.126 19.7517 254.289 19.7517V19.7672Z" fill="white"/>
<path d="M232.665 12.3865C232.665 13.7912 232.47 15.033 232.082 16.104C231.849 16.7482 231.624 17.0664 231.406 17.0664C231.251 17.0276 231.212 16.8335 231.29 16.4843C231.546 15.39 231.67 14.482 231.67 13.7602C231.67 10.9352 230.148 8.05589 227.103 5.13C227.025 5.05239 227.095 4.58674 227.305 3.72527C227.515 2.8638 227.67 2.43695 227.748 2.43695C228.315 2.43695 229.239 3.42259 230.528 5.39388C232.035 7.69888 232.742 10.0272 232.665 12.3865Z" fill="white"/>
<path d="M227.787 50.7412C227.864 50.8576 227.818 51.1059 227.639 51.4862C227.46 51.8665 227.336 52.076 227.258 52.1148C224.781 53.0306 222.295 53.9464 219.817 54.8622C216.656 56.0729 214.372 57.0741 212.966 57.8735C212.889 57.7183 212.889 57.4156 212.966 56.9655C213.044 56.5774 213.145 56.329 213.262 56.2359C217.712 54.2491 222.559 52.4098 227.787 50.7334V50.7412Z" fill="white"/>
<path d="M212.05 33.1005C212.05 33.8068 211.91 34.3423 211.638 34.707C211.11 35.2736 210.449 35.3124 209.649 34.8234C209.339 34.6682 209.121 34.4276 209.005 34.0939C208.865 33.8611 208.741 33.8378 208.624 34.0318C208.197 35.0097 207.614 35.4987 206.9 35.4987C206.566 35.4987 206.263 35.39 205.991 35.1805C205.641 34.9088 205.385 34.5441 205.23 34.1017C204.935 33.2247 204.826 32.1925 204.904 30.9973C204.593 31.0361 204.438 30.9585 204.438 30.7645C204.438 30.6481 204.554 30.3687 204.787 29.934C205.02 29.4917 205.168 29.2744 205.23 29.2744C205.618 29.2744 205.797 29.7711 205.758 30.7645C205.719 31.8355 205.766 32.6504 205.906 33.2092C206.045 33.768 206.395 34.0396 206.962 34.0396C207.311 34.0396 207.661 33.8844 208.003 33.5739C208.344 33.2635 208.492 32.8599 208.453 32.371C208.337 31.2224 208.236 30.5549 208.158 30.3687C208.08 30.1824 208.057 29.9961 208.104 29.7943C208.143 29.6779 208.205 29.4529 208.282 29.1191C208.36 28.8863 208.477 28.863 208.632 29.0571C208.748 29.2744 208.873 29.577 209.012 29.9651C209.129 30.4928 209.191 31.137 209.191 31.8976C209.23 32.4408 209.37 32.8832 209.603 33.2169C210.053 33.6826 210.512 33.8223 210.978 33.6283C211.133 33.5507 211.211 33.4342 211.211 33.279C211.211 32.9841 210.877 32.0916 210.216 30.586C210.115 30.4075 210.069 30.2057 210.069 29.9728C210.069 29.8952 210.092 29.8331 210.131 29.7943C210.31 29.1114 210.449 28.7699 210.574 28.7699C210.698 28.7699 210.768 28.9717 210.807 29.383C210.807 29.577 211.032 30.1514 211.482 31.1059C211.871 31.9441 212.065 32.6116 212.065 33.0928L212.05 33.1005Z" fill="white"/>
<path d="M196.856 30.291L200.763 32.5805L198.883 35.9643L195.046 33.7059L193.469 36.5231L189.562 34.2336L191.442 30.8498L195.272 33.1083L196.856 30.291Z" fill="white"/>
<path d="M206.124 51.3543L210.031 53.6438L208.151 57.0275L204.314 54.7691L202.737 57.5863L198.83 55.2968L200.71 51.9131L204.539 54.1715L206.124 51.3543Z" fill="white"/>
<path d="M172.917 52.2235L176.824 54.513L174.944 57.889L171.037 55.5995L172.917 52.2235Z" fill="white"/>
<path d="M216.625 15.778C216.625 15.8945 216.5 16.2437 216.252 16.8258C216.003 17.4078 215.801 17.7183 215.654 17.7571C208.648 20.1009 203.094 22.0023 198.993 23.4536C191.202 26.1777 185.633 28.2887 182.27 29.7788C182.27 29.3985 182.417 28.9717 182.712 28.506C183.007 28.0404 183.272 27.7377 183.497 27.6058C193.121 23.5778 204.158 19.643 216.625 15.7936V15.778Z" fill="white"/>
<path d="M209.346 2.66201C209.486 2.8017 209.486 3.15871 209.346 3.74078C209.253 4.29957 209.113 4.5712 208.927 4.5712C208.927 4.5712 208.779 4.38494 208.492 4.01241C208.204 3.63989 207.894 3.45362 207.567 3.45362C206.899 3.45362 206.418 4.69538 206.146 7.18665C205.866 9.67792 205.61 10.8964 205.385 10.8498C205.082 10.8498 204.771 10.3066 204.445 9.22002C204.072 7.83081 203.435 6.75203 202.534 5.99146C202.488 6.10787 202.418 6.20877 202.324 6.3019C202.161 6.34846 201.765 6.19324 201.128 5.83624C200.491 5.47924 200.15 5.16104 200.103 4.88164C199.963 3.58556 200.204 2.93364 200.833 2.93364C201.967 2.88707 203.171 4.10554 204.445 6.58129C204.631 7.09352 204.895 7.68335 205.245 8.35079C205.385 7.17113 205.571 5.99146 205.804 4.81179C206.177 2.61544 206.767 1.53667 207.575 1.58323C208.204 1.58323 208.795 1.94024 209.346 2.66201Z" fill="white"/>
<path d="M193.688 2.30501C193.828 2.44471 193.828 2.80171 193.688 3.38379C193.595 3.94257 193.455 4.21421 193.268 4.21421C193.268 4.21421 193.121 4.02795 192.833 3.65542C192.546 3.28289 192.235 3.09663 191.909 3.09663C191.241 3.09663 190.76 4.33838 190.488 6.82965C190.208 9.32092 189.952 10.5394 189.727 10.4928C189.424 10.4928 189.113 9.94956 188.787 8.86302C188.414 7.47381 187.777 6.39504 186.876 5.63446C186.829 5.75088 186.759 5.85177 186.666 5.9449C186.503 5.99147 186.107 5.83625 185.47 5.47925C184.833 5.12224 184.491 4.80404 184.445 4.52465C184.305 3.22857 184.546 2.57665 185.175 2.57665C186.309 2.53008 187.513 3.74855 188.787 6.2243C188.973 6.73652 189.237 7.32635 189.587 7.9938C189.727 6.81413 189.913 5.63446 190.146 4.4548C190.519 2.25845 191.109 1.17967 191.917 1.22624C192.546 1.22624 193.136 1.58324 193.688 2.30501Z" fill="white"/>
<path d="M192.64 16.0652C193.082 14.2336 192.795 13.3101 191.77 13.3101C190.853 13.3101 190.395 13.6904 190.395 14.4509C190.395 15.002 191.14 15.5375 192.64 16.0652ZM195.312 17.1285C195.312 17.2837 195.195 17.5941 194.954 18.052C194.721 18.5099 194.574 18.7427 194.519 18.7427C193.867 18.6418 193.129 18.4168 192.313 18.0753C190.768 20.489 187.606 23.019 182.829 25.6655C182.433 25.8751 181.431 26.2864 179.823 26.9073C178.208 27.5204 177.353 27.8075 177.245 27.7532C177.19 27.6523 178.029 27.1091 179.761 26.1389C185.719 22.9647 189.711 20.2018 191.762 17.8425C189.975 17.0276 189.09 16.0574 189.09 14.9321C189.09 14.3035 189.471 13.5196 190.232 12.5728C190.993 11.6259 191.715 11.1603 192.399 11.1603C193.261 11.1603 193.696 12.1304 193.696 14.0706C193.696 14.8312 193.564 15.5763 193.3 16.3136C194.636 16.7559 195.304 17.0353 195.304 17.1362L195.312 17.1285Z" fill="white"/>
<path d="M266.816 50.3454C266.816 51.3776 266.428 51.8898 265.659 51.8898C265.356 51.8898 265.092 51.7967 264.867 51.6182C264.742 51.525 264.641 51.5561 264.548 51.7113C264.168 52.2701 263.639 52.5495 262.956 52.5495C262.684 52.5495 262.459 52.4796 262.272 52.3477C261.651 51.9829 260.882 52.0062 259.973 52.4175C259.577 52.6271 258.901 53.1548 257.93 53.9853C257.371 54.482 256.835 54.9709 256.315 55.4366C255.406 56.1195 254.342 56.7016 253.13 57.1828C252.144 57.5941 251.476 57.7959 251.126 57.7959C251.033 57.7959 250.986 57.7648 250.986 57.7028C251.08 57.6096 251.25 57.5243 251.507 57.4311C251.965 57.2681 252.594 56.981 253.418 56.5929C254.901 55.7625 256.206 54.7691 257.325 53.6205C258.249 52.5883 259.243 51.8122 260.299 51.2844C261.045 50.8886 261.682 50.8576 262.21 51.1913C262.451 51.3853 262.707 51.4862 262.979 51.4862C263.764 51.4862 264.3 51.1059 264.571 50.3531C264.727 49.8952 264.913 49.6702 265.138 49.6702C265.201 49.6702 265.216 49.7478 265.185 49.8952C265.092 50.229 265.076 50.4307 265.138 50.5083C265.348 50.78 265.659 50.8576 266.071 50.7334C266.342 50.6713 266.374 50.5472 266.164 50.3454C266.001 50.2522 265.97 50.1203 266.071 49.934C266.249 49.4917 266.373 49.2744 266.436 49.2744C266.676 49.2744 266.801 49.6314 266.801 50.3454H266.816Z" fill="white"/>
<path d="M243.826 54.9864C243.95 54.9864 243.974 55.2891 243.888 55.8944C243.803 56.4377 243.702 56.818 243.578 57.0508C243.329 57.4234 243.003 57.6329 242.607 57.6717C242.273 57.7105 242.024 57.6096 241.853 57.3613C241.333 56.6317 241.115 55.615 241.193 54.3034C241.278 53.5351 241.597 52.014 242.164 49.7478C242.249 49.4528 242.35 49.2278 242.475 49.057C242.785 48.5759 242.941 48.506 242.941 48.8397C242.941 48.9872 242.871 49.2433 242.723 49.6236C242.18 51.7501 241.908 53.3488 241.908 54.4354C241.908 55.1882 242.009 55.6927 242.218 55.9643C242.343 56.1273 242.49 56.2126 242.653 56.2126C243.088 56.2126 243.391 55.91 243.562 55.3046C243.601 55.0951 243.686 54.9942 243.811 54.9942L243.826 54.9864Z" fill="white"/>
<path d="M251.391 31.9519C251.515 31.9519 251.538 32.2546 251.453 32.8599C251.367 33.4032 251.266 33.7835 251.142 34.0163C250.894 34.3888 250.567 34.5984 250.171 34.6372C249.837 34.676 249.589 34.5751 249.418 34.3267C248.897 33.5972 248.68 32.5805 248.758 31.2689C248.843 30.5006 249.161 28.9794 249.728 26.7132C249.814 26.4183 249.915 26.1933 250.039 26.0225C250.35 25.5413 250.505 25.4715 250.505 25.8052C250.505 25.9527 250.435 26.2088 250.288 26.5891C249.744 28.7156 249.472 30.3143 249.472 31.4009C249.472 32.1537 249.573 32.6581 249.783 32.9298C249.907 33.0928 250.055 33.1781 250.218 33.1781C250.653 33.1781 250.956 32.8755 251.127 32.2701C251.165 32.0605 251.251 31.9597 251.375 31.9597L251.391 31.9519Z" fill="white"/>
<path d="M279.012 22.111C279.136 22.111 279.159 22.4137 279.074 23.019C278.988 23.5623 278.887 23.9426 278.763 24.1754C278.515 24.5479 278.188 24.7575 277.792 24.7963C277.458 24.8351 277.21 24.7342 277.039 24.4858C276.518 23.7563 276.301 22.7396 276.379 21.428C276.464 20.6597 276.782 19.1385 277.35 16.8723C277.435 16.5774 277.536 16.3523 277.66 16.1816C277.971 15.7004 278.126 15.6306 278.126 15.9643C278.126 16.1118 278.056 16.3679 277.909 16.7482C277.365 18.8747 277.093 20.4734 277.093 21.56C277.093 22.3128 277.194 22.8172 277.404 23.0889C277.528 23.2518 277.676 23.3372 277.839 23.3372C278.274 23.3372 278.577 23.0345 278.748 22.4292C278.786 22.2196 278.872 22.1187 278.996 22.1187L279.012 22.111Z" fill="white"/>
<path d="M221.658 27.5592C221.782 27.5592 221.806 27.8618 221.72 28.4672C221.635 29.0105 221.534 29.3907 221.41 29.6236C221.161 29.9961 220.835 30.2057 220.439 30.2445C220.105 30.2833 219.856 30.1824 219.685 29.934C219.165 29.2045 218.947 28.1878 219.025 26.8762C219.111 26.1079 219.429 24.5867 219.996 22.3205C220.081 22.0256 220.182 21.8005 220.307 21.6298C220.617 21.1486 220.773 21.0788 220.773 21.4125C220.773 21.5599 220.703 21.8161 220.555 22.1963C220.012 24.3228 219.74 25.9216 219.74 27.0081C219.74 27.7609 219.841 28.2654 220.05 28.537C220.175 28.7 220.322 28.7854 220.485 28.7854C220.92 28.7854 221.223 28.4827 221.394 27.8774C221.433 27.6678 221.518 27.5669 221.643 27.5669L221.658 27.5592Z" fill="white"/>
<path d="M174.86 2.48351C175 2.62321 175 2.98021 174.86 3.56228C174.767 4.12107 174.627 4.39271 174.44 4.39271C174.44 4.39271 174.293 4.20644 174.005 3.83392C173.718 3.46139 173.407 3.27513 173.081 3.27513C172.413 3.27513 171.931 4.51688 171.66 7.00815C171.38 9.49942 171.124 10.7179 170.898 10.6713C170.595 10.6713 170.285 10.1281 169.959 9.04152C169.586 7.65231 168.949 6.57354 168.048 5.81296C168.001 5.92938 167.931 6.03027 167.838 6.1234C167.675 6.16997 167.279 6.01475 166.642 5.65774C166.005 5.30074 165.663 4.98254 165.617 4.70314C165.477 3.40706 165.718 2.75514 166.347 2.75514C167.481 2.70858 168.685 3.92705 169.959 6.40279C170.145 6.91502 170.409 7.50485 170.759 8.17229C170.898 6.99263 171.085 5.81296 171.318 4.6333C171.691 2.43694 172.281 1.35817 173.089 1.40474C173.718 1.40474 174.308 1.76174 174.86 2.48351Z" fill="white"/>
<path d="M173.849 25.4715C174.043 25.4715 174.082 25.9449 173.95 26.8995C173.818 27.7532 173.655 28.3663 173.453 28.7233C173.056 29.3131 172.544 29.6469 171.922 29.709C171.394 29.7788 170.998 29.6081 170.734 29.2123C169.911 28.0636 169.561 26.4494 169.693 24.3772C169.825 23.1587 170.338 20.7606 171.223 17.175C171.355 16.7171 171.519 16.3523 171.72 16.0885C172.218 15.3279 172.458 15.2192 172.458 15.7392C172.458 15.9721 172.342 16.3834 172.109 16.9732C171.254 20.326 170.827 22.8638 170.827 24.5712C170.827 25.7586 170.99 26.5658 171.324 26.9926C171.519 27.2565 171.752 27.3884 172.016 27.3884C172.707 27.3884 173.189 26.915 173.445 25.9604C173.515 25.6345 173.639 25.4637 173.841 25.4637L173.849 25.4715Z" fill="white"/>
<path d="M126.118 26.0303L130.025 28.3198L128.145 31.7035L124.238 29.4063L126.118 26.0303Z" fill="white"/>
<path d="M111.819 28.8553L115.726 31.1447L113.846 34.5208L110.017 32.2701L108.432 35.0873L104.525 32.7978L106.405 29.414L110.242 31.6725L111.819 28.8553Z" fill="white"/>
<path d="M145.311 5.16881C145.754 3.33723 145.467 2.41367 144.442 2.41367C143.525 2.41367 143.067 2.79396 143.067 3.55453C143.067 4.10556 143.812 4.64107 145.311 5.16881ZM147.983 6.23207C147.983 6.38728 147.867 6.69772 147.626 7.15562C147.393 7.61352 147.246 7.84635 147.191 7.84635C146.539 7.74545 145.801 7.52039 144.985 7.1789C143.44 9.59256 140.278 12.1226 135.501 14.7691C135.105 14.9787 134.103 15.39 132.495 16.0109C130.88 16.624 130.025 16.9111 129.917 16.8568C129.862 16.7559 130.701 16.2127 132.433 15.2425C138.391 12.0683 142.383 9.30541 144.434 6.94607C142.647 6.13117 141.762 5.16105 141.762 4.03571C141.762 3.40707 142.142 2.62322 142.904 1.67638C143.665 0.729543 144.387 0.263885 145.071 0.263885C145.933 0.263885 146.368 1.23401 146.368 3.17425C146.368 3.93482 146.236 4.67987 145.972 5.41716C147.308 5.85954 147.976 6.13893 147.976 6.23983L147.983 6.23207Z" fill="white"/>
<path d="M149.732 19.8293C149.732 20.3958 149.623 20.8304 149.398 21.1253C148.971 21.5832 148.435 21.6143 147.79 21.2185C147.542 21.0943 147.363 20.9003 147.27 20.6286C147.161 20.4424 147.06 20.4269 146.967 20.5821C146.617 21.3659 146.159 21.7617 145.576 21.7617C145.312 21.7617 145.064 21.6764 144.846 21.5056C144.567 21.2883 144.357 20.9934 144.233 20.6364C144 19.9302 143.906 19.092 143.976 18.1374C143.728 18.1684 143.596 18.1063 143.596 17.9511C143.596 17.858 143.689 17.6329 143.875 17.2759C144.062 16.9189 144.186 16.7482 144.233 16.7482C144.543 16.7482 144.691 17.1517 144.66 17.9511C144.629 18.8126 144.668 19.4723 144.776 19.9224C144.885 20.3725 145.172 20.5976 145.623 20.5976C145.903 20.5976 146.182 20.4734 146.462 20.2173C146.734 19.969 146.858 19.643 146.827 19.2472C146.734 18.3159 146.656 17.7804 146.594 17.6329C146.532 17.4854 146.516 17.3302 146.547 17.175C146.578 17.0819 146.625 16.9034 146.687 16.6317C146.749 16.4455 146.842 16.43 146.967 16.5852C147.06 16.7559 147.161 17.0043 147.27 17.3147C147.363 17.7416 147.409 18.2615 147.409 18.8747C147.441 19.317 147.549 19.6663 147.743 19.9379C148.109 20.3182 148.474 20.4269 148.854 20.2716C148.978 20.2095 149.041 20.1164 149.041 19.9922C149.041 19.7594 148.777 19.0299 148.241 17.8192C148.163 17.6795 148.124 17.5165 148.124 17.3225C148.124 17.2604 148.14 17.2138 148.171 17.1828C148.31 16.6317 148.427 16.3601 148.528 16.3601C148.629 16.3601 148.683 16.5231 148.714 16.8568C148.714 17.012 148.893 17.4777 149.258 18.246C149.569 18.9212 149.732 19.4567 149.732 19.8525V19.8293Z" fill="white"/>
<path d="M134.461 9.10361C134.461 9.22002 134.336 9.56927 134.088 10.1513C133.839 10.7334 133.637 11.0438 133.49 11.0827C126.483 13.4265 120.93 15.3279 116.829 16.7792C109.038 19.5033 103.469 21.6143 100.105 23.1044C100.105 22.7241 100.253 22.2972 100.548 21.8316C100.843 21.3659 101.107 21.0633 101.333 20.9313C110.956 16.9034 121.994 12.9686 134.461 9.11913V9.10361Z" fill="white"/>
<path d="M131.229 1.07878C131.369 1.21848 131.369 1.57549 131.229 2.15756C131.136 2.71635 130.996 2.98798 130.809 2.98798C130.809 2.98798 130.662 2.80172 130.375 2.42919C130.087 2.05667 129.776 1.8704 129.45 1.8704C128.782 1.8704 128.301 3.11216 128.029 5.60343C127.749 8.0947 127.493 9.31317 127.268 9.2666C126.965 9.2666 126.654 8.72333 126.328 7.6368C125.955 6.24759 125.318 5.16881 124.417 4.40824C124.37 4.52465 124.3 4.62554 124.207 4.71868C124.044 4.76524 123.648 4.61002 123.011 4.25302C122.374 3.89601 122.032 3.57781 121.986 3.29842C121.846 2.00234 122.087 1.35042 122.716 1.35042C123.85 1.30385 125.054 2.52232 126.328 4.99807C126.514 5.51029 126.778 6.10013 127.128 6.76757C127.268 5.5879 127.454 4.40824 127.687 3.22857C128.06 1.03222 128.65 -0.0465549 129.458 1.08874e-05C130.087 1.08874e-05 130.677 0.357015 131.229 1.07878Z" fill="white"/>
<path d="M111.873 1.78502C112.013 1.92472 112.013 2.28172 111.873 2.8638C111.78 3.42259 111.64 3.69422 111.454 3.69422C111.454 3.69422 111.306 3.50796 111.019 3.13543C110.732 2.7629 110.421 2.57664 110.095 2.57664C109.427 2.57664 108.945 3.81839 108.673 6.30966C108.394 8.80093 108.137 10.0194 107.912 9.97284C107.609 9.97284 107.298 9.42957 106.972 8.34304C106.599 6.95382 105.962 5.87505 105.061 5.11448C105.015 5.23089 104.945 5.33178 104.852 5.42491C104.689 5.47148 104.292 5.31626 103.656 4.95926C103.019 4.60225 102.677 4.28405 102.63 4.00466C102.49 2.70858 102.731 2.05666 103.36 2.05666C104.494 2.01009 105.698 3.22856 106.972 5.70431C107.159 6.21653 107.423 6.80637 107.772 7.47381C107.912 6.29414 108.098 5.11448 108.332 3.93481C108.704 1.73846 109.295 0.659683 110.102 0.706249C110.732 0.706249 111.322 1.06325 111.873 1.78502Z" fill="white"/>
<path d="M79.274 51.1758L83.181 53.4653L81.3013 56.849L77.4642 54.5984L75.8875 57.4156L71.9805 55.1183L73.8602 51.7423L77.6895 53.993L79.274 51.1758Z" fill="white"/>
<path d="M52.9266 51.5173L56.8413 53.8068L54.9616 57.1905L51.0469 54.9011L52.9266 51.5173Z" fill="white"/>
<path d="M34.1063 27.924L38.0133 30.2212L36.1336 33.5972L32.2266 31.3077L34.1063 27.924Z" fill="white"/>
<path d="M27.7213 50.8265L31.6283 53.116L29.7486 56.4998L25.9193 54.2414L24.3347 57.0586L20.4277 54.7691L22.3074 51.3931L26.1445 53.6438L27.7213 50.8265Z" fill="white"/>
<path d="M83.5843 19.3093C83.6697 19.4412 83.6154 19.7206 83.4212 20.1475C83.227 20.5743 83.0794 20.8149 82.994 20.8537C80.1977 21.8859 77.4015 22.9181 74.613 23.9503C71.0477 25.3163 68.4767 26.4494 66.8922 27.3496C66.8068 27.1711 66.8068 26.8296 66.8922 26.3252C66.9776 25.8828 67.0942 25.6112 67.2262 25.5025C72.2439 23.2596 77.6966 21.1952 83.5921 19.3015L83.5843 19.3093Z" fill="white"/>
<path d="M74.2167 9.37523C74.2167 10.5937 74.0458 11.6647 73.7118 12.596C73.5099 13.1548 73.3157 13.4342 73.1293 13.4342C72.9972 13.4032 72.9584 13.2324 73.0283 12.9297C73.2458 11.9829 73.3545 11.1991 73.3545 10.5704C73.3545 8.11795 72.0341 5.63444 69.4009 3.09661C69.331 3.02676 69.3932 2.62319 69.5796 1.87814C69.766 1.13309 69.8903 0.760559 69.9602 0.760559C70.4495 0.760559 71.2496 1.61427 72.3681 3.32168C73.673 5.31624 74.2866 7.33409 74.2167 9.37523Z" fill="white"/>
<path d="M53.0898 10.1281C53.0898 11.3465 52.9189 12.4176 52.5849 13.3489C52.3829 13.9077 52.1887 14.187 52.0023 14.187C51.8703 14.156 51.8315 13.9853 51.9014 13.6826C52.1188 12.7357 52.2276 11.9519 52.2276 11.3233C52.2276 8.87079 50.9071 6.38728 48.274 3.84945C48.2041 3.7796 48.2662 3.37603 48.4526 2.63098C48.6391 1.88592 48.7633 1.5134 48.8332 1.5134C49.3226 1.5134 50.1226 2.3671 51.2411 4.07451C52.5461 6.06908 53.1597 8.08693 53.0898 10.1281Z" fill="white"/>
<path d="M60.2058 18.2771C60.2757 18.3857 60.2369 18.6185 60.066 18.9755C59.9029 19.3325 59.7786 19.5266 59.7087 19.5654C57.3785 20.4268 55.0483 21.2883 52.7103 22.1498C49.7354 23.2906 47.5916 24.2297 46.2634 24.9825C46.1935 24.8351 46.1935 24.5479 46.2634 24.1288C46.3333 23.7641 46.4265 23.5312 46.543 23.4381C50.7296 21.5677 55.2813 19.8448 60.2058 18.2615V18.2771Z" fill="white"/>
<path d="M30.0913 26.333C30.0913 26.8995 29.9826 27.3341 29.7573 27.629C29.3301 28.0869 28.7942 28.118 28.1495 27.7222C27.9009 27.598 27.7223 27.404 27.629 27.1323C27.5203 26.9461 27.4193 26.9305 27.3261 27.0858C26.9766 27.8696 26.5183 28.2654 25.9358 28.2654C25.6717 28.2654 25.4231 28.1801 25.2056 28.0093C24.926 27.792 24.7163 27.4971 24.592 27.1401C24.359 26.4338 24.2658 25.5957 24.3357 24.6411C24.0871 24.6721 23.9551 24.61 23.9551 24.4548C23.9551 24.3617 24.0483 24.1366 24.2347 23.7796C24.4211 23.4226 24.5454 23.2518 24.592 23.2518C24.9027 23.2518 25.0503 23.6554 25.0192 24.4548C24.9881 25.3163 25.027 25.9759 25.1357 26.4261C25.2445 26.8762 25.5319 27.1013 25.9824 27.1013C26.262 27.1013 26.5416 26.9771 26.8212 26.721C27.0931 26.4726 27.2174 26.1467 27.1863 25.7509C27.0931 24.8196 27.0154 24.2841 26.9533 24.1366C26.8911 23.9891 26.8756 23.8339 26.9067 23.6787C26.9377 23.5856 26.9844 23.4071 27.0465 23.1354C27.1086 22.9492 27.2018 22.9336 27.3261 23.0889C27.4193 23.2596 27.5203 23.508 27.629 23.8184C27.7223 24.2453 27.7689 24.7652 27.7689 25.3784C27.7999 25.8207 27.9087 26.17 28.1029 26.4416C28.4679 26.8219 28.833 26.9305 29.2136 26.7753C29.3379 26.7132 29.4 26.6201 29.4 26.4959C29.4 26.2631 29.1359 25.5336 28.6 24.3229C28.5223 24.1832 28.4835 24.0202 28.4835 23.8262C28.4835 23.7641 28.499 23.7175 28.5301 23.6865C28.6699 23.1354 28.7864 22.8638 28.8874 22.8638C28.9883 22.8638 29.0427 23.0268 29.0738 23.3605C29.0738 23.5157 29.2524 23.9814 29.6175 24.7497C29.9282 25.4249 30.0913 25.9604 30.0913 26.3562V26.333Z" fill="white"/>
<path d="M37.4229 6.86844C37.8657 6.86844 37.6715 7.49708 36.8404 8.74659C31.6362 10.6092 25.4456 13.085 18.2608 16.1738C10.3536 19.5421 5.83302 21.6531 4.69122 22.5145C5.58447 23.407 6.66413 24.0279 7.94575 24.3927C7.86031 25.3939 7.57291 25.8983 7.06804 25.8983C6.6253 25.8983 5.94177 25.5568 5.02522 24.8739C4.10867 24.1909 3.65039 23.6554 3.65039 23.2674C3.65039 21.8471 3.94555 20.9313 4.5281 20.5122C5.83302 19.674 11.4721 17.175 21.4377 13.0074C31.3488 8.91733 36.6773 6.8762 37.4229 6.8762V6.86844Z" fill="white"/>
<path d="M5.31288 39.3093C4.76917 41.3116 3.87592 42.305 2.62537 42.305C1.93408 42.305 1.4292 42.0567 1.0952 41.5522C0.365067 40.3881 0 39.1463 0 37.8347C0 36.8956 0.17865 35.5995 0.528181 33.9309C0.901015 31.8898 1.57678 29.5926 2.56323 27.0314C2.95937 26.0924 3.2623 25.6267 3.47202 25.6267C3.55746 25.6655 3.59629 25.7742 3.59629 25.9371C3.59629 26.2321 3.49532 26.6744 3.2856 27.2798C2.85063 28.506 2.24477 30.8266 1.4758 34.2414C1.1418 36.1583 1.23501 37.6019 1.75543 38.5798C2.08942 39.2705 2.57877 39.612 3.22346 39.612C3.59629 39.612 3.91476 39.4645 4.16331 39.1773C4.34973 38.9678 4.59052 38.6263 4.88568 38.1451C5.04879 37.7726 5.18084 37.5864 5.25851 37.5864C5.65465 37.5864 5.67795 38.1607 5.32065 39.3015L5.31288 39.3093Z" fill="white"/>
<path d="M19.4498 29.383L23.3646 31.6725L21.4849 35.0485L17.6478 32.7978L16.071 35.615L12.1562 33.3256L14.036 29.9418L17.873 32.2002L19.4498 29.383Z" fill="white"/>
<path d="M48.2429 50.6248C48.3128 50.7334 48.274 50.9663 48.1031 51.3233C47.94 51.6803 47.8157 51.8743 47.7458 51.9131C45.4156 52.7746 43.0854 53.636 40.7474 54.4975C37.7725 55.6384 35.6287 56.5774 34.3005 57.3302C34.2306 57.1828 34.2306 56.8956 34.3005 56.4765C34.3704 56.1118 34.4636 55.8789 34.5801 55.7858C38.7667 53.9154 43.3184 52.1925 48.2429 50.6093V50.6248Z" fill="white"/>
<path d="M14.5163 1.58323C14.6716 1.73845 14.6716 2.14978 14.5163 2.80946C14.4075 3.44586 14.2522 3.7563 14.0425 3.7563L13.5454 3.1199C13.2191 2.70081 12.8696 2.49126 12.4968 2.49126C11.7356 2.49126 11.1918 3.91152 10.8734 6.74427C10.5549 9.57702 10.2675 10.9662 10.0034 10.9119C9.66168 10.9119 9.30438 10.291 8.93931 9.05704C8.51987 7.4738 7.78974 6.24757 6.76445 5.37834C6.71007 5.51028 6.6324 5.62669 6.52366 5.73535C6.33724 5.78967 5.88673 5.61117 5.1566 5.19984C4.43423 4.78851 4.04586 4.4315 3.99149 4.1133C3.83615 2.63872 4.108 1.90143 4.8226 1.90143C6.11199 1.8471 7.48681 3.22855 8.93931 6.05354C9.14903 6.63562 9.45196 7.30306 9.84809 8.0714C10.0034 6.72875 10.2209 5.3861 10.4773 4.03569C10.8967 1.5289 11.5724 0.310433 12.4968 0.356998C13.2114 0.356998 13.8794 0.768329 14.5163 1.58323Z" fill="white"/>
<path d="M31.5827 1.76173C31.738 1.91695 31.738 2.32828 31.5827 2.98796C31.4739 3.62436 31.3186 3.9348 31.1089 3.9348L30.6118 3.2984C30.2855 2.87931 29.936 2.66976 29.5632 2.66976C28.802 2.66976 28.2583 4.09002 27.9398 6.92277C27.6213 9.75552 27.3339 11.1447 27.0698 11.0904C26.7281 11.0904 26.3708 10.4695 26.0057 9.23553C25.5863 7.6523 24.8561 6.42607 23.8309 5.55684C23.7765 5.68877 23.6988 5.80519 23.5901 5.91384C23.4036 5.96817 22.9531 5.78967 22.223 5.37834C21.5006 4.96701 21.1123 4.61 21.0579 4.2918C20.9026 2.81722 21.1744 2.07993 21.889 2.07993C23.1784 2.0256 24.5532 3.40705 26.0057 6.23204C26.2154 6.81411 26.5184 7.48156 26.9145 8.24989C27.0698 6.90725 27.2873 5.5646 27.5437 4.21419C27.9631 1.7074 28.6389 0.48893 29.5632 0.535496C30.2778 0.535496 30.9458 0.946827 31.5827 1.76173Z" fill="white"/>
<path d="M78.6446 35.8401C78.2717 37.2216 77.6504 37.9123 76.7804 37.9123C76.3066 37.9123 75.9493 37.7416 75.7163 37.3923C75.2114 36.5852 74.9551 35.7315 74.9551 34.8235C74.9551 34.1715 75.0794 33.2713 75.3201 32.1226C75.5765 30.7101 76.0503 29.1191 76.726 27.3419C76.9979 26.69 77.2076 26.3718 77.3552 26.3718C77.4096 26.4028 77.4406 26.4727 77.4406 26.5891C77.4406 26.7909 77.3707 27.1013 77.2231 27.5204C76.9202 28.3741 76.5008 29.9806 75.9648 32.3399C75.7318 33.6671 75.8017 34.6682 76.159 35.3434C76.392 35.8169 76.726 36.0574 77.1765 36.0574C77.4329 36.0574 77.6504 35.9566 77.829 35.7548C77.961 35.6073 78.1242 35.3745 78.3261 35.0408C78.4426 34.7846 78.5281 34.6527 78.5824 34.6527C78.8543 34.6527 78.8698 35.0485 78.629 35.8401H78.6446Z" fill="white"/>
<path d="M111.02 54.4742C110.647 55.8557 110.025 56.5464 109.155 56.5464C108.682 56.5464 108.324 56.3756 108.091 56.0264C107.586 55.2193 107.33 54.3655 107.33 53.4575C107.33 52.8056 107.454 51.9053 107.695 50.7567C107.951 49.3442 108.425 47.7532 109.101 45.9759C109.373 45.324 109.583 45.0058 109.73 45.0058C109.785 45.0369 109.816 45.1067 109.816 45.2231C109.816 45.4249 109.746 45.7354 109.598 46.1545C109.295 47.0082 108.876 48.6147 108.34 50.974C108.107 52.3011 108.177 53.3023 108.534 53.9775C108.767 54.4509 109.101 54.6915 109.552 54.6915C109.808 54.6915 110.025 54.5906 110.204 54.3888C110.336 54.2414 110.499 54.0085 110.701 53.6748C110.818 53.4187 110.903 53.2868 110.957 53.2868C111.229 53.2868 111.245 53.6826 111.004 54.4742H111.02Z" fill="white"/>
<path d="M147.082 55.1727C146.709 56.5541 146.088 57.2449 145.218 57.2449C144.744 57.2449 144.387 57.0741 144.154 56.7249C143.649 55.9177 143.393 55.064 143.393 54.156C143.393 53.5041 143.517 52.6038 143.758 51.4552C144.014 50.0427 144.488 48.4517 145.164 46.6744C145.435 46.0225 145.645 45.7043 145.793 45.7043C145.847 45.7354 145.878 45.8052 145.878 45.9216C145.878 46.1234 145.808 46.4338 145.661 46.8529C145.358 47.7066 144.938 49.3132 144.402 51.6725C144.169 52.9996 144.239 54.0008 144.597 54.676C144.83 55.1494 145.164 55.39 145.614 55.39C145.87 55.39 146.088 55.2891 146.267 55.0873C146.399 54.9399 146.562 54.707 146.764 54.3733C146.88 54.1172 146.966 53.9853 147.02 53.9853C147.292 53.9853 147.307 54.3811 147.067 55.1727H147.082Z" fill="white"/>
<path d="M162.57 55.8789C162.198 57.2604 161.576 57.9511 160.706 57.9511C160.232 57.9511 159.875 57.7804 159.642 57.4311C159.137 56.624 158.881 55.7703 158.881 54.8622C158.881 54.2103 159.005 53.31 159.246 52.1614C159.502 50.7489 159.976 49.1579 160.652 47.3807C160.924 46.7288 161.133 46.4106 161.281 46.4106C161.335 46.4416 161.366 46.5114 161.366 46.6279C161.366 46.8296 161.297 47.1401 161.149 47.5592C160.846 48.4129 160.427 50.0194 159.891 52.3787C159.658 53.7059 159.728 54.707 160.085 55.3822C160.318 55.8556 160.652 56.0962 161.102 56.0962C161.359 56.0962 161.576 55.9953 161.755 55.7936C161.887 55.6461 162.05 55.4133 162.252 55.0795C162.368 54.8234 162.454 54.6915 162.508 54.6915C162.78 54.6915 162.796 55.0873 162.555 55.8789H162.57Z" fill="white"/>
<path d="M182.27 14.9166C181.897 16.298 181.275 16.9887 180.405 16.9887C179.932 16.9887 179.574 16.818 179.341 16.4687C178.836 15.6616 178.58 14.8079 178.58 13.8999C178.58 13.2479 178.704 12.3477 178.945 11.1991C179.201 9.78656 179.675 8.19556 180.351 6.4183C180.623 5.76638 180.833 5.44818 180.98 5.44818C181.035 5.47923 181.066 5.54907 181.066 5.66549C181.066 5.86727 180.996 6.17771 180.848 6.5968C180.545 7.45051 180.126 9.05703 179.59 11.4164C179.357 12.7435 179.427 13.7446 179.784 14.4199C180.017 14.8933 180.351 15.1339 180.802 15.1339C181.058 15.1339 181.275 15.033 181.454 14.8312C181.586 14.6837 181.749 14.4509 181.951 14.1172C182.068 13.8611 182.153 13.7291 182.207 13.7291C182.479 13.7291 182.495 14.1249 182.254 14.9166H182.27Z" fill="white"/>
<path d="M123.338 25.6422C122.965 27.0237 122.344 27.7144 121.474 27.7144C121 27.7144 120.643 27.5437 120.41 27.1944C119.905 26.3873 119.648 25.5336 119.648 24.6255C119.648 23.9736 119.773 23.0734 120.014 21.9247C120.27 20.5122 120.744 18.9212 121.419 17.144C121.691 16.4921 121.901 16.1739 122.049 16.1739C122.103 16.2049 122.134 16.2748 122.134 16.3912C122.134 16.593 122.064 16.9034 121.917 17.3225C121.614 18.1762 121.194 19.7827 120.658 22.142C120.425 23.4692 120.495 24.4703 120.852 25.1455C121.085 25.619 121.419 25.8595 121.87 25.8595C122.126 25.8595 122.344 25.7586 122.522 25.5569C122.654 25.4094 122.818 25.1766 123.019 24.8429C123.136 24.5867 123.221 24.4548 123.276 24.4548C123.548 24.4548 123.563 24.8506 123.322 25.6422H123.338Z" fill="white"/>
<path d="M129.491 56.3679C128.535 57.4078 127.316 57.9278 125.809 57.9278C124.745 57.8968 124.209 57.5475 124.209 56.8646C124.209 56.5309 124.372 56.0574 124.706 55.4366C125.056 54.7614 125.39 54.319 125.724 54.1172C125.133 53.7292 124.838 53.3566 124.838 52.9919C124.838 52.7047 125.063 52.3089 125.522 51.8044C125.972 51.3 126.399 51.0439 126.788 51.0439C127.122 51.0439 127.285 51.2689 127.285 51.7113C127.285 51.7967 127.238 51.9519 127.145 52.177C127.052 52.402 126.959 52.5107 126.873 52.5107C126.819 52.4796 126.772 52.4253 126.741 52.3399C126.687 52.1537 126.57 52.0605 126.392 52.0605C126.291 52.0605 126.135 52.1226 125.933 52.2468C125.731 52.371 125.63 52.4874 125.63 52.6038C125.63 52.9919 126.042 53.1859 126.865 53.1859C127.036 53.1859 127.308 53.0462 127.665 52.7746C127.898 52.5728 128.093 52.4874 128.248 52.5184C128.333 52.5184 128.318 52.759 128.201 53.2324C128.132 53.3489 127.976 53.4653 127.751 53.5817C127.246 53.7524 126.656 54.1405 125.98 54.7303C125.242 55.3512 124.877 55.8246 124.877 56.1583C124.877 56.5929 125.382 56.8102 126.392 56.8102C127.215 56.8102 128.17 56.5774 129.266 56.1195C129.436 56.0652 129.553 56.0497 129.615 56.073C129.669 56.1273 129.631 56.2282 129.483 56.3756L129.491 56.3679Z" fill="white"/>
<path d="M366.294 56.5619C366.294 56.5076 366.154 56.4222 365.874 56.3136C365.595 56.2049 365.393 56.1506 365.276 56.1506C364.841 56.1506 364.321 56.3912 363.7 56.8646C363.109 57.2837 362.814 57.5631 362.814 57.7105C363.404 57.6795 364.135 57.5243 364.997 57.2449C365.859 56.9655 366.294 56.7404 366.294 56.5619ZM367.055 56.0186C367.055 56.7249 366.698 57.2992 365.991 57.7493C365.455 58.1063 364.616 58.4013 363.459 58.6341C362.402 58.8669 361.478 58.9833 360.67 58.9833C360.554 58.9833 360.204 58.8514 359.606 58.5953C359.016 58.3392 358.721 58.1529 358.721 58.052C358.721 57.9977 359.078 57.9666 359.785 57.9666C360.235 57.9977 360.88 57.9201 361.734 57.7493C362.659 57.1595 363.202 56.6861 363.381 56.3446C363.886 55.39 364.142 54.7226 364.142 54.3345C364.142 53.7136 363.917 53.4032 363.474 53.4032C363.218 53.4032 362.962 53.5972 362.713 53.9853C362.628 54.156 362.581 54.1172 362.581 53.8533C362.581 53.6515 362.69 53.3877 362.907 53.0539C363.195 52.6038 363.467 52.3865 363.707 52.3865C364.282 52.3865 364.57 52.7513 364.57 53.4886C364.57 54.0473 364.5 54.5518 364.352 55.002C364.236 55.3357 364.135 55.6461 364.049 55.9333C364.756 55.3978 365.238 55.1339 365.502 55.1339C366.542 55.1339 367.063 55.4288 367.063 56.0186H367.055Z" fill="white"/>
<path d="M331.146 55.8479C329.895 57.3069 328.357 58.0365 326.517 58.0365C324.676 58.0365 323.829 57.4622 323.829 56.3213C323.829 55.2348 324.256 54.2258 325.111 53.2945C325.235 53.1703 325.988 52.5572 327.363 51.4552C326.843 51.331 326.353 51.2689 325.895 51.2689C325.002 51.2689 324.373 51.3931 324.023 51.6414C323.899 51.7656 323.79 51.8044 323.713 51.7656C323.627 51.6802 323.627 51.5793 323.713 51.4552C324.008 50.6868 324.373 50.1979 324.808 49.9883C325.103 49.8254 325.693 49.74 326.586 49.74C327.876 49.74 328.521 49.9495 328.521 50.3609C328.521 51.3776 327.829 52.402 326.454 53.4187C325.227 54.2724 324.614 54.9786 324.614 55.5452C324.614 55.7935 324.847 56.0419 325.32 56.2825C325.786 56.5231 326.229 56.6395 326.649 56.6395C328.272 56.6395 329.662 56.298 330.804 55.6073C331.037 55.4831 331.192 55.4443 331.27 55.4831C331.394 55.5219 331.356 55.6461 331.146 55.8556V55.8479Z" fill="white"/>
<path d="M315.254 56.2127C315.378 56.2127 315.402 56.5153 315.316 57.1207C315.231 57.664 315.13 58.0443 315.005 58.2771C314.757 58.6496 314.431 58.8592 314.034 58.898C313.7 58.9368 313.452 58.8359 313.281 58.5875C312.761 57.858 312.543 56.8413 312.621 55.5297C312.706 54.7614 313.025 53.2402 313.592 50.974C313.677 50.6791 313.778 50.454 313.902 50.2833C314.213 49.8021 314.368 49.7323 314.368 50.066C314.368 50.2134 314.299 50.4696 314.151 50.8498C313.607 52.9763 313.335 54.5751 313.335 55.6616C313.335 56.4145 313.436 56.9189 313.646 57.1905C313.77 57.3535 313.918 57.4389 314.081 57.4389C314.516 57.4389 314.819 57.1362 314.99 56.5309C315.029 56.3213 315.114 56.2204 315.238 56.2204L315.254 56.2127Z" fill="white"/>
<path d="M304.761 50.9973C304.885 51.1215 304.885 51.4474 304.761 51.9674C304.675 52.4641 304.551 52.7202 304.388 52.7202C304.388 52.7202 304.256 52.5573 304 52.2235C303.736 51.8898 303.464 51.7268 303.169 51.7268C302.563 51.7268 302.136 52.8444 301.887 55.0873C301.638 57.3225 301.405 58.4245 301.196 58.378C300.924 58.378 300.644 57.889 300.349 56.9112C300.015 55.6616 299.44 54.6915 298.632 54.0085C298.594 54.1094 298.531 54.2103 298.446 54.2879C298.298 54.3267 297.941 54.1871 297.366 53.8689C296.792 53.5429 296.489 53.2635 296.442 53.0074C296.318 51.8432 296.535 51.2612 297.102 51.2612C298.12 51.2224 299.207 52.3089 300.349 54.5441C300.512 55.002 300.753 55.5297 301.071 56.1351C301.196 55.0718 301.367 54.0086 301.569 52.9531C301.903 50.974 302.431 50.0039 303.161 50.0505C303.72 50.0505 304.256 50.3764 304.753 51.0206L304.761 50.9973Z" fill="white"/>
<path d="M348.686 55.8634C348.81 55.8634 348.833 56.1661 348.748 56.7715C348.662 57.3147 348.561 57.695 348.437 57.9278C348.188 58.3004 347.862 58.5099 347.466 58.5487C347.132 58.5875 346.884 58.4866 346.713 58.2383C346.192 57.5088 345.975 56.4921 346.052 55.1805C346.138 54.4121 346.456 52.891 347.023 50.6248C347.109 50.3299 347.21 50.1048 347.334 49.934C347.645 49.4529 347.8 49.383 347.8 49.7167C347.8 49.8642 347.73 50.1203 347.583 50.5006C347.039 52.6271 346.767 54.2259 346.767 55.3124C346.767 56.0652 346.868 56.5697 347.078 56.8413C347.202 57.0043 347.35 57.0897 347.513 57.0897C347.948 57.0897 348.251 56.787 348.421 56.1816C348.46 55.9721 348.546 55.8712 348.67 55.8712L348.686 55.8634Z" fill="white"/>
<path d="M417.986 53.4187C417.986 52.728 417.737 52.3865 417.248 52.3865C416.836 52.3865 416.626 52.5262 416.626 52.7978C416.626 52.8599 416.789 52.9686 417.123 53.1315C417.45 53.2945 417.737 53.3877 417.986 53.4187ZM418.786 53.1471C418.786 54.0784 418.615 54.544 418.281 54.544C417.364 54.544 416.541 54.2336 415.826 53.605C415.733 54.1405 415.508 54.6449 415.135 55.1184C414.692 55.6228 413.294 56.3756 410.933 57.369C408.991 58.2383 407.834 58.7272 407.469 58.8359C405.892 59.1696 404.532 59.4179 403.383 59.5731H403.127C403.064 59.5421 403.049 59.5111 403.08 59.48C403.08 59.4179 403.158 59.3714 403.313 59.3403C403.725 59.2161 404.812 58.8126 406.575 58.1218C408.579 57.3458 410.032 56.7482 410.933 56.3368C413.139 55.4055 414.514 54.6682 415.065 54.1327C415.384 53.8145 415.593 53.5274 415.686 53.2868C415.811 52.8754 416.059 52.4253 416.432 51.9441C416.805 51.4629 417.123 51.2224 417.387 51.2224C417.721 51.2224 418.04 51.4319 418.343 51.851C418.638 52.2701 418.793 52.7047 418.793 53.1471H418.786Z" fill="white"/>
<path d="M400.042 53.085C400.042 52.8289 399.794 52.6969 399.305 52.6969C398.815 52.6969 398.116 53.248 397.169 54.35C397.402 54.3811 397.938 54.2103 398.776 53.8378C399.615 53.4653 400.042 53.2169 400.042 53.0927V53.085ZM400.796 52.4641C400.796 53.1548 400.454 53.7757 399.763 54.3423C398.862 55.0873 397.736 55.4676 396.392 55.4676C396.073 55.4676 395.817 55.4366 395.638 55.3745C394.885 55.0563 394.085 55.0718 393.23 55.421C392.236 55.8013 390.962 56.6162 389.424 57.8502C388.679 58.4789 388.151 58.8902 387.84 59.092C387.335 59.3636 386.737 59.6197 386.053 59.8525C385.455 60.0388 385.16 60.0543 385.16 59.8991C385.16 59.8215 385.238 59.7517 385.393 59.6896C385.712 59.5654 386.294 59.2938 387.141 58.8669C387.708 58.5177 388.617 57.7416 389.875 56.5541C391.009 55.5607 392.228 54.7924 393.549 54.2646C394.419 53.9464 395.009 53.8844 395.32 54.0784C395.732 54.35 396.205 54.4432 396.741 54.35C396.803 54.0318 397.161 53.5274 397.821 52.8366C398.574 52.0295 399.196 51.6182 399.701 51.6182C400.454 51.6182 400.827 51.8976 400.827 52.4641H400.796Z" fill="white"/>
</g>
<defs>
<clipPath id="clip0_1882_36086">
<rect width="433" height="60" fill="white"/>
</clipPath>
</defs>
</svg>
