<svg width="64" height="64" viewBox="0 0 64 64" fill="none" xmlns="http://www.w3.org/2000/svg">
<path d="M43.6333 57.9469C40.8803 57.8267 38.1885 57.128 35.7164 55.6412C35.4188 55.4623 35.2575 55.2304 35.1658 54.8922C34.6346 52.9638 34.1091 51.0298 33.5279 49.1154C32.6853 46.3429 32.7409 43.5649 33.336 40.7645C33.717 38.9647 34.376 37.2738 35.3882 35.7478C36.7119 33.7524 36.9372 31.6758 36.2642 29.3841C35.1658 25.6419 34.1703 21.8689 33.1386 18.1071C32.8327 16.992 33.2776 16.0669 34.2648 15.7036C35.2047 15.3598 36.2976 15.807 36.6257 16.76C36.9761 17.7745 37.2403 18.8226 37.5267 19.8594C38.4666 23.2607 39.4009 26.6648 40.3409 30.0688C40.3965 30.27 40.4549 30.4713 40.53 30.6641C40.7079 31.1085 41.1751 31.3265 41.6367 31.1895C42.0928 31.0554 42.3486 30.6893 42.2318 30.203C41.9954 29.2024 41.7201 28.2075 41.4476 27.2153C40.2268 22.7744 39.0116 18.3307 37.7742 13.8925C37.3626 12.4113 38.5556 11.3129 39.7346 11.4527C40.6023 11.5561 41.1612 12.0759 41.4059 12.9088C41.7007 13.9065 41.9649 14.9154 42.2429 15.9188C43.1689 19.2781 44.0922 22.6347 45.021 25.994C45.1934 26.6117 45.4742 26.8576 45.9859 26.8576C46.556 26.8576 46.9675 26.4048 46.834 25.8487C46.5421 24.6581 46.2139 23.4759 45.8886 22.2909C44.7318 18.0847 43.5722 13.8786 42.407 9.6724C42.2235 9.01003 42.1706 8.37002 42.6267 7.7887C43.0744 7.21297 43.6695 6.93629 44.3842 7.03131C45.1322 7.13193 45.7134 7.50922 45.9303 8.28338C46.4642 10.1783 46.9814 12.0759 47.5042 13.9708C48.547 17.7522 49.587 21.5363 50.6298 25.3177C50.666 25.4518 50.7105 25.5832 50.7605 25.7117C50.9552 26.1952 51.3834 26.4132 51.8784 26.2847C52.3289 26.1673 52.5903 25.7425 52.4791 25.2254C52.3539 24.6497 52.1871 24.0824 52.0314 23.5122C50.8106 19.0825 49.587 14.6527 48.3718 10.223C48.0215 8.94295 48.6416 7.94521 49.9041 7.72722C50.7327 7.58468 51.6532 8.16321 51.934 9.05475C52.2038 9.91554 52.4318 10.7903 52.6737 11.6595C53.8472 15.8964 55.0235 20.1361 56.1831 24.3758C56.2443 24.5966 56.2415 24.8649 56.1831 25.0885C55.5713 27.3215 54.9095 29.5406 54.3255 31.7792C53.9946 33.0481 53.2716 33.948 52.1509 34.5545C51.5002 34.9038 50.844 35.242 50.1794 35.5606C48.0882 36.5583 46.3446 38.006 44.8736 39.7779C43.4832 41.4492 42.3597 43.2966 41.57 45.334C41.4504 45.647 41.3308 45.9628 41.5505 46.2954C41.748 46.5945 42.0149 46.7454 42.3625 46.7342C42.7185 46.723 42.9993 46.5721 43.1606 46.2227C43.5861 45.3005 43.9615 44.3446 44.4676 43.4671C46.1833 40.5046 48.5498 38.2324 51.6671 36.7735C52.468 36.399 53.2271 35.9239 53.964 35.432C55.0346 34.7166 55.6909 33.6909 56.0302 32.4444C56.6225 30.2673 57.2204 28.0901 57.8349 25.9185C58.4022 23.9259 59.6397 22.5816 61.6335 21.9388C62.4538 21.676 63.0712 22.2657 62.9933 23.0651C62.6791 26.2176 62.2647 29.3506 61.4361 32.4137C60.7409 34.9821 60.1041 37.5701 59.1391 40.0574C58.2687 42.3016 57.2454 44.4732 55.6325 46.287C54.929 47.078 54.142 47.8074 53.33 48.4837C52.5236 49.1545 51.6476 49.7442 50.78 50.3367C49.1532 51.449 48.6443 53.0141 48.8557 54.9034C48.9336 55.5937 48.9669 56.2896 49.0309 56.9827C49.0531 57.2259 48.9586 57.3349 48.7222 57.388C47.0843 57.7513 45.427 57.9581 43.6417 57.9441L43.6333 57.9469Z" fill="url(#paint0_linear_800_2601)"/>
<path d="M19.1371 57.9944C17.9719 57.8127 16.5732 57.5947 15.1744 57.3795C14.9659 57.346 14.9269 57.223 14.9436 57.033C15.0215 56.1191 15.0994 55.208 15.1605 54.2941C15.2773 52.5418 14.507 51.2645 13.1139 50.2556C11.7763 49.2886 10.4276 48.316 9.22351 47.1953C7.26026 45.3675 5.98943 43.0366 5.04952 40.5465C3.40606 36.195 2.20197 31.7149 1.4734 27.1147C1.25371 25.7201 1.14526 24.3059 1.00622 22.9001C0.933921 22.1735 1.50121 21.7151 2.21309 21.9248C4.15966 22.5005 5.4861 23.7665 6.07841 25.7117C6.72912 27.8469 7.31309 30.0045 7.88038 32.1649C8.30028 33.7607 9.15121 35.01 10.5833 35.8233C11.4148 36.2956 12.2741 36.7204 13.1166 37.1732C16.5454 39.0233 18.9341 41.8209 20.4802 45.3787C20.5998 45.6554 20.6999 45.9404 20.8278 46.2115C21.0392 46.6615 21.5202 46.8488 21.9902 46.6755C22.4129 46.519 22.6409 46.0774 22.4907 45.6023C22.3517 45.1635 22.1793 44.7303 21.9874 44.3111C20.0575 40.0853 17.0153 36.9719 12.7941 35.0407C12.4993 34.9066 12.2073 34.7696 11.9209 34.6215C10.7808 34.0402 10.0299 33.1515 9.69068 31.8938C9.0789 29.6132 8.42541 27.3439 7.80529 25.0661C7.74412 24.8453 7.74968 24.577 7.81086 24.3534C8.76189 20.8711 9.72683 17.3916 10.689 13.9121C11.1172 12.361 11.5483 10.8126 11.9765 9.26153C12.1656 8.57401 12.5327 8.05138 13.239 7.81383C13.9286 7.58186 14.5432 7.72439 15.0771 8.18553C15.6194 8.65227 15.8529 9.26433 15.6722 9.96582C15.3023 11.3996 14.8991 12.8277 14.507 14.2558C13.5171 17.8611 12.5271 21.4664 11.5344 25.0717C11.4259 25.463 11.4231 25.8291 11.7763 26.1142C12.2991 26.5362 13.0332 26.3377 13.2251 25.6838C13.6116 24.373 13.9676 23.0566 14.3291 21.7375C15.5332 17.3748 16.74 13.0149 17.9302 8.64947C18.1721 7.75793 18.6532 7.16543 19.5959 7.0201C20.7833 6.83565 21.9318 7.95077 21.6732 9.12179C21.3701 10.4884 20.9724 11.8327 20.6026 13.1826C19.4763 17.291 18.3418 21.3965 17.2183 25.5049C17.1571 25.7313 17.1154 25.9884 17.1544 26.2176C17.2183 26.5921 17.577 26.8408 17.9636 26.852C18.4308 26.866 18.7505 26.6731 18.8785 26.2259C19.3345 24.6357 19.7739 23.0399 20.2133 21.444C20.978 18.6772 21.7427 15.9104 22.4963 13.1407C22.7188 12.3218 23.1581 11.721 24.0091 11.4974C25.2688 11.1648 26.5424 12.3079 26.2504 13.5795C25.8972 15.1138 25.4523 16.623 25.0352 18.1406C23.9534 22.0924 22.8634 26.0415 21.7816 29.9933C21.6899 30.3287 21.6648 30.6585 21.9374 30.938C22.4296 31.4382 23.236 31.2957 23.4557 30.625C23.7727 29.6468 24.0313 28.6462 24.3038 27.6541C25.2576 24.1969 26.2142 20.737 27.1569 17.277C27.3961 16.3966 27.8716 15.7762 28.8115 15.6225C30.0851 15.4129 31.2113 16.5587 30.9055 17.8136C30.5106 19.4318 30.0406 21.0332 29.5985 22.6402C28.9311 25.0745 28.2609 27.506 27.588 29.9374C27.0596 31.8407 27.2821 33.6433 28.3471 35.3062C29.6374 37.3241 30.4856 39.4956 30.861 41.8712C31.2892 44.5933 31.0862 47.2372 30.213 49.8587C29.6624 51.5133 29.2648 53.2209 28.8143 54.9089C28.7309 55.222 28.5863 55.4316 28.3054 55.6048C26.2532 56.8709 24.0202 57.578 21.6342 57.8183C20.889 57.8938 20.141 57.9273 19.1399 57.9972L19.1371 57.9944Z" fill="url(#paint1_linear_800_2601)"/>
<defs>
<linearGradient id="paint0_linear_800_2601" x1="47.9458" y1="7.01294" x2="47.9458" y2="57.9469" gradientUnits="userSpaceOnUse">
<stop stop-color="#3096A3"/>
<stop offset="1" stop-color="#64A445"/>
</linearGradient>
<linearGradient id="paint1_linear_800_2601" x1="16.0387" y1="7" x2="16.0387" y2="57.9972" gradientUnits="userSpaceOnUse">
<stop stop-color="#3096A3"/>
<stop offset="1" stop-color="#64A445"/>
</linearGradient>
</defs>
</svg>
