<svg width="220" height="220" viewBox="0 0 220 220" fill="none" xmlns="http://www.w3.org/2000/svg">
<path d="M106.521 191.332C92.2314 167.957 71.971 155.557 44.6953 155.618V61.0527C46.8611 61.1935 48.9925 61.2464 51.1065 61.4928C59.6749 62.4961 68.0017 64.5203 76.0783 67.6182C76.8376 67.9086 77.2259 68.2959 77.5279 69.1231C81.7301 80.6347 89.6773 88.0626 101.24 91.4422C102.948 91.9438 104.726 92.1991 106.512 92.5775V191.332H106.521ZM58.4841 138.175V145.163C72.5146 145.612 84.336 150.954 93.612 161.532C95.2946 159.843 96.8909 158.241 98.5218 156.604C87.8048 144.688 74.62 138.219 58.4841 138.166V138.175ZM58.441 103.059C72.5577 103.517 84.3792 108.868 93.5257 119.341C95.2687 117.678 96.8996 116.12 98.5477 114.536C87.7444 102.549 74.551 96.089 58.4324 96.0714V103.051L58.441 103.059ZM58.4237 124.12C65.2405 124.296 71.6776 125.722 77.8472 128.52C84.0513 131.328 89.1682 135.579 93.6638 140.516C95.3291 138.853 96.9255 137.251 98.5908 135.596C92.1192 128.538 84.6812 122.976 75.5778 119.887C70.0036 117.994 64.3 117.15 58.4237 117.132V124.12Z" fill="url(#paint0_linear_5791_172643)"/>
<path d="M175.328 60.8945V155.733C162.54 155.319 150.598 158.303 139.501 164.719C128.405 171.126 120.052 180.314 113.52 191.623C113.494 191.156 113.459 190.892 113.459 190.628C113.459 158.364 113.459 126.1 113.434 93.8362C113.434 92.8153 113.623 92.4281 114.719 92.2609C126.523 90.4655 135.204 84.1289 140.77 73.3742C141.503 71.966 141.952 70.3995 142.625 68.9561C142.841 68.4897 143.272 67.9704 143.729 67.7856C150.658 65.0309 157.794 63.0859 165.163 62.0826C168.52 61.625 171.894 61.2906 175.328 60.8945ZM161.591 138.254C148.026 137.779 132.322 143.904 121.372 156.701C121.467 156.833 121.553 156.991 121.674 157.115C123.132 158.672 124.599 160.221 126.118 161.832C135.799 151.192 147.491 145.445 161.591 145.163V138.254ZM161.591 96.0276C145.429 96.1773 132.175 102.567 121.389 114.483C123.055 116.164 124.668 117.792 126.342 119.482C135.791 109.079 147.483 103.341 161.582 103.06V96.0188L161.591 96.0276ZM161.591 117.123C153.109 117.044 145.196 118.972 137.698 122.774C131.407 125.959 126.049 130.36 121.363 135.596C122.235 136.521 123.037 137.348 123.823 138.201C124.591 139.038 125.333 139.909 126.118 140.789C135.843 130.096 147.517 124.393 161.591 124.111V117.123Z" fill="url(#paint1_linear_5791_172643)"/>
<path d="M100.284 195.204C98.3166 193.576 96.5477 192.018 94.6839 190.575C83.9669 182.293 71.9987 176.837 58.7276 174.619C53.7316 173.783 48.6233 173.528 43.5582 173.308C38.6225 173.096 33.6696 173.264 28.7253 173.264C28.337 173.264 27.9487 173.264 27.5 173.264V75.0723H37.7596C37.7596 75.5299 37.7596 75.9876 37.7596 76.4452C37.7596 103.781 37.7596 131.107 37.7596 158.443C37.7596 161.647 38.9159 162.861 42.0482 162.738C50.7633 162.403 59.2971 163.407 67.5118 166.452C78.9018 170.676 88.3935 177.594 95.5813 187.627C97.1603 189.836 98.5237 192.203 99.982 194.5C100.086 194.667 100.146 194.87 100.293 195.213L100.284 195.204Z" fill="url(#paint2_linear_5791_172643)"/>
<path d="M182.266 75.0449H192.5V173.263C192.172 173.263 191.792 173.263 191.413 173.263C186.468 173.263 181.524 173.28 176.58 173.263C163.024 173.201 150.175 176.237 138.078 182.486C131.503 185.883 125.437 190.055 119.871 195.256C119.94 194.939 119.94 194.746 120.018 194.596C125.756 184.378 133.47 176.149 143.669 170.534C152.79 165.509 162.575 162.86 172.981 162.746C174.88 162.728 176.778 162.746 178.676 162.746C180.765 162.737 182.102 161.452 182.249 159.331C182.275 158.935 182.266 158.53 182.266 158.125C182.266 130.939 182.266 103.753 182.266 76.5675C182.266 76.101 182.266 75.6346 182.266 75.0625V75.0449Z" fill="url(#paint3_linear_5791_172643)"/>
<path d="M135.396 67.7246C132.73 76.3847 124.006 83.9183 113.117 85.2648C102.374 86.5849 89.914 81.1372 84.6936 68.2087C80.1376 56.9348 83.382 45.9865 89.2927 39.3418C89.4308 51.3726 94.3319 60.8335 104.41 66.9942C114.454 73.1372 124.921 72.8908 135.405 67.7158L135.396 67.7246Z" fill="url(#paint4_linear_5791_172643)"/>
<path d="M127.199 64.1951C125.067 58.7562 123.014 53.5461 121.003 48.3183C120.606 47.2886 120.019 46.5318 119.096 45.9333C116.438 44.2171 113.824 42.4218 111.192 40.6528C110.907 40.4592 110.64 40.2479 110.234 39.9399C113.41 38.8662 116.413 37.8277 119.433 36.842C120.149 36.6132 120.529 36.2259 120.805 35.5043C122.789 30.3469 124.817 25.2072 126.836 20.0587C126.922 19.8299 127.035 19.6099 127.207 19.2402C127.38 19.5131 127.509 19.6627 127.578 19.8299C129.606 25.0488 131.608 30.2765 133.679 35.4779C133.886 35.9971 134.447 36.5516 134.973 36.7364C137.536 37.6605 140.133 38.4614 142.722 39.315C143.188 39.4735 143.645 39.6583 144.301 39.8959C143.895 40.2303 143.619 40.4856 143.309 40.6968C140.582 42.5186 137.872 44.3579 135.12 46.1269C134.3 46.6462 133.843 47.3414 133.506 48.2127C131.573 53.194 129.615 58.1753 127.665 63.1478C127.552 63.4383 127.414 63.7199 127.199 64.1863V64.1951Z" fill="url(#paint5_linear_5791_172643)"/>
<defs>
<linearGradient id="paint0_linear_5791_172643" x1="75.6334" y1="62.694" x2="75.6334" y2="228.725" gradientUnits="userSpaceOnUse">
<stop stop-color="#3096A3"/>
<stop offset="0.99" stop-color="#64A445"/>
</linearGradient>
<linearGradient id="paint1_linear_5791_172643" x1="144.406" y1="62.5415" x2="144.406" y2="229.145" gradientUnits="userSpaceOnUse">
<stop stop-color="#3096A3"/>
<stop offset="0.99" stop-color="#64A445"/>
</linearGradient>
<linearGradient id="paint2_linear_5791_172643" x1="63.9262" y1="76.5858" x2="63.9262" y2="229.696" gradientUnits="userSpaceOnUse">
<stop stop-color="#3096A3"/>
<stop offset="0.99" stop-color="#64A445"/>
</linearGradient>
<linearGradient id="paint3_linear_5791_172643" x1="156.215" y1="76.5594" x2="156.215" y2="229.76" gradientUnits="userSpaceOnUse">
<stop stop-color="#3096A3"/>
<stop offset="0.99" stop-color="#64A445"/>
</linearGradient>
<linearGradient id="paint4_linear_5791_172643" x1="108.998" y1="39.9228" x2="108.998" y2="98.6935" gradientUnits="userSpaceOnUse">
<stop stop-color="#3096A3"/>
<stop offset="0.99" stop-color="#64A445"/>
</linearGradient>
<linearGradient id="paint5_linear_5791_172643" x1="127.282" y1="19.8066" x2="127.282" y2="77.0983" gradientUnits="userSpaceOnUse">
<stop stop-color="#3096A3"/>
<stop offset="0.99" stop-color="#64A445"/>
</linearGradient>
</defs>
</svg>
