<svg width="280" height="273" viewBox="0 0 280 273" fill="none" xmlns="http://www.w3.org/2000/svg">
<g clip-path="url(#clip0_5791_169144)">
<path d="M149.283 45.6003C143.779 40.4848 135.172 40.7966 130.047 46.2997C126.928 49.6539 125.824 54.3311 126.692 58.4943C127.198 56.202 128.302 53.8423 130.014 51.9967C135.13 46.4936 143.745 46.1818 149.25 51.2972C151.399 53.2946 152.756 55.8228 153.304 58.4943C154.307 53.9435 152.933 49.005 149.283 45.6003Z" fill="#05745E"/>
<path d="M135.971 56.5553C130.466 51.4399 121.86 51.7517 116.735 57.2548C113.616 60.609 112.512 65.2862 113.38 69.4494C113.886 67.1571 114.99 64.7974 116.701 62.9518C121.818 57.4486 130.433 57.1368 135.937 62.2523C138.087 64.2496 139.435 66.7779 139.992 69.4494C140.995 64.8985 139.629 59.96 135.971 56.5553Z" fill="#05745E"/>
<path d="M162.588 56.5553C157.084 51.4399 148.477 51.7517 143.352 57.2548C140.233 60.609 139.129 65.2862 139.997 69.4494C140.503 67.1571 141.607 64.7974 143.318 62.9518C148.435 57.4486 157.05 57.1368 162.554 62.2523C164.704 64.2496 166.052 66.7779 166.609 69.4494C167.612 64.8985 166.246 59.96 162.588 56.5553Z" fill="#05745E"/>
<path d="M126.683 61.4531L128.85 64.9505L126.683 68.4142L124.551 64.9505L126.683 61.4531Z" fill="url(#paint0_linear_5791_169144)"/>
<path d="M153.305 61.4531L155.479 64.9505L153.305 68.4142L151.172 64.9505L153.305 61.4531Z" fill="url(#paint1_linear_5791_169144)"/>
<path d="M139.954 50.4961L142.12 53.9935L139.954 57.4572L137.812 53.9935L139.954 50.4961Z" fill="url(#paint2_linear_5791_169144)"/>
<path d="M126.917 78.8208L126.69 80.2872C126.69 80.2872 126.69 80.3125 126.681 80.3209C126.1 79.4782 124.768 78.686 122.686 78.0455C117.173 76.36 108.541 76.4358 103.408 78.214C101.696 78.804 100.592 79.5709 100.078 80.3041C100.078 80.3041 100.069 80.2451 100.061 80.2198C99.9852 79.8321 99.9178 79.4445 99.884 79.0484C99.884 79.0484 99.8756 78.9725 99.8672 78.9388C99.9178 78.7787 99.9936 78.6101 100.103 78.45C100.179 78.332 100.272 78.214 100.381 78.0961C100.533 77.9275 100.719 77.759 100.938 77.5988C100.955 77.5904 100.963 77.582 100.98 77.5651C100.98 77.5651 100.98 77.5651 100.988 77.5651C101.587 77.1269 102.404 76.714 103.458 76.3516C108.6 74.5734 117.232 74.4975 122.745 76.183C124.06 76.5875 125.08 77.0595 125.805 77.5567C125.805 77.5567 125.813 77.5567 125.821 77.5651C125.838 77.5736 125.847 77.582 125.864 77.5904C126.403 77.9781 126.774 78.391 126.942 78.804L126.917 78.8208Z" fill="url(#paint3_linear_5791_169144)"/>
<path d="M126.92 78.8042V78.821L126.684 80.2874C126.684 80.2958 126.684 80.3127 126.675 80.3211C126.675 80.3211 126.675 80.2705 126.658 80.2453C126.464 79.3267 126.178 78.4333 125.79 77.5737C125.79 77.5569 125.773 77.5316 125.765 77.5147C125.765 77.4979 125.756 77.4895 125.748 77.4726C125.031 75.8798 123.986 74.3881 122.621 73.124C117.116 68.0085 108.51 68.3204 103.393 73.8235C102.365 74.9275 101.564 76.2169 100.965 77.5569C100.965 77.5569 100.965 77.5653 100.965 77.5737C100.965 77.5822 100.965 77.5906 100.957 77.599C100.721 78.1215 100.527 78.6525 100.367 79.1918C100.249 79.5542 100.156 79.9166 100.08 80.2705C100.08 80.279 100.08 80.2874 100.08 80.3042C100.08 80.3042 100.072 80.2453 100.063 80.22C99.9876 79.8323 99.9202 79.4446 99.8865 79.0486C99.8865 79.0486 99.878 78.9727 99.8696 78.939C99.8443 78.644 99.819 78.3575 99.8106 78.071C99.7684 76.908 99.8612 75.7365 100.106 74.582C100.603 72.2307 101.716 69.9721 103.435 68.1181C108.552 62.615 117.167 62.3031 122.671 67.4186C125.925 70.4441 127.358 74.6915 126.936 78.7957L126.92 78.8042Z" fill="#05745E"/>
<path d="M153.534 78.8228L153.307 80.2892C153.307 80.2892 153.307 80.3144 153.298 80.3229C152.717 79.4801 151.385 78.6879 149.303 78.0475C143.79 76.362 135.158 76.4378 130.025 78.216C128.314 78.8059 127.209 79.5728 126.695 80.306C126.695 80.306 126.687 80.247 126.678 80.2217C126.602 79.8341 126.535 79.4464 126.501 79.0503C126.501 79.0503 126.493 78.9745 126.484 78.9408C126.535 78.7806 126.611 78.6121 126.72 78.452C126.796 78.334 126.889 78.216 126.999 78.098C127.15 77.9295 127.336 77.7609 127.555 77.6008C127.572 77.5924 127.58 77.5839 127.597 77.5671C127.597 77.5671 127.597 77.5671 127.605 77.5671C128.204 77.1289 129.022 76.7159 130.075 76.3535C135.217 74.5753 143.849 74.4995 149.362 76.185C150.677 76.5895 151.697 77.0614 152.422 77.5587C152.422 77.5587 152.43 77.5587 152.439 77.5671C152.455 77.5755 152.464 77.5839 152.481 77.5924C153.02 77.98 153.391 78.393 153.56 78.8059L153.534 78.8228Z" fill="url(#paint4_linear_5791_169144)"/>
<path d="M153.533 78.812V78.8288L153.297 80.2952C153.297 80.3036 153.297 80.3205 153.288 80.3289C153.288 80.3289 153.288 80.2783 153.272 80.2531C153.078 79.3345 152.791 78.4412 152.403 77.5815C152.403 77.5647 152.386 77.5394 152.378 77.5226C152.378 77.5057 152.37 77.4973 152.361 77.4804C151.645 75.8876 150.599 74.396 149.234 73.1318C143.729 68.0164 135.123 68.3282 130.006 73.8313C128.978 74.9353 128.177 76.2247 127.579 77.5647C127.579 77.5647 127.579 77.5731 127.579 77.5815C127.579 77.59 127.579 77.5984 127.57 77.6068C127.334 78.1293 127.14 78.6603 126.98 79.1996C126.862 79.562 126.769 79.9244 126.694 80.2783C126.694 80.2868 126.694 80.2952 126.694 80.3121C126.694 80.3121 126.685 80.2531 126.677 80.2278C126.601 79.8401 126.533 79.4525 126.5 79.0564C126.5 79.0564 126.491 78.9805 126.483 78.9468C126.458 78.6518 126.432 78.3653 126.424 78.0788C126.382 76.9158 126.474 75.7444 126.719 74.5898C127.216 72.2385 128.329 69.98 130.049 68.1259C135.165 62.6228 143.78 62.3109 149.284 67.4264C152.538 70.4519 153.971 74.6994 153.55 78.8035L153.533 78.812Z" fill="#05745E"/>
<path d="M180.144 78.8286L179.916 80.295C179.916 80.295 179.916 80.3203 179.908 80.3287C179.326 79.486 177.994 78.6938 175.912 78.0533C170.399 76.3678 161.768 76.4437 156.634 78.2219C154.923 78.8118 153.819 79.5787 153.304 80.3119C153.304 80.3119 153.296 80.2529 153.288 80.2276C153.212 79.8399 153.144 79.4523 153.111 79.0562C153.111 79.0562 153.102 78.9803 153.094 78.9466C153.144 78.7865 153.22 78.618 153.33 78.4578C153.406 78.3398 153.498 78.2219 153.608 78.1039C153.76 77.9353 153.945 77.7668 154.164 77.6066C154.181 77.5982 154.19 77.5898 154.206 77.5729C154.206 77.5729 154.206 77.5729 154.215 77.5729C154.813 77.1347 155.631 76.7218 156.685 76.3594C161.827 74.5812 170.458 74.5053 175.971 76.1908C177.286 76.5954 178.306 77.0673 179.031 77.5645C179.031 77.5645 179.04 77.5645 179.048 77.5729C179.065 77.5814 179.073 77.5898 179.09 77.5982C179.63 77.9859 180 78.3988 180.169 78.8118L180.144 78.8286Z" fill="url(#paint5_linear_5791_169144)"/>
<path d="M180.142 78.812V78.8288L179.906 80.2952C179.906 80.3036 179.906 80.3205 179.898 80.3289C179.898 80.3289 179.898 80.2783 179.881 80.2531C179.687 79.3345 179.4 78.4412 179.013 77.5815C179.013 77.5647 178.996 77.5394 178.987 77.5226C178.987 77.5057 178.979 77.4973 178.971 77.4804C178.254 75.8876 177.209 74.396 175.843 73.1318C170.339 68.0164 161.732 68.3282 156.616 73.8313C155.587 74.9353 154.787 76.2247 154.188 77.5647C154.188 77.5647 154.188 77.5731 154.188 77.5815C154.188 77.59 154.188 77.5984 154.18 77.6068C153.944 78.1293 153.75 78.6603 153.59 79.1996C153.472 79.562 153.379 79.9244 153.303 80.2783C153.303 80.2868 153.303 80.2952 153.303 80.3121C153.303 80.3121 153.295 80.2531 153.286 80.2278C153.21 79.8401 153.143 79.4525 153.109 79.0564C153.109 79.0564 153.101 78.9805 153.092 78.9468C153.067 78.6518 153.042 78.3653 153.033 78.0788C152.991 76.9158 153.084 75.7444 153.328 74.5898C153.826 72.2385 154.938 69.98 156.658 68.1259C161.775 62.6228 170.389 62.3109 175.894 67.4264C179.148 70.4519 180.581 74.6994 180.159 78.8035L180.142 78.812Z" fill="#05745E"/>
<path d="M203.096 47.413H187.417C187.417 21.2288 141.603 15.6751 139.993 0C138.383 15.6751 92.5693 21.2288 92.5693 47.413H76.8906V70.1335C79.8325 71.423 82.9008 72.5522 86.0028 73.6478V56.5232H101.682V47.413C101.682 33.0863 126.194 26.9005 139.993 15.5656C153.792 26.9005 178.305 33.0779 178.305 47.413V56.5232H193.984V73.6478C197.086 72.5522 200.154 71.4314 203.096 70.1335V47.413Z" fill="#007359"/>
<path d="M258.623 134.757C244.47 119.739 226.894 114.144 206.58 115.93C188.684 117.506 172.027 122.917 156.349 131.521C152.564 133.603 148.897 135.912 145.18 138.111C145.23 138.364 225.731 126.54 265.434 143.53C263.175 140.589 261.152 137.437 258.631 134.757H258.623Z" fill="url(#paint6_linear_5791_169144)"/>
<path d="M218.138 107.857C224.586 107.486 231.237 106.795 237.323 104.814C248.821 101.073 251.855 77.4587 251.501 76.6328C250.27 78.8745 249.36 80.7286 248.273 82.4731C244.151 89.0802 237.702 92.2321 230.419 93.5046C222.656 94.8615 214.766 95.4514 206.96 96.5722C184.883 99.741 165.884 108.834 151.124 125.942C148.983 128.42 146.85 130.906 145.164 133.855C150.239 130.72 155.246 127.459 160.413 124.476C178.266 114.152 197.595 109.028 218.146 107.848L218.138 107.857Z" fill="url(#paint7_linear_5791_169144)"/>
<path d="M169.196 103.137C177.634 97.5328 187.336 95.013 196.609 91.4144C201.203 89.6278 205.831 87.9086 210.34 85.9113C219.773 81.7228 224.165 74.2561 223.954 64.0419C223.903 61.5053 223.532 58.977 223.052 56.3477C219.427 66.8989 211.849 72.225 203.108 76.0595C200.166 77.349 197.098 78.4782 193.996 79.5738C193.591 79.7171 193.195 79.8603 192.79 79.9952C181.031 84.1246 170.124 89.8048 161.357 98.9149C153.737 106.828 148.283 116.115 144.523 126.456C151.756 117.599 159.629 109.5 169.205 103.137H169.196Z" fill="url(#paint8_linear_5791_169144)"/>
<path d="M73.42 115.938C53.1051 114.151 35.5298 119.747 21.3768 134.765C18.8479 137.445 16.8249 140.605 14.5742 143.538C54.2768 126.548 134.778 138.372 134.828 138.119C131.111 135.92 127.444 133.61 123.659 131.529C107.981 122.924 91.3156 117.514 73.4284 115.938H73.42Z" fill="url(#paint9_linear_5791_169144)"/>
<path d="M73.0408 96.5703C65.2351 95.4494 57.3452 94.8595 49.5817 93.5027C42.2987 92.2217 35.8502 89.0783 31.7282 82.4711C30.6408 80.7266 29.7304 78.8726 28.4997 76.6309C28.1457 77.4652 31.1803 101.071 42.678 104.812C48.764 106.793 55.4148 107.484 61.8633 107.855C82.4058 109.035 101.743 114.158 119.596 124.482C124.764 127.465 129.771 130.727 134.845 133.862C133.159 130.904 131.027 128.426 128.886 125.949C114.126 108.841 95.1258 99.7475 73.0492 96.5787L73.0408 96.5703Z" fill="url(#paint10_linear_5791_169144)"/>
<path d="M69.6704 85.9015C74.1717 87.8988 78.7994 89.6265 83.4019 91.4047C92.6742 95.0032 102.368 97.523 110.814 103.127C120.399 109.49 128.272 117.589 135.496 126.446C131.736 116.114 126.282 106.819 118.662 98.9051C109.896 89.795 98.9794 84.1233 87.2288 79.9854C86.8242 79.8422 86.428 79.7073 86.0234 79.564C82.9214 78.4685 79.8531 77.3476 76.9112 76.0498C68.1699 72.2153 60.5919 66.8807 56.9672 56.3379C56.4867 58.9673 56.1158 61.4955 56.0653 64.0322C55.863 74.2463 60.2547 81.7131 69.6788 85.9015H69.6704Z" fill="url(#paint11_linear_5791_169144)"/>
<path d="M0 217.506H280" stroke="#010101" stroke-miterlimit="10"/>
<path d="M106.318 270.142C105.433 270.487 104.531 270.664 103.612 270.664C103.098 270.664 102.6 270.597 102.137 270.471C101.673 270.344 101.26 270.134 100.898 269.847C100.535 269.56 100.257 269.181 100.046 268.709C99.8355 268.237 99.7344 267.681 99.7344 267.024C99.7344 265.726 100.316 264.276 101.462 262.667C101.538 262.549 101.623 262.49 101.698 262.49C101.774 262.49 101.816 262.549 101.816 262.667C101.816 262.743 101.808 262.81 101.783 262.844C101.387 263.703 101.184 264.453 101.184 265.111C101.184 265.608 101.277 266.029 101.454 266.366C101.631 266.704 101.875 266.982 102.17 267.184C102.466 267.395 102.811 267.546 103.199 267.631C103.587 267.715 103.991 267.765 104.404 267.765C105.079 267.765 105.736 267.664 106.377 267.47C107.017 267.268 107.532 267.032 107.928 266.754C107.768 265.962 107.565 265.262 107.329 264.681C107.093 264.091 106.79 263.484 106.436 262.844L107.329 260.341C107.388 260.198 107.456 260.13 107.54 260.13C107.624 260.13 107.692 260.189 107.751 260.307C107.911 260.585 108.071 260.914 108.24 261.293C108.408 261.672 108.568 262.085 108.72 262.532C108.872 262.979 108.99 263.459 109.091 263.981C109.192 264.504 109.243 265.026 109.243 265.566C109.243 266.105 109.184 266.678 109.066 267.234C108.948 267.791 108.729 268.33 108.408 268.844C107.894 269.358 107.186 269.796 106.301 270.142H106.318ZM104.362 256.607L106.006 258.074L104.362 259.565L102.718 258.074L104.362 256.607Z" fill="#010101"/>
<path d="M115.467 265.65V268.515H112.213L111.227 257.585L112.567 255.259C112.609 255.183 112.668 255.141 112.744 255.141C112.845 255.141 112.904 255.216 112.921 255.377L113.848 265.65H115.458H115.467Z" fill="#010101"/>
<path d="M119.544 265.55C119.476 265.82 119.384 266.106 119.274 266.401C119.164 266.696 119.046 267 118.928 267.311C118.81 267.623 118.709 267.901 118.633 268.163C118.574 268.399 118.397 268.525 118.094 268.525H115.464C115.203 268.525 114.992 268.441 114.823 268.272C114.655 268.104 114.57 267.893 114.57 267.632V266.561C114.57 266.3 114.655 266.089 114.823 265.921C114.992 265.752 115.203 265.668 115.464 265.668H118.119C118.077 265.449 118.018 265.221 117.925 264.994C117.832 264.766 117.748 264.547 117.672 264.353L117.377 263.696L118.271 261.218C118.33 261.058 118.397 260.982 118.482 260.982C118.566 260.982 118.633 261.033 118.692 261.134C118.793 261.311 118.895 261.539 119.004 261.817C119.114 262.095 119.215 262.407 119.316 262.761C119.417 263.106 119.493 263.469 119.552 263.839C119.611 264.21 119.645 264.564 119.645 264.901C119.645 265.078 119.611 265.306 119.544 265.575V265.55ZM117.108 270.042L118.751 271.508L117.108 273L115.464 271.508L117.108 270.042Z" fill="#010101"/>
<path d="M125.799 265.65V268.515H122.545L121.559 257.585L122.899 255.259C122.941 255.183 123 255.141 123.076 255.141C123.177 255.141 123.236 255.216 123.253 255.377L124.18 265.65H125.79H125.799Z" fill="#010101"/>
<path d="M130.773 265.55C130.706 265.82 130.613 266.106 130.503 266.401C130.394 266.696 130.276 267 130.158 267.311C130.04 267.623 129.939 267.901 129.863 268.163C129.804 268.399 129.627 268.525 129.323 268.525H125.8C125.538 268.525 125.328 268.441 125.159 268.272C124.991 268.104 124.906 267.893 124.906 267.632V266.561C124.906 266.3 124.991 266.089 125.159 265.921C125.328 265.752 125.538 265.668 125.8 265.668H129.323C129.281 265.449 129.222 265.221 129.146 264.994C129.07 264.766 128.986 264.547 128.91 264.353C128.834 264.134 128.733 263.915 128.615 263.696L129.509 261.218C129.568 261.058 129.635 260.982 129.719 260.982C129.804 260.982 129.871 261.033 129.93 261.134C130.031 261.311 130.132 261.539 130.242 261.817C130.352 262.095 130.453 262.407 130.554 262.761C130.655 263.106 130.731 263.469 130.79 263.839C130.849 264.21 130.883 264.564 130.883 264.901C130.883 265.078 130.849 265.306 130.782 265.575L130.773 265.55ZM127.351 269.89L128.691 271.23L130.031 269.89L131.616 271.441L130.031 272.992L128.691 271.652L127.351 272.992L125.766 271.441L127.351 269.89Z" fill="#010101"/>
<path d="M140.013 265.65V268.515H136.76L135.773 257.585L137.114 255.259C137.156 255.183 137.215 255.141 137.291 255.141C137.392 255.141 137.451 255.216 137.468 255.377L138.395 265.65H140.005H140.013Z" fill="#010101"/>
<path d="M139.37 268.264C139.201 268.095 139.117 267.884 139.117 267.623V266.553C139.117 266.292 139.201 266.081 139.37 265.912C139.539 265.744 139.749 265.66 140.011 265.66H146.13C145.928 265.339 145.616 264.909 145.186 264.379C144.756 263.839 144.099 263.216 143.197 262.499C143.096 262.617 142.936 262.676 142.717 262.676C142.54 262.676 142.337 262.642 142.101 262.575C141.874 262.508 141.654 262.415 141.461 262.289C141.267 262.162 141.09 262.027 140.955 261.867C140.82 261.707 140.744 261.538 140.744 261.361L141.284 257.957L148.297 254.881C148.297 254.881 148.381 254.855 148.415 254.855C148.55 254.855 148.626 254.914 148.626 255.032C148.626 255.075 148.567 255.268 148.465 255.631C148.356 255.993 148.154 256.617 147.85 257.51C147.808 257.653 147.732 257.738 147.614 257.78L143.492 259.6C143.787 259.895 144.158 260.291 144.596 260.78C145.035 261.269 145.456 261.791 145.861 262.364C146.265 262.929 146.611 263.511 146.889 264.109C147.167 264.707 147.311 265.272 147.311 265.811C147.311 265.912 147.311 265.997 147.294 266.081C147.285 266.157 147.268 266.249 147.252 266.351L146.771 268.323C146.754 268.382 146.729 268.432 146.695 268.474C146.67 268.516 146.594 268.533 146.468 268.533H139.985C139.724 268.533 139.513 268.449 139.345 268.28L139.37 268.264Z" fill="#010101"/>
<path d="M154.525 265.65V268.515H151.271L150.285 257.585L151.625 255.259C151.668 255.183 151.727 255.141 151.802 255.141C151.904 255.141 151.963 255.216 151.979 255.377L152.907 265.65H154.517H154.525Z" fill="#010101"/>
<path d="M162.469 264.395L164.256 262.364C164.332 262.263 164.416 262.213 164.492 262.213C164.593 262.213 164.643 262.263 164.643 262.364C164.643 262.381 164.61 262.566 164.542 262.904C164.475 263.241 164.399 263.611 164.315 264.008C164.239 264.488 164.138 265.036 164.02 265.651H166.498C166.456 265.516 166.431 265.381 166.405 265.263C166.38 265.145 166.338 264.994 166.254 264.817L166.936 262.246C166.995 262.069 167.063 261.977 167.147 261.977C167.265 261.977 167.366 262.061 167.442 262.229C167.518 262.398 167.585 262.617 167.636 262.887C167.687 263.156 167.729 263.451 167.754 263.763C167.779 264.083 167.796 264.387 167.796 264.69C167.796 265.204 167.746 265.592 167.644 265.853L166.81 268.179C166.768 268.297 166.709 268.381 166.616 268.432C166.523 268.483 166.439 268.508 166.363 268.508H165.411C164.871 268.508 164.458 268.39 164.171 268.145C163.885 267.91 163.683 267.598 163.556 267.218L163.379 268.204C163.362 268.306 163.312 268.381 163.244 268.432C163.177 268.483 163.033 268.508 162.814 268.508H160.125C159.611 268.508 159.24 268.373 159.021 268.086C158.802 267.808 158.659 267.522 158.6 267.218L158.119 268.499H154.503C154.242 268.499 154.031 268.415 153.862 268.247C153.694 268.078 153.609 267.867 153.609 267.606V266.536C153.609 266.275 153.694 266.064 153.862 265.895C154.031 265.727 154.242 265.643 154.503 265.643H157.428L157.816 264.21L159.999 262.449C160.075 262.406 160.142 262.39 160.176 262.39C160.277 262.39 160.328 262.44 160.328 262.541C160.328 262.558 160.294 262.684 160.226 262.912C160.159 263.14 160.066 263.409 159.957 263.721C159.847 264.033 159.729 264.362 159.611 264.707C159.493 265.053 159.392 265.373 159.316 265.651H162.3L162.452 264.395H162.469Z" fill="#010101"/>
<path d="M174.232 261.858C174.594 262.195 174.898 262.608 175.142 263.097C175.387 263.585 175.589 264.108 175.741 264.664C175.892 265.22 175.968 265.718 175.968 266.156C175.968 266.594 175.901 267.032 175.758 267.471C175.623 267.909 175.437 268.355 175.218 268.811C174.999 269.266 174.738 269.721 174.443 270.167C174.148 270.614 173.827 271.019 173.498 271.372C173.17 271.735 172.849 272.021 172.546 272.249C172.234 272.476 171.981 272.594 171.787 272.594C171.669 272.594 171.416 272.535 171.037 272.434C170.658 272.325 170.236 272.19 169.764 272.03C169.292 271.87 168.837 271.718 168.39 271.566C167.943 271.415 167.581 271.297 167.303 271.195C167.101 271.153 167.008 271.061 167.008 270.901C167.008 270.74 167.084 270.665 167.244 270.665C167.446 270.724 167.64 270.766 167.842 270.783C168.045 270.799 168.247 270.816 168.466 270.816C169.081 270.816 169.714 270.715 170.363 270.504C171.012 270.294 171.627 270.016 172.217 269.653C172.807 269.291 173.33 268.878 173.785 268.398C174.24 267.917 174.611 267.412 174.889 266.872C174.889 266.796 174.872 266.712 174.83 266.619C174.788 266.527 174.763 266.434 174.738 266.333C174.636 266.83 174.392 267.218 173.987 267.496C173.591 267.774 173.161 267.917 172.706 267.917C171.973 267.917 171.45 267.673 171.138 267.184C170.826 266.695 170.675 266.122 170.675 265.465C170.675 265.01 170.742 264.538 170.868 264.049C170.995 263.56 171.172 263.122 171.391 262.717C171.61 262.321 171.863 261.993 172.15 261.731C172.436 261.47 172.74 261.344 173.06 261.344C173.482 261.344 173.869 261.512 174.223 261.849L174.232 261.858ZM172.858 265.288C173.296 265.288 173.684 265.22 174.021 265.077C173.861 264.841 173.659 264.639 173.423 264.479C173.187 264.319 172.942 264.243 172.706 264.243C172.504 264.243 172.318 264.302 172.141 264.42C171.964 264.538 171.804 264.74 171.661 265.018C172.023 265.195 172.42 265.288 172.858 265.288Z" fill="#010101"/>
<path d="M179.519 255.141C179.62 255.141 179.67 255.216 179.67 255.377C179.67 255.419 179.687 255.697 179.713 256.211C179.746 256.725 179.78 257.365 179.814 258.124C179.856 258.882 179.906 259.7 179.965 260.568C180.024 261.444 180.075 262.253 180.117 263.003C180.159 263.754 180.193 264.377 180.218 264.883C180.244 265.388 180.261 265.65 180.261 265.675C180.261 265.835 180.218 266.071 180.126 266.391C180.033 266.712 179.923 267.023 179.797 267.335C179.67 267.647 179.544 267.917 179.426 268.153C179.308 268.389 179.215 268.515 179.156 268.515C179.038 268.515 178.971 268.439 178.946 268.279L178.887 267.799L177.875 257.559L179.308 255.292C179.367 255.191 179.434 255.141 179.519 255.141Z" fill="#010101"/>
<path d="M14.8945 263.924C40.4188 263.368 68.7922 263.376 94.3334 263.924C68.7922 264.472 40.4188 264.48 14.8945 263.924Z" fill="#080505"/>
<path d="M185.664 263.924C211.188 263.368 239.562 263.376 265.103 263.924C239.562 264.472 211.188 264.48 185.664 263.924Z" fill="#080505"/>
<path d="M7.7149 234.369L5.0512 234.411C4.93319 234.411 4.86576 234.394 4.8489 234.36C4.83204 234.335 4.81518 234.268 4.81518 234.158V232.439C4.81518 232.329 4.83204 232.262 4.85733 232.245C4.88262 232.228 4.95005 232.211 5.0512 232.211L7.7149 232.254H12.5197C12.5618 231.672 12.5955 230.728 12.6208 229.413V228.925C12.6208 228.225 12.5871 227.576 12.5197 226.986C13.6239 227.02 14.4247 227.079 14.9305 227.146C15.1834 227.197 15.3098 227.298 15.3098 227.441C15.3098 227.568 15.2677 227.711 15.1834 227.88C15.0738 228.073 15.0063 228.562 14.9895 229.346C14.9642 230.661 14.9221 231.63 14.863 232.245H20.2747L22.9469 232.203C23.0564 232.203 23.1239 232.22 23.1407 232.245C23.1576 232.27 23.1745 232.338 23.1745 232.43V234.15C23.1745 234.276 23.1576 234.344 23.1323 234.377C23.107 234.394 23.0396 234.411 22.9469 234.411L20.2747 234.369H15.2677C15.9842 236.636 17.1053 238.574 18.6394 240.184C20.0556 241.667 21.7246 242.771 23.6549 243.513C23.166 243.976 22.7614 244.499 22.4327 245.089C22.2472 245.434 22.1039 245.611 21.9943 245.611C21.9353 245.611 21.7752 245.535 21.5139 245.392C17.9988 243.513 15.5037 240.689 14.0454 236.922C13.8431 237.597 13.5818 238.271 13.2446 238.936C11.8622 241.785 9.61995 243.968 6.53478 245.485C6.26504 245.594 6.10488 245.645 6.02902 245.645C5.91101 245.645 5.75085 245.485 5.54854 245.164C5.24508 244.718 4.8489 244.271 4.35156 243.841C7.55474 242.602 9.82225 240.681 11.1541 238.068C11.6767 237.007 12.0561 235.776 12.2836 234.36H7.7149V234.369Z" fill="black"/>
<path d="M28.7979 239.509C28.9075 239.509 29.0087 239.518 29.093 239.518C29.7252 239.518 30.1719 239.391 30.4417 239.139C30.7114 238.894 30.8379 238.507 30.8379 237.984C30.8379 237.074 30.1804 235.818 28.8738 234.209C29.5566 232.936 30.1888 231.36 30.7789 229.489H28.4355V241.254L28.4776 245.695C28.4776 245.805 28.4608 245.872 28.4271 245.897C28.4018 245.914 28.3343 245.931 28.2332 245.931H26.5473C26.4461 245.931 26.3787 245.923 26.3618 245.897C26.345 245.872 26.3281 245.805 26.3281 245.695L26.3703 241.254V232.211L26.3281 227.753C26.3281 227.627 26.345 227.551 26.3703 227.526C26.3956 227.509 26.463 227.492 26.5641 227.492L28.3428 227.534H31.4279C31.6218 227.534 31.7651 227.517 31.8494 227.475C31.9337 227.433 32.0096 227.416 32.077 227.416C32.2371 227.416 32.5153 227.627 32.8946 228.04C33.2571 228.402 33.4341 228.672 33.4341 228.857C33.4341 228.992 33.3667 229.118 33.2318 229.236C33.0632 229.38 32.9284 229.599 32.8356 229.902C32.0011 232.009 31.4111 233.383 31.0739 234.032C32.2877 235.456 32.8946 236.855 32.8946 238.254C32.8946 240.243 31.9421 241.33 30.0286 241.507C29.8432 241.524 29.7252 241.524 29.6662 241.524C29.506 241.524 29.4133 241.473 29.3711 241.363C29.3459 241.305 29.3121 241.119 29.27 240.807C29.1688 240.142 29.0171 239.712 28.8064 239.509H28.7979ZM44.679 243.841C44.3502 244.263 44.0889 244.76 43.8782 245.316C43.7517 245.662 43.6337 245.838 43.5157 245.838C43.4483 245.838 43.2965 245.763 43.0521 245.611C41.7455 244.76 40.6076 243.791 39.6297 242.712C38.6266 243.883 37.4044 244.886 35.963 245.746C35.6932 245.906 35.5331 245.982 35.4572 245.982C35.356 245.982 35.2127 245.822 35.0357 245.501C34.7407 244.979 34.4288 244.566 34.0916 244.246C35.8028 243.403 37.2189 242.333 38.34 241.018C37.1599 239.198 36.3844 237.065 36.0135 234.613C35.9545 236.661 35.7101 238.49 35.297 240.091C34.7828 242.088 33.805 243.866 32.3467 245.417C32.1276 245.653 31.9843 245.78 31.9084 245.78C31.8325 245.78 31.6892 245.653 31.4869 245.4C31.1245 244.954 30.7199 244.608 30.2647 244.355C31.8663 242.948 32.9031 241.212 33.392 239.13C33.7544 237.554 33.9315 235.27 33.9315 232.287L33.8893 227.787C33.8893 227.669 33.9062 227.601 33.9315 227.585C33.9567 227.568 34.0242 227.551 34.1169 227.551L36.8143 227.593H41.4842L44.1563 227.551C44.2659 227.551 44.3334 227.568 44.3502 227.593C44.3671 227.618 44.3839 227.686 44.3839 227.787V229.405C44.3839 229.54 44.3081 229.607 44.1563 229.607L41.4842 229.565H36.0557V232.574H41.4421C41.7287 232.574 41.931 232.557 42.0321 232.515C42.2092 232.447 42.3187 232.414 42.3609 232.414C42.5379 232.414 42.8076 232.633 43.1617 233.071C43.5831 233.501 43.7939 233.787 43.7939 233.939C43.7939 234.032 43.7349 234.15 43.6084 234.276C43.4651 234.419 43.3471 234.689 43.246 235.085C42.7486 237.369 41.9647 239.332 40.8857 240.984C41.8888 242.097 43.1448 243.049 44.6453 243.833L44.679 243.841ZM41.2819 234.529H37.8849C38.2642 236.341 38.8374 237.908 39.6297 239.231C40.4053 237.9 40.9616 236.332 41.2903 234.529H41.2819Z" fill="black"/>
<path d="M57.7401 239.862C58.3554 240.478 58.9708 241.177 59.5861 241.961C59.6789 242.079 59.7294 242.18 59.7294 242.264C59.7294 242.365 59.6704 242.483 59.544 242.601C59.0214 243.124 58.5662 243.537 58.17 243.84C58.052 243.908 57.9677 243.941 57.9003 243.941C57.816 243.941 57.7317 243.882 57.6474 243.756C55.6665 241.202 53.4242 239.028 50.9207 237.233C51.6203 236.567 52.1177 236.104 52.4296 235.834C52.5223 235.767 52.6066 235.733 52.6656 235.733C52.7162 235.733 52.8089 235.784 52.9606 235.876C54.3599 236.904 55.3546 237.68 55.9278 238.219C57.4788 236.879 59.0972 235.236 60.7831 233.272L51.9407 233.314C50.4065 233.314 49.0999 233.365 48.0378 233.466C47.8355 233.466 47.7091 233.34 47.6669 233.087C47.5405 232.345 47.4478 231.595 47.4141 230.845C48.3666 230.938 49.8839 230.988 51.9828 230.988H60.5892C61.4743 230.988 62.056 230.921 62.3341 230.794C62.4521 230.727 62.5533 230.693 62.6292 230.693C62.7556 230.693 62.8652 230.744 62.9748 230.853C63.548 231.368 64.0537 231.924 64.4921 232.531C64.6016 232.716 64.6522 232.868 64.6522 232.994C64.6522 233.171 64.5595 233.323 64.3741 233.432C63.8514 233.812 63.5143 234.081 63.371 234.233C61.4996 236.298 59.6199 238.177 57.7401 239.854V239.862Z" fill="black"/>
<path d="M79.2514 236.595C81.207 238.044 83.1374 239.73 85.0593 241.668C85.1689 241.778 85.2195 241.879 85.2195 241.963C85.2195 242.047 85.1689 242.157 85.0762 242.267C84.6294 242.806 84.1658 243.286 83.6769 243.699C83.5841 243.784 83.4999 243.826 83.424 243.826C83.3481 243.826 83.247 243.775 83.129 243.666C81.5527 241.812 79.7319 240.084 77.6751 238.466C75.4835 240.75 73.1317 242.604 70.6281 244.003C70.3752 244.112 70.2151 244.163 70.1477 244.163C70.0128 244.163 69.8948 244.104 69.7852 243.977C69.3974 243.489 68.8074 243.033 68.0234 242.604C69.7093 241.753 71.1592 240.868 72.3646 239.966C73.3508 239.233 74.3624 238.331 75.4076 237.261C76.8996 235.71 78.2146 233.957 79.3526 231.993L73.9409 232.01C72.8619 232.01 71.7577 232.052 70.6197 232.145C70.4848 232.162 70.3921 232.036 70.3415 231.783C70.2151 231.26 70.1561 230.527 70.1561 229.6C70.9063 229.659 72.0864 229.684 73.7049 229.684H79.4706C80.2039 229.684 80.6844 229.617 80.912 229.491C80.9879 229.44 81.0637 229.406 81.148 229.406C81.2155 229.406 81.3335 229.457 81.5105 229.566C81.9573 229.92 82.4125 230.409 82.8761 231.041C82.9435 231.159 82.9772 231.243 82.9772 231.311C82.9772 231.454 82.8845 231.597 82.6991 231.732C82.4125 231.985 82.1596 232.297 81.932 232.668C81.148 233.999 80.2545 235.306 79.2514 236.586V236.595Z" fill="black"/>
<path d="M89.5703 235.152C89.6209 235.06 89.8569 234.68 90.2699 234.006C90.4554 233.703 90.5903 233.492 90.6914 233.357C90.7926 233.214 90.9022 233.138 91.0117 233.138C91.037 233.138 91.0623 233.138 91.0876 233.147C92.5459 233.635 93.8862 234.318 95.1253 235.203C95.277 235.312 95.3529 235.414 95.3529 235.506C95.3529 235.548 95.3276 235.624 95.2686 235.742C95.0916 236.172 94.7797 236.703 94.3498 237.344C94.2318 237.478 94.1391 237.546 94.0716 237.546C94.0126 237.546 93.9283 237.504 93.8272 237.419C92.6302 236.534 91.2225 235.776 89.5872 235.136L89.5703 235.152ZM91.2309 242.181C92.116 242.012 93.0685 241.667 94.08 241.144C96.3476 239.956 98.261 238.751 99.8289 237.52C101.995 235.877 104.01 233.922 105.873 231.672C105.966 232.338 106.176 233.113 106.488 234.015C106.556 234.175 106.589 234.31 106.589 234.411C106.589 234.571 106.513 234.739 106.362 234.891C104.769 236.602 102.99 238.212 101.026 239.737C99.399 240.976 97.3085 242.29 94.7544 243.681C94.021 244.077 93.6164 244.313 93.5321 244.397C93.4226 244.507 93.313 244.557 93.195 244.557C93.0432 244.557 92.9084 244.473 92.7735 244.305C92.3773 243.909 91.8631 243.201 91.2309 242.172V242.181ZM92.116 230.231L93.2202 228.554C93.313 228.394 93.4141 228.318 93.5153 228.318C93.5743 228.318 93.6586 228.343 93.7513 228.394C95.336 229.034 96.651 229.809 97.6963 230.719C97.8059 230.795 97.8564 230.88 97.8564 230.989C97.8564 231.082 97.8311 231.166 97.7721 231.267C97.3591 231.992 97.0051 232.515 96.6932 232.843C96.6426 232.928 96.5752 232.97 96.4909 232.97C96.4066 232.97 96.297 232.919 96.1705 232.826C94.8556 231.731 93.4984 230.871 92.1076 230.248L92.116 230.231ZM101.726 228.672L102.83 227.896C102.88 227.863 102.923 227.846 102.956 227.846C103.007 227.846 103.074 227.879 103.15 227.938C103.867 228.495 104.533 229.245 105.139 230.18C105.182 230.239 105.198 230.29 105.198 230.332C105.198 230.399 105.156 230.458 105.072 230.517L104.195 231.175C104.136 231.217 104.077 231.234 104.035 231.234C103.976 231.234 103.909 231.191 103.85 231.099C103.192 230.113 102.484 229.304 101.726 228.672ZM103.647 227.29L104.701 226.531C104.752 226.497 104.794 226.48 104.836 226.48C104.887 226.48 104.946 226.514 105.013 226.573C105.822 227.18 106.488 227.905 107.011 228.731C107.053 228.79 107.07 228.849 107.07 228.908C107.07 228.983 107.028 229.051 106.943 229.11L106.1 229.759C106.041 229.809 105.982 229.826 105.94 229.826C105.864 229.826 105.797 229.784 105.746 229.691C105.156 228.756 104.457 227.955 103.647 227.281V227.29Z" fill="black"/>
<path d="M117.8 233.484C120.438 234.309 122.655 235.262 124.467 236.341C124.653 236.433 124.745 236.56 124.745 236.703C124.745 236.753 124.729 236.821 124.703 236.888C124.442 237.546 124.147 238.152 123.801 238.709C123.709 238.869 123.624 238.945 123.523 238.945C123.439 238.945 123.363 238.911 123.287 238.843C121.323 237.579 119.485 236.686 117.774 236.147V240.782C117.774 241.549 117.8 242.914 117.859 244.886V244.945C117.859 245.114 117.732 245.198 117.479 245.198C117.167 245.215 116.855 245.232 116.544 245.232C116.232 245.232 115.92 245.223 115.608 245.198C115.338 245.198 115.212 245.088 115.212 244.878C115.262 243.529 115.296 242.147 115.296 240.748V230.424C115.296 229.152 115.229 228.115 115.094 227.323C116.324 227.407 117.201 227.517 117.715 227.66C117.985 227.711 118.111 227.837 118.111 228.023C118.111 228.141 118.052 228.301 117.934 228.503C117.842 228.688 117.791 229.346 117.791 230.467V233.467L117.8 233.484ZM121.576 229.101L122.68 228.334C122.731 228.301 122.773 228.284 122.815 228.284C122.866 228.284 122.925 228.318 123.001 228.377C123.717 228.933 124.383 229.674 124.99 230.618C125.032 230.677 125.049 230.728 125.049 230.77C125.049 230.829 125.015 230.896 124.939 230.955L124.046 231.604C123.987 231.655 123.928 231.68 123.886 231.68C123.827 231.68 123.759 231.638 123.7 231.545C123.043 230.551 122.335 229.733 121.576 229.11V229.101ZM123.498 227.719L124.552 226.961C124.602 226.927 124.644 226.91 124.686 226.91C124.737 226.91 124.796 226.944 124.863 227.003C125.673 227.618 126.339 228.334 126.861 229.16C126.903 229.228 126.92 229.287 126.92 229.337C126.92 229.413 126.878 229.481 126.794 229.54L125.951 230.197C125.892 230.239 125.833 230.256 125.791 230.256C125.715 230.256 125.647 230.214 125.597 230.121C125.007 229.186 124.307 228.385 123.498 227.711V227.719Z" fill="black"/>
<path d="M138.337 227.777C139.737 228.19 140.681 228.561 141.161 228.873C141.33 228.991 141.414 229.1 141.414 229.21C141.414 229.328 141.338 229.463 141.195 229.631C140.942 229.96 140.656 230.542 140.344 231.376C138.725 235.783 137.52 238.927 136.727 240.806C139.872 240.537 142.316 240.275 144.07 240.006C143.361 238.75 142.577 237.629 141.735 236.66L143.564 235.649C143.64 235.606 143.707 235.59 143.758 235.59C143.85 235.59 143.951 235.649 144.07 235.775C145.739 237.722 147.146 240.006 148.309 242.635C148.369 242.728 148.394 242.82 148.394 242.913C148.394 243.048 148.301 243.166 148.116 243.276C147.66 243.579 147.138 243.865 146.531 244.135C146.438 244.177 146.354 244.194 146.278 244.194C146.152 244.194 146.05 244.093 145.983 243.899C145.612 243.04 145.368 242.483 145.241 242.222C142.662 242.61 139.341 243.014 135.286 243.444C134.055 243.57 133.238 243.747 132.825 243.958C132.732 244 132.639 244.017 132.555 244.017C132.395 244.017 132.277 243.924 132.218 243.739C132.058 243.402 131.813 242.5 131.484 241.034C131.864 241.059 132.294 241.076 132.766 241.076C132.993 241.076 133.415 241.076 134.047 241.059C135.429 237.553 136.652 234.098 137.714 230.676C138.076 229.505 138.278 228.544 138.329 227.803L138.337 227.777Z" fill="black"/>
<path d="M163.29 236.593C165.246 238.042 167.176 239.728 169.098 241.666C169.208 241.776 169.259 241.877 169.259 241.961C169.259 242.046 169.208 242.155 169.115 242.265C168.668 242.804 168.205 243.284 167.707 243.697C167.615 243.782 167.53 243.824 167.455 243.824C167.379 243.824 167.278 243.773 167.16 243.664C165.583 241.81 163.763 240.082 161.714 238.464C159.523 240.748 157.171 242.602 154.667 244.001C154.414 244.11 154.254 244.161 154.187 244.161C154.052 244.161 153.934 244.102 153.824 243.975C153.436 243.487 152.846 243.032 152.062 242.602C153.748 241.751 155.198 240.866 156.404 239.964C157.39 239.231 158.401 238.329 159.447 237.259C160.947 235.708 162.254 233.955 163.392 231.992L157.98 232.008C156.901 232.008 155.797 232.051 154.659 232.143C154.524 232.16 154.431 232.034 154.381 231.781C154.254 231.258 154.195 230.525 154.195 229.598C154.945 229.657 156.125 229.682 157.735 229.682H163.501C164.235 229.682 164.715 229.615 164.943 229.489C165.019 229.438 165.094 229.404 165.179 229.404C165.246 229.404 165.364 229.455 165.541 229.564C165.988 229.918 166.443 230.407 166.907 231.039C166.974 231.157 167.008 231.241 167.008 231.309C167.008 231.452 166.915 231.595 166.73 231.73C166.443 231.983 166.19 232.295 165.963 232.666C165.179 233.997 164.285 235.304 163.282 236.585L163.29 236.593Z" fill="black"/>
<path d="M176.836 228.073C178.185 228.233 179.061 228.385 179.449 228.511C179.685 228.57 179.812 228.688 179.812 228.848C179.812 228.915 179.778 229.025 179.719 229.168C179.567 229.489 179.491 230.154 179.491 231.157V235.396C179.491 235.657 179.508 236.534 179.542 238.034C179.542 238.312 179.39 238.455 179.095 238.455H177.409C177.148 238.455 177.021 238.354 177.021 238.152V238.101L177.08 235.245V231.14C177.08 229.851 177.005 228.831 176.844 228.081L176.836 228.073ZM177.898 243.765C180.25 243.04 181.961 242.02 183.006 240.706C183.95 239.543 184.422 237.68 184.422 235.101V231.14C184.422 229.632 184.347 228.494 184.186 227.719C185.358 227.82 186.268 227.972 186.918 228.182C187.111 228.241 187.204 228.359 187.204 228.545C187.204 228.671 187.179 228.789 187.12 228.882C186.993 229.177 186.934 229.935 186.934 231.166V235.068C186.934 236.753 186.783 238.152 186.488 239.256C186.218 240.259 185.805 241.144 185.223 241.911C184.684 242.635 183.95 243.31 183.032 243.942C182.248 244.481 181.438 244.902 180.612 245.214C180.427 245.282 180.284 245.315 180.174 245.315C180.005 245.315 179.837 245.231 179.668 245.063C179.171 244.565 178.572 244.135 177.89 243.782L177.898 243.765Z" fill="black"/>
<path d="M194.703 235.059C195.799 235.228 197.308 235.312 199.23 235.312H205.99C206.656 235.312 207.507 235.304 208.553 235.278C209.885 235.261 210.635 235.245 210.82 235.236H210.921C211.107 235.236 211.2 235.337 211.2 235.531C211.216 235.851 211.233 236.18 211.233 236.526C211.233 236.871 211.225 237.191 211.2 237.512C211.2 237.722 211.098 237.832 210.904 237.832H210.82C208.721 237.807 207.162 237.79 206.142 237.79H198.589L195.504 238.043C195.234 238.043 195.074 237.899 195.023 237.604C194.897 237.048 194.796 236.197 194.703 235.051V235.059Z" fill="black"/>
<path d="M222.322 227.777C223.722 228.19 224.666 228.561 225.146 228.873C225.315 228.991 225.399 229.1 225.399 229.21C225.399 229.328 225.323 229.463 225.18 229.631C224.927 229.96 224.641 230.542 224.329 231.376C222.71 235.783 221.505 238.927 220.712 240.806C223.857 240.537 226.301 240.275 228.054 240.006C227.346 238.75 226.562 237.629 225.72 236.66L227.549 235.649C227.625 235.606 227.692 235.59 227.743 235.59C227.835 235.59 227.936 235.649 228.054 235.775C229.724 237.722 231.131 240.006 232.294 242.635C232.353 242.728 232.379 242.82 232.379 242.913C232.379 243.048 232.286 243.166 232.101 243.276C231.645 243.579 231.123 243.865 230.516 244.135C230.423 244.177 230.339 244.194 230.263 244.194C230.137 244.194 230.035 244.093 229.968 243.899C229.597 243.04 229.353 242.483 229.226 242.222C226.647 242.61 223.326 243.014 219.271 243.444C218.04 243.57 217.223 243.747 216.81 243.958C216.717 244 216.624 244.017 216.54 244.017C216.38 244.017 216.262 243.924 216.203 243.739C216.043 243.402 215.798 242.5 215.461 241.034C215.84 241.059 216.27 241.076 216.742 241.076C216.97 241.076 217.391 241.076 218.023 241.059C219.406 237.553 220.628 234.098 221.69 230.676C222.053 229.505 222.255 228.544 222.306 227.803L222.322 227.777Z" fill="black"/>
<path d="M235.082 241.338C237.046 240.807 238.698 240.083 240.03 239.181H238.488L235.866 239.198C235.706 239.198 235.63 239.13 235.63 238.996V237.748C235.63 237.639 235.647 237.571 235.672 237.554C235.697 237.538 235.765 237.521 235.866 237.521L238.488 237.563H241.868C242.222 237.133 242.475 236.771 242.635 236.467H241.691L238.791 236.509C238.681 236.509 238.614 236.493 238.597 236.459C238.58 236.434 238.563 236.366 238.563 236.257L238.606 234.672V232.784L238.563 231.175C238.563 231.048 238.58 230.981 238.606 230.947C238.631 230.93 238.698 230.914 238.791 230.914L241.691 230.956H248.274L251.14 230.914C251.258 230.914 251.326 230.93 251.342 230.964C251.359 230.989 251.376 231.057 251.376 231.166L251.334 232.776V234.664L251.376 236.248C251.376 236.375 251.359 236.45 251.334 236.476C251.309 236.493 251.241 236.509 251.14 236.509L248.274 236.467H243.747L244.565 236.661C244.784 236.72 244.894 236.813 244.894 236.931C244.894 237.049 244.81 237.15 244.649 237.226C244.531 237.285 244.397 237.403 244.228 237.563H251.444L254.09 237.521C254.208 237.521 254.276 237.538 254.293 237.563C254.31 237.588 254.326 237.656 254.326 237.748V238.996C254.326 239.13 254.251 239.198 254.09 239.198L251.444 239.181H249.665C250.769 239.982 252.514 240.639 254.891 241.145C254.613 241.465 254.352 241.886 254.124 242.4C253.947 242.763 253.804 242.94 253.703 242.94C253.686 242.94 253.526 242.897 253.214 242.813C251.798 242.358 250.575 241.785 249.53 241.094V242.274C249.53 242.375 249.522 242.442 249.496 242.459C249.471 242.485 249.404 242.493 249.294 242.493L246.807 242.451H245.99V243.707H249.85L252.7 243.664C252.809 243.664 252.877 243.681 252.902 243.707C252.919 243.732 252.936 243.799 252.936 243.892V245.207C252.936 245.341 252.86 245.409 252.7 245.409L249.85 245.392H240.182L237.324 245.409C237.173 245.409 237.097 245.341 237.097 245.207V243.892C237.097 243.791 237.105 243.723 237.13 243.707C237.156 243.681 237.215 243.673 237.324 243.673L240.182 243.715H243.992V242.459H243.073L240.586 242.501C240.468 242.501 240.401 242.485 240.384 242.459C240.367 242.434 240.35 242.367 240.35 242.274V241.094C239.339 241.709 238.209 242.265 236.97 242.771C236.7 242.881 236.54 242.931 236.464 242.931C236.355 242.931 236.203 242.754 236.001 242.409C235.765 241.996 235.47 241.633 235.099 241.322L235.082 241.338ZM240.789 226.691C241.758 226.725 242.424 226.759 242.778 226.793C242.972 226.809 243.073 226.885 243.073 227.012C243.073 227.045 243.039 227.147 242.972 227.315C242.905 227.492 242.871 227.72 242.871 227.989H246.976C246.951 227.382 246.917 226.944 246.875 226.691C247.844 226.717 248.51 226.75 248.864 226.793C249.058 226.809 249.159 226.885 249.159 227.012C249.159 227.045 249.125 227.147 249.058 227.315C248.991 227.5 248.957 227.728 248.957 227.989H251.401L254.048 227.947C254.166 227.947 254.234 227.964 254.251 227.989C254.267 228.015 254.284 228.082 254.284 228.175V229.43C254.284 229.557 254.267 229.633 254.242 229.658C254.217 229.675 254.149 229.692 254.048 229.692L251.401 229.649H248.957C248.957 229.725 248.965 229.877 248.991 230.113C248.991 230.223 248.999 230.29 248.999 230.315C248.999 230.433 248.982 230.501 248.948 230.517C248.923 230.534 248.856 230.551 248.746 230.551H247.204C247.077 230.551 247.01 230.534 246.976 230.509C246.959 230.484 246.942 230.416 246.942 230.315L246.959 229.649H242.871C242.871 229.759 242.888 229.911 242.905 230.113C242.905 230.223 242.913 230.29 242.913 230.315C242.913 230.433 242.896 230.501 242.862 230.517C242.837 230.534 242.77 230.551 242.66 230.551H241.117C240.991 230.551 240.924 230.534 240.89 230.509C240.873 230.484 240.856 230.416 240.856 230.315L240.873 229.649H238.572L235.925 229.692C235.815 229.692 235.748 229.675 235.723 229.649C235.706 229.616 235.689 229.54 235.689 229.43V228.175C235.689 228.065 235.706 227.998 235.74 227.981C235.756 227.964 235.824 227.947 235.925 227.947L238.572 227.989H240.898C240.873 227.382 240.839 226.944 240.797 226.691H240.789ZM243.874 239.594C244.658 239.611 245.332 239.653 245.905 239.72C246.074 239.737 246.158 239.813 246.158 239.939C246.158 239.965 246.133 240.066 246.074 240.226C246.007 240.437 245.973 240.673 245.973 240.942H246.79C248.114 240.942 248.915 240.925 249.201 240.9C248.493 240.395 247.853 239.821 247.296 239.181H242.854C242.222 239.779 241.488 240.352 240.629 240.9C240.907 240.925 241.716 240.942 243.056 240.942H243.975C243.958 240.453 243.916 240.007 243.874 239.602V239.594ZM249.243 232.27H240.713V233.079H249.243V232.27ZM249.243 235.119V234.276H240.713V235.119H249.243Z" fill="black"/>
<path d="M263.103 238.423C263.078 238.625 263.061 238.869 263.061 239.156C263.061 239.341 263.061 239.527 263.069 239.72C263.086 239.897 263.086 240.015 263.086 240.066C263.086 240.226 263.061 240.327 263.002 240.386C262.951 240.445 262.791 240.538 262.521 240.681C261.417 241.237 260.018 241.827 258.341 242.459C257.936 242.62 257.708 242.737 257.658 242.796C257.557 242.889 257.439 242.94 257.295 242.94C257.152 242.94 257.051 242.855 256.975 242.687C256.823 242.291 256.638 241.667 256.41 240.824C257.177 240.681 257.868 240.504 258.492 240.302L258.973 240.159V234.2H258.796L256.891 234.243C256.781 234.243 256.722 234.226 256.705 234.2C256.688 234.184 256.688 234.116 256.688 234.015V232.414C256.688 232.296 256.697 232.228 256.722 232.212C256.747 232.195 256.798 232.178 256.899 232.178L258.804 232.22H258.981V230.256C258.981 228.841 258.922 227.812 258.804 227.172C259.613 227.189 260.33 227.239 260.979 227.315C261.207 227.332 261.316 227.425 261.316 227.568C261.316 227.627 261.274 227.762 261.181 227.989C261.097 228.183 261.055 228.849 261.055 229.978V232.22L262.774 232.178C262.909 232.178 262.977 232.254 262.977 232.414V234.015C262.977 234.167 262.909 234.243 262.774 234.243L261.055 234.2V239.383C261.662 239.139 262.344 238.819 263.095 238.423H263.103ZM273.648 240.664C274.171 240.976 274.677 241.204 275.166 241.33C275.393 241.389 275.528 241.44 275.579 241.482C275.629 241.524 275.663 241.591 275.663 241.701C275.663 241.751 275.655 241.861 275.629 242.03C275.537 242.982 275.393 243.656 275.216 244.044C275.064 244.381 274.82 244.651 274.491 244.853C274.095 245.122 273.539 245.308 272.814 245.409C272.089 245.502 270.993 245.552 269.526 245.552C267.191 245.552 265.716 245.358 265.101 244.971C264.57 244.634 264.3 243.943 264.3 242.889V236.341C263.929 236.467 263.525 236.619 263.069 236.788C262.825 236.88 262.673 236.931 262.623 236.939C262.555 236.956 262.505 236.973 262.479 236.973C262.42 236.973 262.37 236.906 262.344 236.779L262.075 235.144C262.058 235.085 262.058 235.035 262.058 235.009C262.058 234.959 262.117 234.917 262.243 234.866C262.808 234.731 263.499 234.529 264.3 234.259V231.959C264.3 231.773 264.309 231.588 264.309 231.394C264.309 230.476 264.266 229.675 264.174 228.975C264.882 228.992 265.556 229.034 266.188 229.102C266.466 229.144 266.61 229.22 266.61 229.338C266.61 229.439 266.568 229.591 266.475 229.776C266.391 229.936 266.348 230.602 266.348 231.765V233.577L268.355 232.903V229.86C268.355 228.824 268.296 227.829 268.194 226.877C269.029 226.894 269.737 226.953 270.336 227.054C270.563 227.071 270.673 227.147 270.673 227.281C270.673 227.34 270.631 227.475 270.538 227.703C270.454 227.905 270.411 228.537 270.411 229.591V232.237L272.03 231.697C272.78 231.453 273.488 231.209 274.163 230.973C274.533 230.838 274.736 230.762 274.778 230.754H274.828C274.946 230.754 275.005 230.829 275.005 230.973L274.946 233.653C274.904 235.734 274.736 237.31 274.441 238.38C274.171 239.442 273.564 239.982 272.637 239.982C272.3 239.982 272.047 239.965 271.861 239.94C271.625 239.923 271.482 239.872 271.431 239.805C271.389 239.746 271.347 239.552 271.297 239.24C271.221 238.675 271.077 238.17 270.858 237.732C271.271 237.824 271.634 237.875 271.962 237.875C272.165 237.875 272.308 237.824 272.384 237.715C272.477 237.614 272.544 237.411 272.603 237.099C272.755 236.282 272.831 235.06 272.848 233.434L270.42 234.276V237.925L270.462 241.178C270.462 241.28 270.454 241.347 270.428 241.364C270.403 241.389 270.336 241.398 270.226 241.398H268.549C268.439 241.398 268.372 241.381 268.355 241.355C268.338 241.33 268.321 241.263 268.321 241.17L268.363 237.917V234.967L266.357 235.65V242.299C266.357 242.796 266.492 243.117 266.753 243.252C267.023 243.403 268.026 243.479 269.762 243.479C270.951 243.479 271.777 243.445 272.241 243.37C272.645 243.311 272.94 243.201 273.143 243.041C273.328 242.881 273.446 242.636 273.513 242.291C273.572 241.979 273.623 241.44 273.648 240.673V240.664Z" fill="black"/>
<path d="M280 195.645C280 197.566 279.806 199.268 279.41 200.768C279.064 202.142 278.71 202.833 278.339 202.833C278.188 202.833 278.12 202.328 278.12 201.325C278.07 199.454 278.019 198.316 277.968 197.895C277.623 192.931 276.594 185.068 274.866 174.323C273.046 163.064 272.059 156.549 271.916 154.771C271.722 154.577 271.621 154.426 271.621 154.325C271.621 154.223 271.874 153.583 272.38 152.386C272.886 151.198 273.164 150.6 273.214 150.6C273.366 150.6 274.04 152.091 275.246 155.066C276.451 158.041 277.05 159.861 277.05 160.527V160.67C276.755 160.822 276.131 160.266 275.17 159.01C275.17 159.356 276.004 164.665 277.682 174.947C279.233 185.051 280.008 191.945 280.008 195.636L280 195.645Z" fill="black"/>
<path d="M267.821 183.038C267.155 182.128 266.371 181.673 265.461 181.673C265.166 181.673 264.828 181.774 264.449 181.968C264.07 182.162 263.876 182.364 263.876 182.558C263.876 182.878 264.179 183.089 264.795 183.181C265.435 183.283 266.447 183.232 267.821 183.03V183.038ZM272.246 186.873C272.246 189.426 271.496 191.592 269.996 193.362C269.136 194.373 266.438 196.21 261.92 198.899C257.174 201.705 253.617 203.458 251.257 204.174C251.206 204.225 248.037 204.756 241.74 205.759C239.161 206.205 237.644 206.424 237.205 206.424C237.011 206.424 236.91 206.399 236.91 206.349C236.91 206.155 238.352 205.523 241.226 204.469C246.292 202.598 250.313 200.963 253.289 199.564C257.571 197.643 261.676 195.486 265.612 193.075C269.304 190.766 271.142 189.3 271.142 188.685C271.142 188.39 270.813 188.036 270.147 187.614C269.186 187.168 267.914 186.974 266.312 187.024C263.143 187.218 261.549 186.064 261.549 183.561C261.549 181.985 262.013 180.619 262.949 179.465C263.859 178.361 264.82 177.805 265.823 177.805C267.248 177.805 268.639 178.664 269.987 180.383C271.488 182.254 272.238 184.42 272.238 186.873H272.246Z" fill="black"/>
<path d="M235.964 192.865C236.31 192.865 236.478 193.211 236.478 193.902C236.478 195.671 236.015 196.556 235.079 196.556C230.156 196.556 227.307 192.621 226.523 184.758C224.871 167.987 223.067 157.613 221.103 153.627C221.052 153.5 221.212 152.826 221.583 151.596C221.954 150.365 222.173 149.75 222.249 149.75C222.376 149.75 222.679 150.365 223.168 151.596C223.758 153.045 224.222 154.469 224.567 155.877C225.604 160.158 226.472 165.29 227.189 171.291C228.15 179.6 228.656 183.907 228.698 184.202C229.608 189.983 232.027 192.865 235.964 192.865Z" fill="black"/>
<path d="M259.315 187.587C259.315 191.843 258.025 193.967 255.437 193.967C253.221 193.967 251.973 192.846 251.678 190.613C251.577 190.832 251.223 191.523 250.607 192.678C250.312 193.369 249.731 194.018 248.871 194.633C247.91 195.349 246.932 195.703 245.921 195.703C244.816 195.703 243.872 195.282 243.097 194.447C242.321 193.613 241.959 192.644 242.009 191.531C241.546 192.248 240.804 193.2 239.792 194.405C238.343 195.804 236.758 196.512 235.03 196.512C234.684 196.512 234.516 196.192 234.516 195.551C234.516 193.782 234.996 192.897 235.957 192.897C238.073 192.897 240.214 191.388 242.372 188.363C242.717 187.916 243.021 187.587 243.291 187.368C243.586 187.124 243.78 187.023 243.881 187.073C244.032 187.124 244.049 187.267 243.957 187.52C243.611 188.236 243.442 188.852 243.442 189.366C243.442 191.009 244.547 191.835 246.764 191.835C248.981 191.835 250.515 190.554 251.518 188C251.762 187.242 252.007 186.66 252.26 186.264C252.681 185.649 253.01 185.438 253.254 185.641C253.305 185.691 253.229 186.02 253.035 186.635C252.74 187.444 252.934 188.245 253.625 189.028C254.291 189.745 255.176 190.099 256.28 190.099C257.385 190.099 257.941 189.829 257.941 189.29C257.941 188.969 257.815 188.649 257.553 188.329C257.292 188.009 257.165 187.764 257.165 187.587C257.165 187.394 257.368 186.787 257.772 185.784C258.177 184.773 258.43 184.275 258.531 184.275C258.632 184.275 258.792 184.604 259.012 185.27C259.205 186.028 259.307 186.804 259.307 187.596L259.315 187.587Z" fill="black"/>
<path d="M211.14 195.181C211.486 195.181 211.655 195.527 211.655 196.218C211.655 197.987 211.191 198.872 210.255 198.872C206.639 198.872 204.38 195.139 203.47 187.664L201.809 174.315C200.629 165.339 199.289 159.128 197.788 155.69C197.738 155.563 197.864 154.914 198.176 153.735C198.479 152.555 198.673 151.965 198.749 151.965C198.85 151.965 199.128 152.563 199.6 153.768C200.165 155.117 200.62 156.474 200.966 157.822C201.927 161.606 202.787 166.477 203.545 172.427C204.65 180.863 205.332 185.767 205.577 187.141C206.462 192.501 208.317 195.181 211.149 195.181H211.14Z" fill="black"/>
<path d="M235.407 153.432C235.407 154.831 234.918 156.491 233.932 158.413C232.676 160.899 231.032 163.554 228.992 166.377C228.208 167.43 227.762 167.927 227.66 167.852C227.61 167.826 227.584 167.776 227.584 167.708C227.584 167.413 228.116 166.259 229.169 164.245C230.223 162.23 231.386 160.36 232.634 158.64C233.376 157.629 233.738 156.871 233.738 156.356C233.738 155.472 233.232 155.025 232.229 155.025C229.97 155.025 224.356 157.519 215.404 162.509C208.079 166.562 204.412 168.829 204.412 169.293C204.412 169.613 206.022 170.759 209.242 172.723C209.908 173.119 210.186 173.414 210.093 173.608C209.992 173.801 209.647 173.793 209.057 173.574C208.863 173.523 208.5 173.464 207.986 173.388C208.821 174.197 211.923 176.372 217.284 179.92C221.49 182.701 223.589 185.465 223.589 188.221C223.589 190.53 223.21 192.19 222.443 193.201C221.288 194.777 219.501 196.117 217.09 197.221C214.679 198.325 212.395 198.882 210.228 198.882C209.883 198.882 209.714 198.536 209.714 197.845C209.714 196.075 210.178 195.19 211.113 195.19C213.474 195.19 216.019 194.466 218.75 193.016C221.262 191.685 222.51 190.623 222.51 189.805C222.51 187.934 220.445 185.65 216.314 182.945C211.004 179.482 207.522 176.861 205.87 175.091C204.935 174.079 203.999 173.372 203.063 172.95C202.768 172.824 202.625 172.419 202.625 171.737C202.625 169.697 203.156 167.953 204.21 166.503C205.735 164.438 210.641 161.312 218.927 157.132C226.506 153.323 231.319 151.418 233.392 151.418C234.724 151.418 235.382 152.092 235.382 153.449L235.407 153.432Z" fill="black"/>
<path d="M155.659 196.512C156.004 196.512 156.173 196.858 156.173 197.549C156.173 199.318 155.709 200.203 154.774 200.203C150.964 200.203 148.469 197.549 147.288 192.239C147.187 193.739 146.96 194.81 146.589 195.45C145.308 197.667 142.762 200.119 138.952 202.824C134.939 205.656 131.787 207.063 129.469 207.063C127.749 207.063 126.442 206.524 125.557 205.437C124.816 204.577 124.453 203.515 124.453 202.268C124.453 200.229 124.773 198.299 125.414 196.478C125.954 194.902 126.426 194.119 126.813 194.119C126.94 194.119 126.999 194.169 126.999 194.262C126.999 194.312 126.78 194.936 126.333 196.124C125.886 197.313 125.667 198.434 125.667 199.462C125.667 200.911 125.987 201.897 126.628 202.411C127.193 202.858 128.204 203.077 129.654 203.077C132.461 203.077 136.162 201.274 140.756 197.658C144.962 194.363 147.061 192.248 147.061 191.312C147.061 190.503 146.53 188.632 145.476 185.708C144.296 182.539 142.964 179.489 141.489 176.564C141.025 175.654 140.789 175.098 140.789 174.904C140.789 172.325 140.89 171.027 141.084 171.027C141.211 171.027 141.464 171.297 141.86 171.836C145.029 176.311 147.137 181.005 148.165 185.927C148.359 187.233 148.721 189.172 149.236 191.751C150.07 194.919 152.211 196.512 155.65 196.512H155.659Z" fill="black"/>
<path d="M180.449 189.652C180.55 189.804 180.297 190.419 179.69 191.515C179.084 192.61 178.738 193.158 178.637 193.158C175.341 193.158 172.315 193.605 169.558 194.49C168.648 194.86 166.102 196.049 161.921 198.063C159.047 199.462 156.644 200.17 154.731 200.17C154.385 200.17 154.217 199.841 154.217 199.175C154.217 197.431 154.697 196.554 155.658 196.554C157.007 196.554 159.005 195.998 161.635 194.894C163.329 194.136 165.015 193.343 166.692 192.534C157.074 191.574 152.27 190.975 152.27 190.731C152.27 190.335 152.851 189.206 154.006 187.335C154.453 187.284 156.366 187.528 159.763 188.076C166.751 189.231 172.888 189.762 178.173 189.661C179.699 189.61 180.458 189.61 180.458 189.661L180.449 189.652Z" fill="black"/>
<path d="M186.61 179.22C186.956 179.22 187.125 179.541 187.125 180.181C187.125 181.951 186.644 182.836 185.683 182.836C184.672 182.836 183.921 182.591 183.432 182.094C183.112 181.774 182.708 181.083 182.219 180.03C181.258 182.313 179.825 183.485 177.903 183.535C177.094 183.535 176.436 183.232 175.93 182.617C175.424 182.002 175.197 181.302 175.247 180.51C174.556 181.816 173.983 182.659 173.511 183.055C172.55 184.066 171.294 184.589 169.751 184.639C167.737 184.639 166.481 183.384 165.992 180.881C165.823 180.021 165.562 179.591 165.216 179.591C164.728 179.591 164.146 180.24 163.48 181.546C162.325 184.033 160.934 185.946 159.316 187.302C157.917 188.457 156.155 189.586 154.039 190.699V187.302C155.346 186.687 156.349 186.182 157.065 185.794C159.898 183.872 161.836 181.884 162.89 179.819C164.239 177.063 165.326 175.689 166.135 175.689C166.624 175.689 167.046 176.515 167.391 178.159C167.813 180.08 168.816 181.007 170.417 180.965C171.791 180.965 173.064 180.409 174.219 179.305C174.666 178.841 175.239 178.049 175.956 176.945C176.444 176.254 176.807 175.934 177.026 175.984C177.178 175.984 177.195 176.203 177.102 176.65C176.883 177.316 176.773 177.746 176.773 177.94C176.773 179.145 177.557 179.743 179.133 179.743C180.288 179.794 181.064 179.473 181.46 178.782C181.831 178.116 182.185 177.434 182.53 176.718C183.045 175.706 183.424 175.276 183.677 175.428C183.727 175.428 183.753 175.807 183.753 176.574C183.702 177.434 184.023 178.108 184.714 178.605C185.278 179.027 185.919 179.229 186.636 179.229L186.61 179.22Z" fill="black"/>
<path d="M193.399 175.713C193.399 174.904 193.096 174.086 192.48 173.277C191.915 172.586 191.469 172.241 191.148 172.241C190.702 172.241 190.187 172.839 189.597 174.044C188.931 175.418 188.577 176.994 188.527 178.764C189.707 178.418 190.853 177.853 191.958 177.07C192.919 176.404 193.399 175.949 193.399 175.704V175.713ZM193.256 178.882C192.396 180.458 190.769 181.612 188.383 182.345C188.409 183.576 188.358 184.191 188.232 184.191C188.013 184.191 187.81 183.66 187.642 182.607C187.052 182.775 186.403 182.868 185.686 182.868C185.34 182.868 185.172 182.522 185.172 181.831C185.172 180.061 185.635 179.177 186.571 179.177C186.698 179.177 187.018 179.126 187.532 179.025C187.532 178.654 187.557 178.106 187.608 177.365C187.709 174.954 188.19 172.856 189.049 171.078C189.909 169.291 190.845 168.406 191.856 168.406C192.573 168.406 193.197 168.937 193.736 169.991C194.276 171.044 194.545 172.325 194.545 173.825C194.545 175.62 194.115 177.306 193.256 178.882Z" fill="black"/>
<path d="M88.8982 194.421C88.089 194.32 87.2713 193.966 86.4621 193.351C87.2207 194.632 88.0131 195.273 88.8223 195.273C88.9235 194.902 88.9488 194.624 88.8982 194.421ZM90.9971 190.882C91.3427 190.882 91.5113 191.202 91.5113 191.843C91.5113 193.612 91.0646 194.497 90.1795 194.497C90.23 196.073 90.0699 197.312 89.699 198.222C89.4545 198.964 89.2101 199.326 88.9572 199.326C88.8055 199.326 88.3924 199.141 87.7012 198.77C87.01 198.399 86.5717 198.104 86.3694 197.885C84.8689 196.284 84.1946 194.506 84.3379 192.534C83.7225 192.07 82.888 191.834 81.8259 191.834C79.5163 191.834 77.2235 192.669 74.9644 194.346C73.5145 195.399 71.6179 197.186 69.2829 199.697C64.9081 204.442 61.9156 206.818 60.3225 206.818C58.5017 206.818 57.035 206.144 55.9307 204.787C54.9192 203.506 54.4219 202.023 54.4219 200.321C54.4219 198.104 55.1974 195.787 56.7484 193.351C57.212 192.66 57.8526 191.91 58.6703 191.101C59.5048 190.14 60.0864 189.66 60.4068 189.66C60.5585 189.66 60.6259 189.736 60.6259 189.879C60.6259 190.073 59.9094 191.008 58.4849 192.685C56.5461 195.146 55.5683 197.641 55.5683 200.169C55.5683 201.18 55.8802 202.057 56.5124 202.807C57.1362 203.557 57.9791 203.936 59.0412 203.936C60.5416 203.936 62.3624 202.883 64.5035 200.767C66.6445 198.652 68.7435 196.512 70.8087 194.354C75.1835 190.225 79.1454 188.16 82.6857 188.16C83.3769 188.16 84.1272 188.371 84.9364 188.783C84.987 188.118 85.1471 187.789 85.4169 187.789C85.3663 187.789 85.8973 188.371 87.0016 189.525C87.8867 190.435 89.2185 190.89 90.9887 190.89L90.9971 190.882Z" fill="black"/>
<path d="M103.647 192.906C103.993 192.906 104.161 193.251 104.161 193.942C104.161 195.712 103.698 196.597 102.762 196.597C99.6178 196.597 97.7296 194.153 97.1142 189.257C96.9456 190.167 96.6675 190.883 96.305 191.397C94.8046 193.487 92.7478 194.532 90.1431 194.532C89.7975 194.532 89.6289 194.187 89.6289 193.496C89.6289 191.726 90.0925 190.841 91.0282 190.841C92.2336 190.841 93.3631 190.546 94.4252 189.956C95.6559 189.265 96.2291 188.431 96.1617 187.445C95.9931 185.035 95.167 179.59 93.6919 171.104C92.9501 166.68 92.006 161.05 90.8512 154.215C90.8006 154.021 90.9945 153.204 91.4244 151.763C91.8543 150.322 92.1156 149.605 92.2167 149.605C92.3853 149.605 93.5823 156.036 95.7908 168.896C96.9456 175.486 97.7464 180.399 98.1848 183.653C98.699 187.293 99.3986 189.796 100.284 191.178C101.042 192.333 102.163 192.914 103.639 192.914L103.647 192.906Z" fill="black"/>
<path d="M130.175 191.398C130.47 191.398 130.622 191.718 130.622 192.358C130.622 194.128 130.167 195.013 129.256 195.013C128.245 195.013 127.495 194.769 127.006 194.271C126.711 193.901 126.281 193.193 125.716 192.131C124.755 194.465 123.322 195.637 121.4 195.637C120.616 195.637 119.967 195.316 119.461 194.676C118.956 194.035 118.753 193.327 118.855 192.535C117.228 195.241 115.238 196.589 112.878 196.589C110.518 196.589 109.262 195.308 109.262 192.754C107.542 195.308 105.367 196.589 102.729 196.589C102.383 196.589 102.215 196.235 102.215 195.519C102.215 193.774 102.695 192.898 103.656 192.898C105.157 192.898 106.438 192.443 107.492 191.532C107.812 191.288 108.672 190.403 110.071 188.878C110.467 188.532 110.745 188.389 110.922 188.431C111.074 188.431 111.116 188.625 111.066 189.021C110.965 189.586 110.922 190.066 110.922 190.462C111.116 192.131 112.018 192.974 113.62 192.974C115.221 192.974 116.587 192.417 117.784 191.313C118.231 190.85 118.804 190.083 119.52 189.029C120.035 188.296 120.414 187.951 120.667 187.993C120.819 188.043 120.819 188.288 120.667 188.734C120.473 189.4 120.372 189.83 120.372 190.024C120.372 191.229 121.147 191.827 122.698 191.827C123.803 191.878 124.62 191.558 125.134 190.867C125.48 190.201 125.8 189.51 126.095 188.802C126.66 187.841 127.065 187.411 127.309 187.512C127.36 187.563 127.36 187.942 127.309 188.659C127.259 189.569 127.613 190.268 128.38 190.757C128.827 191.128 129.425 191.339 130.184 191.381L130.175 191.398Z" fill="black"/>
<path d="M136.961 187.893C136.961 187.084 136.658 186.266 136.043 185.457C135.478 184.766 135.031 184.42 134.711 184.42C134.264 184.42 133.75 185.019 133.16 186.224C132.494 187.598 132.14 189.174 132.089 190.943C133.269 190.598 134.416 190.033 135.52 189.249C136.481 188.584 136.961 188.129 136.961 187.884V187.893ZM136.818 191.061C135.958 192.637 134.332 193.792 131.946 194.525C131.971 195.755 131.921 196.371 131.794 196.371C131.575 196.371 131.373 195.84 131.204 194.786C130.614 194.955 129.965 195.048 129.249 195.048C128.903 195.048 128.734 194.702 128.734 194.011C128.734 192.241 129.198 191.356 130.134 191.356C130.26 191.356 130.58 191.306 131.095 191.205C131.095 190.834 131.12 190.286 131.17 189.544C131.272 187.134 131.752 185.036 132.612 183.257C133.472 181.471 134.407 180.586 135.419 180.586C136.135 180.586 136.759 181.117 137.299 182.17C137.838 183.224 138.108 184.505 138.108 186.005C138.108 187.8 137.678 189.485 136.818 191.061Z" fill="black"/>
<path d="M24.9348 185.651C25.2299 185.651 25.3816 185.971 25.3816 186.611C25.3816 188.381 24.9264 189.266 24.016 189.266C24.1425 190.075 24.0835 191.213 23.8474 192.679C23.6114 194.146 23.2995 195.191 22.9033 195.831C21.6221 197.946 19.2787 200.011 15.8564 202.025C12.3413 204.141 9.37413 205.194 6.96332 205.194C2.31871 205.194 -0.0078125 202.733 -0.0078125 197.82C-0.0078125 194.651 0.590676 191.921 1.79608 189.629C2.16698 189.039 2.47044 188.819 2.71489 188.963C2.76547 188.963 2.58845 189.662 2.2007 191.061C1.6865 192.73 1.42519 194.171 1.42519 195.376C1.42519 199.404 3.51568 201.427 7.69668 201.427C10.3772 201.427 13.4793 200.247 16.9943 197.887C20.8803 195.258 22.8191 193.581 22.8191 192.873C22.8191 191.82 22.3723 190.395 21.4872 188.609C20.6021 186.822 20.1638 186.005 20.1638 186.156C20.1638 185.963 20.2649 185.305 20.4588 184.201C20.6527 183.097 20.8044 182.541 20.9056 182.541C21.032 182.541 21.2343 182.836 21.5294 183.426C21.875 184.092 22.1447 184.496 22.3386 184.639C23.0045 185.255 23.8643 185.583 24.918 185.634L24.9348 185.651Z" fill="black"/>
<path d="M38.44 194.507C38.7856 194.507 38.9542 194.828 38.9542 195.468C38.9542 197.238 38.4737 198.123 37.5128 198.123C34.7816 198.123 32.9103 196.943 31.9072 194.583C31.4183 193.378 31.0221 191.794 30.7271 189.822C30.3056 186.948 30.0275 185.237 29.8757 184.698C29.724 183.838 29.5807 183.408 29.429 183.408C29.3278 183.408 29.1508 184.007 28.8979 185.212C28.6366 186.417 28.0465 187.403 27.1277 188.161C26.2089 188.92 25.1553 189.308 23.9751 189.308C23.6295 189.308 23.4609 188.979 23.4609 188.313C23.4609 186.493 23.9414 185.583 24.9024 185.583C26.9676 185.583 28.2488 184.327 28.7378 181.824C29.2014 179.953 29.5638 179.018 29.8083 179.018C30.7187 179.018 31.6038 181.942 32.4636 187.799C33.0536 192.274 35.043 194.507 38.44 194.507Z" fill="black"/>
<path d="M47.4089 189.963C47.4089 189.374 47.1729 188.623 46.7093 187.713C46.2203 186.702 45.7399 186.205 45.2678 186.205C44.8211 186.205 44.2226 186.601 43.4639 187.401C42.7053 188.202 42.3175 188.834 42.3175 189.298C42.3175 190.258 43.0593 191.219 44.5345 192.171C46.4564 191.067 47.4089 190.326 47.4089 189.955V189.963ZM49.5078 194.127C49.8534 194.127 50.022 194.447 50.022 195.087C50.022 196.857 49.5753 197.742 48.6902 197.742C46.9706 197.742 45.2257 197.211 43.4555 196.158C41.5336 197.464 39.5442 198.113 37.479 198.113C37.1334 198.113 36.9648 197.793 36.9648 197.152C36.9648 195.332 37.4453 194.422 38.4063 194.422C39.5105 194.422 40.4968 194.228 41.3566 193.832C40.9351 192.871 40.7328 191.817 40.7328 190.663C40.7328 188.792 41.4746 186.904 42.9497 184.983C44.2984 183.213 45.4617 182.328 46.4142 182.328C47.0296 182.328 47.6028 182.994 48.1507 184.317C48.6649 185.472 48.9262 186.399 48.9262 187.081C48.9262 189.66 48.2097 191.843 46.7851 193.613C47.5943 193.958 48.5047 194.127 49.5163 194.127H49.5078Z" fill="black"/>
<path d="M61.9053 190.74C61.8041 190.1 61.3995 189.569 60.6914 189.156C60.1014 188.81 59.5956 188.667 59.1825 188.709C58.5672 188.76 58.2216 188.928 58.1457 189.223C58.1204 189.375 58.5925 189.67 59.5703 190.108C60.5397 190.555 61.3236 190.757 61.9137 190.732L61.9053 190.74ZM64.746 191.591C64.746 191.912 64.4594 192.535 63.8946 193.471C63.3045 194.482 62.8156 194.996 62.4194 195.021C61.9558 195.072 60.9949 194.802 59.545 194.212C57.9181 193.546 56.5694 192.813 55.4905 191.996C53.7203 195.856 51.4443 197.785 48.6626 197.785C48.317 197.785 48.1484 197.44 48.1484 196.749C48.1484 194.979 48.6121 194.094 49.5477 194.094C50.8796 194.094 52.0175 193.639 52.9785 192.729C53.7203 192.038 54.5885 190.808 55.6 189.038C55.8445 188.591 56.1395 188.153 56.4851 187.706C56.561 187.706 56.6959 187.782 56.8897 187.925C57.9266 186.054 59.1067 185.06 60.4301 184.942C61.4669 184.841 62.3773 185.363 63.1612 186.493C64.2149 187.993 64.746 189.687 64.746 191.583V191.591Z" fill="black"/>
<path d="M10.6987 188.919C10.6987 188.304 9.41738 186.863 6.86327 184.604C4.74749 187.116 3.69381 188.919 3.69381 190.023C3.69381 191.203 4.23329 191.793 5.32069 191.793C6.40808 191.793 7.54605 191.371 8.89476 190.537C10.1002 189.779 10.6987 189.231 10.6987 188.911V188.919ZM13.0589 173.648C13.3286 173.648 13.0252 174.887 12.1401 177.373C11.8451 178.132 10.7408 179.767 8.81889 182.278C10.8588 183.997 11.8788 185.683 11.8788 187.335C11.8788 189.72 11.4236 191.481 10.5132 192.61C9.89786 193.352 8.97062 194.06 7.7315 194.751C6.49237 195.442 5.51456 195.787 4.79806 195.787C3.12904 195.787 2.2861 194.498 2.2861 191.911C2.2861 189.324 3.41564 186.467 5.68315 183.466C5.28697 183.146 4.05627 181.503 1.99107 178.528C1.69604 178.427 1.53588 178.284 1.51059 178.09C1.46001 177.769 1.46001 177.129 1.51059 176.168C1.56117 175.14 1.66232 174.567 1.80562 174.474C1.88148 174.424 2.40411 174.761 3.39035 175.469C5.70001 177.112 6.7874 178.039 6.63567 178.233C6.48394 178.477 5.87703 178.452 4.78963 178.157C5.2111 178.873 6.12148 179.876 7.52076 181.183C9.17293 179.194 10.5806 177.323 11.7608 175.578C12.6206 174.297 13.0505 173.657 13.0505 173.657L13.0589 173.648Z" fill="black"/>
<path d="M171.034 196.344L174.869 198.594L173.023 201.914L169.188 199.664L171.034 196.344Z" fill="black"/>
<path d="M26.1976 201.914L30.033 204.164L28.1869 207.485L24.3516 205.234L26.1976 201.914Z" fill="black"/>
<path d="M47.305 172.824L51.1404 175.074L49.2944 178.395L45.5348 176.178L43.9838 178.943L40.1484 176.692L41.9945 173.372L45.754 175.588L47.305 172.824Z" fill="black"/>
<path d="M270.307 163.973C270.357 164.049 270.273 164.361 270.062 164.917C269.852 165.473 269.725 165.76 269.675 165.785C267.07 166.619 265.249 167.521 264.212 168.473C263.917 168.768 263.766 168.743 263.766 168.397C263.766 167.462 264.255 166.754 265.241 166.257C264.499 165.861 264.137 165.178 264.137 164.192C264.137 162.153 265.19 161.133 267.306 161.133C268.242 161.133 268.705 161.563 268.705 162.422C268.705 163.282 268.385 163.762 267.744 163.787C267.618 163.071 267.18 162.717 266.412 162.717C265.603 162.717 265.199 163.012 265.199 163.602C265.199 164.563 266.008 165.043 267.635 165.043C267.829 165.043 268.537 164.74 269.734 164.125C270.054 163.956 270.239 163.905 270.29 163.981L270.307 163.973Z" fill="black"/>
<path d="M265.761 154.503C266.182 152.784 265.904 151.924 264.952 151.924C264.092 151.924 263.662 152.278 263.662 152.995C263.662 153.509 264.362 154.014 265.769 154.503H265.761ZM268.273 155.498C268.273 155.649 268.163 155.936 267.944 156.366C267.725 156.795 267.59 157.015 267.54 157.015C266.924 156.913 266.233 156.711 265.474 156.391C264.024 158.649 261.057 161.026 256.581 163.512C256.21 163.706 255.275 164.094 253.757 164.675C252.249 165.257 251.439 165.518 251.338 165.467C251.288 165.366 252.08 164.869 253.698 163.959C259.279 160.984 263.03 158.388 264.952 156.18C263.283 155.422 262.44 154.512 262.44 153.45C262.44 152.86 262.794 152.118 263.51 151.233C264.227 150.348 264.901 149.91 265.542 149.91C266.351 149.91 266.756 150.82 266.756 152.641C266.756 153.357 266.629 154.056 266.385 154.739C267.641 155.16 268.264 155.413 268.264 155.514L268.273 155.498Z" fill="black"/>
<path d="M261.86 164.379C262.256 164.379 262.079 164.935 261.345 166.039C256.743 167.691 251.272 169.874 244.925 172.604C237.937 175.579 233.941 177.45 232.938 178.208C233.722 178.992 234.683 179.548 235.813 179.869C235.737 180.754 235.484 181.2 235.037 181.2C234.641 181.2 234.043 180.897 233.233 180.298C232.424 179.7 232.02 179.22 232.02 178.883C232.02 177.627 232.281 176.818 232.795 176.447C233.95 175.705 238.932 173.497 247.732 169.806C256.49 166.191 261.194 164.387 261.86 164.387V164.379Z" fill="black"/>
<path d="M247.608 162.668C247.608 164.437 247.363 165.997 246.866 167.353C246.571 168.162 246.284 168.567 246.015 168.567C245.821 168.516 245.77 168.272 245.871 167.825C246.192 166.452 246.352 165.305 246.352 164.395C246.352 160.83 244.43 157.207 240.595 153.515C240.493 153.414 240.586 152.824 240.856 151.746C241.126 150.667 241.311 150.119 241.412 150.119C242.129 150.119 243.292 151.358 244.919 153.844C246.815 156.743 247.709 159.684 247.616 162.659L247.608 162.668Z" fill="black"/>
<path d="M208.089 159.938C207.988 160.284 207.853 160.495 207.685 160.562C207.66 160.537 207.626 160.503 207.575 160.469C207.525 160.436 207.516 160.368 207.542 160.267C207.643 159.803 207.685 159.348 207.685 158.902C207.685 157.031 206.825 155.345 205.105 153.845C205.105 153.651 205.215 153.331 205.434 152.885C205.653 152.438 205.839 152.219 205.991 152.219C206.361 152.387 206.707 152.708 207.027 153.179C207.988 154.604 208.469 156.129 208.469 157.756C208.469 158.514 208.342 159.247 208.098 159.93L208.089 159.938Z" fill="black"/>
<path d="M192.815 151.805C192.293 153.381 191.737 154.232 191.138 154.342C172.703 159.188 156.957 164.758 143.908 171.054C143.866 170.826 144.06 170.354 144.473 169.638C144.886 168.922 145.265 168.458 145.611 168.222C149.252 166.09 156.114 163.284 166.195 159.82C175.299 156.744 184.175 154.064 192.815 151.797V151.805Z" fill="black"/>
<path d="M136.429 156.23C136.504 155.918 136.547 155.589 136.547 155.219C136.547 154.646 136.429 154.131 136.201 153.685C135.973 153.297 135.754 153.112 135.569 153.112C135.24 153.112 134.852 153.331 134.397 153.761C133.942 154.19 133.714 154.502 133.714 154.696C133.714 155.008 134.616 155.514 136.429 156.23ZM138.275 157.064C138.275 157.064 138.334 157.106 138.334 157.182C138.334 157.376 138.207 157.713 137.946 158.21C137.685 158.699 137.516 158.944 137.44 158.944C137.44 158.944 137.01 158.792 136.142 158.48C135.468 159.727 134.035 161.253 131.843 163.039C129.146 165.155 125.243 167.472 120.118 169.992C119.561 170.279 118.904 170.599 118.154 170.944C118.111 170.902 118.061 170.868 117.977 170.826C118.019 170.708 118.238 170.506 118.642 170.22C122.419 167.658 125.015 165.947 126.44 165.079C131.101 162.247 134.094 159.972 135.417 158.236C133.453 157.443 132.475 156.634 132.475 155.809C132.475 154.983 132.93 153.938 133.832 152.791C134.734 151.645 135.543 151.072 136.26 151.072C137.204 151.072 137.676 151.881 137.676 153.499C137.676 154.174 137.449 155.151 136.985 156.441C137.482 156.693 137.921 156.896 138.283 157.047L138.275 157.064Z" fill="black"/>
<path d="M118.256 175.503C117.025 176.084 115.12 176.464 112.541 176.649C112.355 176.649 112.237 176.598 112.195 176.506C112.145 176.362 112.195 176.253 112.338 176.16C114.008 175.444 116.174 174.441 118.821 173.16C118.45 172.814 117.287 172.57 115.339 172.427C113.485 172.284 112.322 172.267 111.858 172.359C111.647 172.41 111.496 172.41 111.403 172.359C111.31 172.317 111.335 172.199 111.47 172.014C112.145 170.969 112.954 169.899 113.906 168.811C115.761 168.415 118.146 168.651 121.054 169.511C121.754 169.696 122.1 170.101 122.1 170.733C122.1 171.407 121.619 172.3 120.65 173.413C119.689 174.525 118.888 175.225 118.264 175.503H118.256Z" fill="black"/>
<path d="M103.555 199.453C103.648 199.596 103.589 199.891 103.378 200.338C103.168 200.793 103.016 201.037 102.923 201.088C99.9729 202.184 97.0226 203.271 94.0724 204.366C90.3128 205.807 87.5901 207.004 85.9211 207.956C85.8284 207.771 85.8284 207.409 85.9211 206.878C86.0138 206.414 86.1318 206.119 86.2667 206.01C91.5604 203.642 97.3261 201.459 103.555 199.462V199.453Z" fill="black"/>
<path d="M183.282 199.801C183.375 199.944 183.316 200.239 183.105 200.686C182.894 201.141 182.743 201.385 182.65 201.436C179.7 202.531 176.749 203.618 173.799 204.714C170.039 206.155 167.317 207.352 165.648 208.304C165.555 208.119 165.555 207.756 165.648 207.225C165.74 206.762 165.858 206.467 165.993 206.357C171.287 203.989 177.053 201.807 183.282 199.809V199.801Z" fill="black"/>
<path d="M64.6866 150.059C64.164 151.635 63.6076 152.486 63.0091 152.596C44.574 157.442 28.8278 163.012 15.7791 169.308C15.7369 169.08 15.9308 168.608 16.3439 167.892C16.7569 167.175 17.1362 166.712 17.4818 166.476C21.1233 164.344 27.9849 161.537 38.0665 158.074C47.1702 154.998 56.0464 152.318 64.6866 150.051V150.059Z" fill="black"/>
<path d="M45.4942 168.542C44.2635 169.123 42.3585 169.503 39.7791 169.688C39.5936 169.688 39.4756 169.637 39.4335 169.545C39.3829 169.402 39.4335 169.292 39.5768 169.199C41.2458 168.483 43.4122 167.48 46.059 166.199C45.6881 165.854 44.5248 165.609 42.5776 165.466C40.7232 165.323 39.5599 165.306 39.0963 165.398C38.8856 165.449 38.7338 165.449 38.6411 165.398C38.5484 165.356 38.5737 165.238 38.7085 165.053C39.3829 164.008 40.1921 162.938 41.1446 161.85C42.9991 161.454 45.3846 161.69 48.2928 162.55C48.9924 162.735 49.338 163.14 49.338 163.772C49.338 164.446 48.8576 165.339 47.8882 166.452C46.9272 167.564 46.1264 168.264 45.5026 168.542H45.4942Z" fill="black"/>
<path d="M31.4851 151.418C31.5779 151.561 31.5189 151.856 31.3081 152.303C31.0974 152.758 30.9457 153.002 30.8529 153.053C27.9026 154.148 24.9523 155.236 22.002 156.331C18.2425 157.772 15.5198 158.969 13.8508 159.921C13.7581 159.736 13.7581 159.374 13.8508 158.843C13.9435 158.379 14.0615 158.084 14.1964 157.975C19.4901 155.606 25.2558 153.424 31.4851 151.426V151.418Z" fill="black"/>
<path d="M84.5382 153.188C84.6815 153.332 84.6815 153.804 84.5382 154.621C84.4455 154.95 84.2853 154.95 84.0493 154.621C83.7205 154.132 83.3159 153.888 82.827 153.888C82.1105 153.888 81.7481 154.318 81.7481 155.177C81.6553 156.753 81.5626 158.616 81.4699 160.748C81.7059 160.748 82.1695 161.043 82.8607 161.633C83.5604 162.223 83.9313 162.61 83.9734 162.796C84.024 163.048 83.965 163.369 83.7964 163.74C83.6362 164.11 83.5098 164.296 83.4171 164.296C82.414 164.388 81.3772 164.65 80.2982 165.079C79.2192 165.509 78.6966 165.922 78.7472 166.318C80.5089 174.864 81.394 179.524 81.394 180.291C81.394 180.873 81.3266 181.159 81.1833 181.159C81.0906 181.109 81.0231 180.965 80.9725 180.704C80.6438 178.799 80.1043 176.069 79.3372 172.513C78.5702 169.378 78.1908 167.405 78.1908 166.588C78.1908 165.585 78.5533 164.709 79.2698 163.942C79.8767 163.268 80.6101 162.863 81.4699 162.72C81.2339 162.534 80.8883 162.442 80.4246 162.442C80.1212 162.442 79.8767 162.636 79.6913 163.015C79.5058 163.394 79.3625 163.588 79.2698 163.588C79.2277 163.588 79.2024 163.47 79.2024 163.242C79.2024 162.754 79.3457 162.256 79.6238 161.742C79.9526 161.068 80.3319 160.731 80.7702 160.731C80.7197 160.402 80.4331 159.787 79.902 158.885C79.2951 157.79 78.7725 157.124 78.3341 156.863C78.2414 157.259 78.1487 157.453 78.056 157.453C77.8705 157.453 77.39 157.217 76.623 156.736C75.8559 156.256 75.4766 155.927 75.4766 155.742C75.4766 154.444 75.6957 153.795 76.1425 153.795C76.8421 153.795 77.6429 154.2 78.5449 155.017C79.548 155.969 80.3825 157.208 81.0568 158.742V158.675C81.0568 157.908 81.0821 156.644 81.1243 154.874C81.3097 153.062 81.8323 152.16 82.6921 152.16C83.2738 152.16 83.8891 152.497 84.5382 153.171V153.188Z" fill="black"/>
<path d="M159.946 152.875C160.089 153.019 160.089 153.373 159.946 153.954C159.853 154.51 159.71 154.788 159.525 154.788C159.525 154.788 159.381 154.603 159.086 154.232C158.8 153.861 158.488 153.676 158.159 153.676C157.485 153.676 157.013 154.923 156.726 157.418C156.448 159.912 156.195 161.143 155.959 161.092C155.656 161.092 155.344 160.544 155.015 159.457C154.644 158.067 154.003 156.988 153.101 156.221C153.051 156.339 152.983 156.44 152.891 156.533C152.731 156.583 152.326 156.423 151.685 156.061C151.045 155.699 150.707 155.378 150.657 155.1C150.514 153.802 150.758 153.153 151.39 153.153C152.528 153.103 153.734 154.325 155.015 156.811C155.2 157.325 155.47 157.915 155.816 158.589C155.959 157.401 156.144 156.221 156.372 155.033C156.743 152.825 157.333 151.746 158.151 151.797C158.774 151.797 159.373 152.159 159.929 152.875H159.946Z" fill="black"/>
<path d="M126.088 151.442C126.231 151.586 126.231 151.956 126.088 152.546C125.995 153.119 125.852 153.398 125.658 153.398C125.658 153.398 125.506 153.204 125.211 152.824C124.916 152.445 124.604 152.251 124.267 152.251C123.576 152.251 123.095 153.524 122.809 156.077C122.522 158.623 122.261 159.878 122.025 159.828C121.713 159.828 121.393 159.271 121.064 158.159C120.685 156.735 120.035 155.631 119.108 154.847C119.058 154.965 118.99 155.075 118.898 155.167C118.729 155.218 118.324 155.058 117.667 154.687C117.018 154.316 116.664 153.996 116.613 153.709C116.47 152.378 116.723 151.72 117.363 151.72C118.527 151.67 119.757 152.917 121.064 155.454C121.249 155.976 121.527 156.583 121.882 157.266C122.025 156.061 122.21 154.847 122.455 153.633C122.834 151.383 123.441 150.279 124.267 150.321C124.908 150.321 125.515 150.692 126.079 151.425L126.088 151.442Z" fill="black"/>
<path d="M109.404 152.858C109.548 153.002 109.548 153.372 109.404 153.962C109.311 154.535 109.168 154.814 108.974 154.814C108.974 154.814 108.823 154.62 108.528 154.24C108.233 153.861 107.921 153.667 107.583 153.667C106.892 153.667 106.412 154.94 106.125 157.493C105.839 160.039 105.577 161.294 105.341 161.244C105.029 161.244 104.709 160.687 104.38 159.575C104.001 158.151 103.352 157.047 102.425 156.263C102.374 156.381 102.307 156.491 102.214 156.583C102.045 156.634 101.641 156.474 100.983 156.103C100.334 155.732 99.9801 155.412 99.9295 155.125C99.7862 153.794 100.039 153.136 100.68 153.136C101.843 153.086 103.074 154.333 104.38 156.87C104.566 157.392 104.844 157.999 105.198 158.682C105.341 157.477 105.527 156.263 105.771 155.049C106.15 152.799 106.757 151.695 107.583 151.737C108.224 151.737 108.831 152.108 109.396 152.841L109.404 152.858Z" fill="black"/>
<path d="M71.1112 154.249C71.2545 154.392 71.2545 154.763 71.1112 155.353C71.0185 155.926 70.8752 156.204 70.6813 156.204C70.6813 156.204 70.5296 156.01 70.2346 155.631C69.9396 155.252 69.6277 155.058 69.2905 155.058C68.5993 155.058 68.1188 156.331 67.8322 158.884C67.5456 161.429 67.2843 162.685 67.0483 162.634C66.7364 162.634 66.4161 162.078 66.0873 160.966C65.708 159.541 65.0589 158.437 64.1317 157.654C64.0811 157.772 64.0137 157.881 63.921 157.974C63.7524 158.024 63.3478 157.864 62.6903 157.494C62.0412 157.123 61.6872 156.803 61.6366 156.516C61.4933 155.184 61.7462 154.527 62.3868 154.527C63.5501 154.477 64.7808 155.724 66.0873 158.26C66.2728 158.783 66.5509 159.39 66.905 160.072C67.0483 158.867 67.2337 157.654 67.4782 156.44C67.8575 154.19 68.4644 153.086 69.2905 153.128C69.9311 153.128 70.538 153.499 71.1028 154.232L71.1112 154.249Z" fill="black"/>
<path d="M178.494 170.987C177.264 171.569 175.358 171.948 172.779 172.133C172.594 172.133 172.476 172.083 172.433 171.99C172.383 171.847 172.433 171.737 172.577 171.645C174.246 170.928 176.412 169.925 179.059 168.644C178.688 168.299 177.525 168.054 175.578 167.911C173.723 167.768 172.56 167.751 172.096 167.844C171.886 167.894 171.734 167.894 171.641 167.844C171.548 167.802 171.574 167.684 171.709 167.498C172.383 166.453 173.192 165.383 174.145 164.296C175.999 163.9 178.385 164.136 181.293 164.995C181.992 165.181 182.338 165.585 182.338 166.217C182.338 166.891 181.858 167.785 180.888 168.897C179.927 170.01 179.126 170.709 178.503 170.987H178.494Z" fill="black"/>
<path d="M198.885 197.415C199.028 197.558 199.028 197.929 198.885 198.519C198.792 199.092 198.649 199.37 198.455 199.37C198.455 199.37 198.303 199.176 198.008 198.797C197.713 198.418 197.401 198.224 197.064 198.224C196.373 198.224 195.892 199.497 195.606 202.05C195.319 204.595 195.058 205.851 194.822 205.8C194.51 205.8 194.189 205.244 193.861 204.132C193.481 202.707 192.832 201.603 191.905 200.82C191.855 200.938 191.787 201.047 191.694 201.14C191.526 201.191 191.121 201.03 190.464 200.66C189.815 200.289 189.461 199.969 189.41 199.682C189.267 198.35 189.52 197.693 190.16 197.693C191.323 197.643 192.554 198.89 193.861 201.426C194.046 201.949 194.324 202.556 194.678 203.238C194.822 202.033 195.007 200.82 195.252 199.606C195.631 197.356 196.238 196.252 197.064 196.294C197.705 196.294 198.311 196.665 198.876 197.398L198.885 197.415Z" fill="black"/>
<path d="M244.319 198.78C244.319 200.28 243.755 201.03 242.634 201.03C242.195 201.03 241.808 200.895 241.479 200.634C241.302 200.499 241.15 200.55 241.015 200.769C240.467 201.586 239.692 201.991 238.697 201.991C238.301 201.991 237.972 201.89 237.702 201.696C236.8 201.165 235.679 201.198 234.356 201.797C233.783 202.109 232.788 202.867 231.38 204.081C230.563 204.805 229.779 205.513 229.029 206.196C227.705 207.19 226.163 208.042 224.392 208.741C222.959 209.339 221.99 209.634 221.476 209.634C221.341 209.634 221.273 209.592 221.273 209.5C221.408 209.365 221.661 209.238 222.032 209.103C222.698 208.859 223.625 208.455 224.814 207.881C226.98 206.668 228.877 205.227 230.504 203.55C231.852 202.05 233.294 200.912 234.836 200.145C235.915 199.572 236.843 199.53 237.618 200.01C237.972 200.297 238.343 200.44 238.739 200.44C239.886 200.44 240.661 199.892 241.057 198.788C241.276 198.122 241.555 197.794 241.883 197.794C241.968 197.794 241.993 197.903 241.951 198.122C241.816 198.611 241.799 198.906 241.883 199.016C242.195 199.412 242.642 199.521 243.241 199.344C243.637 199.26 243.679 199.066 243.375 198.78C243.131 198.645 243.089 198.451 243.241 198.181C243.502 197.541 243.679 197.221 243.772 197.221C244.126 197.221 244.303 197.743 244.303 198.78H244.319Z" fill="black"/>
<path d="M195.984 191.363C195.529 193.048 194.771 193.899 193.717 193.899C193.135 193.899 192.705 193.689 192.427 193.267C191.812 192.281 191.5 191.236 191.5 190.124C191.5 189.332 191.652 188.236 191.947 186.829C192.267 185.101 192.832 183.163 193.666 180.997C194.004 180.205 194.256 179.809 194.433 179.809C194.501 179.842 194.543 179.935 194.543 180.07C194.543 180.314 194.459 180.693 194.282 181.208C193.911 182.244 193.405 184.208 192.748 187.09C192.469 188.708 192.545 189.93 192.984 190.756C193.262 191.337 193.675 191.624 194.223 191.624C194.543 191.624 194.804 191.498 195.015 191.253C195.175 191.076 195.378 190.79 195.622 190.385C195.765 190.065 195.866 189.913 195.942 189.913C196.279 189.913 196.296 190.394 195.993 191.363H195.984Z" fill="black"/>
<path d="M106.508 178.14C106.053 179.826 105.294 180.677 104.24 180.677C103.659 180.677 103.229 180.466 102.951 180.045C102.335 179.059 102.023 178.014 102.023 176.901C102.023 176.109 102.175 175.013 102.47 173.606C102.791 171.878 103.355 169.94 104.19 167.774C104.527 166.982 104.78 166.586 104.957 166.586C105.024 166.62 105.066 166.712 105.066 166.847C105.066 167.092 104.982 167.471 104.805 167.985C104.434 169.021 103.928 170.985 103.271 173.867C102.993 175.485 103.069 176.707 103.507 177.533C103.785 178.115 104.198 178.401 104.746 178.401C105.066 178.401 105.328 178.275 105.539 178.03C105.699 177.853 105.901 177.567 106.145 177.162C106.289 176.842 106.39 176.69 106.466 176.69C106.803 176.69 106.82 177.171 106.516 178.14H106.508Z" fill="black"/>
<path d="M253.086 178.488C252.631 180.173 251.872 181.024 250.818 181.024C250.237 181.024 249.807 180.814 249.529 180.392C248.913 179.406 248.602 178.361 248.602 177.249C248.602 176.457 248.753 175.361 249.048 173.954C249.369 172.226 249.933 170.288 250.768 168.122C251.105 167.33 251.358 166.934 251.535 166.934C251.602 166.967 251.645 167.06 251.645 167.195C251.645 167.439 251.56 167.818 251.383 168.333C251.012 169.369 250.507 171.333 249.849 174.215C249.571 175.833 249.647 177.055 250.085 177.881C250.363 178.462 250.776 178.749 251.324 178.749C251.645 178.749 251.906 178.623 252.117 178.378C252.277 178.201 252.479 177.915 252.724 177.51C252.867 177.19 252.968 177.038 253.044 177.038C253.381 177.038 253.398 177.519 253.094 178.488H253.086Z" fill="black"/>
<path d="M239.852 166.3C239.396 167.986 238.638 168.837 237.584 168.837C237.002 168.837 236.573 168.626 236.294 168.205C235.679 167.219 235.367 166.174 235.367 165.061C235.367 164.269 235.519 163.174 235.814 161.766C236.134 160.039 236.699 158.1 237.534 155.934C237.871 155.142 238.124 154.746 238.301 154.746C238.368 154.78 238.41 154.873 238.41 155.007C238.41 155.252 238.326 155.631 238.149 156.145C237.778 157.182 237.272 159.145 236.615 162.027C236.337 163.646 236.412 164.868 236.851 165.693C237.129 166.275 237.542 166.561 238.09 166.561C238.41 166.561 238.672 166.435 238.882 166.191C239.042 166.014 239.245 165.727 239.489 165.323C239.632 165.002 239.734 164.851 239.809 164.851C240.147 164.851 240.164 165.331 239.86 166.3H239.852Z" fill="black"/>
<path d="M69.9493 179.187C69.4941 180.872 68.7355 181.724 67.6818 181.724C67.1001 181.724 66.6702 181.513 66.3921 181.092C65.7767 180.105 65.4648 179.06 65.4648 177.948C65.4648 177.156 65.6166 176.06 65.9116 174.653C66.2319 172.925 66.7967 170.987 67.6312 168.821C67.9684 168.029 68.2213 167.633 68.3983 167.633C68.4657 167.667 68.5079 167.759 68.5079 167.894C68.5079 168.138 68.4236 168.518 68.2465 169.032C67.8757 170.068 67.3699 172.032 66.7124 174.914C66.4342 176.532 66.5101 177.754 66.9484 178.58C67.2266 179.162 67.6396 179.448 68.1875 179.448C68.5079 179.448 68.7692 179.322 68.9799 179.077C69.1401 178.9 69.3424 178.614 69.5868 178.209C69.7301 177.889 69.8313 177.737 69.9071 177.737C70.2443 177.737 70.2612 178.218 69.9577 179.187H69.9493Z" fill="black"/>
<path d="M9.71101 162.82C9.25583 164.505 8.49718 165.356 7.4435 165.356C6.86187 165.356 6.43197 165.146 6.1538 164.724C5.53845 163.738 5.22656 162.693 5.22656 161.581C5.22656 160.789 5.37829 159.693 5.67332 158.286C5.99364 156.558 6.55841 154.62 7.39292 152.454C7.7301 151.662 7.98298 151.266 8.16 151.266C8.22744 151.299 8.26958 151.392 8.26958 151.527C8.26958 151.771 8.18529 152.151 8.00827 152.665C7.63738 153.701 7.13161 155.665 6.47412 158.547C6.19595 160.165 6.27181 161.387 6.71014 162.213C6.98831 162.794 7.40135 163.081 7.94927 163.081C8.26958 163.081 8.53089 162.955 8.74163 162.71C8.90179 162.533 9.1041 162.247 9.34855 161.842C9.49185 161.522 9.593 161.37 9.66887 161.37C10.006 161.37 10.0229 161.851 9.71944 162.82H9.71101Z" fill="black"/>
</g>
<defs>
<linearGradient id="paint0_linear_5791_169144" x1="124.551" y1="64.9337" x2="128.85" y2="64.9337" gradientUnits="userSpaceOnUse">
<stop stop-color="#FFCE4D"/>
<stop offset="1" stop-color="#A24E24"/>
</linearGradient>
<linearGradient id="paint1_linear_5791_169144" x1="151.172" y1="-0.000118208" x2="155.479" y2="-0.000118208" gradientUnits="userSpaceOnUse">
<stop stop-color="#FFCE4D"/>
<stop offset="1" stop-color="#A24E24"/>
</linearGradient>
<linearGradient id="paint2_linear_5791_169144" x1="137.812" y1="53.9766" x2="142.12" y2="53.9766" gradientUnits="userSpaceOnUse">
<stop stop-color="#FFCE4D"/>
<stop offset="1" stop-color="#A24E24"/>
</linearGradient>
<linearGradient id="paint3_linear_5791_169144" x1="99.8503" y1="77.6494" x2="126.917" y2="77.6494" gradientUnits="userSpaceOnUse">
<stop stop-color="#FFCE4D"/>
<stop offset="1" stop-color="#A24E24"/>
</linearGradient>
<linearGradient id="paint4_linear_5791_169144" x1="126.468" y1="77.6514" x2="153.534" y2="77.6514" gradientUnits="userSpaceOnUse">
<stop stop-color="#FFCE4D"/>
<stop offset="1" stop-color="#A24E24"/>
</linearGradient>
<linearGradient id="paint5_linear_5791_169144" x1="153.077" y1="77.6572" x2="180.144" y2="77.6572" gradientUnits="userSpaceOnUse">
<stop stop-color="#FFCE4D"/>
<stop offset="1" stop-color="#A24E24"/>
</linearGradient>
<linearGradient id="paint6_linear_5791_169144" x1="145.171" y1="129.574" x2="265.425" y2="129.574" gradientUnits="userSpaceOnUse">
<stop stop-color="#A24E24"/>
<stop offset="1" stop-color="#FFCE4D"/>
</linearGradient>
<linearGradient id="paint7_linear_5791_169144" x1="145.164" y1="105.244" x2="251.526" y2="105.244" gradientUnits="userSpaceOnUse">
<stop stop-color="#A24E24"/>
<stop offset="1" stop-color="#FFCE4D"/>
</linearGradient>
<linearGradient id="paint8_linear_5791_169144" x1="144.515" y1="91.3976" x2="223.962" y2="91.3976" gradientUnits="userSpaceOnUse">
<stop stop-color="#A24E24"/>
<stop offset="1" stop-color="#FFCE4D"/>
</linearGradient>
<linearGradient id="paint9_linear_5791_169144" x1="14.5742" y1="129.574" x2="134.828" y2="129.574" gradientUnits="userSpaceOnUse">
<stop stop-color="#FFCE4D"/>
<stop offset="1" stop-color="#A24E24"/>
</linearGradient>
<linearGradient id="paint10_linear_5791_169144" x1="28.4744" y1="105.242" x2="134.845" y2="105.242" gradientUnits="userSpaceOnUse">
<stop stop-color="#FFCE4D"/>
<stop offset="1" stop-color="#A24E24"/>
</linearGradient>
<linearGradient id="paint11_linear_5791_169144" x1="56.0484" y1="91.3962" x2="135.496" y2="91.3962" gradientUnits="userSpaceOnUse">
<stop stop-color="#FFCE4D"/>
<stop offset="1" stop-color="#A24E24"/>
</linearGradient>
<clipPath id="clip0_5791_169144">
<rect width="280" height="273" fill="white"/>
</clipPath>
</defs>
</svg>
