<svg width="272" height="272" viewBox="0 0 272 272" fill="none" xmlns="http://www.w3.org/2000/svg">
<path d="M185.442 246.274C173.742 245.763 162.301 242.794 151.795 236.475C150.53 235.715 149.845 234.729 149.455 233.292C147.197 225.096 144.964 216.876 142.494 208.74C138.913 196.957 139.149 185.15 141.678 173.249C143.297 165.6 146.098 158.413 150.4 151.928C156.026 143.447 156.983 134.622 154.123 124.882C149.455 108.978 145.224 92.9425 140.839 76.9548C139.539 72.2156 141.43 68.284 145.626 66.7399C149.62 65.2789 154.265 67.1793 155.659 71.2297C157.149 75.5414 158.271 79.9956 159.489 84.4023C163.483 98.8577 167.454 113.325 171.449 127.792C171.685 128.647 171.933 129.503 172.253 130.322C173.009 132.211 174.994 133.137 176.956 132.555C178.895 131.985 179.982 130.429 179.485 128.362C178.481 124.11 177.311 119.882 176.153 115.665C170.964 96.7909 165.8 77.9051 160.54 59.043C158.791 52.7477 163.861 48.0797 168.872 48.6736C172.56 49.1131 174.935 51.3224 175.975 54.862C177.228 59.1024 178.351 63.3903 179.533 67.6545C183.468 81.9317 187.392 96.197 191.339 110.474C192.072 113.099 193.266 114.145 195.44 114.145C197.863 114.145 199.612 112.22 199.045 109.857C197.804 104.797 196.409 99.7723 195.027 94.736C190.11 76.8598 185.182 58.9836 180.23 41.1074C179.45 38.2923 179.225 35.5723 181.164 33.1017C183.066 30.6548 185.596 29.4789 188.633 29.8828C191.812 30.3104 194.282 31.9139 195.204 35.2041C197.473 43.2573 199.671 51.3224 201.893 59.3756C206.325 75.4463 210.745 91.529 215.177 107.6C215.331 108.17 215.52 108.728 215.733 109.275C216.56 111.329 218.38 112.256 220.484 111.71C222.398 111.211 223.509 109.405 223.036 107.208C222.505 104.761 221.795 102.35 221.134 99.9267C215.945 81.1002 210.745 62.2738 205.581 43.4473C204.091 38.0072 206.727 33.7668 212.092 32.8404C215.614 32.2346 219.526 34.6933 220.72 38.4824C221.866 42.1408 222.835 45.8585 223.864 49.5526C228.851 67.5594 233.85 85.5782 238.778 103.597C239.039 104.535 239.027 105.676 238.778 106.626C236.178 116.116 233.366 125.547 230.884 135.061C229.477 140.454 226.405 144.279 221.642 146.856C218.876 148.341 216.087 149.778 213.263 151.132C204.375 155.373 196.965 161.525 190.713 169.056C184.804 176.159 180.029 184.01 176.673 192.669C176.164 194 175.656 195.342 176.59 196.755C177.429 198.026 178.564 198.668 180.041 198.62C181.554 198.572 182.747 197.931 183.433 196.446C185.241 192.527 186.836 188.464 188.987 184.735C196.279 172.144 206.337 162.487 219.585 156.287C222.989 154.696 226.216 152.676 229.347 150.586C233.897 147.545 236.687 143.186 238.128 137.888C240.646 128.636 243.187 119.383 245.799 110.154C248.21 101.685 253.469 95.9713 261.943 93.2394C265.429 92.1229 268.053 94.6291 267.722 98.0262C266.386 111.424 264.625 124.74 261.104 137.758C258.149 148.674 255.442 159.672 251.341 170.244C247.642 179.782 243.293 189.011 236.438 196.72C233.448 200.081 230.104 203.181 226.653 206.056C223.225 208.906 219.503 211.412 215.815 213.931C208.901 218.658 206.739 225.31 207.637 233.339C207.968 236.273 208.11 239.23 208.382 242.176C208.476 243.21 208.074 243.673 207.07 243.899C200.109 245.443 193.065 246.322 185.477 246.262L185.442 246.274Z" fill="url(#paint0_linear_5881_319646)"/>
<path d="M81.3326 246.476C76.3807 245.704 70.436 244.778 64.4913 243.863C63.605 243.72 63.4395 243.198 63.5104 242.39C63.8413 238.506 64.1722 234.634 64.4322 230.75C64.9286 223.302 61.6549 217.874 55.7339 213.586C50.0492 209.477 44.3173 205.343 39.1999 200.58C30.8561 192.812 25.4551 182.906 21.4604 172.323C14.4757 153.829 9.35837 134.788 6.26194 115.237C5.32829 109.31 4.86737 103.3 4.27644 97.3256C3.96917 94.2373 6.38013 92.2894 9.40564 93.1802C17.6785 95.627 23.3159 101.008 25.8333 109.275C28.5988 118.349 31.0806 127.519 33.4916 136.701C35.2762 143.483 38.8926 148.792 44.9791 152.249C48.5128 154.256 52.1647 156.062 55.7457 157.986C70.3178 165.849 80.4699 177.739 87.0409 192.859C87.5491 194.035 87.9746 195.247 88.5182 196.399C89.4164 198.311 91.461 199.107 93.4583 198.371C95.2547 197.706 96.2238 195.829 95.5856 193.81C94.9947 191.945 94.262 190.104 93.4465 188.322C85.2445 170.363 72.3151 157.131 54.3748 148.923C53.122 148.353 51.8811 147.771 50.6638 147.141C45.8182 144.671 42.6272 140.894 41.1854 135.549C38.5853 125.856 35.808 116.211 33.1725 106.531C32.9125 105.593 32.9361 104.452 33.1961 103.502C37.238 88.7022 41.339 73.9143 45.4282 59.1263C47.2483 52.5341 49.0801 45.9537 50.9002 39.3615C51.7038 36.4395 53.2638 34.2184 56.2657 33.2088C59.1967 32.2229 61.8086 32.8287 64.0777 34.7885C66.3823 36.7721 67.375 39.3734 66.6068 42.3547C65.035 48.4481 63.3213 54.5177 61.6549 60.5873C57.4476 75.9098 53.2402 91.2322 49.021 106.555C48.5601 108.218 48.5483 109.774 50.0492 110.985C52.2711 112.779 55.3912 111.935 56.2066 109.156C57.8494 103.585 59.3621 97.9907 60.8985 92.3844C66.0159 73.843 71.1451 55.3135 76.2034 36.7603C77.2316 32.9712 79.2762 30.4531 83.2826 29.8354C88.3291 29.0515 93.2101 33.7908 92.111 38.7676C90.8228 44.5759 89.1328 50.2892 87.5609 56.0262C82.7744 73.4867 77.9525 90.9353 73.1779 108.396C72.9179 109.358 72.7406 110.451 72.9061 111.425C73.1779 113.016 74.7025 114.073 76.3452 114.121C78.3307 114.18 79.6898 113.361 80.2335 111.46C82.1717 104.702 84.039 97.9195 85.9063 91.1372C89.1564 79.3781 92.4065 67.619 95.6093 55.848C96.5547 52.3678 98.422 49.814 102.038 48.8638C107.392 47.4503 112.805 52.3084 111.564 57.7128C110.063 64.2338 108.172 70.6479 106.399 77.0975C101.802 93.8929 97.1693 110.676 92.5719 127.472C92.1819 128.897 92.0756 130.299 93.2338 131.486C95.3256 133.613 98.753 133.007 99.6866 130.156C101.034 125.999 102.133 121.747 103.291 117.53C107.345 102.837 111.41 88.1321 115.417 73.4273C116.433 69.6857 118.454 67.0489 122.449 66.3956C127.862 65.5047 132.648 70.3747 131.348 75.7078C129.67 82.5851 127.673 89.3912 125.794 96.2209C122.957 106.567 120.109 116.9 117.249 127.234C115.003 135.323 115.949 142.984 120.475 150.052C125.959 158.627 129.564 167.856 131.159 177.953C132.979 189.522 132.116 200.758 128.405 211.9C126.065 218.931 124.375 226.189 122.461 233.363C122.106 234.693 121.492 235.584 120.298 236.321C111.576 241.701 102.086 244.706 91.9455 245.728C88.7782 246.049 85.5991 246.191 81.3444 246.488L81.3326 246.476Z" fill="url(#paint1_linear_5881_319646)"/>
<defs>
<linearGradient id="paint0_linear_5881_319646" x1="203.77" y1="29.8047" x2="203.77" y2="246.274" gradientUnits="userSpaceOnUse">
<stop stop-color="#3096A3"/>
<stop offset="1" stop-color="#64A445"/>
</linearGradient>
<linearGradient id="paint1_linear_5881_319646" x1="68.1644" y1="29.75" x2="68.1644" y2="246.488" gradientUnits="userSpaceOnUse">
<stop stop-color="#3096A3"/>
<stop offset="1" stop-color="#64A445"/>
</linearGradient>
</defs>
</svg>
